M48
; DRILL file {KiCad 8.0.8} date 2025-02-05T17:12:40-0500
; FORMAT={-:-/ absolute / metric / decimal}
; #@! TF.CreationDate,2025-02-05T17:12:40-05:00
; #@! TF.GenerationSoftware,Kicad,Pcbnew,8.0.8
; #@! TF.FileFunction,MixedPlating,1,2
FMAT,2
METRIC
; #@! TA.AperFunction,Plated,PTH,ViaDrill
T1C0.300
; #@! TA.AperFunction,Plated,PTH,ComponentDrill
T2C0.650
; #@! TA.AperFunction,Plated,PTH,ComponentDrill
T3C0.700
; #@! TA.AperFunction,Plated,PTH,ComponentDrill
T4C0.750
; #@! TA.AperFunction,Plated,PTH,ComponentDrill
T5C0.800
; #@! TA.AperFunction,Plated,PTH,ComponentDrill
T6C0.900
; #@! TA.AperFunction,Plated,PTH,ComponentDrill
T7C0.991
; #@! TA.AperFunction,Plated,PTH,ComponentDrill
T8C1.000
; #@! TA.AperFunction,Plated,PTH,ComponentDrill
T9C1.100
; #@! TA.AperFunction,Plated,PTH,ComponentDrill
T10C1.900
; #@! TA.AperFunction,NonPlated,NPTH,ComponentDrill
T11C1.150
; #@! TA.AperFunction,NonPlated,NPTH,ComponentDrill
T12C3.200
%
G90
G05
T1
X106.2Y-121.0
X106.3Y-109.0
X109.15Y-123.9
X109.9Y-114.1
X114.0Y-118.5
X114.19Y-126.41
X115.8Y-127.1
X116.225Y-79.7
X116.225Y-84.55
X118.45Y-121.45
X118.45Y-123.55
X119.0Y-82.125
X119.6Y-130.9
X120.6Y-117.0
X121.775Y-79.7
X121.775Y-84.55
X122.9Y-129.3
X123.072Y-119.967
X123.1Y-124.8
X123.1Y-127.8
X123.6Y-118.2
X123.6Y-128.9
X124.2Y-119.9
X126.0Y-120.8
X127.5Y-118.9
X127.99Y-131.7
X128.2Y-88.3
X128.4Y-127.7
X128.847Y-127.036
X129.5Y-118.05
X129.9Y-116.5
X130.3Y-102.2
X130.7Y-119.3
X130.9Y-132.2
X131.7Y-131.1
X132.0Y-84.0
X132.125Y-100.625
X132.25Y-103.5
X132.6Y-126.4
X132.75Y-123.75
X133.75Y-116.8
X134.0Y-84.0
X134.2Y-98.2
X134.2Y-101.6
X136.3Y-117.8
X136.9Y-122.0
X137.0Y-123.0
X141.0Y-125.0
T2
X137.33Y-127.27
X137.33Y-128.54
X137.33Y-129.81
X137.33Y-131.08
X137.33Y-132.35
X138.6Y-127.27
X138.6Y-128.54
X138.6Y-129.81
X138.6Y-131.08
X138.6Y-132.35
T3
X140.2Y-79.5
X140.2Y-87.12
X140.2Y-89.5
X140.2Y-97.12
X143.0Y-105.88
X143.0Y-113.5
X143.08Y-79.81
X143.08Y-96.81
X150.7Y-79.81
X150.7Y-96.81
T4
X107.0Y-126.3
X108.5Y-130.0
X110.0Y-126.3
X111.5Y-130.0
T5
X106.9Y-80.6
X110.4Y-80.6
X150.0Y-122.25
X150.0Y-124.75
T6
X147.16Y-84.61
X147.16Y-91.81
X148.4Y-109.15
X148.4Y-111.69
X149.7Y-84.61
X149.7Y-91.81
T7
X138.88Y-116.585
X138.88Y-119.125
X138.88Y-121.665
X138.88Y-124.205
X146.5Y-116.585
X146.5Y-119.125
X146.5Y-121.665
X146.5Y-124.205
T8
X98.175Y-87.0
X98.175Y-98.0
X135.3Y-111.7
X135.3Y-114.24
X142.6Y-129.035
X142.6Y-131.575
T9
X122.19Y-97.0
X129.81Y-97.0
T10
X108.175Y-90.0
X108.175Y-95.0
T11
X105.45Y-128.15
X113.05Y-128.15
T12
X100.0Y-80.0
X100.0Y-130.0
X133.0Y-80.0
X148.0Y-130.0
M30
