%TF.GenerationSoftware,KiCad,Pcbnew,8.0.8*%
%TF.CreationDate,2025-02-05T17:12:45-05:00*%
%TF.ProjectId,Spectrometer V1.0,53706563-7472-46f6-9d65-746572205631,rev?*%
%TF.SameCoordinates,Original*%
%TF.FileFunction,Soldermask,Bot*%
%TF.FilePolarity,Negative*%
%FSLAX46Y46*%
G04 Gerber Fmt 4.6, Leading zero omitted, Abs format (unit mm)*
G04 Created by KiCad (PCBNEW 8.0.8) date 2025-02-05 17:12:45*
%MOMM*%
%LPD*%
G01*
G04 APERTURE LIST*
G04 Aperture macros list*
%AMRoundRect*
0 Rectangle with rounded corners*
0 $1 Rounding radius*
0 $2 $3 $4 $5 $6 $7 $8 $9 X,Y pos of 4 corners*
0 Add a 4 corners polygon primitive as box body*
4,1,4,$2,$3,$4,$5,$6,$7,$8,$9,$2,$3,0*
0 Add four circle primitives for the rounded corners*
1,1,$1+$1,$2,$3*
1,1,$1+$1,$4,$5*
1,1,$1+$1,$6,$7*
1,1,$1+$1,$8,$9*
0 Add four rect primitives between the rounded corners*
20,1,$1+$1,$2,$3,$4,$5,0*
20,1,$1+$1,$4,$5,$6,$7,0*
20,1,$1+$1,$6,$7,$8,$9,0*
20,1,$1+$1,$8,$9,$2,$3,0*%
G04 Aperture macros list end*
%ADD10C,1.600000*%
%ADD11C,3.200000*%
%ADD12C,1.400000*%
%ADD13R,3.500000X3.500000*%
%ADD14C,3.500000*%
%ADD15R,1.800000X1.800000*%
%ADD16C,1.800000*%
%ADD17O,1.400000X1.400000*%
%ADD18R,1.000000X1.000000*%
%ADD19O,1.000000X1.000000*%
%ADD20C,1.507998*%
%ADD21C,1.150000*%
%ADD22RoundRect,0.249999X-0.450001X-0.625001X0.450001X-0.625001X0.450001X0.625001X-0.450001X0.625001X0*%
%ADD23O,1.400000X1.750000*%
%ADD24R,2.200000X2.200000*%
%ADD25O,2.200000X2.200000*%
%ADD26R,1.700000X1.700000*%
%ADD27O,1.700000X1.700000*%
G04 APERTURE END LIST*
D10*
%TO.C,C14*%
X110400000Y-80600000D03*
X106900000Y-80600000D03*
%TD*%
D11*
%TO.C,H3*%
X100000000Y-130000000D03*
%TD*%
D12*
%TO.C,J7*%
X98175000Y-98000000D03*
X98175000Y-87000000D03*
D13*
X108175000Y-90000000D03*
D14*
X108175000Y-95000000D03*
%TD*%
D15*
%TO.C,D6*%
X149700000Y-91810000D03*
D16*
X147160000Y-91810000D03*
%TD*%
D15*
%TO.C,D1*%
X148400000Y-109150000D03*
D16*
X148400000Y-111690000D03*
%TD*%
D12*
%TO.C,R7*%
X140200000Y-87120000D03*
D17*
X140200000Y-79500000D03*
%TD*%
D12*
%TO.C,R3*%
X150700000Y-79810000D03*
D17*
X143080000Y-79810000D03*
%TD*%
D11*
%TO.C,H4*%
X148000000Y-130000000D03*
%TD*%
D18*
%TO.C,J3*%
X138600000Y-132350000D03*
D19*
X137330000Y-132350000D03*
X138600000Y-131080000D03*
X137330000Y-131080000D03*
X138600000Y-129810000D03*
X137330000Y-129810000D03*
X138600000Y-128540000D03*
X137330000Y-128540000D03*
X138600000Y-127270000D03*
X137330000Y-127270000D03*
%TD*%
D20*
%TO.C,U1*%
X146500100Y-124205100D03*
X146500100Y-121665100D03*
X146500100Y-119125100D03*
X146500100Y-116585100D03*
X138880100Y-124205100D03*
X138880100Y-121665100D03*
X138880100Y-119125100D03*
X138880100Y-116585100D03*
%TD*%
D21*
%TO.C,J6*%
X105450000Y-128150000D03*
X113050000Y-128150000D03*
D22*
X107000000Y-126300000D03*
D23*
X108500000Y-130000000D03*
X110000000Y-126300000D03*
X111500000Y-130000000D03*
%TD*%
D15*
%TO.C,D2*%
X149700000Y-84610000D03*
D16*
X147160000Y-84610000D03*
%TD*%
D12*
%TO.C,R8*%
X150700000Y-96810000D03*
D17*
X143080000Y-96810000D03*
%TD*%
D11*
%TO.C,H2*%
X133000000Y-80000000D03*
%TD*%
D10*
%TO.C,C1*%
X150000000Y-122250000D03*
X150000000Y-124750000D03*
%TD*%
D24*
%TO.C,D3*%
X122190000Y-97000000D03*
D25*
X129810000Y-97000000D03*
%TD*%
D26*
%TO.C,J1*%
X135300000Y-114240000D03*
D27*
X135300000Y-111700000D03*
%TD*%
D11*
%TO.C,H1*%
X100000000Y-80000000D03*
%TD*%
D12*
%TO.C,R6*%
X140200000Y-97120000D03*
D17*
X140200000Y-89500000D03*
%TD*%
D26*
%TO.C,J2*%
X142600000Y-131575000D03*
D27*
X142600000Y-129035000D03*
%TD*%
D12*
%TO.C,R1*%
X143000000Y-105880000D03*
D17*
X143000000Y-113500000D03*
%TD*%
M02*
