%TF.GenerationSoftware,KiCad,Pcbnew,8.0.8*%
%TF.CreationDate,2025-02-05T17:12:45-05:00*%
%TF.ProjectId,Spectrometer V1.0,53706563-7472-46f6-9d65-746572205631,rev?*%
%TF.SameCoordinates,Original*%
%TF.FileFunction,Paste,Top*%
%TF.FilePolarity,Positive*%
%FSLAX46Y46*%
G04 Gerber Fmt 4.6, Leading zero omitted, Abs format (unit mm)*
G04 Created by KiCad (PCBNEW 8.0.8) date 2025-02-05 17:12:45*
%MOMM*%
%LPD*%
G01*
G04 APERTURE LIST*
G04 Aperture macros list*
%AMRoundRect*
0 Rectangle with rounded corners*
0 $1 Rounding radius*
0 $2 $3 $4 $5 $6 $7 $8 $9 X,Y pos of 4 corners*
0 Add a 4 corners polygon primitive as box body*
4,1,4,$2,$3,$4,$5,$6,$7,$8,$9,$2,$3,0*
0 Add four circle primitives for the rounded corners*
1,1,$1+$1,$2,$3*
1,1,$1+$1,$4,$5*
1,1,$1+$1,$6,$7*
1,1,$1+$1,$8,$9*
0 Add four rect primitives between the rounded corners*
20,1,$1+$1,$2,$3,$4,$5,0*
20,1,$1+$1,$4,$5,$6,$7,0*
20,1,$1+$1,$6,$7,$8,$9,0*
20,1,$1+$1,$8,$9,$2,$3,0*%
G04 Aperture macros list end*
%ADD10RoundRect,0.250000X-0.325000X-1.100000X0.325000X-1.100000X0.325000X1.100000X-0.325000X1.100000X0*%
%ADD11RoundRect,0.250000X-0.475000X0.250000X-0.475000X-0.250000X0.475000X-0.250000X0.475000X0.250000X0*%
%ADD12RoundRect,0.135000X-0.185000X0.135000X-0.185000X-0.135000X0.185000X-0.135000X0.185000X0.135000X0*%
%ADD13RoundRect,0.218750X-0.218750X-0.256250X0.218750X-0.256250X0.218750X0.256250X-0.218750X0.256250X0*%
%ADD14RoundRect,0.135000X-0.035355X0.226274X-0.226274X0.035355X0.035355X-0.226274X0.226274X-0.035355X0*%
%ADD15RoundRect,0.218750X-0.026517X0.335876X-0.335876X0.026517X0.026517X-0.335876X0.335876X-0.026517X0*%
%ADD16RoundRect,0.140000X0.140000X0.170000X-0.140000X0.170000X-0.140000X-0.170000X0.140000X-0.170000X0*%
%ADD17RoundRect,0.075000X-0.075000X0.662500X-0.075000X-0.662500X0.075000X-0.662500X0.075000X0.662500X0*%
%ADD18RoundRect,0.075000X-0.662500X0.075000X-0.662500X-0.075000X0.662500X-0.075000X0.662500X0.075000X0*%
%ADD19R,1.600000X7.350000*%
%ADD20RoundRect,0.150000X0.150000X-0.825000X0.150000X0.825000X-0.150000X0.825000X-0.150000X-0.825000X0*%
%ADD21RoundRect,0.250000X-1.500000X0.250000X-1.500000X-0.250000X1.500000X-0.250000X1.500000X0.250000X0*%
%ADD22RoundRect,0.250001X-1.449999X0.499999X-1.449999X-0.499999X1.449999X-0.499999X1.449999X0.499999X0*%
%ADD23RoundRect,0.135000X-0.135000X-0.185000X0.135000X-0.185000X0.135000X0.185000X-0.135000X0.185000X0*%
%ADD24RoundRect,0.225000X0.250000X-0.225000X0.250000X0.225000X-0.250000X0.225000X-0.250000X-0.225000X0*%
%ADD25RoundRect,0.250000X-0.250000X-0.475000X0.250000X-0.475000X0.250000X0.475000X-0.250000X0.475000X0*%
%ADD26RoundRect,0.135000X0.185000X-0.135000X0.185000X0.135000X-0.185000X0.135000X-0.185000X-0.135000X0*%
%ADD27RoundRect,0.140000X-0.170000X0.140000X-0.170000X-0.140000X0.170000X-0.140000X0.170000X0.140000X0*%
%ADD28RoundRect,0.218750X0.218750X0.256250X-0.218750X0.256250X-0.218750X-0.256250X0.218750X-0.256250X0*%
%ADD29R,5.511800X3.860800*%
%ADD30RoundRect,0.250000X0.300000X-2.050000X0.300000X2.050000X-0.300000X2.050000X-0.300000X-2.050000X0*%
%ADD31RoundRect,0.250000X2.375000X-2.025000X2.375000X2.025000X-2.375000X2.025000X-2.375000X-2.025000X0*%
%ADD32RoundRect,0.375000X-0.375000X0.625000X-0.375000X-0.625000X0.375000X-0.625000X0.375000X0.625000X0*%
%ADD33RoundRect,0.500000X-1.400000X0.500000X-1.400000X-0.500000X1.400000X-0.500000X1.400000X0.500000X0*%
%ADD34RoundRect,0.250000X0.475000X-0.250000X0.475000X0.250000X-0.475000X0.250000X-0.475000X-0.250000X0*%
%ADD35RoundRect,0.218750X-0.256250X0.218750X-0.256250X-0.218750X0.256250X-0.218750X0.256250X0.218750X0*%
%ADD36RoundRect,0.140000X0.170000X-0.140000X0.170000X0.140000X-0.170000X0.140000X-0.170000X-0.140000X0*%
G04 APERTURE END LIST*
D10*
%TO.C,C15*%
X126025000Y-102200000D03*
X128975000Y-102200000D03*
%TD*%
D11*
%TO.C,C16*%
X131300000Y-114650000D03*
X131300000Y-116550000D03*
%TD*%
D12*
%TO.C,R10*%
X122900000Y-129990000D03*
X122900000Y-131010000D03*
%TD*%
D13*
%TO.C,D8*%
X124312500Y-130500000D03*
X125887500Y-130500000D03*
%TD*%
D14*
%TO.C,R9*%
X124960624Y-116839376D03*
X124239376Y-117560624D03*
%TD*%
D15*
%TO.C,D7*%
X124943153Y-118756847D03*
X126056847Y-117643153D03*
%TD*%
D16*
%TO.C,C4*%
X129460000Y-118940000D03*
X128500000Y-118940000D03*
%TD*%
D17*
%TO.C,U2*%
X132730000Y-120837500D03*
X132230000Y-120837500D03*
X131730000Y-120837500D03*
X131230000Y-120837500D03*
X130730000Y-120837500D03*
X130230000Y-120837500D03*
X129730000Y-120837500D03*
X129230000Y-120837500D03*
X128730000Y-120837500D03*
X128230000Y-120837500D03*
X127730000Y-120837500D03*
X127230000Y-120837500D03*
D18*
X125817500Y-122250000D03*
X125817500Y-122750000D03*
X125817500Y-123250000D03*
X125817500Y-123750000D03*
X125817500Y-124250000D03*
X125817500Y-124750000D03*
X125817500Y-125250000D03*
X125817500Y-125750000D03*
X125817500Y-126250000D03*
X125817500Y-126750000D03*
X125817500Y-127250000D03*
X125817500Y-127750000D03*
D17*
X127230000Y-129162500D03*
X127730000Y-129162500D03*
X128230000Y-129162500D03*
X128730000Y-129162500D03*
X129230000Y-129162500D03*
X129730000Y-129162500D03*
X130230000Y-129162500D03*
X130730000Y-129162500D03*
X131230000Y-129162500D03*
X131730000Y-129162500D03*
X132230000Y-129162500D03*
X132730000Y-129162500D03*
D18*
X134142500Y-127750000D03*
X134142500Y-127250000D03*
X134142500Y-126750000D03*
X134142500Y-126250000D03*
X134142500Y-125750000D03*
X134142500Y-125250000D03*
X134142500Y-124750000D03*
X134142500Y-124250000D03*
X134142500Y-123750000D03*
X134142500Y-123250000D03*
X134142500Y-122750000D03*
X134142500Y-122250000D03*
%TD*%
D19*
%TO.C,L2*%
X126000000Y-109000000D03*
X131000000Y-109000000D03*
%TD*%
D16*
%TO.C,C6*%
X133480000Y-131120000D03*
X132520000Y-131120000D03*
%TD*%
D20*
%TO.C,U3*%
X108500000Y-122000000D03*
X109770000Y-122000000D03*
X111040000Y-122000000D03*
X112310000Y-122000000D03*
X112310000Y-117050000D03*
X111040000Y-117050000D03*
X109770000Y-117050000D03*
X108500000Y-117050000D03*
%TD*%
D21*
%TO.C,J4*%
X103850000Y-105000000D03*
X103850000Y-107000000D03*
X103850000Y-109000000D03*
D22*
X98100000Y-102650000D03*
X98100000Y-111350000D03*
%TD*%
D23*
%TO.C,R2*%
X135870000Y-123800000D03*
X136890000Y-123800000D03*
%TD*%
D24*
%TO.C,C2*%
X135000000Y-119375000D03*
X135000000Y-117825000D03*
%TD*%
D25*
%TO.C,C17*%
X117450000Y-117000000D03*
X119350000Y-117000000D03*
%TD*%
D26*
%TO.C,R4*%
X134000000Y-85972500D03*
X134000000Y-84952500D03*
%TD*%
D27*
%TO.C,C10*%
X121733750Y-130000000D03*
X121733750Y-130960000D03*
%TD*%
D28*
%TO.C,FB1*%
X121921250Y-128400000D03*
X120346250Y-128400000D03*
%TD*%
D29*
%TO.C,L1*%
X116500000Y-102021600D03*
X116500000Y-111978400D03*
%TD*%
D30*
%TO.C,U4*%
X115600000Y-91275000D03*
X117300000Y-91275000D03*
X119000000Y-91275000D03*
X120700000Y-91275000D03*
X122400000Y-91275000D03*
D31*
X116225000Y-84550000D03*
X121775000Y-84550000D03*
X116225000Y-79700000D03*
X121775000Y-79700000D03*
%TD*%
D32*
%TO.C,U5*%
X120750000Y-119650000D03*
X118450000Y-119650000D03*
D33*
X118450000Y-125950000D03*
D32*
X116150000Y-119650000D03*
%TD*%
D16*
%TO.C,C5*%
X132680000Y-118920000D03*
X131720000Y-118920000D03*
%TD*%
D27*
%TO.C,C11*%
X120533750Y-130000000D03*
X120533750Y-130960000D03*
%TD*%
%TO.C,C9*%
X124000000Y-126840000D03*
X124000000Y-127800000D03*
%TD*%
D34*
%TO.C,C18*%
X123450000Y-123200000D03*
X123450000Y-121300000D03*
%TD*%
D16*
%TO.C,C8*%
X125480000Y-128920000D03*
X124520000Y-128920000D03*
%TD*%
D35*
%TO.C,D4*%
X134000000Y-87675000D03*
X134000000Y-89250000D03*
%TD*%
D26*
%TO.C,R5*%
X132000000Y-85982500D03*
X132000000Y-84962500D03*
%TD*%
D16*
%TO.C,C12*%
X110885000Y-124125000D03*
X109925000Y-124125000D03*
%TD*%
D27*
%TO.C,C3*%
X135980000Y-121640000D03*
X135980000Y-122600000D03*
%TD*%
D35*
%TO.C,D5*%
X132000000Y-87695000D03*
X132000000Y-89270000D03*
%TD*%
D36*
%TO.C,C7*%
X124000000Y-125800000D03*
X124000000Y-124840000D03*
%TD*%
D16*
%TO.C,C13*%
X110885000Y-114925000D03*
X109925000Y-114925000D03*
%TD*%
D21*
%TO.C,J5*%
X103850000Y-117000000D03*
X103850000Y-119000000D03*
X103850000Y-121000000D03*
D22*
X98100000Y-114650000D03*
X98100000Y-123350000D03*
%TD*%
M02*
