%TF.GenerationSoftware,KiCad,Pcbnew,8.0.8*%
%TF.CreationDate,2025-02-05T17:12:45-05:00*%
%TF.ProjectId,Spectrometer V1.0,53706563-7472-46f6-9d65-746572205631,rev?*%
%TF.SameCoordinates,Original*%
%TF.FileFunction,Legend,Top*%
%TF.FilePolarity,Positive*%
%FSLAX46Y46*%
G04 Gerber Fmt 4.6, Leading zero omitted, Abs format (unit mm)*
G04 Created by KiCad (PCBNEW 8.0.8) date 2025-02-05 17:12:45*
%MOMM*%
%LPD*%
G01*
G04 APERTURE LIST*
%ADD10C,0.200000*%
%ADD11C,0.300000*%
%ADD12C,0.150000*%
%ADD13C,0.120000*%
%ADD14C,0.250000*%
%ADD15C,0.152400*%
%ADD16C,0.508000*%
G04 APERTURE END LIST*
D10*
X127493482Y-84714838D02*
X127398244Y-84667219D01*
X127398244Y-84667219D02*
X127255387Y-84667219D01*
X127255387Y-84667219D02*
X127112530Y-84714838D01*
X127112530Y-84714838D02*
X127017292Y-84810076D01*
X127017292Y-84810076D02*
X126969673Y-84905314D01*
X126969673Y-84905314D02*
X126922054Y-85095790D01*
X126922054Y-85095790D02*
X126922054Y-85238647D01*
X126922054Y-85238647D02*
X126969673Y-85429123D01*
X126969673Y-85429123D02*
X127017292Y-85524361D01*
X127017292Y-85524361D02*
X127112530Y-85619600D01*
X127112530Y-85619600D02*
X127255387Y-85667219D01*
X127255387Y-85667219D02*
X127350625Y-85667219D01*
X127350625Y-85667219D02*
X127493482Y-85619600D01*
X127493482Y-85619600D02*
X127541101Y-85571980D01*
X127541101Y-85571980D02*
X127541101Y-85238647D01*
X127541101Y-85238647D02*
X127350625Y-85238647D01*
X127969673Y-85667219D02*
X127969673Y-84667219D01*
X127969673Y-84667219D02*
X128541101Y-85667219D01*
X128541101Y-85667219D02*
X128541101Y-84667219D01*
X129017292Y-85667219D02*
X129017292Y-84667219D01*
X129017292Y-84667219D02*
X129255387Y-84667219D01*
X129255387Y-84667219D02*
X129398244Y-84714838D01*
X129398244Y-84714838D02*
X129493482Y-84810076D01*
X129493482Y-84810076D02*
X129541101Y-84905314D01*
X129541101Y-84905314D02*
X129588720Y-85095790D01*
X129588720Y-85095790D02*
X129588720Y-85238647D01*
X129588720Y-85238647D02*
X129541101Y-85429123D01*
X129541101Y-85429123D02*
X129493482Y-85524361D01*
X129493482Y-85524361D02*
X129398244Y-85619600D01*
X129398244Y-85619600D02*
X129255387Y-85667219D01*
X129255387Y-85667219D02*
X129017292Y-85667219D01*
X139660149Y-113467219D02*
X139850625Y-113467219D01*
X139850625Y-113467219D02*
X139945863Y-113514838D01*
X139945863Y-113514838D02*
X140041101Y-113610076D01*
X140041101Y-113610076D02*
X140088720Y-113800552D01*
X140088720Y-113800552D02*
X140088720Y-114133885D01*
X140088720Y-114133885D02*
X140041101Y-114324361D01*
X140041101Y-114324361D02*
X139945863Y-114419600D01*
X139945863Y-114419600D02*
X139850625Y-114467219D01*
X139850625Y-114467219D02*
X139660149Y-114467219D01*
X139660149Y-114467219D02*
X139564911Y-114419600D01*
X139564911Y-114419600D02*
X139469673Y-114324361D01*
X139469673Y-114324361D02*
X139422054Y-114133885D01*
X139422054Y-114133885D02*
X139422054Y-113800552D01*
X139422054Y-113800552D02*
X139469673Y-113610076D01*
X139469673Y-113610076D02*
X139564911Y-113514838D01*
X139564911Y-113514838D02*
X139660149Y-113467219D01*
X140945863Y-113800552D02*
X140945863Y-114467219D01*
X140517292Y-113800552D02*
X140517292Y-114324361D01*
X140517292Y-114324361D02*
X140564911Y-114419600D01*
X140564911Y-114419600D02*
X140660149Y-114467219D01*
X140660149Y-114467219D02*
X140803006Y-114467219D01*
X140803006Y-114467219D02*
X140898244Y-114419600D01*
X140898244Y-114419600D02*
X140945863Y-114371980D01*
X141279197Y-113800552D02*
X141660149Y-113800552D01*
X141422054Y-113467219D02*
X141422054Y-114324361D01*
X141422054Y-114324361D02*
X141469673Y-114419600D01*
X141469673Y-114419600D02*
X141564911Y-114467219D01*
X141564911Y-114467219D02*
X141660149Y-114467219D01*
X133845863Y-90767219D02*
X133369673Y-90767219D01*
X133369673Y-90767219D02*
X133322054Y-91243409D01*
X133322054Y-91243409D02*
X133369673Y-91195790D01*
X133369673Y-91195790D02*
X133464911Y-91148171D01*
X133464911Y-91148171D02*
X133703006Y-91148171D01*
X133703006Y-91148171D02*
X133798244Y-91195790D01*
X133798244Y-91195790D02*
X133845863Y-91243409D01*
X133845863Y-91243409D02*
X133893482Y-91338647D01*
X133893482Y-91338647D02*
X133893482Y-91576742D01*
X133893482Y-91576742D02*
X133845863Y-91671980D01*
X133845863Y-91671980D02*
X133798244Y-91719600D01*
X133798244Y-91719600D02*
X133703006Y-91767219D01*
X133703006Y-91767219D02*
X133464911Y-91767219D01*
X133464911Y-91767219D02*
X133369673Y-91719600D01*
X133369673Y-91719600D02*
X133322054Y-91671980D01*
X134179197Y-90767219D02*
X134512530Y-91767219D01*
X134512530Y-91767219D02*
X134845863Y-90767219D01*
X131274435Y-90767219D02*
X131893482Y-90767219D01*
X131893482Y-90767219D02*
X131560149Y-91148171D01*
X131560149Y-91148171D02*
X131703006Y-91148171D01*
X131703006Y-91148171D02*
X131798244Y-91195790D01*
X131798244Y-91195790D02*
X131845863Y-91243409D01*
X131845863Y-91243409D02*
X131893482Y-91338647D01*
X131893482Y-91338647D02*
X131893482Y-91576742D01*
X131893482Y-91576742D02*
X131845863Y-91671980D01*
X131845863Y-91671980D02*
X131798244Y-91719600D01*
X131798244Y-91719600D02*
X131703006Y-91767219D01*
X131703006Y-91767219D02*
X131417292Y-91767219D01*
X131417292Y-91767219D02*
X131322054Y-91719600D01*
X131322054Y-91719600D02*
X131274435Y-91671980D01*
X132179197Y-90767219D02*
X132512530Y-91767219D01*
X132512530Y-91767219D02*
X132845863Y-90767219D01*
D11*
G36*
X144405573Y-92879415D02*
G01*
X144454097Y-92918773D01*
X144504114Y-92999912D01*
X144504114Y-93123446D01*
X144454097Y-93204585D01*
X144405575Y-93243941D01*
X144281996Y-93294060D01*
X143826230Y-93294060D01*
X143702651Y-93243941D01*
X143654131Y-93204585D01*
X143604114Y-93123446D01*
X143604114Y-92999912D01*
X143654131Y-92918772D01*
X143702653Y-92879415D01*
X143826230Y-92829298D01*
X144281996Y-92829298D01*
X144405573Y-92879415D01*
G37*
G36*
X143862635Y-88496917D02*
G01*
X143740516Y-88496917D01*
X143641733Y-88456854D01*
X143604114Y-88395827D01*
X143604114Y-88202769D01*
X143641734Y-88141740D01*
X143740516Y-88101679D01*
X143765179Y-88101679D01*
X143862635Y-88496917D01*
G37*
G36*
X144182078Y-83090204D02*
G01*
X144319861Y-83146082D01*
X144444199Y-83246934D01*
X144504114Y-83392727D01*
X144504114Y-83560726D01*
X143004114Y-83560726D01*
X143004114Y-83392727D01*
X143064028Y-83246933D01*
X143188366Y-83146082D01*
X143326149Y-83090204D01*
X143640597Y-83026441D01*
X143867630Y-83026441D01*
X144182078Y-83090204D01*
G37*
G36*
X145004114Y-95184536D02*
G01*
X142504114Y-95184536D01*
X142504114Y-94208822D01*
X142704114Y-94208822D01*
X142704114Y-94556441D01*
X142706996Y-94585705D01*
X142711606Y-94596834D01*
X142713522Y-94608729D01*
X142726425Y-94635153D01*
X142812139Y-94774201D01*
X142822599Y-94787943D01*
X142824425Y-94791313D01*
X142827408Y-94794262D01*
X142829949Y-94797600D01*
X142833054Y-94799843D01*
X142845337Y-94811986D01*
X142931051Y-94881509D01*
X142940473Y-94887726D01*
X142943133Y-94890347D01*
X142949550Y-94893716D01*
X142955595Y-94897705D01*
X142959170Y-94898767D01*
X142969168Y-94904016D01*
X143140598Y-94973540D01*
X143166784Y-94981271D01*
X143167707Y-94981654D01*
X143168264Y-94981708D01*
X143168800Y-94981867D01*
X143169794Y-94981859D01*
X143196971Y-94984536D01*
X143368400Y-94984536D01*
X143395576Y-94981859D01*
X143396572Y-94981867D01*
X143397107Y-94981708D01*
X143397664Y-94981654D01*
X143398583Y-94981272D01*
X143424774Y-94973540D01*
X143596202Y-94904015D01*
X143606194Y-94898769D01*
X143609776Y-94897705D01*
X143615827Y-94893711D01*
X143622238Y-94890346D01*
X143624895Y-94887727D01*
X143634319Y-94881509D01*
X143720033Y-94811985D01*
X143732314Y-94799844D01*
X143735421Y-94797600D01*
X143737961Y-94794262D01*
X143740945Y-94791313D01*
X143742771Y-94787943D01*
X143753230Y-94774202D01*
X143838945Y-94635154D01*
X143841611Y-94629692D01*
X143843229Y-94627740D01*
X143847271Y-94618102D01*
X143851848Y-94608730D01*
X143852250Y-94606231D01*
X143854603Y-94600623D01*
X143934687Y-94340790D01*
X143996988Y-94239725D01*
X144045509Y-94200368D01*
X144169087Y-94150251D01*
X144281998Y-94150251D01*
X144405573Y-94200367D01*
X144454097Y-94239725D01*
X144504114Y-94320864D01*
X144504114Y-94596344D01*
X144429659Y-94777519D01*
X144421201Y-94805682D01*
X144421364Y-94864209D01*
X144443912Y-94918218D01*
X144485411Y-94959488D01*
X144539546Y-94981735D01*
X144598073Y-94981572D01*
X144652082Y-94959024D01*
X144693352Y-94917525D01*
X144707141Y-94891553D01*
X144792855Y-94682982D01*
X144801078Y-94655598D01*
X144801232Y-94655229D01*
X144801252Y-94655020D01*
X144801313Y-94654819D01*
X144801311Y-94654417D01*
X144804114Y-94625965D01*
X144804114Y-94278346D01*
X144801232Y-94249082D01*
X144796621Y-94237952D01*
X144794706Y-94226058D01*
X144781803Y-94199634D01*
X144696089Y-94060586D01*
X144685629Y-94046843D01*
X144683803Y-94043474D01*
X144680819Y-94040524D01*
X144678279Y-94037187D01*
X144675172Y-94034942D01*
X144662891Y-94022802D01*
X144577176Y-93953277D01*
X144567752Y-93947058D01*
X144565094Y-93944439D01*
X144558681Y-93941072D01*
X144552633Y-93937081D01*
X144549053Y-93936017D01*
X144539058Y-93930770D01*
X144367630Y-93861247D01*
X144341443Y-93853515D01*
X144340521Y-93853133D01*
X144339963Y-93853078D01*
X144339428Y-93852920D01*
X144338433Y-93852927D01*
X144311257Y-93850251D01*
X144139828Y-93850251D01*
X144112651Y-93852927D01*
X144111656Y-93852920D01*
X144111120Y-93853078D01*
X144110564Y-93853133D01*
X144109643Y-93853514D01*
X144083455Y-93861247D01*
X143912027Y-93930770D01*
X143902031Y-93936017D01*
X143898452Y-93937081D01*
X143892403Y-93941072D01*
X143885991Y-93944439D01*
X143883332Y-93947058D01*
X143873909Y-93953277D01*
X143788194Y-94022801D01*
X143775911Y-94034943D01*
X143772806Y-94037187D01*
X143770265Y-94040524D01*
X143767282Y-94043474D01*
X143765455Y-94046843D01*
X143754996Y-94060586D01*
X143669282Y-94199634D01*
X143666615Y-94205095D01*
X143664999Y-94207047D01*
X143660959Y-94216677D01*
X143656379Y-94226058D01*
X143655976Y-94228558D01*
X143653625Y-94234164D01*
X143573539Y-94493997D01*
X143511240Y-94595060D01*
X143462716Y-94634418D01*
X143339139Y-94684536D01*
X143226230Y-94684536D01*
X143102651Y-94634417D01*
X143054131Y-94595061D01*
X143004114Y-94513922D01*
X143004114Y-94238442D01*
X143078569Y-94057268D01*
X143087027Y-94029105D01*
X143086864Y-93970577D01*
X143064317Y-93916569D01*
X143022817Y-93875299D01*
X142968682Y-93853052D01*
X142910155Y-93853215D01*
X142856147Y-93875762D01*
X142814876Y-93917262D01*
X142801087Y-93943234D01*
X142715373Y-94151805D01*
X142707149Y-94179188D01*
X142706996Y-94179558D01*
X142706975Y-94179766D01*
X142706915Y-94179968D01*
X142706916Y-94180369D01*
X142704114Y-94208822D01*
X142504114Y-94208822D01*
X142504114Y-92957394D01*
X143304114Y-92957394D01*
X143304114Y-93165965D01*
X143306996Y-93195229D01*
X143311606Y-93206358D01*
X143313522Y-93218253D01*
X143326425Y-93244677D01*
X143412139Y-93383725D01*
X143422599Y-93397467D01*
X143424425Y-93400837D01*
X143427408Y-93403786D01*
X143429949Y-93407124D01*
X143433054Y-93409367D01*
X143445337Y-93421510D01*
X143531051Y-93491033D01*
X143540473Y-93497250D01*
X143543133Y-93499871D01*
X143549550Y-93503240D01*
X143555595Y-93507229D01*
X143559170Y-93508291D01*
X143569168Y-93513540D01*
X143740598Y-93583064D01*
X143766784Y-93590795D01*
X143767707Y-93591178D01*
X143768264Y-93591232D01*
X143768800Y-93591391D01*
X143769794Y-93591383D01*
X143796971Y-93594060D01*
X144311257Y-93594060D01*
X144338433Y-93591383D01*
X144339429Y-93591391D01*
X144339964Y-93591232D01*
X144340521Y-93591178D01*
X144341440Y-93590796D01*
X144367631Y-93583064D01*
X144539059Y-93513539D01*
X144549052Y-93508292D01*
X144552632Y-93507229D01*
X144558680Y-93503237D01*
X144565095Y-93499870D01*
X144567754Y-93497249D01*
X144577175Y-93491033D01*
X144662890Y-93421510D01*
X144675172Y-93409368D01*
X144678279Y-93407124D01*
X144680819Y-93403786D01*
X144683802Y-93400838D01*
X144685627Y-93397469D01*
X144696089Y-93383725D01*
X144781803Y-93244677D01*
X144794706Y-93218253D01*
X144796621Y-93206358D01*
X144801232Y-93195229D01*
X144804114Y-93165965D01*
X144804114Y-92957394D01*
X144801232Y-92928130D01*
X144796621Y-92917000D01*
X144794706Y-92905106D01*
X144781803Y-92878682D01*
X144696089Y-92739634D01*
X144685629Y-92725891D01*
X144683803Y-92722522D01*
X144680819Y-92719572D01*
X144678279Y-92716235D01*
X144675172Y-92713990D01*
X144662891Y-92701850D01*
X144577176Y-92632325D01*
X144567752Y-92626106D01*
X144565095Y-92623488D01*
X144558684Y-92620122D01*
X144552633Y-92616129D01*
X144549051Y-92615064D01*
X144539059Y-92609819D01*
X144367631Y-92540294D01*
X144341440Y-92532561D01*
X144340521Y-92532180D01*
X144339964Y-92532125D01*
X144339429Y-92531967D01*
X144338433Y-92531974D01*
X144311257Y-92529298D01*
X143796971Y-92529298D01*
X143769794Y-92531974D01*
X143768800Y-92531967D01*
X143768264Y-92532125D01*
X143767707Y-92532180D01*
X143766784Y-92532562D01*
X143740598Y-92540294D01*
X143569168Y-92609818D01*
X143559169Y-92615067D01*
X143555593Y-92616130D01*
X143549549Y-92620118D01*
X143543133Y-92623487D01*
X143540473Y-92626107D01*
X143531050Y-92632326D01*
X143445336Y-92701850D01*
X143433054Y-92713991D01*
X143429949Y-92716235D01*
X143427408Y-92719572D01*
X143424424Y-92722523D01*
X143422597Y-92725893D01*
X143412139Y-92739634D01*
X143326425Y-92878682D01*
X143313522Y-92905106D01*
X143311606Y-92917000D01*
X143306996Y-92928130D01*
X143304114Y-92957394D01*
X142504114Y-92957394D01*
X142504114Y-91398606D01*
X143306996Y-91398606D01*
X143306996Y-91457134D01*
X143329394Y-91511206D01*
X143370778Y-91552590D01*
X143424850Y-91574988D01*
X143454114Y-91577870D01*
X144429499Y-91577870D01*
X144454097Y-91597821D01*
X144504114Y-91678960D01*
X144504114Y-91802494D01*
X144466494Y-91863522D01*
X144367712Y-91903584D01*
X143454114Y-91903584D01*
X143424850Y-91906466D01*
X143370778Y-91928864D01*
X143329394Y-91970248D01*
X143306996Y-92024320D01*
X143306996Y-92082848D01*
X143329394Y-92136920D01*
X143370778Y-92178304D01*
X143424850Y-92200702D01*
X143454114Y-92203584D01*
X144396971Y-92203584D01*
X144424147Y-92200907D01*
X144425142Y-92200915D01*
X144425677Y-92200756D01*
X144426235Y-92200702D01*
X144427157Y-92200319D01*
X144453344Y-92192588D01*
X144624773Y-92123065D01*
X144628866Y-92120916D01*
X144630839Y-92120448D01*
X144633713Y-92118371D01*
X144650809Y-92109396D01*
X144663658Y-92096735D01*
X144678279Y-92086172D01*
X144689974Y-92070806D01*
X144692499Y-92068319D01*
X144693288Y-92066452D01*
X144696089Y-92062773D01*
X144781803Y-91923725D01*
X144794706Y-91897301D01*
X144796621Y-91885406D01*
X144801232Y-91874277D01*
X144804114Y-91845013D01*
X144804114Y-91636442D01*
X144801232Y-91607178D01*
X144796621Y-91596048D01*
X144794706Y-91584154D01*
X144781803Y-91557730D01*
X144762928Y-91527111D01*
X144778834Y-91511206D01*
X144801232Y-91457134D01*
X144801232Y-91398606D01*
X144778834Y-91344534D01*
X144737450Y-91303150D01*
X144683378Y-91280752D01*
X144654114Y-91277870D01*
X143454114Y-91277870D01*
X143424850Y-91280752D01*
X143370778Y-91303150D01*
X143329394Y-91344534D01*
X143306996Y-91398606D01*
X142504114Y-91398606D01*
X142504114Y-90315490D01*
X143304114Y-90315490D01*
X143304114Y-90454537D01*
X143306996Y-90483801D01*
X143311606Y-90494930D01*
X143313522Y-90506825D01*
X143326425Y-90533249D01*
X143372109Y-90607360D01*
X143370778Y-90607912D01*
X143329394Y-90649296D01*
X143306996Y-90703368D01*
X143306996Y-90761896D01*
X143329394Y-90815968D01*
X143370778Y-90857352D01*
X143424850Y-90879750D01*
X143454114Y-90882632D01*
X144654114Y-90882632D01*
X144683378Y-90879750D01*
X144737450Y-90857352D01*
X144778834Y-90815968D01*
X144801232Y-90761896D01*
X144801232Y-90703368D01*
X144778834Y-90649296D01*
X144737450Y-90607912D01*
X144683378Y-90585514D01*
X144654114Y-90582632D01*
X143826230Y-90582632D01*
X143702653Y-90532515D01*
X143654131Y-90493158D01*
X143604114Y-90412018D01*
X143604114Y-90315490D01*
X143601232Y-90286226D01*
X143578834Y-90232154D01*
X143537450Y-90190770D01*
X143483378Y-90168372D01*
X143424850Y-90168372D01*
X143370778Y-90190770D01*
X143329394Y-90232154D01*
X143306996Y-90286226D01*
X143304114Y-90315490D01*
X142504114Y-90315490D01*
X142504114Y-89342156D01*
X143304114Y-89342156D01*
X143304114Y-89620251D01*
X143306996Y-89649515D01*
X143311606Y-89660644D01*
X143313522Y-89672539D01*
X143326425Y-89698963D01*
X143412139Y-89838011D01*
X143422599Y-89851753D01*
X143424425Y-89855123D01*
X143427408Y-89858072D01*
X143429949Y-89861410D01*
X143433054Y-89863653D01*
X143445337Y-89875796D01*
X143531051Y-89945319D01*
X143540473Y-89951536D01*
X143543133Y-89954157D01*
X143549550Y-89957526D01*
X143555595Y-89961515D01*
X143559170Y-89962577D01*
X143569168Y-89967826D01*
X143740598Y-90037350D01*
X143766784Y-90045081D01*
X143767707Y-90045464D01*
X143768264Y-90045518D01*
X143768800Y-90045677D01*
X143769794Y-90045669D01*
X143796971Y-90048346D01*
X144311257Y-90048346D01*
X144338433Y-90045669D01*
X144339429Y-90045677D01*
X144339964Y-90045518D01*
X144340521Y-90045464D01*
X144341440Y-90045082D01*
X144367631Y-90037350D01*
X144539059Y-89967825D01*
X144549052Y-89962578D01*
X144552632Y-89961515D01*
X144558680Y-89957523D01*
X144565095Y-89954156D01*
X144567754Y-89951535D01*
X144577175Y-89945319D01*
X144662890Y-89875796D01*
X144675172Y-89863654D01*
X144678279Y-89861410D01*
X144680819Y-89858072D01*
X144683802Y-89855124D01*
X144685627Y-89851755D01*
X144696089Y-89838011D01*
X144781803Y-89698963D01*
X144794706Y-89672539D01*
X144796621Y-89660644D01*
X144801232Y-89649515D01*
X144804114Y-89620251D01*
X144804114Y-89342156D01*
X144801232Y-89312892D01*
X144796621Y-89301762D01*
X144794706Y-89289868D01*
X144781803Y-89263444D01*
X144696089Y-89124396D01*
X144678279Y-89100997D01*
X144630839Y-89066721D01*
X144573894Y-89053209D01*
X144516112Y-89062516D01*
X144466289Y-89093229D01*
X144432013Y-89140669D01*
X144418501Y-89197614D01*
X144427808Y-89255396D01*
X144440711Y-89281820D01*
X144504114Y-89384674D01*
X144504114Y-89577732D01*
X144454097Y-89658871D01*
X144405575Y-89698227D01*
X144281996Y-89748346D01*
X143826230Y-89748346D01*
X143702651Y-89698227D01*
X143654131Y-89658871D01*
X143604114Y-89577732D01*
X143604114Y-89384674D01*
X143667517Y-89281820D01*
X143680420Y-89255396D01*
X143689727Y-89197614D01*
X143676215Y-89140669D01*
X143641939Y-89093229D01*
X143592116Y-89062516D01*
X143534334Y-89053209D01*
X143477389Y-89066721D01*
X143429949Y-89100997D01*
X143412139Y-89124396D01*
X143326425Y-89263444D01*
X143313522Y-89289868D01*
X143311606Y-89301762D01*
X143306996Y-89312892D01*
X143304114Y-89342156D01*
X142504114Y-89342156D01*
X142504114Y-88160251D01*
X143304114Y-88160251D01*
X143304114Y-88438346D01*
X143306996Y-88467610D01*
X143311605Y-88478739D01*
X143313522Y-88490635D01*
X143326425Y-88517058D01*
X143412139Y-88656105D01*
X143414938Y-88659782D01*
X143415728Y-88661650D01*
X143418253Y-88664138D01*
X143429949Y-88679504D01*
X143444568Y-88690066D01*
X143457419Y-88702728D01*
X143474520Y-88711706D01*
X143477390Y-88713780D01*
X143479359Y-88714247D01*
X143483454Y-88716397D01*
X143654884Y-88785921D01*
X143681070Y-88793652D01*
X143681993Y-88794035D01*
X143682550Y-88794089D01*
X143683086Y-88794248D01*
X143684080Y-88794240D01*
X143711257Y-88796917D01*
X144396971Y-88796917D01*
X144424147Y-88794240D01*
X144425143Y-88794248D01*
X144425678Y-88794089D01*
X144426235Y-88794035D01*
X144427154Y-88793653D01*
X144453345Y-88785921D01*
X144624774Y-88716396D01*
X144628865Y-88714247D01*
X144630838Y-88713780D01*
X144633710Y-88711704D01*
X144650810Y-88702728D01*
X144663661Y-88690064D01*
X144678279Y-88679504D01*
X144689974Y-88664138D01*
X144692500Y-88661650D01*
X144693289Y-88659782D01*
X144696089Y-88656105D01*
X144781803Y-88517058D01*
X144794705Y-88490635D01*
X144796620Y-88478742D01*
X144801232Y-88467610D01*
X144804114Y-88438346D01*
X144804114Y-88160251D01*
X144801232Y-88130987D01*
X144796621Y-88119857D01*
X144794706Y-88107963D01*
X144781803Y-88081539D01*
X144696089Y-87942491D01*
X144678279Y-87919092D01*
X144630839Y-87884816D01*
X144573894Y-87871304D01*
X144516112Y-87880611D01*
X144466289Y-87911324D01*
X144432013Y-87958764D01*
X144418501Y-88015709D01*
X144427808Y-88073491D01*
X144440711Y-88099915D01*
X144504114Y-88202769D01*
X144504114Y-88395827D01*
X144466494Y-88456854D01*
X144367711Y-88496917D01*
X144171620Y-88496917D01*
X144028323Y-87915768D01*
X144018519Y-87888045D01*
X144011764Y-87878867D01*
X144007405Y-87868343D01*
X143994578Y-87855516D01*
X143983827Y-87840908D01*
X143974077Y-87835015D01*
X143966021Y-87826959D01*
X143949261Y-87820016D01*
X143933739Y-87810635D01*
X143922476Y-87808921D01*
X143911949Y-87804561D01*
X143882685Y-87801679D01*
X143711257Y-87801679D01*
X143684080Y-87804355D01*
X143683086Y-87804348D01*
X143682550Y-87804506D01*
X143681993Y-87804561D01*
X143681070Y-87804943D01*
X143654884Y-87812675D01*
X143483454Y-87882199D01*
X143479360Y-87884348D01*
X143477389Y-87884816D01*
X143474516Y-87886891D01*
X143457419Y-87895868D01*
X143444569Y-87908528D01*
X143429949Y-87919092D01*
X143418253Y-87934457D01*
X143415728Y-87936946D01*
X143414938Y-87938813D01*
X143412139Y-87942491D01*
X143326425Y-88081539D01*
X143313522Y-88107963D01*
X143311606Y-88119857D01*
X143306996Y-88130987D01*
X143304114Y-88160251D01*
X142504114Y-88160251D01*
X142504114Y-86184319D01*
X142706996Y-86184319D01*
X142706996Y-86242847D01*
X142729394Y-86296919D01*
X142770778Y-86338303D01*
X142824850Y-86360701D01*
X142854114Y-86363583D01*
X144654114Y-86363583D01*
X144683378Y-86360701D01*
X144737450Y-86338303D01*
X144778834Y-86296919D01*
X144801232Y-86242847D01*
X144804114Y-86213583D01*
X144804114Y-85518345D01*
X144801232Y-85489081D01*
X144778834Y-85435009D01*
X144737450Y-85393625D01*
X144683378Y-85371227D01*
X144624850Y-85371227D01*
X144570778Y-85393625D01*
X144529394Y-85435009D01*
X144506996Y-85489081D01*
X144504114Y-85518345D01*
X144504114Y-86063583D01*
X142854114Y-86063583D01*
X142824850Y-86066465D01*
X142770778Y-86088863D01*
X142729394Y-86130247D01*
X142706996Y-86184319D01*
X142504114Y-86184319D01*
X142504114Y-84336440D01*
X142704114Y-84336440D01*
X142704114Y-85031678D01*
X142706996Y-85060942D01*
X142729394Y-85115014D01*
X142770778Y-85156398D01*
X142824850Y-85178796D01*
X142854114Y-85181678D01*
X144654114Y-85181678D01*
X144683378Y-85178796D01*
X144737450Y-85156398D01*
X144778834Y-85115014D01*
X144801232Y-85060942D01*
X144804114Y-85031678D01*
X144804114Y-84336440D01*
X144801232Y-84307176D01*
X144778834Y-84253104D01*
X144737450Y-84211720D01*
X144683378Y-84189322D01*
X144624850Y-84189322D01*
X144570778Y-84211720D01*
X144529394Y-84253104D01*
X144506996Y-84307176D01*
X144504114Y-84336440D01*
X144504114Y-84881678D01*
X143861257Y-84881678D01*
X143861257Y-84545012D01*
X143858375Y-84515748D01*
X143835977Y-84461676D01*
X143794593Y-84420292D01*
X143740521Y-84397894D01*
X143681993Y-84397894D01*
X143627921Y-84420292D01*
X143586537Y-84461676D01*
X143564139Y-84515748D01*
X143561257Y-84545012D01*
X143561257Y-84881678D01*
X143004114Y-84881678D01*
X143004114Y-84336440D01*
X143001232Y-84307176D01*
X142978834Y-84253104D01*
X142937450Y-84211720D01*
X142883378Y-84189322D01*
X142824850Y-84189322D01*
X142770778Y-84211720D01*
X142729394Y-84253104D01*
X142706996Y-84307176D01*
X142704114Y-84336440D01*
X142504114Y-84336440D01*
X142504114Y-83363107D01*
X142704114Y-83363107D01*
X142704114Y-83710726D01*
X142706996Y-83739990D01*
X142729394Y-83794062D01*
X142770778Y-83835446D01*
X142824850Y-83857844D01*
X142854114Y-83860726D01*
X144654114Y-83860726D01*
X144683378Y-83857844D01*
X144737450Y-83835446D01*
X144778834Y-83794062D01*
X144801232Y-83739990D01*
X144804114Y-83710726D01*
X144804114Y-83363107D01*
X144801311Y-83334654D01*
X144801313Y-83334253D01*
X144801252Y-83334051D01*
X144801232Y-83333843D01*
X144801078Y-83333473D01*
X144792855Y-83306090D01*
X144707141Y-83097519D01*
X144693352Y-83071547D01*
X144687651Y-83065815D01*
X144683803Y-83058713D01*
X144662891Y-83038040D01*
X144491462Y-82898992D01*
X144482040Y-82892774D01*
X144479380Y-82890153D01*
X144472965Y-82886785D01*
X144466919Y-82882795D01*
X144463339Y-82881731D01*
X144453344Y-82876484D01*
X144281915Y-82806961D01*
X144268627Y-82803037D01*
X144255352Y-82798957D01*
X143912495Y-82729433D01*
X143912122Y-82729394D01*
X143911949Y-82729323D01*
X143897553Y-82727905D01*
X143883242Y-82726442D01*
X143883058Y-82726477D01*
X143882685Y-82726441D01*
X143625542Y-82726441D01*
X143625168Y-82726477D01*
X143624985Y-82726442D01*
X143610673Y-82727905D01*
X143596278Y-82729323D01*
X143596104Y-82729394D01*
X143595732Y-82729433D01*
X143252875Y-82798957D01*
X143239611Y-82803034D01*
X143226312Y-82806961D01*
X143054884Y-82876484D01*
X143044884Y-82881733D01*
X143041309Y-82882796D01*
X143035266Y-82886783D01*
X143028848Y-82890153D01*
X143026187Y-82892774D01*
X143016765Y-82898992D01*
X142845337Y-83038040D01*
X142824424Y-83058713D01*
X142820574Y-83065817D01*
X142814876Y-83071547D01*
X142801087Y-83097519D01*
X142715373Y-83306090D01*
X142707149Y-83333473D01*
X142706996Y-83333843D01*
X142706975Y-83334051D01*
X142706915Y-83334253D01*
X142706916Y-83334654D01*
X142704114Y-83363107D01*
X142504114Y-83363107D01*
X142504114Y-81903107D01*
X143304114Y-81903107D01*
X143304114Y-82111679D01*
X143306996Y-82140943D01*
X143311605Y-82152072D01*
X143313522Y-82163968D01*
X143326425Y-82190391D01*
X143412139Y-82329438D01*
X143414938Y-82333115D01*
X143415728Y-82334983D01*
X143418253Y-82337471D01*
X143429949Y-82352837D01*
X143444568Y-82363399D01*
X143457419Y-82376061D01*
X143474520Y-82385039D01*
X143477390Y-82387113D01*
X143479359Y-82387580D01*
X143483454Y-82389730D01*
X143654884Y-82459254D01*
X143681070Y-82466985D01*
X143681993Y-82467368D01*
X143682550Y-82467422D01*
X143683086Y-82467581D01*
X143684080Y-82467573D01*
X143711257Y-82470250D01*
X143796971Y-82470250D01*
X143824147Y-82467573D01*
X143825143Y-82467581D01*
X143825678Y-82467422D01*
X143826235Y-82467368D01*
X143827154Y-82466986D01*
X143853345Y-82459254D01*
X144024774Y-82389729D01*
X144028865Y-82387580D01*
X144030838Y-82387113D01*
X144033710Y-82385037D01*
X144050810Y-82376061D01*
X144063661Y-82363397D01*
X144078279Y-82352837D01*
X144089974Y-82337471D01*
X144092500Y-82334983D01*
X144093289Y-82333115D01*
X144096089Y-82329438D01*
X144181803Y-82190391D01*
X144194705Y-82163968D01*
X144196620Y-82152075D01*
X144201232Y-82140943D01*
X144204114Y-82111679D01*
X144204114Y-81945625D01*
X144241733Y-81884598D01*
X144340516Y-81844536D01*
X144367711Y-81844536D01*
X144466494Y-81884598D01*
X144504114Y-81945625D01*
X144504114Y-82138684D01*
X144440711Y-82241538D01*
X144427808Y-82267961D01*
X144418501Y-82325744D01*
X144432013Y-82382688D01*
X144466289Y-82430129D01*
X144516111Y-82460842D01*
X144573894Y-82470149D01*
X144630838Y-82456637D01*
X144678279Y-82422361D01*
X144696089Y-82398962D01*
X144781803Y-82259915D01*
X144794705Y-82233492D01*
X144796620Y-82221599D01*
X144801232Y-82210467D01*
X144804114Y-82181203D01*
X144804114Y-81903107D01*
X144801232Y-81873843D01*
X144796620Y-81862710D01*
X144794705Y-81850818D01*
X144781803Y-81824395D01*
X144696089Y-81685348D01*
X144693289Y-81681670D01*
X144692500Y-81679803D01*
X144689974Y-81677314D01*
X144678279Y-81661949D01*
X144663661Y-81651388D01*
X144650810Y-81638725D01*
X144633710Y-81629748D01*
X144630838Y-81627673D01*
X144628865Y-81627205D01*
X144624774Y-81625057D01*
X144453345Y-81555532D01*
X144427154Y-81547799D01*
X144426235Y-81547418D01*
X144425678Y-81547363D01*
X144425143Y-81547205D01*
X144424147Y-81547212D01*
X144396971Y-81544536D01*
X144311257Y-81544536D01*
X144284080Y-81547212D01*
X144283086Y-81547205D01*
X144282550Y-81547363D01*
X144281993Y-81547418D01*
X144281070Y-81547800D01*
X144254884Y-81555532D01*
X144083454Y-81625056D01*
X144079359Y-81627205D01*
X144077390Y-81627673D01*
X144074520Y-81629746D01*
X144057419Y-81638725D01*
X144044568Y-81651386D01*
X144029949Y-81661949D01*
X144018253Y-81677314D01*
X144015728Y-81679803D01*
X144014938Y-81681670D01*
X144012139Y-81685348D01*
X143926425Y-81824395D01*
X143913522Y-81850818D01*
X143911605Y-81862713D01*
X143906996Y-81873843D01*
X143904114Y-81903107D01*
X143904114Y-82069160D01*
X143866494Y-82130187D01*
X143767711Y-82170250D01*
X143740516Y-82170250D01*
X143641733Y-82130187D01*
X143604114Y-82069160D01*
X143604114Y-81945625D01*
X143667517Y-81842772D01*
X143680419Y-81816349D01*
X143689727Y-81758566D01*
X143676215Y-81701622D01*
X143641939Y-81654181D01*
X143592117Y-81623469D01*
X143534334Y-81614161D01*
X143477390Y-81627673D01*
X143429949Y-81661949D01*
X143412139Y-81685348D01*
X143326425Y-81824395D01*
X143313522Y-81850818D01*
X143311605Y-81862713D01*
X143306996Y-81873843D01*
X143304114Y-81903107D01*
X142504114Y-81903107D01*
X142504114Y-81344536D01*
X145004114Y-81344536D01*
X145004114Y-95184536D01*
G37*
D12*
X108289700Y-98571428D02*
X108289700Y-97428571D01*
X108861128Y-97999999D02*
X107718271Y-97999999D01*
X108289700Y-87571428D02*
X108289700Y-86428571D01*
X150454819Y-115738094D02*
X149454819Y-115738094D01*
X149454819Y-115738094D02*
X149454819Y-115499999D01*
X149454819Y-115499999D02*
X149502438Y-115357142D01*
X149502438Y-115357142D02*
X149597676Y-115261904D01*
X149597676Y-115261904D02*
X149692914Y-115214285D01*
X149692914Y-115214285D02*
X149883390Y-115166666D01*
X149883390Y-115166666D02*
X150026247Y-115166666D01*
X150026247Y-115166666D02*
X150216723Y-115214285D01*
X150216723Y-115214285D02*
X150311961Y-115261904D01*
X150311961Y-115261904D02*
X150407200Y-115357142D01*
X150407200Y-115357142D02*
X150454819Y-115499999D01*
X150454819Y-115499999D02*
X150454819Y-115738094D01*
X150454819Y-114214285D02*
X150454819Y-114785713D01*
X150454819Y-114499999D02*
X149454819Y-114499999D01*
X149454819Y-114499999D02*
X149597676Y-114595237D01*
X149597676Y-114595237D02*
X149692914Y-114690475D01*
X149692914Y-114690475D02*
X149740533Y-114785713D01*
X138734819Y-83476666D02*
X138258628Y-83809999D01*
X138734819Y-84048094D02*
X137734819Y-84048094D01*
X137734819Y-84048094D02*
X137734819Y-83667142D01*
X137734819Y-83667142D02*
X137782438Y-83571904D01*
X137782438Y-83571904D02*
X137830057Y-83524285D01*
X137830057Y-83524285D02*
X137925295Y-83476666D01*
X137925295Y-83476666D02*
X138068152Y-83476666D01*
X138068152Y-83476666D02*
X138163390Y-83524285D01*
X138163390Y-83524285D02*
X138211009Y-83571904D01*
X138211009Y-83571904D02*
X138258628Y-83667142D01*
X138258628Y-83667142D02*
X138258628Y-84048094D01*
X137734819Y-83143332D02*
X137734819Y-82476666D01*
X137734819Y-82476666D02*
X138734819Y-82905237D01*
X147033333Y-78264819D02*
X146700000Y-77788628D01*
X146461905Y-78264819D02*
X146461905Y-77264819D01*
X146461905Y-77264819D02*
X146842857Y-77264819D01*
X146842857Y-77264819D02*
X146938095Y-77312438D01*
X146938095Y-77312438D02*
X146985714Y-77360057D01*
X146985714Y-77360057D02*
X147033333Y-77455295D01*
X147033333Y-77455295D02*
X147033333Y-77598152D01*
X147033333Y-77598152D02*
X146985714Y-77693390D01*
X146985714Y-77693390D02*
X146938095Y-77741009D01*
X146938095Y-77741009D02*
X146842857Y-77788628D01*
X146842857Y-77788628D02*
X146461905Y-77788628D01*
X147366667Y-77264819D02*
X147985714Y-77264819D01*
X147985714Y-77264819D02*
X147652381Y-77645771D01*
X147652381Y-77645771D02*
X147795238Y-77645771D01*
X147795238Y-77645771D02*
X147890476Y-77693390D01*
X147890476Y-77693390D02*
X147938095Y-77741009D01*
X147938095Y-77741009D02*
X147985714Y-77836247D01*
X147985714Y-77836247D02*
X147985714Y-78074342D01*
X147985714Y-78074342D02*
X147938095Y-78169580D01*
X147938095Y-78169580D02*
X147890476Y-78217200D01*
X147890476Y-78217200D02*
X147795238Y-78264819D01*
X147795238Y-78264819D02*
X147509524Y-78264819D01*
X147509524Y-78264819D02*
X147414286Y-78217200D01*
X147414286Y-78217200D02*
X147366667Y-78169580D01*
X150359580Y-120166666D02*
X150407200Y-120214285D01*
X150407200Y-120214285D02*
X150454819Y-120357142D01*
X150454819Y-120357142D02*
X150454819Y-120452380D01*
X150454819Y-120452380D02*
X150407200Y-120595237D01*
X150407200Y-120595237D02*
X150311961Y-120690475D01*
X150311961Y-120690475D02*
X150216723Y-120738094D01*
X150216723Y-120738094D02*
X150026247Y-120785713D01*
X150026247Y-120785713D02*
X149883390Y-120785713D01*
X149883390Y-120785713D02*
X149692914Y-120738094D01*
X149692914Y-120738094D02*
X149597676Y-120690475D01*
X149597676Y-120690475D02*
X149502438Y-120595237D01*
X149502438Y-120595237D02*
X149454819Y-120452380D01*
X149454819Y-120452380D02*
X149454819Y-120357142D01*
X149454819Y-120357142D02*
X149502438Y-120214285D01*
X149502438Y-120214285D02*
X149550057Y-120166666D01*
X150454819Y-119214285D02*
X150454819Y-119785713D01*
X150454819Y-119499999D02*
X149454819Y-119499999D01*
X149454819Y-119499999D02*
X149597676Y-119595237D01*
X149597676Y-119595237D02*
X149692914Y-119690475D01*
X149692914Y-119690475D02*
X149740533Y-119785713D01*
X138734819Y-93476666D02*
X138258628Y-93809999D01*
X138734819Y-94048094D02*
X137734819Y-94048094D01*
X137734819Y-94048094D02*
X137734819Y-93667142D01*
X137734819Y-93667142D02*
X137782438Y-93571904D01*
X137782438Y-93571904D02*
X137830057Y-93524285D01*
X137830057Y-93524285D02*
X137925295Y-93476666D01*
X137925295Y-93476666D02*
X138068152Y-93476666D01*
X138068152Y-93476666D02*
X138163390Y-93524285D01*
X138163390Y-93524285D02*
X138211009Y-93571904D01*
X138211009Y-93571904D02*
X138258628Y-93667142D01*
X138258628Y-93667142D02*
X138258628Y-94048094D01*
X137734819Y-92619523D02*
X137734819Y-92809999D01*
X137734819Y-92809999D02*
X137782438Y-92905237D01*
X137782438Y-92905237D02*
X137830057Y-92952856D01*
X137830057Y-92952856D02*
X137972914Y-93048094D01*
X137972914Y-93048094D02*
X138163390Y-93095713D01*
X138163390Y-93095713D02*
X138544342Y-93095713D01*
X138544342Y-93095713D02*
X138639580Y-93048094D01*
X138639580Y-93048094D02*
X138687200Y-93000475D01*
X138687200Y-93000475D02*
X138734819Y-92905237D01*
X138734819Y-92905237D02*
X138734819Y-92714761D01*
X138734819Y-92714761D02*
X138687200Y-92619523D01*
X138687200Y-92619523D02*
X138639580Y-92571904D01*
X138639580Y-92571904D02*
X138544342Y-92524285D01*
X138544342Y-92524285D02*
X138306247Y-92524285D01*
X138306247Y-92524285D02*
X138211009Y-92571904D01*
X138211009Y-92571904D02*
X138163390Y-92619523D01*
X138163390Y-92619523D02*
X138115771Y-92714761D01*
X138115771Y-92714761D02*
X138115771Y-92905237D01*
X138115771Y-92905237D02*
X138163390Y-93000475D01*
X138163390Y-93000475D02*
X138211009Y-93048094D01*
X138211009Y-93048094D02*
X138306247Y-93095713D01*
X141454819Y-109856666D02*
X140978628Y-110189999D01*
X141454819Y-110428094D02*
X140454819Y-110428094D01*
X140454819Y-110428094D02*
X140454819Y-110047142D01*
X140454819Y-110047142D02*
X140502438Y-109951904D01*
X140502438Y-109951904D02*
X140550057Y-109904285D01*
X140550057Y-109904285D02*
X140645295Y-109856666D01*
X140645295Y-109856666D02*
X140788152Y-109856666D01*
X140788152Y-109856666D02*
X140883390Y-109904285D01*
X140883390Y-109904285D02*
X140931009Y-109951904D01*
X140931009Y-109951904D02*
X140978628Y-110047142D01*
X140978628Y-110047142D02*
X140978628Y-110428094D01*
X141454819Y-108904285D02*
X141454819Y-109475713D01*
X141454819Y-109189999D02*
X140454819Y-109189999D01*
X140454819Y-109189999D02*
X140597676Y-109285237D01*
X140597676Y-109285237D02*
X140692914Y-109380475D01*
X140692914Y-109380475D02*
X140740533Y-109475713D01*
D13*
%TO.C,C15*%
X126788748Y-100840000D02*
X128211252Y-100840000D01*
X126788748Y-103560000D02*
X128211252Y-103560000D01*
%TO.C,C14*%
X112770000Y-80600000D02*
G75*
G02*
X104530000Y-80600000I-4120000J0D01*
G01*
X104530000Y-80600000D02*
G75*
G02*
X112770000Y-80600000I4120000J0D01*
G01*
%TO.C,C16*%
X132035000Y-115338748D02*
X132035000Y-115861252D01*
X130565000Y-115338748D02*
X130565000Y-115861252D01*
%TO.C,R10*%
X123280000Y-130346359D02*
X123280000Y-130653641D01*
X122520000Y-130346359D02*
X122520000Y-130653641D01*
%TO.C,D8*%
X123615000Y-129765000D02*
X123615000Y-131235000D01*
X123615000Y-131235000D02*
X125900000Y-131235000D01*
X125900000Y-129765000D02*
X123615000Y-129765000D01*
%TO.C,TP4*%
X128900000Y-87000000D02*
G75*
G02*
X127500000Y-87000000I-700000J0D01*
G01*
X127500000Y-87000000D02*
G75*
G02*
X128900000Y-87000000I700000J0D01*
G01*
%TO.C,TP3*%
X141200000Y-112300000D02*
G75*
G02*
X139800000Y-112300000I-700000J0D01*
G01*
X139800000Y-112300000D02*
G75*
G02*
X141200000Y-112300000I700000J0D01*
G01*
%TO.C,TP2*%
X134700000Y-93100000D02*
G75*
G02*
X133300000Y-93100000I-700000J0D01*
G01*
X133300000Y-93100000D02*
G75*
G02*
X134700000Y-93100000I700000J0D01*
G01*
%TO.C,TP1*%
X132700000Y-93100000D02*
G75*
G02*
X131300000Y-93100000I-700000J0D01*
G01*
X131300000Y-93100000D02*
G75*
G02*
X132700000Y-93100000I700000J0D01*
G01*
%TO.C,R9*%
X124977341Y-117360060D02*
X124760060Y-117577341D01*
X124439940Y-116822659D02*
X124222659Y-117039940D01*
%TO.C,D7*%
X125454038Y-119285409D02*
X127069777Y-117669670D01*
X126030330Y-116630223D02*
X124414591Y-118245962D01*
X127069777Y-117669670D02*
X126030330Y-116630223D01*
%TO.C,C4*%
X129087836Y-118580000D02*
X128872164Y-118580000D01*
X129087836Y-119300000D02*
X128872164Y-119300000D01*
%TO.C,U2*%
X126370000Y-121390000D02*
X126820000Y-121390000D01*
X126370000Y-121840000D02*
X126370000Y-121390000D01*
X126370000Y-128160000D02*
X126370000Y-128610000D01*
X126370000Y-128610000D02*
X126820000Y-128610000D01*
X133590000Y-121390000D02*
X133140000Y-121390000D01*
X133590000Y-121840000D02*
X133590000Y-121390000D01*
X133590000Y-128160000D02*
X133590000Y-128610000D01*
X133590000Y-128610000D02*
X133140000Y-128610000D01*
X133610000Y-121140000D02*
X133140000Y-120800000D01*
X133610000Y-120460000D01*
X133610000Y-121140000D01*
G36*
X133610000Y-121140000D02*
G01*
X133140000Y-120800000D01*
X133610000Y-120460000D01*
X133610000Y-121140000D01*
G37*
D10*
%TO.C,L2*%
X124250000Y-113500000D02*
X124250000Y-104500000D01*
X132750000Y-104500000D02*
X124250000Y-104500000D01*
X132750000Y-113500000D02*
X124250000Y-113500000D01*
X132750000Y-113500000D02*
X132750000Y-104500000D01*
D14*
X126125000Y-114000000D02*
G75*
G02*
X125875000Y-114000000I-125000J0D01*
G01*
X125875000Y-114000000D02*
G75*
G02*
X126125000Y-114000000I125000J0D01*
G01*
D13*
%TO.C,J7*%
X94965000Y-87440000D02*
X97065000Y-87440000D01*
X94965000Y-97560000D02*
X94965000Y-87440000D01*
X94965000Y-97560000D02*
X97065000Y-97560000D01*
X97065000Y-87440000D02*
X97065000Y-86850000D01*
X97065000Y-98150000D02*
X97065000Y-97560000D01*
X99285000Y-87440000D02*
X99285000Y-86850000D01*
X99285000Y-87440000D02*
X104185000Y-87440000D01*
X99285000Y-97560000D02*
X104185000Y-97560000D01*
X99285000Y-98150000D02*
X99285000Y-97560000D01*
X104185000Y-97560000D02*
X104185000Y-87440000D01*
X97065000Y-86850000D02*
G75*
G02*
X99285000Y-86850000I1110000J0D01*
G01*
X99285000Y-98150000D02*
G75*
G02*
X97065000Y-98150000I-1110000J0D01*
G01*
%TO.C,C6*%
X133107836Y-130760000D02*
X132892164Y-130760000D01*
X133107836Y-131480000D02*
X132892164Y-131480000D01*
%TO.C,U3*%
X107845000Y-119525000D02*
X107845000Y-117575000D01*
X107845000Y-119525000D02*
X107845000Y-121475000D01*
X112965000Y-119525000D02*
X112965000Y-117575000D01*
X112965000Y-119525000D02*
X112965000Y-121475000D01*
X107940000Y-122225000D02*
X107610000Y-122465000D01*
X107610000Y-121985000D01*
X107940000Y-122225000D01*
G36*
X107940000Y-122225000D02*
G01*
X107610000Y-122465000D01*
X107610000Y-121985000D01*
X107940000Y-122225000D01*
G37*
%TO.C,J4*%
X96490000Y-103660000D02*
X96490000Y-110340000D01*
X100060000Y-101940000D02*
X104310000Y-101940000D01*
X100060000Y-112060000D02*
X104310000Y-112060000D01*
X102710000Y-102960000D02*
X102710000Y-104240000D01*
X102710000Y-104240000D02*
X105600000Y-104240000D01*
X102710000Y-111040000D02*
X102710000Y-109760000D01*
X104310000Y-101940000D02*
X104310000Y-102960000D01*
X104310000Y-102960000D02*
X102710000Y-102960000D01*
X104310000Y-111040000D02*
X102710000Y-111040000D01*
X104310000Y-112060000D02*
X104310000Y-111040000D01*
%TO.C,D6*%
X150990000Y-93355000D02*
X150990000Y-90265000D01*
X145440000Y-91809952D02*
G75*
G02*
X150990000Y-90265170I2990000J-48D01*
G01*
X150990000Y-93354830D02*
G75*
G02*
X145440000Y-91810048I-2560000J1544830D01*
G01*
X150930000Y-91810000D02*
G75*
G02*
X145930000Y-91810000I-2500000J0D01*
G01*
X145930000Y-91810000D02*
G75*
G02*
X150930000Y-91810000I2500000J0D01*
G01*
%TO.C,D1*%
X149945000Y-107860000D02*
X146855000Y-107860000D01*
X148400462Y-113410000D02*
G75*
G02*
X146855170Y-107860000I-462J2990000D01*
G01*
X149944830Y-107860000D02*
G75*
G02*
X148399538Y-113410000I-1544830J-2560000D01*
G01*
X150900000Y-110420000D02*
G75*
G02*
X145900000Y-110420000I-2500000J0D01*
G01*
X145900000Y-110420000D02*
G75*
G02*
X150900000Y-110420000I2500000J0D01*
G01*
%TO.C,R7*%
X139280000Y-81390000D02*
X139280000Y-85230000D01*
X139280000Y-85230000D02*
X141120000Y-85230000D01*
X140200000Y-80440000D02*
X140200000Y-81390000D01*
X140200000Y-86180000D02*
X140200000Y-85230000D01*
X141120000Y-81390000D02*
X139280000Y-81390000D01*
X141120000Y-85230000D02*
X141120000Y-81390000D01*
%TO.C,R2*%
X136226359Y-123420000D02*
X136533641Y-123420000D01*
X136226359Y-124180000D02*
X136533641Y-124180000D01*
%TO.C,C2*%
X134490000Y-118740580D02*
X134490000Y-118459420D01*
X135510000Y-118740580D02*
X135510000Y-118459420D01*
%TO.C,C17*%
X118138748Y-116265000D02*
X118661252Y-116265000D01*
X118138748Y-117735000D02*
X118661252Y-117735000D01*
%TO.C,R3*%
X144020000Y-79810000D02*
X144970000Y-79810000D01*
X144970000Y-78890000D02*
X144970000Y-80730000D01*
X144970000Y-80730000D02*
X148810000Y-80730000D01*
X148810000Y-78890000D02*
X144970000Y-78890000D01*
X148810000Y-80730000D02*
X148810000Y-78890000D01*
X149760000Y-79810000D02*
X148810000Y-79810000D01*
%TO.C,R4*%
X133620000Y-85616141D02*
X133620000Y-85308859D01*
X134380000Y-85616141D02*
X134380000Y-85308859D01*
%TO.C,C10*%
X121373750Y-130372164D02*
X121373750Y-130587836D01*
X122093750Y-130372164D02*
X122093750Y-130587836D01*
%TO.C,FB1*%
X121296529Y-127890000D02*
X120970971Y-127890000D01*
X121296529Y-128910000D02*
X120970971Y-128910000D01*
D15*
%TO.C,L1*%
X110124600Y-100624600D02*
X110124600Y-113375400D01*
X110124600Y-113375400D02*
X113411360Y-113375400D01*
X113411360Y-100624600D02*
X110124600Y-100624600D01*
X119588640Y-113375400D02*
X122875400Y-113375400D01*
X122875400Y-100624600D02*
X119588640Y-100624600D01*
X122875400Y-113375400D02*
X122875400Y-100624600D01*
D13*
%TO.C,J3*%
X136200000Y-133045000D02*
X136200000Y-126575000D01*
X137022470Y-126575000D02*
X136200000Y-126575000D01*
X137022470Y-133045000D02*
X136200000Y-133045000D01*
X137840000Y-131643471D02*
X137840000Y-131786529D01*
X137840000Y-132913471D02*
X137840000Y-133045000D01*
X137840000Y-133045000D02*
X137637530Y-133045000D01*
X138036529Y-131590000D02*
X137893471Y-131590000D01*
X138292470Y-126575000D02*
X137637530Y-126575000D01*
X139730000Y-126575000D02*
X138907530Y-126575000D01*
X139730000Y-131590000D02*
X139163471Y-131590000D01*
X139730000Y-131590000D02*
X139730000Y-126575000D01*
X139730000Y-132350000D02*
X139730000Y-133110000D01*
X139730000Y-133110000D02*
X138600000Y-133110000D01*
%TO.C,U4*%
X113800000Y-86950000D02*
X113800000Y-88450000D01*
X113800000Y-88450000D02*
X114750000Y-88450000D01*
X124200000Y-86950000D02*
X124200000Y-88450000D01*
X124200000Y-88450000D02*
X123250000Y-88450000D01*
X114750000Y-91012500D02*
X114420000Y-91252500D01*
X114420000Y-90772500D01*
X114750000Y-91012500D01*
G36*
X114750000Y-91012500D02*
G01*
X114420000Y-91252500D01*
X114420000Y-90772500D01*
X114750000Y-91012500D01*
G37*
D15*
%TO.C,U1*%
X137563100Y-115188100D02*
X137563100Y-125602100D01*
X137563100Y-125602100D02*
X147817100Y-125602100D01*
X147817100Y-115188100D02*
X137563100Y-115188100D01*
X147817100Y-125602100D02*
X147817100Y-115188100D01*
D16*
X146881100Y-127380100D02*
G75*
G02*
X146119100Y-127380100I-381000J0D01*
G01*
X146119100Y-127380100D02*
G75*
G02*
X146881100Y-127380100I381000J0D01*
G01*
D13*
%TO.C,J6*%
X104340000Y-125440000D02*
X105840000Y-125440000D01*
X104340000Y-126940000D02*
X104340000Y-125440000D01*
X104640000Y-125740000D02*
X104640000Y-133760000D01*
X104640000Y-133760000D02*
X113860000Y-133760000D01*
X106040000Y-125740000D02*
X104640000Y-125740000D01*
X107110000Y-132760000D02*
X111390000Y-132760000D01*
X107110000Y-133760000D02*
X107110000Y-132760000D01*
X107960000Y-125740000D02*
X109040000Y-125740000D01*
X111390000Y-132760000D02*
X111390000Y-133760000D01*
X113860000Y-125740000D02*
X110960000Y-125740000D01*
X113860000Y-133760000D02*
X113860000Y-125740000D01*
%TO.C,D2*%
X150990000Y-86155000D02*
X150990000Y-83065000D01*
X145440000Y-84610462D02*
G75*
G02*
X150990000Y-83065170I2990000J462D01*
G01*
X150990000Y-86154830D02*
G75*
G02*
X145440000Y-84609538I-2560000J1544830D01*
G01*
X150930000Y-84610000D02*
G75*
G02*
X145930000Y-84610000I-2500000J0D01*
G01*
X145930000Y-84610000D02*
G75*
G02*
X150930000Y-84610000I2500000J0D01*
G01*
%TO.C,U5*%
X115040000Y-120950000D02*
X115040000Y-124710000D01*
X115040000Y-124710000D02*
X116300000Y-124710000D01*
X121860000Y-120950000D02*
X121860000Y-124710000D01*
X121860000Y-124710000D02*
X120600000Y-124710000D01*
X122090000Y-119910000D02*
X121760000Y-119670000D01*
X122090000Y-119430000D01*
X122090000Y-119910000D01*
G36*
X122090000Y-119910000D02*
G01*
X121760000Y-119670000D01*
X122090000Y-119430000D01*
X122090000Y-119910000D01*
G37*
%TO.C,C5*%
X132307836Y-118560000D02*
X132092164Y-118560000D01*
X132307836Y-119280000D02*
X132092164Y-119280000D01*
%TO.C,C11*%
X120173750Y-130372164D02*
X120173750Y-130587836D01*
X120893750Y-130372164D02*
X120893750Y-130587836D01*
%TO.C,R8*%
X144020000Y-96810000D02*
X144970000Y-96810000D01*
X144970000Y-95890000D02*
X144970000Y-97730000D01*
X144970000Y-97730000D02*
X148810000Y-97730000D01*
X148810000Y-95890000D02*
X144970000Y-95890000D01*
X148810000Y-97730000D02*
X148810000Y-95890000D01*
X149760000Y-96810000D02*
X148810000Y-96810000D01*
%TO.C,C9*%
X123640000Y-127212164D02*
X123640000Y-127427836D01*
X124360000Y-127212164D02*
X124360000Y-127427836D01*
%TO.C,C18*%
X122715000Y-122511252D02*
X122715000Y-121988748D01*
X124185000Y-122511252D02*
X124185000Y-121988748D01*
%TO.C,C1*%
X148630000Y-121380000D02*
X148630000Y-125620000D01*
X149335000Y-121380000D02*
X148630000Y-121380000D01*
X149335000Y-125620000D02*
X148630000Y-125620000D01*
X151370000Y-121380000D02*
X150665000Y-121380000D01*
X151370000Y-121380000D02*
X151370000Y-125620000D01*
X151370000Y-125620000D02*
X150665000Y-125620000D01*
%TO.C,D3*%
X123280000Y-95530000D02*
X128720000Y-95530000D01*
X123280000Y-95660000D02*
X123280000Y-95530000D01*
X123280000Y-98340000D02*
X123280000Y-98470000D01*
X123280000Y-98470000D02*
X128720000Y-98470000D01*
X124060000Y-95530000D02*
X124060000Y-98470000D01*
X124180000Y-95530000D02*
X124180000Y-98470000D01*
X124300000Y-95530000D02*
X124300000Y-98470000D01*
X128720000Y-95530000D02*
X128720000Y-95660000D01*
X128720000Y-98470000D02*
X128720000Y-98340000D01*
%TO.C,J1*%
X133970000Y-112970000D02*
X133970000Y-110370000D01*
X136630000Y-110370000D02*
X133970000Y-110370000D01*
X136630000Y-112970000D02*
X133970000Y-112970000D01*
X136630000Y-112970000D02*
X136630000Y-110370000D01*
X136630000Y-114240000D02*
X136630000Y-115570000D01*
X136630000Y-115570000D02*
X135300000Y-115570000D01*
%TO.C,C8*%
X125107836Y-128560000D02*
X124892164Y-128560000D01*
X125107836Y-129280000D02*
X124892164Y-129280000D01*
%TO.C,D4*%
X133265000Y-86977500D02*
X133265000Y-89262500D01*
X134735000Y-86977500D02*
X133265000Y-86977500D01*
X134735000Y-89262500D02*
X134735000Y-86977500D01*
%TO.C,R5*%
X131620000Y-85626141D02*
X131620000Y-85318859D01*
X132380000Y-85626141D02*
X132380000Y-85318859D01*
%TO.C,C12*%
X110512836Y-123765000D02*
X110297164Y-123765000D01*
X110512836Y-124485000D02*
X110297164Y-124485000D01*
%TO.C,R6*%
X139280000Y-91390000D02*
X139280000Y-95230000D01*
X139280000Y-95230000D02*
X141120000Y-95230000D01*
X140200000Y-90440000D02*
X140200000Y-91390000D01*
X140200000Y-96180000D02*
X140200000Y-95230000D01*
X141120000Y-91390000D02*
X139280000Y-91390000D01*
X141120000Y-95230000D02*
X141120000Y-91390000D01*
%TO.C,J2*%
X141270000Y-130305000D02*
X141270000Y-127705000D01*
X143930000Y-127705000D02*
X141270000Y-127705000D01*
X143930000Y-130305000D02*
X141270000Y-130305000D01*
X143930000Y-130305000D02*
X143930000Y-127705000D01*
X143930000Y-131575000D02*
X143930000Y-132905000D01*
X143930000Y-132905000D02*
X142600000Y-132905000D01*
%TO.C,R1*%
X142080000Y-107770000D02*
X142080000Y-111610000D01*
X142080000Y-111610000D02*
X143920000Y-111610000D01*
X143000000Y-106820000D02*
X143000000Y-107770000D01*
X143000000Y-112560000D02*
X143000000Y-111610000D01*
X143920000Y-107770000D02*
X142080000Y-107770000D01*
X143920000Y-111610000D02*
X143920000Y-107770000D01*
%TO.C,C3*%
X135620000Y-122012164D02*
X135620000Y-122227836D01*
X136340000Y-122012164D02*
X136340000Y-122227836D01*
%TO.C,D5*%
X131265000Y-86997500D02*
X131265000Y-89282500D01*
X132735000Y-86997500D02*
X131265000Y-86997500D01*
X132735000Y-89282500D02*
X132735000Y-86997500D01*
%TO.C,C7*%
X123640000Y-125427836D02*
X123640000Y-125212164D01*
X124360000Y-125427836D02*
X124360000Y-125212164D01*
%TO.C,C13*%
X110512836Y-114565000D02*
X110297164Y-114565000D01*
X110512836Y-115285000D02*
X110297164Y-115285000D01*
%TO.C,J5*%
X96490000Y-115660000D02*
X96490000Y-122340000D01*
X100060000Y-113940000D02*
X104310000Y-113940000D01*
X100060000Y-124060000D02*
X104310000Y-124060000D01*
X102710000Y-114960000D02*
X102710000Y-116240000D01*
X102710000Y-116240000D02*
X105600000Y-116240000D01*
X102710000Y-123040000D02*
X102710000Y-121760000D01*
X104310000Y-113940000D02*
X104310000Y-114960000D01*
X104310000Y-114960000D02*
X102710000Y-114960000D01*
X104310000Y-123040000D02*
X102710000Y-123040000D01*
X104310000Y-124060000D02*
X104310000Y-123040000D01*
%TD*%
M02*
