%TF.GenerationSoftware,KiCad,Pcbnew,8.0.8*%
%TF.CreationDate,2025-02-05T17:12:45-05:00*%
%TF.ProjectId,Spectrometer V1.0,53706563-7472-46f6-9d65-746572205631,rev?*%
%TF.SameCoordinates,Original*%
%TF.FileFunction,Legend,Bot*%
%TF.FilePolarity,Positive*%
%FSLAX46Y46*%
G04 Gerber Fmt 4.6, Leading zero omitted, Abs format (unit mm)*
G04 Created by KiCad (PCBNEW 8.0.8) date 2025-02-05 17:12:45*
%MOMM*%
%LPD*%
G01*
G04 APERTURE LIST*
%ADD10C,0.100000*%
%ADD11C,0.500000*%
%ADD12C,0.508000*%
G04 APERTURE END LIST*
D10*
X113291353Y-131972419D02*
X113053258Y-132972419D01*
X113053258Y-132972419D02*
X112862782Y-132258133D01*
X112862782Y-132258133D02*
X112672306Y-132972419D01*
X112672306Y-132972419D02*
X112434211Y-131972419D01*
X111624687Y-132972419D02*
X111624687Y-132448609D01*
X111624687Y-132448609D02*
X111672306Y-132353371D01*
X111672306Y-132353371D02*
X111767544Y-132305752D01*
X111767544Y-132305752D02*
X111958020Y-132305752D01*
X111958020Y-132305752D02*
X112053258Y-132353371D01*
X111624687Y-132924800D02*
X111719925Y-132972419D01*
X111719925Y-132972419D02*
X111958020Y-132972419D01*
X111958020Y-132972419D02*
X112053258Y-132924800D01*
X112053258Y-132924800D02*
X112100877Y-132829561D01*
X112100877Y-132829561D02*
X112100877Y-132734323D01*
X112100877Y-132734323D02*
X112053258Y-132639085D01*
X112053258Y-132639085D02*
X111958020Y-132591466D01*
X111958020Y-132591466D02*
X111719925Y-132591466D01*
X111719925Y-132591466D02*
X111624687Y-132543847D01*
X111243734Y-132305752D02*
X111005639Y-132972419D01*
X110767544Y-132305752D02*
X111005639Y-132972419D01*
X111005639Y-132972419D02*
X111100877Y-133210514D01*
X111100877Y-133210514D02*
X111148496Y-133258133D01*
X111148496Y-133258133D02*
X111243734Y-133305752D01*
X110481829Y-131972419D02*
X110243734Y-132972419D01*
X110243734Y-132972419D02*
X110053258Y-132258133D01*
X110053258Y-132258133D02*
X109862782Y-132972419D01*
X109862782Y-132972419D02*
X109624687Y-131972419D01*
X108815163Y-132972419D02*
X108815163Y-132448609D01*
X108815163Y-132448609D02*
X108862782Y-132353371D01*
X108862782Y-132353371D02*
X108958020Y-132305752D01*
X108958020Y-132305752D02*
X109148496Y-132305752D01*
X109148496Y-132305752D02*
X109243734Y-132353371D01*
X108815163Y-132924800D02*
X108910401Y-132972419D01*
X108910401Y-132972419D02*
X109148496Y-132972419D01*
X109148496Y-132972419D02*
X109243734Y-132924800D01*
X109243734Y-132924800D02*
X109291353Y-132829561D01*
X109291353Y-132829561D02*
X109291353Y-132734323D01*
X109291353Y-132734323D02*
X109243734Y-132639085D01*
X109243734Y-132639085D02*
X109148496Y-132591466D01*
X109148496Y-132591466D02*
X108910401Y-132591466D01*
X108910401Y-132591466D02*
X108815163Y-132543847D01*
X108434210Y-132305752D02*
X108196115Y-132972419D01*
X107958020Y-132305752D02*
X108196115Y-132972419D01*
X108196115Y-132972419D02*
X108291353Y-133210514D01*
X108291353Y-133210514D02*
X108338972Y-133258133D01*
X108338972Y-133258133D02*
X108434210Y-133305752D01*
X107672305Y-131972419D02*
X107434210Y-132972419D01*
X107434210Y-132972419D02*
X107243734Y-132258133D01*
X107243734Y-132258133D02*
X107053258Y-132972419D01*
X107053258Y-132972419D02*
X106815163Y-131972419D01*
X106005639Y-132972419D02*
X106005639Y-132448609D01*
X106005639Y-132448609D02*
X106053258Y-132353371D01*
X106053258Y-132353371D02*
X106148496Y-132305752D01*
X106148496Y-132305752D02*
X106338972Y-132305752D01*
X106338972Y-132305752D02*
X106434210Y-132353371D01*
X106005639Y-132924800D02*
X106100877Y-132972419D01*
X106100877Y-132972419D02*
X106338972Y-132972419D01*
X106338972Y-132972419D02*
X106434210Y-132924800D01*
X106434210Y-132924800D02*
X106481829Y-132829561D01*
X106481829Y-132829561D02*
X106481829Y-132734323D01*
X106481829Y-132734323D02*
X106434210Y-132639085D01*
X106434210Y-132639085D02*
X106338972Y-132591466D01*
X106338972Y-132591466D02*
X106100877Y-132591466D01*
X106100877Y-132591466D02*
X106005639Y-132543847D01*
X105624686Y-132305752D02*
X105386591Y-132972419D01*
X105148496Y-132305752D02*
X105386591Y-132972419D01*
X105386591Y-132972419D02*
X105481829Y-133210514D01*
X105481829Y-133210514D02*
X105529448Y-133258133D01*
X105529448Y-133258133D02*
X105624686Y-133305752D01*
D11*
X134994862Y-129309350D02*
X134994862Y-127309350D01*
X134994862Y-127309350D02*
X134518672Y-127309350D01*
X134518672Y-127309350D02*
X134232957Y-127404588D01*
X134232957Y-127404588D02*
X134042481Y-127595064D01*
X134042481Y-127595064D02*
X133947243Y-127785540D01*
X133947243Y-127785540D02*
X133852005Y-128166492D01*
X133852005Y-128166492D02*
X133852005Y-128452207D01*
X133852005Y-128452207D02*
X133947243Y-128833159D01*
X133947243Y-128833159D02*
X134042481Y-129023635D01*
X134042481Y-129023635D02*
X134232957Y-129214112D01*
X134232957Y-129214112D02*
X134518672Y-129309350D01*
X134518672Y-129309350D02*
X134994862Y-129309350D01*
X132137719Y-129309350D02*
X132137719Y-128261731D01*
X132137719Y-128261731D02*
X132232957Y-128071254D01*
X132232957Y-128071254D02*
X132423433Y-127976016D01*
X132423433Y-127976016D02*
X132804386Y-127976016D01*
X132804386Y-127976016D02*
X132994862Y-128071254D01*
X132137719Y-129214112D02*
X132328195Y-129309350D01*
X132328195Y-129309350D02*
X132804386Y-129309350D01*
X132804386Y-129309350D02*
X132994862Y-129214112D01*
X132994862Y-129214112D02*
X133090100Y-129023635D01*
X133090100Y-129023635D02*
X133090100Y-128833159D01*
X133090100Y-128833159D02*
X132994862Y-128642683D01*
X132994862Y-128642683D02*
X132804386Y-128547445D01*
X132804386Y-128547445D02*
X132328195Y-128547445D01*
X132328195Y-128547445D02*
X132137719Y-128452207D01*
X131375814Y-127976016D02*
X130899624Y-129309350D01*
X130899624Y-129309350D02*
X130423433Y-127976016D01*
X129661528Y-129309350D02*
X129661528Y-127976016D01*
X129661528Y-127309350D02*
X129756766Y-127404588D01*
X129756766Y-127404588D02*
X129661528Y-127499826D01*
X129661528Y-127499826D02*
X129566290Y-127404588D01*
X129566290Y-127404588D02*
X129661528Y-127309350D01*
X129661528Y-127309350D02*
X129661528Y-127499826D01*
X127852004Y-129309350D02*
X127852004Y-127309350D01*
X127852004Y-129214112D02*
X128042480Y-129309350D01*
X128042480Y-129309350D02*
X128423433Y-129309350D01*
X128423433Y-129309350D02*
X128613909Y-129214112D01*
X128613909Y-129214112D02*
X128709147Y-129118873D01*
X128709147Y-129118873D02*
X128804385Y-128928397D01*
X128804385Y-128928397D02*
X128804385Y-128356969D01*
X128804385Y-128356969D02*
X128709147Y-128166492D01*
X128709147Y-128166492D02*
X128613909Y-128071254D01*
X128613909Y-128071254D02*
X128423433Y-127976016D01*
X128423433Y-127976016D02*
X128042480Y-127976016D01*
X128042480Y-127976016D02*
X127852004Y-128071254D01*
X124709146Y-128261731D02*
X124423432Y-128356969D01*
X124423432Y-128356969D02*
X124328194Y-128452207D01*
X124328194Y-128452207D02*
X124232956Y-128642683D01*
X124232956Y-128642683D02*
X124232956Y-128928397D01*
X124232956Y-128928397D02*
X124328194Y-129118873D01*
X124328194Y-129118873D02*
X124423432Y-129214112D01*
X124423432Y-129214112D02*
X124613908Y-129309350D01*
X124613908Y-129309350D02*
X125375813Y-129309350D01*
X125375813Y-129309350D02*
X125375813Y-127309350D01*
X125375813Y-127309350D02*
X124709146Y-127309350D01*
X124709146Y-127309350D02*
X124518670Y-127404588D01*
X124518670Y-127404588D02*
X124423432Y-127499826D01*
X124423432Y-127499826D02*
X124328194Y-127690302D01*
X124328194Y-127690302D02*
X124328194Y-127880778D01*
X124328194Y-127880778D02*
X124423432Y-128071254D01*
X124423432Y-128071254D02*
X124518670Y-128166492D01*
X124518670Y-128166492D02*
X124709146Y-128261731D01*
X124709146Y-128261731D02*
X125375813Y-128261731D01*
X122518670Y-129309350D02*
X122518670Y-128261731D01*
X122518670Y-128261731D02*
X122613908Y-128071254D01*
X122613908Y-128071254D02*
X122804384Y-127976016D01*
X122804384Y-127976016D02*
X123185337Y-127976016D01*
X123185337Y-127976016D02*
X123375813Y-128071254D01*
X122518670Y-129214112D02*
X122709146Y-129309350D01*
X122709146Y-129309350D02*
X123185337Y-129309350D01*
X123185337Y-129309350D02*
X123375813Y-129214112D01*
X123375813Y-129214112D02*
X123471051Y-129023635D01*
X123471051Y-129023635D02*
X123471051Y-128833159D01*
X123471051Y-128833159D02*
X123375813Y-128642683D01*
X123375813Y-128642683D02*
X123185337Y-128547445D01*
X123185337Y-128547445D02*
X122709146Y-128547445D01*
X122709146Y-128547445D02*
X122518670Y-128452207D01*
X121661527Y-129214112D02*
X121471051Y-129309350D01*
X121471051Y-129309350D02*
X121090099Y-129309350D01*
X121090099Y-129309350D02*
X120899622Y-129214112D01*
X120899622Y-129214112D02*
X120804384Y-129023635D01*
X120804384Y-129023635D02*
X120804384Y-128928397D01*
X120804384Y-128928397D02*
X120899622Y-128737921D01*
X120899622Y-128737921D02*
X121090099Y-128642683D01*
X121090099Y-128642683D02*
X121375813Y-128642683D01*
X121375813Y-128642683D02*
X121566289Y-128547445D01*
X121566289Y-128547445D02*
X121661527Y-128356969D01*
X121661527Y-128356969D02*
X121661527Y-128261731D01*
X121661527Y-128261731D02*
X121566289Y-128071254D01*
X121566289Y-128071254D02*
X121375813Y-127976016D01*
X121375813Y-127976016D02*
X121090099Y-127976016D01*
X121090099Y-127976016D02*
X120899622Y-128071254D01*
X119090098Y-129214112D02*
X119280574Y-129309350D01*
X119280574Y-129309350D02*
X119661527Y-129309350D01*
X119661527Y-129309350D02*
X119852003Y-129214112D01*
X119852003Y-129214112D02*
X119947241Y-129118873D01*
X119947241Y-129118873D02*
X120042479Y-128928397D01*
X120042479Y-128928397D02*
X120042479Y-128356969D01*
X120042479Y-128356969D02*
X119947241Y-128166492D01*
X119947241Y-128166492D02*
X119852003Y-128071254D01*
X119852003Y-128071254D02*
X119661527Y-127976016D01*
X119661527Y-127976016D02*
X119280574Y-127976016D01*
X119280574Y-127976016D02*
X119090098Y-128071254D01*
X117947241Y-129309350D02*
X118137717Y-129214112D01*
X118137717Y-129214112D02*
X118232955Y-129118873D01*
X118232955Y-129118873D02*
X118328193Y-128928397D01*
X118328193Y-128928397D02*
X118328193Y-128356969D01*
X118328193Y-128356969D02*
X118232955Y-128166492D01*
X118232955Y-128166492D02*
X118137717Y-128071254D01*
X118137717Y-128071254D02*
X117947241Y-127976016D01*
X117947241Y-127976016D02*
X117661526Y-127976016D01*
X117661526Y-127976016D02*
X117471050Y-128071254D01*
X117471050Y-128071254D02*
X117375812Y-128166492D01*
X117375812Y-128166492D02*
X117280574Y-128356969D01*
X117280574Y-128356969D02*
X117280574Y-128928397D01*
X117280574Y-128928397D02*
X117375812Y-129118873D01*
X117375812Y-129118873D02*
X117471050Y-129214112D01*
X117471050Y-129214112D02*
X117661526Y-129309350D01*
X117661526Y-129309350D02*
X117947241Y-129309350D01*
X116423431Y-129309350D02*
X116423431Y-127976016D01*
X116423431Y-128166492D02*
X116328193Y-128071254D01*
X116328193Y-128071254D02*
X116137717Y-127976016D01*
X116137717Y-127976016D02*
X115852002Y-127976016D01*
X115852002Y-127976016D02*
X115661526Y-128071254D01*
X115661526Y-128071254D02*
X115566288Y-128261731D01*
X115566288Y-128261731D02*
X115566288Y-129309350D01*
X115566288Y-128261731D02*
X115471050Y-128071254D01*
X115471050Y-128071254D02*
X115280574Y-127976016D01*
X115280574Y-127976016D02*
X114994860Y-127976016D01*
X114994860Y-127976016D02*
X114804383Y-128071254D01*
X114804383Y-128071254D02*
X114709145Y-128261731D01*
X114709145Y-128261731D02*
X114709145Y-129309350D01*
X135090100Y-130719714D02*
X134994862Y-130624476D01*
X134994862Y-130624476D02*
X134804386Y-130529238D01*
X134804386Y-130529238D02*
X134328195Y-130529238D01*
X134328195Y-130529238D02*
X134137719Y-130624476D01*
X134137719Y-130624476D02*
X134042481Y-130719714D01*
X134042481Y-130719714D02*
X133947243Y-130910190D01*
X133947243Y-130910190D02*
X133947243Y-131100666D01*
X133947243Y-131100666D02*
X134042481Y-131386380D01*
X134042481Y-131386380D02*
X135185338Y-132529238D01*
X135185338Y-132529238D02*
X133947243Y-132529238D01*
X132709148Y-130529238D02*
X132518671Y-130529238D01*
X132518671Y-130529238D02*
X132328195Y-130624476D01*
X132328195Y-130624476D02*
X132232957Y-130719714D01*
X132232957Y-130719714D02*
X132137719Y-130910190D01*
X132137719Y-130910190D02*
X132042481Y-131291142D01*
X132042481Y-131291142D02*
X132042481Y-131767333D01*
X132042481Y-131767333D02*
X132137719Y-132148285D01*
X132137719Y-132148285D02*
X132232957Y-132338761D01*
X132232957Y-132338761D02*
X132328195Y-132434000D01*
X132328195Y-132434000D02*
X132518671Y-132529238D01*
X132518671Y-132529238D02*
X132709148Y-132529238D01*
X132709148Y-132529238D02*
X132899624Y-132434000D01*
X132899624Y-132434000D02*
X132994862Y-132338761D01*
X132994862Y-132338761D02*
X133090100Y-132148285D01*
X133090100Y-132148285D02*
X133185338Y-131767333D01*
X133185338Y-131767333D02*
X133185338Y-131291142D01*
X133185338Y-131291142D02*
X133090100Y-130910190D01*
X133090100Y-130910190D02*
X132994862Y-130719714D01*
X132994862Y-130719714D02*
X132899624Y-130624476D01*
X132899624Y-130624476D02*
X132709148Y-130529238D01*
X131280576Y-130719714D02*
X131185338Y-130624476D01*
X131185338Y-130624476D02*
X130994862Y-130529238D01*
X130994862Y-130529238D02*
X130518671Y-130529238D01*
X130518671Y-130529238D02*
X130328195Y-130624476D01*
X130328195Y-130624476D02*
X130232957Y-130719714D01*
X130232957Y-130719714D02*
X130137719Y-130910190D01*
X130137719Y-130910190D02*
X130137719Y-131100666D01*
X130137719Y-131100666D02*
X130232957Y-131386380D01*
X130232957Y-131386380D02*
X131375814Y-132529238D01*
X131375814Y-132529238D02*
X130137719Y-132529238D01*
X128328195Y-130529238D02*
X129280576Y-130529238D01*
X129280576Y-130529238D02*
X129375814Y-131481619D01*
X129375814Y-131481619D02*
X129280576Y-131386380D01*
X129280576Y-131386380D02*
X129090100Y-131291142D01*
X129090100Y-131291142D02*
X128613909Y-131291142D01*
X128613909Y-131291142D02*
X128423433Y-131386380D01*
X128423433Y-131386380D02*
X128328195Y-131481619D01*
X128328195Y-131481619D02*
X128232957Y-131672095D01*
X128232957Y-131672095D02*
X128232957Y-132148285D01*
X128232957Y-132148285D02*
X128328195Y-132338761D01*
X128328195Y-132338761D02*
X128423433Y-132434000D01*
X128423433Y-132434000D02*
X128613909Y-132529238D01*
X128613909Y-132529238D02*
X129090100Y-132529238D01*
X129090100Y-132529238D02*
X129280576Y-132434000D01*
X129280576Y-132434000D02*
X129375814Y-132338761D01*
X126137718Y-130529238D02*
X125471052Y-132529238D01*
X125471052Y-132529238D02*
X124804385Y-130529238D01*
X123090099Y-132529238D02*
X124232956Y-132529238D01*
X123661528Y-132529238D02*
X123661528Y-130529238D01*
X123661528Y-130529238D02*
X123852004Y-130814952D01*
X123852004Y-130814952D02*
X124042480Y-131005428D01*
X124042480Y-131005428D02*
X124232956Y-131100666D01*
X122232956Y-132338761D02*
X122137718Y-132434000D01*
X122137718Y-132434000D02*
X122232956Y-132529238D01*
X122232956Y-132529238D02*
X122328194Y-132434000D01*
X122328194Y-132434000D02*
X122232956Y-132338761D01*
X122232956Y-132338761D02*
X122232956Y-132529238D01*
X120899623Y-130529238D02*
X120709146Y-130529238D01*
X120709146Y-130529238D02*
X120518670Y-130624476D01*
X120518670Y-130624476D02*
X120423432Y-130719714D01*
X120423432Y-130719714D02*
X120328194Y-130910190D01*
X120328194Y-130910190D02*
X120232956Y-131291142D01*
X120232956Y-131291142D02*
X120232956Y-131767333D01*
X120232956Y-131767333D02*
X120328194Y-132148285D01*
X120328194Y-132148285D02*
X120423432Y-132338761D01*
X120423432Y-132338761D02*
X120518670Y-132434000D01*
X120518670Y-132434000D02*
X120709146Y-132529238D01*
X120709146Y-132529238D02*
X120899623Y-132529238D01*
X120899623Y-132529238D02*
X121090099Y-132434000D01*
X121090099Y-132434000D02*
X121185337Y-132338761D01*
X121185337Y-132338761D02*
X121280575Y-132148285D01*
X121280575Y-132148285D02*
X121375813Y-131767333D01*
X121375813Y-131767333D02*
X121375813Y-131291142D01*
X121375813Y-131291142D02*
X121280575Y-130910190D01*
X121280575Y-130910190D02*
X121185337Y-130719714D01*
X121185337Y-130719714D02*
X121090099Y-130624476D01*
X121090099Y-130624476D02*
X120899623Y-130529238D01*
D12*
%TO.C,U1*%
X146881100Y-127380100D02*
G75*
G02*
X146119100Y-127380100I-381000J0D01*
G01*
X146119100Y-127380100D02*
G75*
G02*
X146881100Y-127380100I381000J0D01*
G01*
%TD*%
M02*
