%TF.GenerationSoftware,KiCad,Pcbnew,8.0.8*%
%TF.CreationDate,2025-03-05T15:18:31-05:00*%
%TF.ProjectId,V2.0,56322e30-2e6b-4696-9361-645f70636258,rev?*%
%TF.SameCoordinates,Original*%
%TF.FileFunction,Soldermask,Bot*%
%TF.FilePolarity,Negative*%
%FSLAX46Y46*%
G04 Gerber Fmt 4.6, Leading zero omitted, Abs format (unit mm)*
G04 Created by KiCad (PCBNEW 8.0.8) date 2025-03-05 15:18:31*
%MOMM*%
%LPD*%
G01*
G04 APERTURE LIST*
G04 Aperture macros list*
%AMRoundRect*
0 Rectangle with rounded corners*
0 $1 Rounding radius*
0 $2 $3 $4 $5 $6 $7 $8 $9 X,Y pos of 4 corners*
0 Add a 4 corners polygon primitive as box body*
4,1,4,$2,$3,$4,$5,$6,$7,$8,$9,$2,$3,0*
0 Add four circle primitives for the rounded corners*
1,1,$1+$1,$2,$3*
1,1,$1+$1,$4,$5*
1,1,$1+$1,$6,$7*
1,1,$1+$1,$8,$9*
0 Add four rect primitives between the rounded corners*
20,1,$1+$1,$2,$3,$4,$5,0*
20,1,$1+$1,$4,$5,$6,$7,0*
20,1,$1+$1,$6,$7,$8,$9,0*
20,1,$1+$1,$8,$9,$2,$3,0*%
G04 Aperture macros list end*
%ADD10RoundRect,0.135000X0.135000X0.185000X-0.135000X0.185000X-0.135000X-0.185000X0.135000X-0.185000X0*%
%ADD11RoundRect,0.135000X-0.185000X0.135000X-0.185000X-0.135000X0.185000X-0.135000X0.185000X0.135000X0*%
%ADD12C,1.000000*%
%ADD13R,1.700000X1.700000*%
%ADD14C,1.700000*%
%ADD15O,1.700000X1.700000*%
%ADD16C,2.700000*%
%ADD17O,1.000000X1.000000*%
%ADD18R,1.000000X1.000000*%
%ADD19RoundRect,0.135000X0.185000X-0.135000X0.185000X0.135000X-0.185000X0.135000X-0.185000X-0.135000X0*%
%ADD20RoundRect,0.225000X-0.225000X-0.250000X0.225000X-0.250000X0.225000X0.250000X-0.225000X0.250000X0*%
%ADD21RoundRect,0.140000X0.140000X0.170000X-0.140000X0.170000X-0.140000X-0.170000X0.140000X-0.170000X0*%
%ADD22RoundRect,0.140000X-0.170000X0.140000X-0.170000X-0.140000X0.170000X-0.140000X0.170000X0.140000X0*%
%ADD23RoundRect,0.225000X0.250000X-0.225000X0.250000X0.225000X-0.250000X0.225000X-0.250000X-0.225000X0*%
%ADD24RoundRect,0.135000X-0.135000X-0.185000X0.135000X-0.185000X0.135000X0.185000X-0.135000X0.185000X0*%
%ADD25RoundRect,0.150000X-0.150000X0.825000X-0.150000X-0.825000X0.150000X-0.825000X0.150000X0.825000X0*%
%ADD26RoundRect,0.250000X-0.650000X0.325000X-0.650000X-0.325000X0.650000X-0.325000X0.650000X0.325000X0*%
%ADD27RoundRect,0.140000X-0.140000X-0.170000X0.140000X-0.170000X0.140000X0.170000X-0.140000X0.170000X0*%
%ADD28RoundRect,0.375000X-0.625000X-0.375000X0.625000X-0.375000X0.625000X0.375000X-0.625000X0.375000X0*%
%ADD29RoundRect,0.500000X-0.500000X-1.400000X0.500000X-1.400000X0.500000X1.400000X-0.500000X1.400000X0*%
%ADD30C,0.499999*%
%ADD31R,1.699999X2.700000*%
%ADD32R,0.249999X0.599999*%
%ADD33R,0.599999X0.249999*%
%ADD34RoundRect,0.075000X0.075000X-0.662500X0.075000X0.662500X-0.075000X0.662500X-0.075000X-0.662500X0*%
%ADD35RoundRect,0.075000X0.662500X-0.075000X0.662500X0.075000X-0.662500X0.075000X-0.662500X-0.075000X0*%
%ADD36RoundRect,0.200000X0.200000X0.275000X-0.200000X0.275000X-0.200000X-0.275000X0.200000X-0.275000X0*%
%ADD37RoundRect,0.250000X0.650000X-0.325000X0.650000X0.325000X-0.650000X0.325000X-0.650000X-0.325000X0*%
%ADD38RoundRect,0.250000X-0.475000X0.250000X-0.475000X-0.250000X0.475000X-0.250000X0.475000X0.250000X0*%
%ADD39RoundRect,0.250000X-0.262500X-0.450000X0.262500X-0.450000X0.262500X0.450000X-0.262500X0.450000X0*%
%ADD40RoundRect,0.250000X0.250000X0.475000X-0.250000X0.475000X-0.250000X-0.475000X0.250000X-0.475000X0*%
%ADD41RoundRect,0.225000X0.225000X0.250000X-0.225000X0.250000X-0.225000X-0.250000X0.225000X-0.250000X0*%
%ADD42RoundRect,0.140000X0.170000X-0.140000X0.170000X0.140000X-0.170000X0.140000X-0.170000X-0.140000X0*%
G04 APERTURE END LIST*
D10*
%TO.C,R11*%
X140610000Y-51400000D03*
X139590000Y-51400000D03*
%TD*%
D11*
%TO.C,R10*%
X157000000Y-60290000D03*
X157000000Y-61310000D03*
%TD*%
D12*
%TO.C,TP18*%
X142100000Y-70700000D03*
%TD*%
D13*
%TO.C,J6*%
X163000000Y-43000000D03*
D14*
X163000000Y-40460000D03*
X163000000Y-37920000D03*
X160460000Y-43000000D03*
X160460000Y-40500000D03*
X160460000Y-38000000D03*
X157920000Y-43000000D03*
X157920000Y-40500000D03*
X157920000Y-38000000D03*
X155380000Y-43000000D03*
X155380000Y-40500000D03*
X155380000Y-38000000D03*
%TD*%
D13*
%TO.C,J7*%
X152000000Y-43000000D03*
D14*
X152000000Y-40460000D03*
X152000000Y-37920000D03*
X149460000Y-43000000D03*
X149460000Y-40500000D03*
X149460000Y-38000000D03*
X146920000Y-43000000D03*
X146920000Y-40500000D03*
X146920000Y-38000000D03*
X144380000Y-43000000D03*
X144380000Y-40500000D03*
X144380000Y-38000000D03*
%TD*%
D13*
%TO.C,J8*%
X141000000Y-43000000D03*
D14*
X141000000Y-40460000D03*
X141000000Y-37920000D03*
X138460000Y-43000000D03*
X138460000Y-40500000D03*
X138460000Y-38000000D03*
X135920000Y-43000000D03*
X135920000Y-40500000D03*
X135920000Y-38000000D03*
X133380000Y-43000000D03*
X133380000Y-40500000D03*
X133380000Y-38000000D03*
%TD*%
D13*
%TO.C,J9*%
X130000000Y-43000000D03*
D14*
X130000000Y-40460000D03*
X130000000Y-37920000D03*
X127460000Y-43000000D03*
X127460000Y-40500000D03*
X127460000Y-38000000D03*
X124920000Y-43000000D03*
X124920000Y-40500000D03*
X124920000Y-38000000D03*
X122380000Y-43000000D03*
X122380000Y-40500000D03*
X122380000Y-38000000D03*
%TD*%
D13*
%TO.C,J4*%
X124625000Y-50050000D03*
D15*
X122085000Y-50050000D03*
X124625000Y-52590000D03*
X122085000Y-52590000D03*
X124625000Y-55130000D03*
X122085000Y-55130000D03*
X124625000Y-57670000D03*
X122085000Y-57670000D03*
X124625000Y-60210000D03*
X122085000Y-60210000D03*
X124625000Y-62750000D03*
X122085000Y-62750000D03*
X124625000Y-65290000D03*
X122085000Y-65290000D03*
X124625000Y-67830000D03*
X122085000Y-67830000D03*
X124625000Y-70370000D03*
X122085000Y-70370000D03*
X124625000Y-72910000D03*
X122085000Y-72910000D03*
%TD*%
D16*
%TO.C,H1*%
X117000000Y-39000000D03*
%TD*%
D13*
%TO.C,J2*%
X161600000Y-65400000D03*
D15*
X159060000Y-65400000D03*
%TD*%
D13*
%TO.C,J1*%
X159000000Y-69400000D03*
D15*
X161540000Y-69400000D03*
%TD*%
D17*
%TO.C,J3*%
X161230000Y-55330000D03*
X162500000Y-55330000D03*
X161230000Y-56600000D03*
X162500000Y-56600000D03*
X161230000Y-57870000D03*
X162500000Y-57870000D03*
X161230000Y-59140000D03*
X162500000Y-59140000D03*
X161230000Y-60410000D03*
D18*
X162500000Y-60410000D03*
%TD*%
D16*
%TO.C,H4*%
X161000000Y-83000000D03*
%TD*%
%TO.C,H2*%
X161000000Y-49000000D03*
%TD*%
%TO.C,H3*%
X119200000Y-83000000D03*
%TD*%
D19*
%TO.C,RRT1*%
X134185000Y-84360001D03*
X134185000Y-83340001D03*
%TD*%
D20*
%TO.C,C1*%
X153025000Y-60200000D03*
X154575000Y-60200000D03*
%TD*%
D21*
%TO.C,Cilim1*%
X138665000Y-72450001D03*
X137705000Y-72450001D03*
%TD*%
%TO.C,Cvin1*%
X137865000Y-83250001D03*
X136905000Y-83250001D03*
%TD*%
%TO.C,C8*%
X141480000Y-53800000D03*
X140520000Y-53800000D03*
%TD*%
D11*
%TO.C,RUV2*%
X135585000Y-83340001D03*
X135585000Y-84360001D03*
%TD*%
D22*
%TO.C,C4*%
X151600000Y-59920000D03*
X151600000Y-60880000D03*
%TD*%
D21*
%TO.C,CC1*%
X132265000Y-81850001D03*
X131305000Y-81850001D03*
%TD*%
D23*
%TO.C,CSS1*%
X132185000Y-85225001D03*
X132185000Y-83675001D03*
%TD*%
D19*
%TO.C,RFB1*%
X131185000Y-78050001D03*
X131185000Y-77030001D03*
%TD*%
D24*
%TO.C,RC2*%
X128875000Y-76850001D03*
X129895000Y-76850001D03*
%TD*%
D10*
%TO.C,Rin1*%
X140495000Y-83450001D03*
X139475000Y-83450001D03*
%TD*%
D25*
%TO.C,U3*%
X115095000Y-46525000D03*
X116365000Y-46525000D03*
X117635000Y-46525000D03*
X118905000Y-46525000D03*
X118905000Y-51475000D03*
X117635000Y-51475000D03*
X116365000Y-51475000D03*
X115095000Y-51475000D03*
%TD*%
D22*
%TO.C,C5*%
X141400000Y-54920000D03*
X141400000Y-55880000D03*
%TD*%
D26*
%TO.C,COUT1*%
X144855000Y-63245000D03*
X144855000Y-66195000D03*
%TD*%
D27*
%TO.C,C6*%
X141920000Y-51400000D03*
X142880000Y-51400000D03*
%TD*%
D24*
%TO.C,R1*%
X154290000Y-56400000D03*
X155310000Y-56400000D03*
%TD*%
D28*
%TO.C,U4*%
X131350000Y-54500000D03*
X131350000Y-52200000D03*
D29*
X137650000Y-52200000D03*
D28*
X131350000Y-49900000D03*
%TD*%
D30*
%TO.C,U5*%
X136984999Y-78950001D03*
X136385000Y-80050001D03*
D31*
X136385000Y-78950001D03*
D30*
X136385000Y-77850001D03*
X135785001Y-78950001D03*
D32*
X137135001Y-81100002D03*
D33*
X138034999Y-80700003D03*
X138034999Y-80200001D03*
X138034999Y-79700002D03*
X138034999Y-79200003D03*
X138034999Y-78700001D03*
X138034999Y-78200003D03*
X138034999Y-77700001D03*
X138034999Y-77200002D03*
D32*
X137135001Y-76800000D03*
X135634999Y-76800000D03*
D33*
X134735001Y-77200002D03*
X134735001Y-77700001D03*
X134735001Y-78200000D03*
X134735001Y-78699999D03*
X134735001Y-79200001D03*
X134735001Y-79699999D03*
X134735001Y-80200001D03*
X134735001Y-80700000D03*
D32*
X135634999Y-81100002D03*
%TD*%
D34*
%TO.C,U1*%
X150150000Y-59562500D03*
X149650000Y-59562500D03*
X149150000Y-59562500D03*
X148650000Y-59562500D03*
X148150000Y-59562500D03*
X147650000Y-59562500D03*
X147150000Y-59562500D03*
X146650000Y-59562500D03*
X146150000Y-59562500D03*
X145650000Y-59562500D03*
X145150000Y-59562500D03*
X144650000Y-59562500D03*
D35*
X143237500Y-58150000D03*
X143237500Y-57650000D03*
X143237500Y-57150000D03*
X143237500Y-56650000D03*
X143237500Y-56150000D03*
X143237500Y-55650000D03*
X143237500Y-55150000D03*
X143237500Y-54650000D03*
X143237500Y-54150000D03*
X143237500Y-53650000D03*
X143237500Y-53150000D03*
X143237500Y-52650000D03*
D34*
X144650000Y-51237500D03*
X145150000Y-51237500D03*
X145650000Y-51237500D03*
X146150000Y-51237500D03*
X146650000Y-51237500D03*
X147150000Y-51237500D03*
X147650000Y-51237500D03*
X148150000Y-51237500D03*
X148650000Y-51237500D03*
X149150000Y-51237500D03*
X149650000Y-51237500D03*
X150150000Y-51237500D03*
D35*
X151562500Y-52650000D03*
X151562500Y-53150000D03*
X151562500Y-53650000D03*
X151562500Y-54150000D03*
X151562500Y-54650000D03*
X151562500Y-55150000D03*
X151562500Y-55650000D03*
X151562500Y-56150000D03*
X151562500Y-56650000D03*
X151562500Y-57150000D03*
X151562500Y-57650000D03*
X151562500Y-58150000D03*
%TD*%
D21*
%TO.C,CC3*%
X129865000Y-78050001D03*
X128905000Y-78050001D03*
%TD*%
D36*
%TO.C,RUV1*%
X140410000Y-85250001D03*
X138760000Y-85250001D03*
%TD*%
D37*
%TO.C,CIN4*%
X155200000Y-77420000D03*
X155200000Y-80370000D03*
%TD*%
D24*
%TO.C,RPGOOD1*%
X133875000Y-75250001D03*
X134895000Y-75250001D03*
%TD*%
D38*
%TO.C,C16*%
X128400000Y-49200000D03*
X128400000Y-51100000D03*
%TD*%
D39*
%TO.C,Rilim1*%
X138672500Y-74450001D03*
X140497500Y-74450001D03*
%TD*%
D19*
%TO.C,RC1*%
X129985000Y-81760001D03*
X129985000Y-80740001D03*
%TD*%
D11*
%TO.C,RFB2*%
X132585000Y-78340001D03*
X132585000Y-79360001D03*
%TD*%
D21*
%TO.C,C2*%
X150880000Y-49400000D03*
X149920000Y-49400000D03*
%TD*%
%TO.C,C14*%
X117480000Y-44600000D03*
X116520000Y-44600000D03*
%TD*%
D40*
%TO.C,C17*%
X135950000Y-56800000D03*
X134050000Y-56800000D03*
%TD*%
D37*
%TO.C,CIN3*%
X152455000Y-80370000D03*
X152455000Y-77420000D03*
%TD*%
D23*
%TO.C,CVcc1*%
X140985000Y-78225001D03*
X140985000Y-76675001D03*
%TD*%
D26*
%TO.C,COUT2*%
X147855000Y-63245000D03*
X147855000Y-66195000D03*
%TD*%
D41*
%TO.C,CBoot1*%
X141760000Y-81450001D03*
X140210000Y-81450001D03*
%TD*%
D21*
%TO.C,CC2*%
X132265000Y-80650001D03*
X131305000Y-80650001D03*
%TD*%
D22*
%TO.C,C15*%
X120400000Y-51320000D03*
X120400000Y-52280000D03*
%TD*%
D42*
%TO.C,C7*%
X153400000Y-58480000D03*
X153400000Y-57520000D03*
%TD*%
M02*
