%TF.GenerationSoftware,KiCad,Pcbnew,8.0.8*%
%TF.CreationDate,2025-03-05T15:18:31-05:00*%
%TF.ProjectId,V2.0,56322e30-2e6b-4696-9361-645f70636258,rev?*%
%TF.SameCoordinates,Original*%
%TF.FileFunction,Soldermask,Top*%
%TF.FilePolarity,Negative*%
%FSLAX46Y46*%
G04 Gerber Fmt 4.6, Leading zero omitted, Abs format (unit mm)*
G04 Created by KiCad (PCBNEW 8.0.8) date 2025-03-05 15:18:31*
%MOMM*%
%LPD*%
G01*
G04 APERTURE LIST*
G04 Aperture macros list*
%AMRoundRect*
0 Rectangle with rounded corners*
0 $1 Rounding radius*
0 $2 $3 $4 $5 $6 $7 $8 $9 X,Y pos of 4 corners*
0 Add a 4 corners polygon primitive as box body*
4,1,4,$2,$3,$4,$5,$6,$7,$8,$9,$2,$3,0*
0 Add four circle primitives for the rounded corners*
1,1,$1+$1,$2,$3*
1,1,$1+$1,$4,$5*
1,1,$1+$1,$6,$7*
1,1,$1+$1,$8,$9*
0 Add four rect primitives between the rounded corners*
20,1,$1+$1,$2,$3,$4,$5,0*
20,1,$1+$1,$4,$5,$6,$7,0*
20,1,$1+$1,$6,$7,$8,$9,0*
20,1,$1+$1,$8,$9,$2,$3,0*%
%AMFreePoly0*
4,1,17,2.675000,1.605000,1.875000,1.605000,1.875000,0.935000,2.675000,0.935000,2.675000,0.335000,1.875000,0.335000,1.875000,-0.335000,2.675000,-0.335000,2.675000,-0.935000,1.875000,-0.935000,1.875000,-1.605000,2.675000,-1.605000,2.675000,-2.205000,-1.875000,-2.205000,-1.875000,2.205000,2.675000,2.205000,2.675000,1.605000,2.675000,1.605000,$1*%
G04 Aperture macros list end*
%ADD10RoundRect,0.218750X-0.218750X-0.256250X0.218750X-0.256250X0.218750X0.256250X-0.218750X0.256250X0*%
%ADD11RoundRect,0.218750X0.256250X-0.218750X0.256250X0.218750X-0.256250X0.218750X-0.256250X-0.218750X0*%
%ADD12C,1.000000*%
%ADD13R,1.700000X1.700000*%
%ADD14C,1.700000*%
%ADD15O,1.700000X1.700000*%
%ADD16RoundRect,0.140000X-0.140000X-0.170000X0.140000X-0.170000X0.140000X0.170000X-0.140000X0.170000X0*%
%ADD17RoundRect,0.225000X-0.225000X-0.250000X0.225000X-0.250000X0.225000X0.250000X-0.225000X0.250000X0*%
%ADD18C,2.700000*%
%ADD19RoundRect,0.135000X-0.185000X0.135000X-0.185000X-0.135000X0.185000X-0.135000X0.185000X0.135000X0*%
%ADD20RoundRect,0.250000X0.250000X0.475000X-0.250000X0.475000X-0.250000X-0.475000X0.250000X-0.475000X0*%
%ADD21RoundRect,0.140000X0.170000X-0.140000X0.170000X0.140000X-0.170000X0.140000X-0.170000X-0.140000X0*%
%ADD22RoundRect,0.100000X0.637500X0.100000X-0.637500X0.100000X-0.637500X-0.100000X0.637500X-0.100000X0*%
%ADD23RoundRect,0.135000X-0.135000X-0.185000X0.135000X-0.185000X0.135000X0.185000X-0.135000X0.185000X0*%
%ADD24RoundRect,0.150000X-0.150000X0.512500X-0.150000X-0.512500X0.150000X-0.512500X0.150000X0.512500X0*%
%ADD25RoundRect,0.140000X-0.170000X0.140000X-0.170000X-0.140000X0.170000X-0.140000X0.170000X0.140000X0*%
%ADD26RoundRect,0.250000X0.650000X-0.325000X0.650000X0.325000X-0.650000X0.325000X-0.650000X-0.325000X0*%
%ADD27RoundRect,0.135000X0.135000X0.185000X-0.135000X0.185000X-0.135000X-0.185000X0.135000X-0.185000X0*%
%ADD28O,1.000000X1.000000*%
%ADD29R,1.000000X1.000000*%
%ADD30RoundRect,0.250000X-0.650000X0.325000X-0.650000X-0.325000X0.650000X-0.325000X0.650000X0.325000X0*%
%ADD31RoundRect,0.218750X0.218750X0.256250X-0.218750X0.256250X-0.218750X-0.256250X0.218750X-0.256250X0*%
%ADD32RoundRect,0.102000X2.500000X-1.625000X2.500000X1.625000X-2.500000X1.625000X-2.500000X-1.625000X0*%
%ADD33RoundRect,0.125000X0.300000X0.125000X-0.300000X0.125000X-0.300000X-0.125000X0.300000X-0.125000X0*%
%ADD34FreePoly0,180.000000*%
%ADD35RoundRect,0.125000X-0.125000X0.300000X-0.125000X-0.300000X0.125000X-0.300000X0.125000X0.300000X0*%
%ADD36FreePoly0,270.000000*%
%ADD37RoundRect,0.375000X-0.625000X-0.375000X0.625000X-0.375000X0.625000X0.375000X-0.625000X0.375000X0*%
%ADD38RoundRect,0.500000X-0.500000X-1.400000X0.500000X-1.400000X0.500000X1.400000X-0.500000X1.400000X0*%
%ADD39RoundRect,0.250000X-0.625000X0.312500X-0.625000X-0.312500X0.625000X-0.312500X0.625000X0.312500X0*%
%ADD40RoundRect,0.150000X-0.512500X-0.150000X0.512500X-0.150000X0.512500X0.150000X-0.512500X0.150000X0*%
%ADD41R,4.900000X3.200000*%
%ADD42RoundRect,0.237500X-0.262500X0.237500X-0.262500X-0.237500X0.262500X-0.237500X0.262500X0.237500X0*%
%ADD43RoundRect,0.250000X-0.250000X-0.475000X0.250000X-0.475000X0.250000X0.475000X-0.250000X0.475000X0*%
%ADD44C,0.499999*%
G04 APERTURE END LIST*
D10*
%TO.C,D6*%
X140012500Y-51400000D03*
X141587500Y-51400000D03*
%TD*%
D11*
%TO.C,D5*%
X157000000Y-61287500D03*
X157000000Y-59712500D03*
%TD*%
D12*
%TO.C,TP20*%
X130200000Y-81600000D03*
%TD*%
%TO.C,TP19*%
X128500000Y-77000000D03*
%TD*%
%TO.C,TP17*%
X142100000Y-78500000D03*
%TD*%
%TO.C,TP16*%
X138500000Y-78600000D03*
%TD*%
%TO.C,TP14*%
X128400000Y-73800000D03*
%TD*%
%TO.C,TP12*%
X141200000Y-83200000D03*
%TD*%
%TO.C,TP11*%
X138800000Y-83200000D03*
%TD*%
D13*
%TO.C,J6*%
X163000000Y-43000000D03*
D14*
X163000000Y-40460000D03*
X163000000Y-37920000D03*
X160460000Y-43000000D03*
X160460000Y-40500000D03*
X160460000Y-38000000D03*
X157920000Y-43000000D03*
X157920000Y-40500000D03*
X157920000Y-38000000D03*
X155380000Y-43000000D03*
X155380000Y-40500000D03*
X155380000Y-38000000D03*
%TD*%
D13*
%TO.C,J7*%
X152000000Y-43000000D03*
D14*
X152000000Y-40460000D03*
X152000000Y-37920000D03*
X149460000Y-43000000D03*
X149460000Y-40500000D03*
X149460000Y-38000000D03*
X146920000Y-43000000D03*
X146920000Y-40500000D03*
X146920000Y-38000000D03*
X144380000Y-43000000D03*
X144380000Y-40500000D03*
X144380000Y-38000000D03*
%TD*%
D13*
%TO.C,J8*%
X141000000Y-43000000D03*
D14*
X141000000Y-40460000D03*
X141000000Y-37920000D03*
X138460000Y-43000000D03*
X138460000Y-40500000D03*
X138460000Y-38000000D03*
X135920000Y-43000000D03*
X135920000Y-40500000D03*
X135920000Y-38000000D03*
X133380000Y-43000000D03*
X133380000Y-40500000D03*
X133380000Y-38000000D03*
%TD*%
D13*
%TO.C,J9*%
X130000000Y-43000000D03*
D14*
X130000000Y-40460000D03*
X130000000Y-37920000D03*
X127460000Y-43000000D03*
X127460000Y-40500000D03*
X127460000Y-38000000D03*
X124920000Y-43000000D03*
X124920000Y-40500000D03*
X124920000Y-38000000D03*
X122380000Y-43000000D03*
X122380000Y-40500000D03*
X122380000Y-38000000D03*
%TD*%
D13*
%TO.C,J4*%
X124625000Y-50050000D03*
D15*
X122085000Y-50050000D03*
X124625000Y-52590000D03*
X122085000Y-52590000D03*
X124625000Y-55130000D03*
X122085000Y-55130000D03*
X124625000Y-57670000D03*
X122085000Y-57670000D03*
X124625000Y-60210000D03*
X122085000Y-60210000D03*
X124625000Y-62750000D03*
X122085000Y-62750000D03*
X124625000Y-65290000D03*
X122085000Y-65290000D03*
X124625000Y-67830000D03*
X122085000Y-67830000D03*
X124625000Y-70370000D03*
X122085000Y-70370000D03*
X124625000Y-72910000D03*
X122085000Y-72910000D03*
%TD*%
D16*
%TO.C,C3*%
X148120000Y-60600000D03*
X149080000Y-60600000D03*
%TD*%
D12*
%TO.C,TP7*%
X154200000Y-63400000D03*
%TD*%
D17*
%TO.C,C12*%
X145837500Y-58375000D03*
X147387500Y-58375000D03*
%TD*%
D18*
%TO.C,H1*%
X117000000Y-39000000D03*
%TD*%
D19*
%TO.C,R5*%
X154400000Y-52490000D03*
X154400000Y-53510000D03*
%TD*%
D20*
%TO.C,C19*%
X138150000Y-55000000D03*
X136250000Y-55000000D03*
%TD*%
D21*
%TO.C,C20*%
X137300000Y-60580000D03*
X137300000Y-59620000D03*
%TD*%
D22*
%TO.C,U2*%
X151862500Y-55425000D03*
X151862500Y-54775000D03*
X151862500Y-54125000D03*
X151862500Y-53475000D03*
X151862500Y-52825000D03*
X151862500Y-52175000D03*
X151862500Y-51525000D03*
X151862500Y-50875000D03*
X151862500Y-50225000D03*
X151862500Y-49575000D03*
X151862500Y-48925000D03*
X151862500Y-48275000D03*
X151862500Y-47625000D03*
X151862500Y-46975000D03*
X146137500Y-46975000D03*
X146137500Y-47625000D03*
X146137500Y-48275000D03*
X146137500Y-48925000D03*
X146137500Y-49575000D03*
X146137500Y-50225000D03*
X146137500Y-50875000D03*
X146137500Y-51525000D03*
X146137500Y-52175000D03*
X146137500Y-52825000D03*
X146137500Y-53475000D03*
X146137500Y-54125000D03*
X146137500Y-54775000D03*
X146137500Y-55425000D03*
%TD*%
D13*
%TO.C,J2*%
X161600000Y-65400000D03*
D15*
X159060000Y-65400000D03*
%TD*%
D23*
%TO.C,R9*%
X140580000Y-61000000D03*
X141600000Y-61000000D03*
%TD*%
D12*
%TO.C,TP6*%
X131800000Y-84300000D03*
%TD*%
D24*
%TO.C,U7*%
X135850000Y-58162500D03*
X134900000Y-58162500D03*
X133950000Y-58162500D03*
X133950000Y-60437500D03*
X135850000Y-60437500D03*
%TD*%
D25*
%TO.C,C9*%
X141200000Y-56320000D03*
X141200000Y-57280000D03*
%TD*%
D23*
%TO.C,R6*%
X163322500Y-77000000D03*
X162302500Y-77000000D03*
%TD*%
D26*
%TO.C,CIN2*%
X155200000Y-77420000D03*
X155200000Y-80370000D03*
%TD*%
D27*
%TO.C,R8*%
X141600000Y-59810000D03*
X140580000Y-59810000D03*
%TD*%
D12*
%TO.C,TP3*%
X157000000Y-50800000D03*
%TD*%
D13*
%TO.C,J1*%
X159000000Y-69400000D03*
D15*
X161540000Y-69400000D03*
%TD*%
D28*
%TO.C,J3*%
X161230000Y-55330000D03*
X162500000Y-55330000D03*
X161230000Y-56600000D03*
X162500000Y-56600000D03*
X161230000Y-57870000D03*
X162500000Y-57870000D03*
X161230000Y-59140000D03*
X162500000Y-59140000D03*
X161230000Y-60410000D03*
D29*
X162500000Y-60410000D03*
%TD*%
D16*
%TO.C,C13*%
X145577500Y-56975000D03*
X146537500Y-56975000D03*
%TD*%
D12*
%TO.C,TP5*%
X139200000Y-57200000D03*
%TD*%
D16*
%TO.C,C22*%
X134320000Y-83600000D03*
X135280000Y-83600000D03*
%TD*%
D30*
%TO.C,COUT5*%
X144855000Y-63245000D03*
X144855000Y-66195000D03*
%TD*%
D25*
%TO.C,C10*%
X142800000Y-56320000D03*
X142800000Y-57280000D03*
%TD*%
D31*
%TO.C,D4*%
X159225000Y-77000000D03*
X160800000Y-77000000D03*
%TD*%
D10*
%TO.C,FB1*%
X141212500Y-54800000D03*
X142787500Y-54800000D03*
%TD*%
D23*
%TO.C,R2*%
X149090000Y-57000000D03*
X150110000Y-57000000D03*
%TD*%
D31*
%TO.C,D1*%
X159225000Y-75200000D03*
X160800000Y-75200000D03*
%TD*%
D23*
%TO.C,R3*%
X163322500Y-75200000D03*
X162302500Y-75200000D03*
%TD*%
D18*
%TO.C,H4*%
X161000000Y-83000000D03*
%TD*%
D12*
%TO.C,TP10*%
X163200000Y-79200000D03*
%TD*%
D23*
%TO.C,R4*%
X163322500Y-73400000D03*
X162302500Y-73400000D03*
%TD*%
D12*
%TO.C,TP4*%
X158600000Y-52400000D03*
%TD*%
D25*
%TO.C,C21*%
X132400000Y-80600000D03*
X132400000Y-81560000D03*
%TD*%
D32*
%TO.C,L1*%
X136455000Y-75545000D03*
X136455000Y-64295000D03*
%TD*%
D30*
%TO.C,COUT4*%
X147855000Y-63245000D03*
X147855000Y-66195000D03*
%TD*%
D18*
%TO.C,H2*%
X161000000Y-49000000D03*
%TD*%
%TO.C,H3*%
X119200000Y-83000000D03*
%TD*%
D12*
%TO.C,TP9*%
X140200000Y-49000000D03*
%TD*%
D33*
%TO.C,Q2*%
X150210000Y-73830000D03*
X150210000Y-75100000D03*
X150210000Y-76370000D03*
X150210000Y-77640000D03*
D34*
X146660000Y-75735000D03*
%TD*%
D35*
%TO.C,Q1*%
X144600000Y-79695000D03*
X145870000Y-79695000D03*
X147140000Y-79695000D03*
X148410000Y-79695000D03*
D36*
X146505000Y-83245000D03*
%TD*%
D26*
%TO.C,CIN1*%
X152455000Y-80370000D03*
X152455000Y-77420000D03*
%TD*%
D21*
%TO.C,C11*%
X144400000Y-53680000D03*
X144400000Y-52720000D03*
%TD*%
D37*
%TO.C,U6*%
X131350000Y-47900000D03*
X131350000Y-50200000D03*
D38*
X137650000Y-50200000D03*
D37*
X131350000Y-52500000D03*
%TD*%
D39*
%TO.C,R7*%
X131100000Y-57700000D03*
X131100000Y-60625000D03*
%TD*%
D12*
%TO.C,TP8*%
X140000000Y-53200000D03*
%TD*%
D40*
%TO.C,U8*%
X134262500Y-80050000D03*
X134262500Y-81950000D03*
X136537500Y-81000000D03*
%TD*%
D41*
%TO.C,D2*%
X146255000Y-70195000D03*
D42*
X150605000Y-71165000D03*
X150605000Y-69225000D03*
%TD*%
D30*
%TO.C,COUT3*%
X150855000Y-63245000D03*
X150855000Y-66195000D03*
%TD*%
D43*
%TO.C,C18*%
X130850000Y-55000000D03*
X132750000Y-55000000D03*
%TD*%
D31*
%TO.C,D3*%
X159225000Y-73400000D03*
X160800000Y-73400000D03*
%TD*%
D44*
%TO.C,U5*%
X136984999Y-78950001D03*
X136385000Y-80050001D03*
X136385000Y-77850001D03*
X135785001Y-78950001D03*
%TD*%
D12*
%TO.C,TP15*%
X141600000Y-80500000D03*
%TD*%
M02*
