%TF.GenerationSoftware,KiCad,Pcbnew,8.0.8*%
%TF.CreationDate,2025-03-05T15:18:31-05:00*%
%TF.ProjectId,V2.0,56322e30-2e6b-4696-9361-645f70636258,rev?*%
%TF.SameCoordinates,Original*%
%TF.FileFunction,Legend,Bot*%
%TF.FilePolarity,Positive*%
%FSLAX46Y46*%
G04 Gerber Fmt 4.6, Leading zero omitted, Abs format (unit mm)*
G04 Created by KiCad (PCBNEW 8.0.8) date 2025-03-05 15:18:31*
%MOMM*%
%LPD*%
G01*
G04 APERTURE LIST*
G04 Aperture macros list*
%AMRoundRect*
0 Rectangle with rounded corners*
0 $1 Rounding radius*
0 $2 $3 $4 $5 $6 $7 $8 $9 X,Y pos of 4 corners*
0 Add a 4 corners polygon primitive as box body*
4,1,4,$2,$3,$4,$5,$6,$7,$8,$9,$2,$3,0*
0 Add four circle primitives for the rounded corners*
1,1,$1+$1,$2,$3*
1,1,$1+$1,$4,$5*
1,1,$1+$1,$6,$7*
1,1,$1+$1,$8,$9*
0 Add four rect primitives between the rounded corners*
20,1,$1+$1,$2,$3,$4,$5,0*
20,1,$1+$1,$4,$5,$6,$7,0*
20,1,$1+$1,$6,$7,$8,$9,0*
20,1,$1+$1,$8,$9,$2,$3,0*%
G04 Aperture macros list end*
%ADD10C,0.100000*%
%ADD11C,0.120000*%
%ADD12C,0.200000*%
%ADD13RoundRect,0.135000X0.135000X0.185000X-0.135000X0.185000X-0.135000X-0.185000X0.135000X-0.185000X0*%
%ADD14RoundRect,0.135000X-0.185000X0.135000X-0.185000X-0.135000X0.185000X-0.135000X0.185000X0.135000X0*%
%ADD15C,1.000000*%
%ADD16R,1.700000X1.700000*%
%ADD17C,1.700000*%
%ADD18O,1.700000X1.700000*%
%ADD19C,2.700000*%
%ADD20O,1.000000X1.000000*%
%ADD21R,1.000000X1.000000*%
%ADD22RoundRect,0.135000X0.185000X-0.135000X0.185000X0.135000X-0.185000X0.135000X-0.185000X-0.135000X0*%
%ADD23RoundRect,0.225000X-0.225000X-0.250000X0.225000X-0.250000X0.225000X0.250000X-0.225000X0.250000X0*%
%ADD24RoundRect,0.140000X0.140000X0.170000X-0.140000X0.170000X-0.140000X-0.170000X0.140000X-0.170000X0*%
%ADD25RoundRect,0.140000X-0.170000X0.140000X-0.170000X-0.140000X0.170000X-0.140000X0.170000X0.140000X0*%
%ADD26RoundRect,0.225000X0.250000X-0.225000X0.250000X0.225000X-0.250000X0.225000X-0.250000X-0.225000X0*%
%ADD27RoundRect,0.135000X-0.135000X-0.185000X0.135000X-0.185000X0.135000X0.185000X-0.135000X0.185000X0*%
%ADD28RoundRect,0.150000X-0.150000X0.825000X-0.150000X-0.825000X0.150000X-0.825000X0.150000X0.825000X0*%
%ADD29RoundRect,0.250000X-0.650000X0.325000X-0.650000X-0.325000X0.650000X-0.325000X0.650000X0.325000X0*%
%ADD30RoundRect,0.140000X-0.140000X-0.170000X0.140000X-0.170000X0.140000X0.170000X-0.140000X0.170000X0*%
%ADD31RoundRect,0.375000X-0.625000X-0.375000X0.625000X-0.375000X0.625000X0.375000X-0.625000X0.375000X0*%
%ADD32RoundRect,0.500000X-0.500000X-1.400000X0.500000X-1.400000X0.500000X1.400000X-0.500000X1.400000X0*%
%ADD33C,0.499999*%
%ADD34R,1.699999X2.700000*%
%ADD35R,0.249999X0.599999*%
%ADD36R,0.599999X0.249999*%
%ADD37RoundRect,0.075000X0.075000X-0.662500X0.075000X0.662500X-0.075000X0.662500X-0.075000X-0.662500X0*%
%ADD38RoundRect,0.075000X0.662500X-0.075000X0.662500X0.075000X-0.662500X0.075000X-0.662500X-0.075000X0*%
%ADD39RoundRect,0.200000X0.200000X0.275000X-0.200000X0.275000X-0.200000X-0.275000X0.200000X-0.275000X0*%
%ADD40RoundRect,0.250000X0.650000X-0.325000X0.650000X0.325000X-0.650000X0.325000X-0.650000X-0.325000X0*%
%ADD41RoundRect,0.250000X-0.475000X0.250000X-0.475000X-0.250000X0.475000X-0.250000X0.475000X0.250000X0*%
%ADD42RoundRect,0.250000X-0.262500X-0.450000X0.262500X-0.450000X0.262500X0.450000X-0.262500X0.450000X0*%
%ADD43RoundRect,0.250000X0.250000X0.475000X-0.250000X0.475000X-0.250000X-0.475000X0.250000X-0.475000X0*%
%ADD44RoundRect,0.225000X0.225000X0.250000X-0.225000X0.250000X-0.225000X-0.250000X0.225000X-0.250000X0*%
%ADD45RoundRect,0.140000X0.170000X-0.140000X0.170000X0.140000X-0.170000X0.140000X-0.170000X-0.140000X0*%
G04 APERTURE END LIST*
D10*
X142162782Y-72596895D02*
X142543734Y-72596895D01*
X142543734Y-72596895D02*
X142543734Y-71796895D01*
X141743734Y-71796895D02*
X141591353Y-71796895D01*
X141591353Y-71796895D02*
X141515163Y-71834990D01*
X141515163Y-71834990D02*
X141438972Y-71911180D01*
X141438972Y-71911180D02*
X141400877Y-72063561D01*
X141400877Y-72063561D02*
X141400877Y-72330228D01*
X141400877Y-72330228D02*
X141438972Y-72482609D01*
X141438972Y-72482609D02*
X141515163Y-72558800D01*
X141515163Y-72558800D02*
X141591353Y-72596895D01*
X141591353Y-72596895D02*
X141743734Y-72596895D01*
X141743734Y-72596895D02*
X141819925Y-72558800D01*
X141819925Y-72558800D02*
X141896115Y-72482609D01*
X141896115Y-72482609D02*
X141934211Y-72330228D01*
X141934211Y-72330228D02*
X141934211Y-72063561D01*
X141934211Y-72063561D02*
X141896115Y-71911180D01*
X141896115Y-71911180D02*
X141819925Y-71834990D01*
X141819925Y-71834990D02*
X141743734Y-71796895D01*
D11*
%TO.C,R11*%
X139946359Y-51020000D02*
X140253641Y-51020000D01*
X139946359Y-51780000D02*
X140253641Y-51780000D01*
%TO.C,R10*%
X156620000Y-60953641D02*
X156620000Y-60646359D01*
X157380000Y-60953641D02*
X157380000Y-60646359D01*
%TO.C,TP18*%
X142800000Y-70700000D02*
G75*
G02*
X141400000Y-70700000I-700000J0D01*
G01*
X141400000Y-70700000D02*
G75*
G02*
X142800000Y-70700000I700000J0D01*
G01*
%TO.C,RRT1*%
X133805000Y-83696360D02*
X133805000Y-84003642D01*
X134565000Y-83696360D02*
X134565000Y-84003642D01*
%TO.C,C1*%
X153940580Y-59690000D02*
X153659420Y-59690000D01*
X153940580Y-60710000D02*
X153659420Y-60710000D01*
%TO.C,Cilim1*%
X138077164Y-72090001D02*
X138292836Y-72090001D01*
X138077164Y-72810001D02*
X138292836Y-72810001D01*
%TO.C,Cvin1*%
X137277164Y-82890001D02*
X137492836Y-82890001D01*
X137277164Y-83610001D02*
X137492836Y-83610001D01*
%TO.C,C8*%
X140892164Y-53440000D02*
X141107836Y-53440000D01*
X140892164Y-54160000D02*
X141107836Y-54160000D01*
%TO.C,RUV2*%
X135205000Y-84003642D02*
X135205000Y-83696360D01*
X135965000Y-84003642D02*
X135965000Y-83696360D01*
%TO.C,C4*%
X151240000Y-60507836D02*
X151240000Y-60292164D01*
X151960000Y-60507836D02*
X151960000Y-60292164D01*
%TO.C,CC1*%
X131677164Y-81490001D02*
X131892836Y-81490001D01*
X131677164Y-82210001D02*
X131892836Y-82210001D01*
%TO.C,CSS1*%
X131675000Y-84309421D02*
X131675000Y-84590581D01*
X132695000Y-84309421D02*
X132695000Y-84590581D01*
%TO.C,RFB1*%
X130805000Y-77386360D02*
X130805000Y-77693642D01*
X131565000Y-77386360D02*
X131565000Y-77693642D01*
%TO.C,RC2*%
X129538641Y-76470001D02*
X129231359Y-76470001D01*
X129538641Y-77230001D02*
X129231359Y-77230001D01*
%TO.C,Rin1*%
X139831359Y-83070001D02*
X140138641Y-83070001D01*
X139831359Y-83830001D02*
X140138641Y-83830001D01*
%TO.C,U3*%
X114440000Y-47050000D02*
X114440000Y-49000000D01*
X114440000Y-50950000D02*
X114440000Y-49000000D01*
X119560000Y-47050000D02*
X119560000Y-49000000D01*
X119560000Y-50950000D02*
X119560000Y-49000000D01*
X114535000Y-46300000D02*
X114205000Y-46540000D01*
X114205000Y-46060000D01*
X114535000Y-46300000D01*
G36*
X114535000Y-46300000D02*
G01*
X114205000Y-46540000D01*
X114205000Y-46060000D01*
X114535000Y-46300000D01*
G37*
%TO.C,C5*%
X141040000Y-55507836D02*
X141040000Y-55292164D01*
X141760000Y-55507836D02*
X141760000Y-55292164D01*
%TO.C,COUT1*%
X143945000Y-65431252D02*
X143945000Y-64008748D01*
X145765000Y-65431252D02*
X145765000Y-64008748D01*
%TO.C,C6*%
X142507836Y-51040000D02*
X142292164Y-51040000D01*
X142507836Y-51760000D02*
X142292164Y-51760000D01*
%TO.C,R1*%
X154953641Y-56020000D02*
X154646359Y-56020000D01*
X154953641Y-56780000D02*
X154646359Y-56780000D01*
%TO.C,U4*%
X136410000Y-48790000D02*
X132650000Y-48790000D01*
X136410000Y-50050000D02*
X136410000Y-48790000D01*
X136410000Y-54350000D02*
X136410000Y-55610000D01*
X136410000Y-55610000D02*
X132650000Y-55610000D01*
X131610000Y-55840000D02*
X131130000Y-55840000D01*
X131370000Y-55510000D01*
X131610000Y-55840000D01*
G36*
X131610000Y-55840000D02*
G01*
X131130000Y-55840000D01*
X131370000Y-55510000D01*
X131610000Y-55840000D01*
G37*
D12*
%TO.C,U5*%
X138335001Y-81400001D02*
X138335001Y-81150002D01*
X138335001Y-81400001D02*
X138084999Y-81400001D01*
X138335001Y-76750000D02*
X138335001Y-76500001D01*
X138335001Y-76500001D02*
X138084999Y-76500001D01*
X135085000Y-81400001D02*
X134434999Y-81400001D01*
X134685001Y-76500001D02*
X134434999Y-76500001D01*
X134434999Y-81400001D02*
X134434999Y-81150002D01*
X134434999Y-76750000D02*
X134434999Y-76500001D01*
D11*
%TO.C,U1*%
X143790000Y-51790000D02*
X143790000Y-52240000D01*
X143790000Y-59010000D02*
X143790000Y-58560000D01*
X144240000Y-51790000D02*
X143790000Y-51790000D01*
X144240000Y-59010000D02*
X143790000Y-59010000D01*
X150560000Y-51790000D02*
X151010000Y-51790000D01*
X150560000Y-59010000D02*
X151010000Y-59010000D01*
X151010000Y-51790000D02*
X151010000Y-52240000D01*
X151010000Y-59010000D02*
X151010000Y-58560000D01*
X151030000Y-59940000D02*
X150560000Y-59600000D01*
X151030000Y-59260000D01*
X151030000Y-59940000D01*
G36*
X151030000Y-59940000D02*
G01*
X150560000Y-59600000D01*
X151030000Y-59260000D01*
X151030000Y-59940000D01*
G37*
%TO.C,CC3*%
X129277164Y-77690001D02*
X129492836Y-77690001D01*
X129277164Y-78410001D02*
X129492836Y-78410001D01*
%TO.C,RUV1*%
X139347742Y-84727501D02*
X139822258Y-84727501D01*
X139347742Y-85772501D02*
X139822258Y-85772501D01*
%TO.C,CIN4*%
X156110000Y-78183748D02*
X156110000Y-79606252D01*
X154290000Y-78183748D02*
X154290000Y-79606252D01*
%TO.C,RPGOOD1*%
X134538641Y-74870001D02*
X134231359Y-74870001D01*
X134538641Y-75630001D02*
X134231359Y-75630001D01*
%TO.C,C16*%
X127665000Y-50411252D02*
X127665000Y-49888748D01*
X129135000Y-50411252D02*
X129135000Y-49888748D01*
%TO.C,Rilim1*%
X139812064Y-73715001D02*
X139357936Y-73715001D01*
X139812064Y-75185001D02*
X139357936Y-75185001D01*
%TO.C,RC1*%
X129605000Y-81096360D02*
X129605000Y-81403642D01*
X130365000Y-81096360D02*
X130365000Y-81403642D01*
%TO.C,RFB2*%
X132205000Y-79003642D02*
X132205000Y-78696360D01*
X132965000Y-79003642D02*
X132965000Y-78696360D01*
%TO.C,C2*%
X150292164Y-49040000D02*
X150507836Y-49040000D01*
X150292164Y-49760000D02*
X150507836Y-49760000D01*
%TO.C,C14*%
X116892164Y-44240000D02*
X117107836Y-44240000D01*
X116892164Y-44960000D02*
X117107836Y-44960000D01*
%TO.C,C17*%
X134738748Y-56065000D02*
X135261252Y-56065000D01*
X134738748Y-57535000D02*
X135261252Y-57535000D01*
%TO.C,CIN3*%
X151545000Y-78183748D02*
X151545000Y-79606252D01*
X153365000Y-78183748D02*
X153365000Y-79606252D01*
%TO.C,CVcc1*%
X140475000Y-77309421D02*
X140475000Y-77590581D01*
X141495000Y-77309421D02*
X141495000Y-77590581D01*
%TO.C,COUT2*%
X146945000Y-65431252D02*
X146945000Y-64008748D01*
X148765000Y-65431252D02*
X148765000Y-64008748D01*
%TO.C,CBoot1*%
X140844420Y-80940001D02*
X141125580Y-80940001D01*
X140844420Y-81960001D02*
X141125580Y-81960001D01*
%TO.C,CC2*%
X131677164Y-80290001D02*
X131892836Y-80290001D01*
X131677164Y-81010001D02*
X131892836Y-81010001D01*
%TO.C,C15*%
X120040000Y-51907836D02*
X120040000Y-51692164D01*
X120760000Y-51907836D02*
X120760000Y-51692164D01*
%TO.C,C7*%
X153040000Y-57892164D02*
X153040000Y-58107836D01*
X153760000Y-57892164D02*
X153760000Y-58107836D01*
%TD*%
%LPC*%
D13*
%TO.C,R11*%
X140610000Y-51400000D03*
X139590000Y-51400000D03*
%TD*%
D14*
%TO.C,R10*%
X157000000Y-60290000D03*
X157000000Y-61310000D03*
%TD*%
D15*
%TO.C,TP18*%
X142100000Y-70700000D03*
%TD*%
D16*
%TO.C,J6*%
X163000000Y-43000000D03*
D17*
X163000000Y-40460000D03*
X163000000Y-37920000D03*
X160460000Y-43000000D03*
X160460000Y-40500000D03*
X160460000Y-38000000D03*
X157920000Y-43000000D03*
X157920000Y-40500000D03*
X157920000Y-38000000D03*
X155380000Y-43000000D03*
X155380000Y-40500000D03*
X155380000Y-38000000D03*
%TD*%
D16*
%TO.C,J7*%
X152000000Y-43000000D03*
D17*
X152000000Y-40460000D03*
X152000000Y-37920000D03*
X149460000Y-43000000D03*
X149460000Y-40500000D03*
X149460000Y-38000000D03*
X146920000Y-43000000D03*
X146920000Y-40500000D03*
X146920000Y-38000000D03*
X144380000Y-43000000D03*
X144380000Y-40500000D03*
X144380000Y-38000000D03*
%TD*%
D16*
%TO.C,J8*%
X141000000Y-43000000D03*
D17*
X141000000Y-40460000D03*
X141000000Y-37920000D03*
X138460000Y-43000000D03*
X138460000Y-40500000D03*
X138460000Y-38000000D03*
X135920000Y-43000000D03*
X135920000Y-40500000D03*
X135920000Y-38000000D03*
X133380000Y-43000000D03*
X133380000Y-40500000D03*
X133380000Y-38000000D03*
%TD*%
D16*
%TO.C,J9*%
X130000000Y-43000000D03*
D17*
X130000000Y-40460000D03*
X130000000Y-37920000D03*
X127460000Y-43000000D03*
X127460000Y-40500000D03*
X127460000Y-38000000D03*
X124920000Y-43000000D03*
X124920000Y-40500000D03*
X124920000Y-38000000D03*
X122380000Y-43000000D03*
X122380000Y-40500000D03*
X122380000Y-38000000D03*
%TD*%
D16*
%TO.C,J4*%
X124625000Y-50050000D03*
D18*
X122085000Y-50050000D03*
X124625000Y-52590000D03*
X122085000Y-52590000D03*
X124625000Y-55130000D03*
X122085000Y-55130000D03*
X124625000Y-57670000D03*
X122085000Y-57670000D03*
X124625000Y-60210000D03*
X122085000Y-60210000D03*
X124625000Y-62750000D03*
X122085000Y-62750000D03*
X124625000Y-65290000D03*
X122085000Y-65290000D03*
X124625000Y-67830000D03*
X122085000Y-67830000D03*
X124625000Y-70370000D03*
X122085000Y-70370000D03*
X124625000Y-72910000D03*
X122085000Y-72910000D03*
%TD*%
D19*
%TO.C,H1*%
X117000000Y-39000000D03*
%TD*%
D16*
%TO.C,J2*%
X161600000Y-65400000D03*
D18*
X159060000Y-65400000D03*
%TD*%
D16*
%TO.C,J1*%
X159000000Y-69400000D03*
D18*
X161540000Y-69400000D03*
%TD*%
D20*
%TO.C,J3*%
X161230000Y-55330000D03*
X162500000Y-55330000D03*
X161230000Y-56600000D03*
X162500000Y-56600000D03*
X161230000Y-57870000D03*
X162500000Y-57870000D03*
X161230000Y-59140000D03*
X162500000Y-59140000D03*
X161230000Y-60410000D03*
D21*
X162500000Y-60410000D03*
%TD*%
D19*
%TO.C,H4*%
X161000000Y-83000000D03*
%TD*%
%TO.C,H2*%
X161000000Y-49000000D03*
%TD*%
%TO.C,H3*%
X119200000Y-83000000D03*
%TD*%
D22*
%TO.C,RRT1*%
X134185000Y-84360001D03*
X134185000Y-83340001D03*
%TD*%
D23*
%TO.C,C1*%
X153025000Y-60200000D03*
X154575000Y-60200000D03*
%TD*%
D24*
%TO.C,Cilim1*%
X138665000Y-72450001D03*
X137705000Y-72450001D03*
%TD*%
%TO.C,Cvin1*%
X137865000Y-83250001D03*
X136905000Y-83250001D03*
%TD*%
%TO.C,C8*%
X141480000Y-53800000D03*
X140520000Y-53800000D03*
%TD*%
D14*
%TO.C,RUV2*%
X135585000Y-83340001D03*
X135585000Y-84360001D03*
%TD*%
D25*
%TO.C,C4*%
X151600000Y-59920000D03*
X151600000Y-60880000D03*
%TD*%
D24*
%TO.C,CC1*%
X132265000Y-81850001D03*
X131305000Y-81850001D03*
%TD*%
D26*
%TO.C,CSS1*%
X132185000Y-85225001D03*
X132185000Y-83675001D03*
%TD*%
D22*
%TO.C,RFB1*%
X131185000Y-78050001D03*
X131185000Y-77030001D03*
%TD*%
D27*
%TO.C,RC2*%
X128875000Y-76850001D03*
X129895000Y-76850001D03*
%TD*%
D13*
%TO.C,Rin1*%
X140495000Y-83450001D03*
X139475000Y-83450001D03*
%TD*%
D28*
%TO.C,U3*%
X115095000Y-46525000D03*
X116365000Y-46525000D03*
X117635000Y-46525000D03*
X118905000Y-46525000D03*
X118905000Y-51475000D03*
X117635000Y-51475000D03*
X116365000Y-51475000D03*
X115095000Y-51475000D03*
%TD*%
D25*
%TO.C,C5*%
X141400000Y-54920000D03*
X141400000Y-55880000D03*
%TD*%
D29*
%TO.C,COUT1*%
X144855000Y-63245000D03*
X144855000Y-66195000D03*
%TD*%
D30*
%TO.C,C6*%
X141920000Y-51400000D03*
X142880000Y-51400000D03*
%TD*%
D27*
%TO.C,R1*%
X154290000Y-56400000D03*
X155310000Y-56400000D03*
%TD*%
D31*
%TO.C,U4*%
X131350000Y-54500000D03*
X131350000Y-52200000D03*
D32*
X137650000Y-52200000D03*
D31*
X131350000Y-49900000D03*
%TD*%
D33*
%TO.C,U5*%
X136984999Y-78950001D03*
X136385000Y-80050001D03*
D34*
X136385000Y-78950001D03*
D33*
X136385000Y-77850001D03*
X135785001Y-78950001D03*
D35*
X137135001Y-81100002D03*
D36*
X138034999Y-80700003D03*
X138034999Y-80200001D03*
X138034999Y-79700002D03*
X138034999Y-79200003D03*
X138034999Y-78700001D03*
X138034999Y-78200003D03*
X138034999Y-77700001D03*
X138034999Y-77200002D03*
D35*
X137135001Y-76800000D03*
X135634999Y-76800000D03*
D36*
X134735001Y-77200002D03*
X134735001Y-77700001D03*
X134735001Y-78200000D03*
X134735001Y-78699999D03*
X134735001Y-79200001D03*
X134735001Y-79699999D03*
X134735001Y-80200001D03*
X134735001Y-80700000D03*
D35*
X135634999Y-81100002D03*
%TD*%
D37*
%TO.C,U1*%
X150150000Y-59562500D03*
X149650000Y-59562500D03*
X149150000Y-59562500D03*
X148650000Y-59562500D03*
X148150000Y-59562500D03*
X147650000Y-59562500D03*
X147150000Y-59562500D03*
X146650000Y-59562500D03*
X146150000Y-59562500D03*
X145650000Y-59562500D03*
X145150000Y-59562500D03*
X144650000Y-59562500D03*
D38*
X143237500Y-58150000D03*
X143237500Y-57650000D03*
X143237500Y-57150000D03*
X143237500Y-56650000D03*
X143237500Y-56150000D03*
X143237500Y-55650000D03*
X143237500Y-55150000D03*
X143237500Y-54650000D03*
X143237500Y-54150000D03*
X143237500Y-53650000D03*
X143237500Y-53150000D03*
X143237500Y-52650000D03*
D37*
X144650000Y-51237500D03*
X145150000Y-51237500D03*
X145650000Y-51237500D03*
X146150000Y-51237500D03*
X146650000Y-51237500D03*
X147150000Y-51237500D03*
X147650000Y-51237500D03*
X148150000Y-51237500D03*
X148650000Y-51237500D03*
X149150000Y-51237500D03*
X149650000Y-51237500D03*
X150150000Y-51237500D03*
D38*
X151562500Y-52650000D03*
X151562500Y-53150000D03*
X151562500Y-53650000D03*
X151562500Y-54150000D03*
X151562500Y-54650000D03*
X151562500Y-55150000D03*
X151562500Y-55650000D03*
X151562500Y-56150000D03*
X151562500Y-56650000D03*
X151562500Y-57150000D03*
X151562500Y-57650000D03*
X151562500Y-58150000D03*
%TD*%
D24*
%TO.C,CC3*%
X129865000Y-78050001D03*
X128905000Y-78050001D03*
%TD*%
D39*
%TO.C,RUV1*%
X140410000Y-85250001D03*
X138760000Y-85250001D03*
%TD*%
D40*
%TO.C,CIN4*%
X155200000Y-77420000D03*
X155200000Y-80370000D03*
%TD*%
D27*
%TO.C,RPGOOD1*%
X133875000Y-75250001D03*
X134895000Y-75250001D03*
%TD*%
D41*
%TO.C,C16*%
X128400000Y-49200000D03*
X128400000Y-51100000D03*
%TD*%
D42*
%TO.C,Rilim1*%
X138672500Y-74450001D03*
X140497500Y-74450001D03*
%TD*%
D22*
%TO.C,RC1*%
X129985000Y-81760001D03*
X129985000Y-80740001D03*
%TD*%
D14*
%TO.C,RFB2*%
X132585000Y-78340001D03*
X132585000Y-79360001D03*
%TD*%
D24*
%TO.C,C2*%
X150880000Y-49400000D03*
X149920000Y-49400000D03*
%TD*%
%TO.C,C14*%
X117480000Y-44600000D03*
X116520000Y-44600000D03*
%TD*%
D43*
%TO.C,C17*%
X135950000Y-56800000D03*
X134050000Y-56800000D03*
%TD*%
D40*
%TO.C,CIN3*%
X152455000Y-80370000D03*
X152455000Y-77420000D03*
%TD*%
D26*
%TO.C,CVcc1*%
X140985000Y-78225001D03*
X140985000Y-76675001D03*
%TD*%
D29*
%TO.C,COUT2*%
X147855000Y-63245000D03*
X147855000Y-66195000D03*
%TD*%
D44*
%TO.C,CBoot1*%
X141760000Y-81450001D03*
X140210000Y-81450001D03*
%TD*%
D24*
%TO.C,CC2*%
X132265000Y-80650001D03*
X131305000Y-80650001D03*
%TD*%
D25*
%TO.C,C15*%
X120400000Y-51320000D03*
X120400000Y-52280000D03*
%TD*%
D45*
%TO.C,C7*%
X153400000Y-58480000D03*
X153400000Y-57520000D03*
%TD*%
%LPD*%
M02*
