M48
; DRILL file {KiCad 8.0.8} date 2025-03-05T15:17:36-0500
; FORMAT={-:-/ absolute / metric / decimal}
; #@! TF.CreationDate,2025-03-05T15:17:36-05:00
; #@! TF.GenerationSoftware,Kicad,Pcbnew,8.0.8
; #@! TF.FileFunction,MixedPlating,1,4
FMAT,2
METRIC
; #@! TA.AperFunction,Plated,PTH,ComponentDrill
T1C0.203
; #@! TA.AperFunction,Plated,PTH,ViaDrill
T2C0.300
; #@! TA.AperFunction,Plated,PTH,ComponentDrill
T3C0.650
; #@! TA.AperFunction,Plated,PTH,ComponentDrill
T4C1.000
; #@! TA.AperFunction,NonPlated,NPTH,ComponentDrill
T5C2.700
%
G90
G05
T1
X135.785Y-78.95
X136.385Y-77.85
X136.385Y-80.05
X136.985Y-78.95
T2
X120.4Y-50.0
X120.6Y-45.6
X128.4Y-48.0
X129.0Y-72.6
X129.7Y-47.9
X129.9Y-75.9
X130.2Y-58.7
X130.2Y-61.8
X130.3Y-56.6
X130.5Y-78.05
X130.535Y-79.968
X130.9Y-58.7
X130.9Y-61.8
X131.0Y-56.6
X131.4Y-82.7
X131.6Y-58.7
X131.6Y-61.8
X131.7Y-56.6
X132.3Y-58.7
X132.3Y-61.8
X132.354Y-82.665
X132.4Y-56.6
X132.6Y-59.8
X132.6Y-60.5
X132.6Y-61.2
X133.0Y-61.8
X133.2Y-52.2
X133.365Y-84.199
X133.4Y-50.2
X133.7Y-61.8
X134.2Y-55.0
X134.716Y-72.894
X135.0Y-55.0
X135.15Y-59.05
X135.635Y-82.45
X136.0Y-61.8
X136.4Y-84.4
X137.235Y-80.3
X137.6Y-84.8
X138.333Y-59.067
X138.6Y-61.4
X139.022Y-81.287
X139.129Y-80.475
X139.2Y-50.2
X139.4Y-52.8
X139.4Y-55.0
X139.585Y-78.2
X139.6Y-61.0
X139.6Y-82.6
X139.801Y-77.43
X140.0Y-72.6
X140.2Y-50.3
X140.275Y-54.883
X141.0Y-79.7
X141.1Y-50.1
X141.2Y-52.8
X141.2Y-58.4
X141.887Y-50.313
X142.8Y-59.0
X142.81Y-79.85
X143.2Y-79.3
X143.816Y-61.994
X143.816Y-64.294
X143.816Y-65.094
X143.816Y-67.494
X144.6Y-55.8
X144.61Y-69.3
X144.61Y-70.7
X144.61Y-72.1
X144.616Y-61.994
X144.616Y-67.494
X144.625Y-56.975
X144.71Y-82.2
X144.71Y-83.6
X144.71Y-85.0
X144.71Y-86.1
X144.81Y-74.1
X144.81Y-75.3
X144.81Y-76.5
X144.81Y-77.7
X144.816Y-64.294
X144.816Y-65.094
X144.9Y-58.1
X145.416Y-61.994
X145.416Y-67.494
X145.8Y-61.0
X145.81Y-69.3
X145.81Y-70.7
X145.81Y-72.1
X145.816Y-64.294
X145.816Y-65.094
X145.91Y-82.2
X145.91Y-83.6
X145.91Y-85.0
X145.91Y-86.1
X146.21Y-74.1
X146.21Y-75.3
X146.21Y-76.5
X146.21Y-77.7
X146.216Y-61.994
X146.216Y-67.494
X146.816Y-64.294
X146.816Y-65.094
X147.01Y-69.3
X147.01Y-70.7
X147.01Y-72.1
X147.016Y-61.994
X147.016Y-67.494
X147.11Y-82.2
X147.11Y-83.6
X147.11Y-85.0
X147.11Y-86.1
X147.2Y-61.0
X147.374Y-53.34
X147.4Y-57.0
X147.54Y-52.474
X147.61Y-74.1
X147.61Y-75.3
X147.61Y-76.5
X147.61Y-77.7
X147.816Y-61.994
X147.816Y-64.294
X147.816Y-65.094
X147.816Y-67.494
X148.21Y-69.3
X148.21Y-70.7
X148.21Y-72.1
X148.31Y-82.2
X148.31Y-83.6
X148.31Y-85.0
X148.31Y-86.1
X148.6Y-58.0
X148.616Y-61.994
X148.616Y-67.494
X148.816Y-64.294
X148.816Y-65.094
X148.9Y-54.1
X149.4Y-57.8
X149.416Y-61.994
X149.416Y-67.494
X149.6Y-54.799
X149.81Y-82.1
X149.81Y-82.9
X149.81Y-83.7
X149.81Y-84.5
X149.81Y-85.3
X149.81Y-86.1
X149.816Y-64.294
X149.816Y-65.094
X149.825Y-53.475
X150.0Y-56.0
X150.0Y-58.2
X150.0Y-61.0
X150.216Y-61.994
X150.216Y-67.494
X150.315Y-55.158
X150.4Y-48.4
X150.6Y-46.975
X150.81Y-82.1
X150.81Y-82.9
X150.81Y-83.7
X150.81Y-84.5
X150.81Y-85.3
X150.81Y-86.1
X150.816Y-64.294
X150.816Y-65.094
X151.016Y-61.994
X151.016Y-67.494
X151.416Y-72.094
X151.416Y-72.894
X151.416Y-73.694
X151.416Y-74.494
X151.416Y-75.294
X151.416Y-76.094
X151.61Y-79.3
X151.616Y-78.494
X151.81Y-81.7
X151.81Y-82.5
X151.816Y-61.994
X151.816Y-64.294
X151.816Y-65.094
X151.816Y-67.494
X151.816Y-68.194
X151.816Y-68.894
X151.816Y-69.694
X151.816Y-70.494
X151.816Y-71.294
X152.216Y-72.094
X152.216Y-72.894
X152.216Y-73.694
X152.216Y-74.494
X152.216Y-75.294
X152.216Y-76.094
X152.41Y-79.3
X152.416Y-78.494
X152.61Y-81.7
X152.61Y-82.5
X152.616Y-61.994
X152.616Y-62.694
X152.616Y-63.494
X152.616Y-64.294
X152.616Y-65.094
X152.616Y-65.894
X152.616Y-66.694
X152.616Y-67.494
X152.616Y-68.194
X152.616Y-68.894
X152.616Y-69.694
X152.616Y-70.494
X152.616Y-71.294
X152.85Y-59.328
X153.016Y-75.294
X153.016Y-76.094
X153.175Y-54.825
X153.2Y-52.8
X153.2Y-55.75
X153.21Y-79.3
X153.216Y-78.494
X153.41Y-81.7
X153.41Y-82.5
X153.74Y-54.26
X153.816Y-75.294
X153.816Y-76.094
X153.95Y-59.2
X154.21Y-81.7
X154.21Y-82.5
X154.41Y-79.3
X154.416Y-78.494
X154.6Y-57.4
X154.616Y-75.294
X154.616Y-76.094
X155.01Y-81.7
X155.01Y-82.5
X155.21Y-79.3
X155.216Y-78.494
X155.416Y-75.294
X155.416Y-76.094
X155.7Y-57.4
X155.8Y-52.2
X155.8Y-60.2
X155.81Y-81.7
X155.81Y-82.5
X156.01Y-79.3
X156.016Y-78.494
X156.2Y-75.294
X156.2Y-76.094
X156.6Y-55.2
X157.952Y-74.4
X158.0Y-72.6
X158.1Y-61.3
X162.0Y-79.2
X164.102Y-73.4
X164.102Y-75.2
X164.102Y-77.0
T3
X161.23Y-55.33
X161.23Y-56.6
X161.23Y-57.87
X161.23Y-59.14
X161.23Y-60.41
X162.5Y-55.33
X162.5Y-56.6
X162.5Y-57.87
X162.5Y-59.14
X162.5Y-60.41
T4
X122.085Y-50.05
X122.085Y-52.59
X122.085Y-55.13
X122.085Y-57.67
X122.085Y-60.21
X122.085Y-62.75
X122.085Y-65.29
X122.085Y-67.83
X122.085Y-70.37
X122.085Y-72.91
X122.38Y-38.0
X122.38Y-40.5
X122.38Y-43.0
X124.625Y-50.05
X124.625Y-52.59
X124.625Y-55.13
X124.625Y-57.67
X124.625Y-60.21
X124.625Y-62.75
X124.625Y-65.29
X124.625Y-67.83
X124.625Y-70.37
X124.625Y-72.91
X124.92Y-38.0
X124.92Y-40.5
X124.92Y-43.0
X127.46Y-38.0
X127.46Y-40.5
X127.46Y-43.0
X130.0Y-37.92
X130.0Y-40.46
X130.0Y-43.0
X133.38Y-38.0
X133.38Y-40.5
X133.38Y-43.0
X135.92Y-38.0
X135.92Y-40.5
X135.92Y-43.0
X138.46Y-38.0
X138.46Y-40.5
X138.46Y-43.0
X141.0Y-37.92
X141.0Y-40.46
X141.0Y-43.0
X144.38Y-38.0
X144.38Y-40.5
X144.38Y-43.0
X146.92Y-38.0
X146.92Y-40.5
X146.92Y-43.0
X149.46Y-38.0
X149.46Y-40.5
X149.46Y-43.0
X152.0Y-37.92
X152.0Y-40.46
X152.0Y-43.0
X155.38Y-38.0
X155.38Y-40.5
X155.38Y-43.0
X157.92Y-38.0
X157.92Y-40.5
X157.92Y-43.0
X159.0Y-69.4
X159.06Y-65.4
X160.46Y-38.0
X160.46Y-40.5
X160.46Y-43.0
X161.54Y-69.4
X161.6Y-65.4
X163.0Y-37.92
X163.0Y-40.46
X163.0Y-43.0
T5
X117.0Y-39.0
X119.2Y-83.0
X161.0Y-49.0
X161.0Y-83.0
M30
