%TF.GenerationSoftware,KiCad,Pcbnew,8.0.8*%
%TF.CreationDate,2025-03-05T15:18:30-05:00*%
%TF.ProjectId,V2.0,56322e30-2e6b-4696-9361-645f70636258,rev?*%
%TF.SameCoordinates,Original*%
%TF.FileFunction,Copper,L1,Top*%
%TF.FilePolarity,Positive*%
%FSLAX46Y46*%
G04 Gerber Fmt 4.6, Leading zero omitted, Abs format (unit mm)*
G04 Created by KiCad (PCBNEW 8.0.8) date 2025-03-05 15:18:30*
%MOMM*%
%LPD*%
G01*
G04 APERTURE LIST*
G04 Aperture macros list*
%AMRoundRect*
0 Rectangle with rounded corners*
0 $1 Rounding radius*
0 $2 $3 $4 $5 $6 $7 $8 $9 X,Y pos of 4 corners*
0 Add a 4 corners polygon primitive as box body*
4,1,4,$2,$3,$4,$5,$6,$7,$8,$9,$2,$3,0*
0 Add four circle primitives for the rounded corners*
1,1,$1+$1,$2,$3*
1,1,$1+$1,$4,$5*
1,1,$1+$1,$6,$7*
1,1,$1+$1,$8,$9*
0 Add four rect primitives between the rounded corners*
20,1,$1+$1,$2,$3,$4,$5,0*
20,1,$1+$1,$4,$5,$6,$7,0*
20,1,$1+$1,$6,$7,$8,$9,0*
20,1,$1+$1,$8,$9,$2,$3,0*%
G04 Aperture macros list end*
%TA.AperFunction,SMDPad,CuDef*%
%ADD10RoundRect,0.218750X-0.218750X-0.256250X0.218750X-0.256250X0.218750X0.256250X-0.218750X0.256250X0*%
%TD*%
%TA.AperFunction,SMDPad,CuDef*%
%ADD11RoundRect,0.218750X0.256250X-0.218750X0.256250X0.218750X-0.256250X0.218750X-0.256250X-0.218750X0*%
%TD*%
%TA.AperFunction,SMDPad,CuDef*%
%ADD12C,1.000000*%
%TD*%
%TA.AperFunction,ComponentPad*%
%ADD13R,1.700000X1.700000*%
%TD*%
%TA.AperFunction,ComponentPad*%
%ADD14C,1.700000*%
%TD*%
%TA.AperFunction,ComponentPad*%
%ADD15O,1.700000X1.700000*%
%TD*%
%TA.AperFunction,SMDPad,CuDef*%
%ADD16RoundRect,0.140000X-0.140000X-0.170000X0.140000X-0.170000X0.140000X0.170000X-0.140000X0.170000X0*%
%TD*%
%TA.AperFunction,SMDPad,CuDef*%
%ADD17RoundRect,0.225000X-0.225000X-0.250000X0.225000X-0.250000X0.225000X0.250000X-0.225000X0.250000X0*%
%TD*%
%TA.AperFunction,SMDPad,CuDef*%
%ADD18RoundRect,0.135000X-0.185000X0.135000X-0.185000X-0.135000X0.185000X-0.135000X0.185000X0.135000X0*%
%TD*%
%TA.AperFunction,SMDPad,CuDef*%
%ADD19RoundRect,0.250000X0.250000X0.475000X-0.250000X0.475000X-0.250000X-0.475000X0.250000X-0.475000X0*%
%TD*%
%TA.AperFunction,SMDPad,CuDef*%
%ADD20RoundRect,0.140000X0.170000X-0.140000X0.170000X0.140000X-0.170000X0.140000X-0.170000X-0.140000X0*%
%TD*%
%TA.AperFunction,SMDPad,CuDef*%
%ADD21RoundRect,0.100000X0.637500X0.100000X-0.637500X0.100000X-0.637500X-0.100000X0.637500X-0.100000X0*%
%TD*%
%TA.AperFunction,SMDPad,CuDef*%
%ADD22RoundRect,0.135000X-0.135000X-0.185000X0.135000X-0.185000X0.135000X0.185000X-0.135000X0.185000X0*%
%TD*%
%TA.AperFunction,SMDPad,CuDef*%
%ADD23RoundRect,0.150000X-0.150000X0.512500X-0.150000X-0.512500X0.150000X-0.512500X0.150000X0.512500X0*%
%TD*%
%TA.AperFunction,SMDPad,CuDef*%
%ADD24RoundRect,0.140000X-0.170000X0.140000X-0.170000X-0.140000X0.170000X-0.140000X0.170000X0.140000X0*%
%TD*%
%TA.AperFunction,SMDPad,CuDef*%
%ADD25RoundRect,0.250000X0.650000X-0.325000X0.650000X0.325000X-0.650000X0.325000X-0.650000X-0.325000X0*%
%TD*%
%TA.AperFunction,SMDPad,CuDef*%
%ADD26RoundRect,0.135000X0.135000X0.185000X-0.135000X0.185000X-0.135000X-0.185000X0.135000X-0.185000X0*%
%TD*%
%TA.AperFunction,ComponentPad*%
%ADD27O,1.000000X1.000000*%
%TD*%
%TA.AperFunction,ComponentPad*%
%ADD28R,1.000000X1.000000*%
%TD*%
%TA.AperFunction,SMDPad,CuDef*%
%ADD29RoundRect,0.250000X-0.650000X0.325000X-0.650000X-0.325000X0.650000X-0.325000X0.650000X0.325000X0*%
%TD*%
%TA.AperFunction,SMDPad,CuDef*%
%ADD30RoundRect,0.218750X0.218750X0.256250X-0.218750X0.256250X-0.218750X-0.256250X0.218750X-0.256250X0*%
%TD*%
%TA.AperFunction,SMDPad,CuDef*%
%ADD31R,5.000000X3.250000*%
%TD*%
%TA.AperFunction,SMDPad,CuDef*%
%ADD32R,4.550000X4.410000*%
%TD*%
%TA.AperFunction,SMDPad,CuDef*%
%ADD33RoundRect,0.125000X0.300000X0.125000X-0.300000X0.125000X-0.300000X-0.125000X0.300000X-0.125000X0*%
%TD*%
%TA.AperFunction,SMDPad,CuDef*%
%ADD34R,4.410000X4.550000*%
%TD*%
%TA.AperFunction,SMDPad,CuDef*%
%ADD35RoundRect,0.125000X-0.125000X0.300000X-0.125000X-0.300000X0.125000X-0.300000X0.125000X0.300000X0*%
%TD*%
%TA.AperFunction,SMDPad,CuDef*%
%ADD36RoundRect,0.375000X-0.625000X-0.375000X0.625000X-0.375000X0.625000X0.375000X-0.625000X0.375000X0*%
%TD*%
%TA.AperFunction,SMDPad,CuDef*%
%ADD37RoundRect,0.500000X-0.500000X-1.400000X0.500000X-1.400000X0.500000X1.400000X-0.500000X1.400000X0*%
%TD*%
%TA.AperFunction,SMDPad,CuDef*%
%ADD38RoundRect,0.250000X-0.625000X0.312500X-0.625000X-0.312500X0.625000X-0.312500X0.625000X0.312500X0*%
%TD*%
%TA.AperFunction,SMDPad,CuDef*%
%ADD39RoundRect,0.150000X-0.512500X-0.150000X0.512500X-0.150000X0.512500X0.150000X-0.512500X0.150000X0*%
%TD*%
%TA.AperFunction,SMDPad,CuDef*%
%ADD40R,4.900000X3.200000*%
%TD*%
%TA.AperFunction,SMDPad,CuDef*%
%ADD41RoundRect,0.237500X-0.262500X0.237500X-0.262500X-0.237500X0.262500X-0.237500X0.262500X0.237500X0*%
%TD*%
%TA.AperFunction,SMDPad,CuDef*%
%ADD42RoundRect,0.250000X-0.250000X-0.475000X0.250000X-0.475000X0.250000X0.475000X-0.250000X0.475000X0*%
%TD*%
%TA.AperFunction,ComponentPad*%
%ADD43C,0.499999*%
%TD*%
%TA.AperFunction,ViaPad*%
%ADD44C,0.600000*%
%TD*%
%TA.AperFunction,Conductor*%
%ADD45C,0.300000*%
%TD*%
%TA.AperFunction,Conductor*%
%ADD46C,0.500000*%
%TD*%
%TA.AperFunction,Conductor*%
%ADD47C,0.200000*%
%TD*%
G04 APERTURE END LIST*
D10*
%TO.P,D6,1,K*%
%TO.N,Net-(D6-K)*%
X140012500Y-51400000D03*
%TO.P,D6,2,A*%
%TO.N,/MCU/Debug_LED2*%
X141587500Y-51400000D03*
%TD*%
D11*
%TO.P,D5,1,K*%
%TO.N,Net-(D5-K)*%
X157000000Y-61287500D03*
%TO.P,D5,2,A*%
%TO.N,/MCU/Debug_LED1*%
X157000000Y-59712500D03*
%TD*%
D12*
%TO.P,TP20,1,1*%
%TO.N,comp*%
X130200000Y-81600000D03*
%TD*%
%TO.P,TP19,1,1*%
%TO.N,FB_*%
X128500000Y-77000000D03*
%TD*%
%TO.P,TP17,1,1*%
%TO.N,SW_*%
X142100000Y-78500000D03*
%TD*%
%TO.P,TP16,1,1*%
%TO.N,BST*%
X138500000Y-78600000D03*
%TD*%
%TO.P,TP14,1,1*%
%TO.N,PGOOD*%
X128400000Y-73800000D03*
%TD*%
%TO.P,TP12,1,1*%
%TO.N,EN*%
X141200000Y-83200000D03*
%TD*%
%TO.P,TP11,1,1*%
%TO.N,VIN*%
X138800000Y-83200000D03*
%TD*%
D13*
%TO.P,J6,1*%
%TO.N,CH0*%
X163000000Y-43000000D03*
D14*
%TO.P,J6,2*%
%TO.N,+6VP*%
X163000000Y-40460000D03*
%TO.P,J6,3*%
%TO.N,GND*%
X163000000Y-37920000D03*
%TO.P,J6,4*%
%TO.N,CH1*%
X160460000Y-43000000D03*
%TO.P,J6,5*%
%TO.N,+6VP*%
X160460000Y-40500000D03*
%TO.P,J6,6*%
%TO.N,GND*%
X160460000Y-38000000D03*
%TO.P,J6,7*%
%TO.N,CH2*%
X157920000Y-43000000D03*
%TO.P,J6,8*%
%TO.N,+6VP*%
X157920000Y-40500000D03*
%TO.P,J6,9*%
%TO.N,GND*%
X157920000Y-38000000D03*
%TO.P,J6,10*%
%TO.N,CH3*%
X155380000Y-43000000D03*
%TO.P,J6,11*%
%TO.N,+6VP*%
X155380000Y-40500000D03*
%TO.P,J6,12*%
%TO.N,GND*%
X155380000Y-38000000D03*
%TD*%
D13*
%TO.P,J7,1*%
%TO.N,CH4*%
X152000000Y-43000000D03*
D14*
%TO.P,J7,2*%
%TO.N,+6VP*%
X152000000Y-40460000D03*
%TO.P,J7,3*%
%TO.N,GND*%
X152000000Y-37920000D03*
%TO.P,J7,4*%
%TO.N,CH5*%
X149460000Y-43000000D03*
%TO.P,J7,5*%
%TO.N,+6VP*%
X149460000Y-40500000D03*
%TO.P,J7,6*%
%TO.N,GND*%
X149460000Y-38000000D03*
%TO.P,J7,7*%
%TO.N,CH6*%
X146920000Y-43000000D03*
%TO.P,J7,8*%
%TO.N,+6VP*%
X146920000Y-40500000D03*
%TO.P,J7,9*%
%TO.N,GND*%
X146920000Y-38000000D03*
%TO.P,J7,10*%
%TO.N,CH7*%
X144380000Y-43000000D03*
%TO.P,J7,11*%
%TO.N,+6VP*%
X144380000Y-40500000D03*
%TO.P,J7,12*%
%TO.N,GND*%
X144380000Y-38000000D03*
%TD*%
D13*
%TO.P,J8,1*%
%TO.N,CH8*%
X141000000Y-43000000D03*
D14*
%TO.P,J8,2*%
%TO.N,+6VP*%
X141000000Y-40460000D03*
%TO.P,J8,3*%
%TO.N,GND*%
X141000000Y-37920000D03*
%TO.P,J8,4*%
%TO.N,CH9*%
X138460000Y-43000000D03*
%TO.P,J8,5*%
%TO.N,+6VP*%
X138460000Y-40500000D03*
%TO.P,J8,6*%
%TO.N,GND*%
X138460000Y-38000000D03*
%TO.P,J8,7*%
%TO.N,CH10*%
X135920000Y-43000000D03*
%TO.P,J8,8*%
%TO.N,+6VP*%
X135920000Y-40500000D03*
%TO.P,J8,9*%
%TO.N,GND*%
X135920000Y-38000000D03*
%TO.P,J8,10*%
%TO.N,CH11*%
X133380000Y-43000000D03*
%TO.P,J8,11*%
%TO.N,+6VP*%
X133380000Y-40500000D03*
%TO.P,J8,12*%
%TO.N,GND*%
X133380000Y-38000000D03*
%TD*%
D13*
%TO.P,J9,1*%
%TO.N,CH12*%
X130000000Y-43000000D03*
D14*
%TO.P,J9,2*%
%TO.N,+6VP*%
X130000000Y-40460000D03*
%TO.P,J9,3*%
%TO.N,GND*%
X130000000Y-37920000D03*
%TO.P,J9,4*%
%TO.N,CH13*%
X127460000Y-43000000D03*
%TO.P,J9,5*%
%TO.N,+6VP*%
X127460000Y-40500000D03*
%TO.P,J9,6*%
%TO.N,GND*%
X127460000Y-38000000D03*
%TO.P,J9,7*%
%TO.N,CH14*%
X124920000Y-43000000D03*
%TO.P,J9,8*%
%TO.N,+6VP*%
X124920000Y-40500000D03*
%TO.P,J9,9*%
%TO.N,GND*%
X124920000Y-38000000D03*
%TO.P,J9,10*%
%TO.N,CH15*%
X122380000Y-43000000D03*
%TO.P,J9,11*%
%TO.N,+6VP*%
X122380000Y-40500000D03*
%TO.P,J9,12*%
%TO.N,GND*%
X122380000Y-38000000D03*
%TD*%
D13*
%TO.P,J4,1,Pin_1*%
%TO.N,CAN+*%
X124625000Y-50050000D03*
D15*
%TO.P,J4,2,Pin_2*%
%TO.N,CAN-*%
X122085000Y-50050000D03*
%TO.P,J4,3,Pin_3*%
%TO.N,unconnected-(J4-Pin_3-Pad3)*%
X124625000Y-52590000D03*
%TO.P,J4,4,Pin_4*%
%TO.N,GND*%
X122085000Y-52590000D03*
%TO.P,J4,5,Pin_5*%
X124625000Y-55130000D03*
%TO.P,J4,6,Pin_6*%
X122085000Y-55130000D03*
%TO.P,J4,7,Pin_7*%
%TO.N,+P_BATT*%
X124625000Y-57670000D03*
%TO.P,J4,8,Pin_8*%
X122085000Y-57670000D03*
%TO.P,J4,9,Pin_9*%
%TO.N,GND*%
X124625000Y-60210000D03*
%TO.P,J4,10,Pin_10*%
X122085000Y-60210000D03*
%TO.P,J4,11,Pin_11*%
%TO.N,+P_BATT*%
X124625000Y-62750000D03*
%TO.P,J4,12,Pin_12*%
X122085000Y-62750000D03*
%TO.P,J4,13,Pin_13*%
%TO.N,GND*%
X124625000Y-65290000D03*
%TO.P,J4,14,Pin_14*%
X122085000Y-65290000D03*
%TO.P,J4,15,Pin_15*%
%TO.N,+P_BATT*%
X124625000Y-67830000D03*
%TO.P,J4,16,Pin_16*%
X122085000Y-67830000D03*
%TO.P,J4,17,Pin_17*%
%TO.N,GND*%
X124625000Y-70370000D03*
%TO.P,J4,18,Pin_18*%
X122085000Y-70370000D03*
%TO.P,J4,19,Pin_19*%
%TO.N,+P_BATT*%
X124625000Y-72910000D03*
%TO.P,J4,20,Pin_20*%
X122085000Y-72910000D03*
%TD*%
D16*
%TO.P,C3,1*%
%TO.N,NRST*%
X148120000Y-60600000D03*
%TO.P,C3,2*%
%TO.N,GND*%
X149080000Y-60600000D03*
%TD*%
D12*
%TO.P,TP7,1,1*%
%TO.N,+6V*%
X154200000Y-63400000D03*
%TD*%
D17*
%TO.P,C12,1*%
%TO.N,+3.3V*%
X145837500Y-58375000D03*
%TO.P,C12,2*%
%TO.N,GND*%
X147387500Y-58375000D03*
%TD*%
D18*
%TO.P,R5,1*%
%TO.N,+3.3V*%
X154400000Y-52490000D03*
%TO.P,R5,2*%
%TO.N,PWM_SCL*%
X154400000Y-53510000D03*
%TD*%
D19*
%TO.P,C19,1*%
%TO.N,+3.3V*%
X138150000Y-55000000D03*
%TO.P,C19,2*%
%TO.N,GND*%
X136250000Y-55000000D03*
%TD*%
D20*
%TO.P,C20,1*%
%TO.N,+3.3V*%
X137300000Y-60580000D03*
%TO.P,C20,2*%
%TO.N,GND*%
X137300000Y-59620000D03*
%TD*%
D21*
%TO.P,U2,1,A0*%
%TO.N,+3.3V*%
X151862500Y-55425000D03*
%TO.P,U2,2,A1*%
%TO.N,GND*%
X151862500Y-54775000D03*
%TO.P,U2,3,A2*%
%TO.N,+3.3V*%
X151862500Y-54125000D03*
%TO.P,U2,4,A3*%
%TO.N,GND*%
X151862500Y-53475000D03*
%TO.P,U2,5,A4*%
%TO.N,+3.3V*%
X151862500Y-52825000D03*
%TO.P,U2,6,LED0*%
%TO.N,CH0*%
X151862500Y-52175000D03*
%TO.P,U2,7,LED1*%
%TO.N,CH1*%
X151862500Y-51525000D03*
%TO.P,U2,8,LED2*%
%TO.N,CH2*%
X151862500Y-50875000D03*
%TO.P,U2,9,LED3*%
%TO.N,CH3*%
X151862500Y-50225000D03*
%TO.P,U2,10,LED4*%
%TO.N,CH4*%
X151862500Y-49575000D03*
%TO.P,U2,11,LED5*%
%TO.N,CH5*%
X151862500Y-48925000D03*
%TO.P,U2,12,LED6*%
%TO.N,CH6*%
X151862500Y-48275000D03*
%TO.P,U2,13,LED7*%
%TO.N,CH7*%
X151862500Y-47625000D03*
%TO.P,U2,14,VSS*%
%TO.N,GND*%
X151862500Y-46975000D03*
%TO.P,U2,15,LED8*%
%TO.N,CH8*%
X146137500Y-46975000D03*
%TO.P,U2,16,LED9*%
%TO.N,CH9*%
X146137500Y-47625000D03*
%TO.P,U2,17,LED10*%
%TO.N,CH10*%
X146137500Y-48275000D03*
%TO.P,U2,18,LED11*%
%TO.N,CH11*%
X146137500Y-48925000D03*
%TO.P,U2,19,LED12*%
%TO.N,CH12*%
X146137500Y-49575000D03*
%TO.P,U2,20,LED13*%
%TO.N,CH13*%
X146137500Y-50225000D03*
%TO.P,U2,21,LED14*%
%TO.N,CH14*%
X146137500Y-50875000D03*
%TO.P,U2,22,LED15*%
%TO.N,CH15*%
X146137500Y-51525000D03*
%TO.P,U2,23,~{OE}*%
%TO.N,PWM_OE*%
X146137500Y-52175000D03*
%TO.P,U2,24,A5*%
%TO.N,GND*%
X146137500Y-52825000D03*
%TO.P,U2,25,EXTCLK*%
%TO.N,/PWM Chip/EXTCLK*%
X146137500Y-53475000D03*
%TO.P,U2,26,SCL*%
%TO.N,PWM_SCL*%
X146137500Y-54125000D03*
%TO.P,U2,27,SDA*%
%TO.N,PWM_SDA*%
X146137500Y-54775000D03*
%TO.P,U2,28,VDD*%
%TO.N,+3.3V*%
X146137500Y-55425000D03*
%TD*%
D13*
%TO.P,J2,1,Pin_1*%
%TO.N,+3.3V*%
X161600000Y-65400000D03*
D15*
%TO.P,J2,2,Pin_2*%
%TO.N,/MCU/BOOT0*%
X159060000Y-65400000D03*
%TD*%
D22*
%TO.P,R9,1*%
%TO.N,GND*%
X140580000Y-61000000D03*
%TO.P,R9,2*%
%TO.N,CSA_OUT*%
X141600000Y-61000000D03*
%TD*%
D12*
%TO.P,TP6,1,1*%
%TO.N,TEMP*%
X131800000Y-84300000D03*
%TD*%
D23*
%TO.P,U7,1*%
%TO.N,Net-(R8-Pad2)*%
X135850000Y-58162500D03*
%TO.P,U7,2,GND*%
%TO.N,GND*%
X134900000Y-58162500D03*
%TO.P,U7,3,+*%
%TO.N,+6VP*%
X133950000Y-58162500D03*
%TO.P,U7,4,-*%
%TO.N,+6V*%
X133950000Y-60437500D03*
%TO.P,U7,5,V+*%
%TO.N,+3.3V*%
X135850000Y-60437500D03*
%TD*%
D24*
%TO.P,C9,1*%
%TO.N,+3.3VA*%
X141200000Y-56320000D03*
%TO.P,C9,2*%
%TO.N,GND*%
X141200000Y-57280000D03*
%TD*%
D22*
%TO.P,R6,2*%
%TO.N,GND*%
X163322500Y-77000000D03*
%TO.P,R6,1*%
%TO.N,Net-(D4-K)*%
X162302500Y-77000000D03*
%TD*%
D25*
%TO.P,CIN2,2*%
%TO.N,GND*%
X155200000Y-77420000D03*
%TO.P,CIN2,1*%
%TO.N,+P_BATT*%
X155200000Y-80370000D03*
%TD*%
D26*
%TO.P,R8,1*%
%TO.N,CSA_OUT*%
X141600000Y-59810000D03*
%TO.P,R8,2*%
%TO.N,Net-(R8-Pad2)*%
X140580000Y-59810000D03*
%TD*%
D12*
%TO.P,TP3,1,1*%
%TO.N,PWM_SCL*%
X157000000Y-50800000D03*
%TD*%
D13*
%TO.P,J1,1,Pin_1*%
%TO.N,NRST*%
X159000000Y-69400000D03*
D15*
%TO.P,J1,2,Pin_2*%
%TO.N,GND*%
X161540000Y-69400000D03*
%TD*%
D27*
%TO.P,J3,10,~{RESET}*%
%TO.N,NRST*%
X161230000Y-55330000D03*
%TO.P,J3,9,GNDDetect*%
%TO.N,GND*%
X162500000Y-55330000D03*
%TO.P,J3,8,NC/TDI*%
%TO.N,unconnected-(J3-NC{slash}TDI-Pad8)*%
X161230000Y-56600000D03*
%TO.P,J3,7,KEY*%
%TO.N,unconnected-(J3-KEY-Pad7)*%
X162500000Y-56600000D03*
%TO.P,J3,6,SWO/TDO*%
%TO.N,SWO*%
X161230000Y-57870000D03*
%TO.P,J3,5,GND*%
%TO.N,GND*%
X162500000Y-57870000D03*
%TO.P,J3,4,SWCLK/TCK*%
%TO.N,/MCU/SWCLK*%
X161230000Y-59140000D03*
%TO.P,J3,3,GND*%
%TO.N,GND*%
X162500000Y-59140000D03*
%TO.P,J3,2,SWDIO/TMS*%
%TO.N,/MCU/SWDIO*%
X161230000Y-60410000D03*
D28*
%TO.P,J3,1,VTref*%
%TO.N,+3.3V*%
X162500000Y-60410000D03*
%TD*%
D16*
%TO.P,C13,1*%
%TO.N,+3.3V*%
X145577500Y-56975000D03*
%TO.P,C13,2*%
%TO.N,GND*%
X146537500Y-56975000D03*
%TD*%
D12*
%TO.P,TP5,1,1*%
%TO.N,CSA_OUT*%
X139200000Y-57200000D03*
%TD*%
D16*
%TO.P,C22,1*%
%TO.N,TEMP*%
X134320000Y-83600000D03*
%TO.P,C22,2*%
%TO.N,GND*%
X135280000Y-83600000D03*
%TD*%
D29*
%TO.P,COUT5,1*%
%TO.N,+6V*%
X144855000Y-63245000D03*
%TO.P,COUT5,2*%
%TO.N,GND*%
X144855000Y-66195000D03*
%TD*%
D24*
%TO.P,C10,1*%
%TO.N,+3.3V*%
X142800000Y-56320000D03*
%TO.P,C10,2*%
%TO.N,GND*%
X142800000Y-57280000D03*
%TD*%
D30*
%TO.P,D4,2,A*%
%TO.N,+6V*%
X159225000Y-77000000D03*
%TO.P,D4,1,K*%
%TO.N,Net-(D4-K)*%
X160800000Y-77000000D03*
%TD*%
D10*
%TO.P,FB1,1*%
%TO.N,+3.3VA*%
X141212500Y-54800000D03*
%TO.P,FB1,2*%
%TO.N,+3.3V*%
X142787500Y-54800000D03*
%TD*%
D22*
%TO.P,R2,1*%
%TO.N,+3.3V*%
X149090000Y-57000000D03*
%TO.P,R2,2*%
%TO.N,PWM_SDA*%
X150110000Y-57000000D03*
%TD*%
D30*
%TO.P,D1,2,A*%
%TO.N,+5V*%
X159225000Y-75200000D03*
%TO.P,D1,1,K*%
X160800000Y-75200000D03*
%TD*%
D22*
%TO.P,R3,2*%
%TO.N,GND*%
X163322500Y-75200000D03*
%TO.P,R3,1*%
%TO.N,+5V*%
X162302500Y-75200000D03*
%TD*%
D12*
%TO.P,TP10,1,1*%
%TO.N,GND*%
X163200000Y-79200000D03*
%TD*%
D22*
%TO.P,R4,2*%
%TO.N,GND*%
X163322500Y-73400000D03*
%TO.P,R4,1*%
%TO.N,Net-(D3-K)*%
X162302500Y-73400000D03*
%TD*%
D12*
%TO.P,TP4,1,1*%
%TO.N,PWM_SDA*%
X158600000Y-52400000D03*
%TD*%
D24*
%TO.P,C21,1*%
%TO.N,+5V*%
X132400000Y-80600000D03*
%TO.P,C21,2*%
%TO.N,GND*%
X132400000Y-81560000D03*
%TD*%
D31*
%TO.P,L1,1,1*%
%TO.N,SW_*%
X136455000Y-75545000D03*
%TO.P,L1,2,2*%
%TO.N,+6V*%
X136455000Y-64295000D03*
%TD*%
D29*
%TO.P,COUT4,1*%
%TO.N,+6V*%
X147855000Y-63245000D03*
%TO.P,COUT4,2*%
%TO.N,GND*%
X147855000Y-66195000D03*
%TD*%
D12*
%TO.P,TP9,1,1*%
%TO.N,+3.3V*%
X140200000Y-49000000D03*
%TD*%
D32*
%TO.P,Q2,5,D*%
%TO.N,SW_*%
X146260000Y-75735000D03*
D33*
%TO.P,Q2,4,G*%
%TO.N,LO*%
X150210000Y-73830000D03*
%TO.P,Q2,3,S*%
%TO.N,GND*%
X150210000Y-75100000D03*
%TO.P,Q2,2,S*%
X150210000Y-76370000D03*
%TO.P,Q2,1,S*%
X150210000Y-77640000D03*
%TD*%
D34*
%TO.P,Q1,5,D*%
%TO.N,+P_BATT*%
X146505000Y-83645000D03*
D35*
%TO.P,Q1,4,G*%
%TO.N,HO*%
X144600000Y-79695000D03*
%TO.P,Q1,3,S*%
%TO.N,SW_*%
X145870000Y-79695000D03*
%TO.P,Q1,2,S*%
X147140000Y-79695000D03*
%TO.P,Q1,1,S*%
X148410000Y-79695000D03*
%TD*%
D25*
%TO.P,CIN1,1*%
%TO.N,+P_BATT*%
X152455000Y-80370000D03*
%TO.P,CIN1,2*%
%TO.N,GND*%
X152455000Y-77420000D03*
%TD*%
D20*
%TO.P,C11,1*%
%TO.N,/PWM Chip/EXTCLK*%
X144400000Y-53680000D03*
%TO.P,C11,2*%
%TO.N,GND*%
X144400000Y-52720000D03*
%TD*%
D36*
%TO.P,U6,1,GND*%
%TO.N,GND*%
X131350000Y-47900000D03*
%TO.P,U6,2,VO*%
%TO.N,+3.3V*%
X131350000Y-50200000D03*
D37*
X137650000Y-50200000D03*
D36*
%TO.P,U6,3,VI*%
%TO.N,+5V*%
X131350000Y-52500000D03*
%TD*%
D38*
%TO.P,R7,1*%
%TO.N,+6VP*%
X131100000Y-57700000D03*
%TO.P,R7,2*%
%TO.N,+6V*%
X131100000Y-60625000D03*
%TD*%
D12*
%TO.P,TP8,1,1*%
%TO.N,+5V*%
X140000000Y-53200000D03*
%TD*%
D39*
%TO.P,U8,1,V_{DD}*%
%TO.N,+5V*%
X134262500Y-80050000D03*
%TO.P,U8,2,V_{OUT}*%
%TO.N,TEMP*%
X134262500Y-81950000D03*
%TO.P,U8,3,GND*%
%TO.N,GND*%
X136537500Y-81000000D03*
%TD*%
D40*
%TO.P,D2,3,K*%
%TO.N,LO*%
X146255000Y-70195000D03*
D41*
%TO.P,D2,2,A*%
%TO.N,GND*%
X150605000Y-71165000D03*
%TO.P,D2,1,A*%
X150605000Y-69225000D03*
%TD*%
D29*
%TO.P,COUT3,1*%
%TO.N,+6V*%
X150855000Y-63245000D03*
%TO.P,COUT3,2*%
%TO.N,GND*%
X150855000Y-66195000D03*
%TD*%
D42*
%TO.P,C18,1*%
%TO.N,+5V*%
X130850000Y-55000000D03*
%TO.P,C18,2*%
%TO.N,GND*%
X132750000Y-55000000D03*
%TD*%
D30*
%TO.P,D3,2,A*%
%TO.N,+3.3V*%
X159225000Y-73400000D03*
%TO.P,D3,1,K*%
%TO.N,Net-(D3-K)*%
X160800000Y-73400000D03*
%TD*%
D43*
%TO.P,U5,21,EP*%
%TO.N,GND*%
X136984999Y-78950001D03*
X136385000Y-80050001D03*
X136385000Y-77850001D03*
X135785001Y-78950001D03*
%TD*%
D12*
%TO.P,TP15,1,1*%
%TO.N,HO*%
X141600000Y-80500000D03*
%TD*%
D44*
%TO.N,Net-(D6-K)*%
X140200000Y-50300000D03*
%TO.N,/MCU/Debug_LED2*%
X141100000Y-50100000D03*
%TO.N,/MCU/Debug_LED1*%
X155700000Y-57400000D03*
X150315102Y-55157729D03*
%TO.N,Net-(D5-K)*%
X158100000Y-61300000D03*
%TO.N,HO*%
X139129443Y-80475204D03*
%TO.N,comp*%
X132354120Y-82665120D03*
%TO.N,FB_*%
X130500000Y-78050001D03*
%TO.N,BST*%
X140999998Y-79699999D03*
%TO.N,PGOOD*%
X129000000Y-72600000D03*
%TO.N,VIN*%
X139600000Y-82600000D03*
%TO.N,+3.3V*%
X141886827Y-50313173D03*
%TO.N,PWM_OE*%
X147540333Y-52474256D03*
%TO.N,GND*%
X129700000Y-47900000D03*
%TO.N,+6VP*%
X128400000Y-48000000D03*
%TO.N,+3.3V*%
X133400000Y-50200000D03*
%TO.N,+5V*%
X120600000Y-45600000D03*
%TO.N,+3.3V*%
X120400000Y-50000000D03*
X158000000Y-72600000D03*
X144900000Y-58100000D03*
X139200000Y-50200000D03*
X138332880Y-59067120D03*
X150400000Y-48400000D03*
X144600000Y-55800000D03*
X140275001Y-54883285D03*
X153740380Y-54259620D03*
X153200000Y-52800000D03*
X149400000Y-57800000D03*
X152850000Y-59328128D03*
X153200000Y-55750000D03*
X150000000Y-58200000D03*
X155800000Y-52200000D03*
X139400000Y-55000000D03*
X144625000Y-56975000D03*
X153950000Y-59200000D03*
%TO.N,GND*%
X153816250Y-75293750D03*
X154616250Y-75293750D03*
X147016250Y-67493750D03*
X142800000Y-59000000D03*
X146216250Y-67493750D03*
X139600000Y-61000000D03*
X149600000Y-54799073D03*
X154616250Y-76093750D03*
X149825000Y-53475000D03*
X151616250Y-78493750D03*
X151416250Y-74493750D03*
X150216250Y-67493750D03*
X152216250Y-76093750D03*
X155800000Y-60200000D03*
X151816250Y-65093750D03*
X147816250Y-65093750D03*
X152616250Y-65093750D03*
X151816250Y-68193750D03*
X141200000Y-58400000D03*
X146816250Y-65093750D03*
X148816250Y-65093750D03*
X134200000Y-55000000D03*
X151416250Y-73693750D03*
X155416250Y-76093750D03*
X153216250Y-78493750D03*
X156200000Y-75293750D03*
X151816250Y-68893750D03*
X155416250Y-75293750D03*
X151816250Y-70493750D03*
X152616250Y-66693750D03*
X135000000Y-55000000D03*
X156016250Y-78493750D03*
X148616250Y-67493750D03*
X145816250Y-65093750D03*
X150600000Y-46975000D03*
X151016250Y-67493750D03*
X151416250Y-75293750D03*
X152616250Y-69693750D03*
X137234998Y-80300001D03*
X147816250Y-67493750D03*
X152616250Y-68193750D03*
X152216250Y-72093750D03*
X147400000Y-57000000D03*
X150000000Y-61000000D03*
X152616250Y-67493750D03*
X151416250Y-76093750D03*
X144616250Y-67493750D03*
X152616250Y-71293750D03*
X152616250Y-65893750D03*
X152216250Y-75293750D03*
X153016250Y-75293750D03*
X136400000Y-84400000D03*
X164102500Y-77000000D03*
X152216250Y-74493750D03*
X152616250Y-68893750D03*
X143816250Y-65093750D03*
X131400000Y-82700000D03*
X154416250Y-78493750D03*
X152416250Y-78493750D03*
X143816250Y-67493750D03*
X145416250Y-67493750D03*
X164102500Y-73400000D03*
X151816250Y-71293750D03*
X156200000Y-76093750D03*
X153016250Y-76093750D03*
X151816250Y-67493750D03*
X151416250Y-72093750D03*
X135150000Y-59050000D03*
X162000000Y-79200000D03*
X148600000Y-58000000D03*
X164102500Y-75200000D03*
X155216250Y-78493750D03*
X144816250Y-65093750D03*
X153816250Y-76093750D03*
X150816250Y-65093750D03*
X147374385Y-53340370D03*
X152216250Y-73693750D03*
X151416250Y-72893750D03*
X152216250Y-72893750D03*
X149816250Y-65093750D03*
X151816250Y-69693750D03*
X149416250Y-67493750D03*
X152616250Y-70493750D03*
%TO.N,NRST*%
X147200000Y-61000000D03*
%TO.N,+3.3VA*%
X141200000Y-52800000D03*
%TO.N,+5V*%
X130535000Y-79967845D03*
X133200000Y-52200000D03*
X136000000Y-61800000D03*
X139400000Y-52800000D03*
X157952500Y-74400000D03*
%TO.N,+6V*%
X143816250Y-61993750D03*
X132600000Y-60500000D03*
X148816250Y-64293750D03*
X152616250Y-61993750D03*
X131600000Y-61800000D03*
X151816250Y-61993750D03*
X150216250Y-61993750D03*
X143816250Y-64293750D03*
X152616250Y-62693750D03*
X132600000Y-61200000D03*
X151816250Y-64293750D03*
X133000000Y-61800000D03*
X129900000Y-75900000D03*
X145816250Y-64293750D03*
X144616250Y-61993750D03*
X147816250Y-64293750D03*
X152616250Y-63493750D03*
X148616250Y-61993750D03*
X150816250Y-64293750D03*
X147016250Y-61993750D03*
X145416250Y-61993750D03*
X147816250Y-61993750D03*
X146216250Y-61993750D03*
X149416250Y-61993750D03*
X130200000Y-61800000D03*
X144816250Y-64293750D03*
X132300000Y-61800000D03*
X133700000Y-61800000D03*
X146816250Y-64293750D03*
X151016250Y-61993750D03*
X132600000Y-59800000D03*
X152616250Y-64293750D03*
X130900000Y-61800000D03*
X149816250Y-64293750D03*
%TO.N,TEMP*%
X133365158Y-84199123D03*
X138600000Y-61400000D03*
%TO.N,SW_*%
X146210000Y-75300000D03*
X146210000Y-74100000D03*
X147610000Y-74100000D03*
X146210000Y-77700000D03*
X144810000Y-75300000D03*
X144810000Y-76500000D03*
X146210000Y-76500000D03*
X144810000Y-77700000D03*
X147610000Y-77700000D03*
X147610000Y-75300000D03*
X144810000Y-74100000D03*
X140000000Y-72600000D03*
X139022500Y-81287500D03*
X147610000Y-76500000D03*
%TO.N,+P_BATT*%
X144710000Y-83600000D03*
X151610000Y-79300000D03*
X153210000Y-79300000D03*
X152610000Y-82500000D03*
X155010000Y-82500000D03*
X144710000Y-85000000D03*
X150810000Y-86100000D03*
X154410000Y-79300000D03*
X155810000Y-81700000D03*
X147110000Y-85000000D03*
X145910000Y-83600000D03*
X149810000Y-83700000D03*
X150810000Y-84500000D03*
X153410000Y-82500000D03*
X156010000Y-79300000D03*
X148310000Y-83600000D03*
X147110000Y-82200000D03*
X153410000Y-81700000D03*
X155210000Y-79300000D03*
X150810000Y-83700000D03*
X148310000Y-85000000D03*
X154210000Y-82500000D03*
X149810000Y-84500000D03*
X150810000Y-82100000D03*
X144710000Y-82200000D03*
X149810000Y-86100000D03*
X152410000Y-79300000D03*
X147110000Y-83600000D03*
X151810000Y-82500000D03*
X150810000Y-82900000D03*
X149810000Y-82100000D03*
X145910000Y-82200000D03*
X152610000Y-81700000D03*
X145910000Y-85000000D03*
X149810000Y-85300000D03*
X150810000Y-85300000D03*
X151810000Y-81700000D03*
X147110000Y-86100000D03*
X155010000Y-81700000D03*
X154210000Y-81700000D03*
X148310000Y-86100000D03*
X155810000Y-82500000D03*
X149810000Y-82900000D03*
X148310000Y-82200000D03*
X145910000Y-86100000D03*
X144710000Y-86100000D03*
%TO.N,Net-(U5-VCC)*%
X139585000Y-78200003D03*
X134716250Y-72893750D03*
%TO.N,LO*%
X147010000Y-72100000D03*
X145810000Y-69300000D03*
X147010000Y-69300000D03*
X139800866Y-77429675D03*
X148210000Y-70700000D03*
X144610000Y-70700000D03*
X144610000Y-69300000D03*
X145810000Y-70700000D03*
X147010000Y-70700000D03*
X144610000Y-72100000D03*
X148210000Y-69300000D03*
X148210000Y-72100000D03*
X145810000Y-72100000D03*
%TO.N,/MCU/BOOT0*%
X154600000Y-57400000D03*
%TO.N,/MCU/SWDIO*%
X156600000Y-55200000D03*
%TO.N,PWM_SDA*%
X150000000Y-56000000D03*
%TO.N,PWM_SCL*%
X148900000Y-54100000D03*
X153174693Y-54825307D03*
%TO.N,EN*%
X137600000Y-84800000D03*
X135634999Y-82450001D03*
%TO.N,CSA_OUT*%
X145800000Y-61000000D03*
%TO.N,+6VP*%
X132300000Y-58700000D03*
X130900000Y-58700000D03*
X132400000Y-56600000D03*
X131000000Y-56600000D03*
X130300000Y-56600000D03*
X131600000Y-58700000D03*
X131700000Y-56600000D03*
X130200000Y-58700000D03*
%TO.N,HO*%
X143200000Y-79300000D03*
X142810000Y-79850000D03*
%TD*%
D45*
%TO.N,BST*%
X140150002Y-78850003D02*
X138750003Y-78850003D01*
X140999998Y-79699999D02*
X140150002Y-78850003D01*
X138750003Y-78850003D02*
X138500000Y-78600000D01*
%TO.N,GND*%
X137234998Y-80302502D02*
X136537500Y-81000000D01*
X137234998Y-80300001D02*
X137234998Y-80302502D01*
%TO.N,/MCU/SWDIO*%
X156600000Y-56100000D02*
X160910000Y-60410000D01*
X156600000Y-55200000D02*
X156600000Y-56100000D01*
X160910000Y-60410000D02*
X161230000Y-60410000D01*
%TO.N,NRST*%
X160300000Y-54400000D02*
X161230000Y-55330000D01*
X156200000Y-54400000D02*
X160300000Y-54400000D01*
X152200000Y-58400000D02*
X156200000Y-54400000D01*
X152200000Y-59600000D02*
X152200000Y-58400000D01*
%TO.N,Net-(D6-K)*%
X140000000Y-51387500D02*
X140012500Y-51400000D01*
X140000000Y-50500000D02*
X140000000Y-51387500D01*
X140200000Y-50300000D02*
X140000000Y-50500000D01*
%TO.N,/MCU/Debug_LED2*%
X141100000Y-50912500D02*
X141587500Y-51400000D01*
X141100000Y-50100000D02*
X141100000Y-50912500D01*
%TO.N,+5V*%
X139600000Y-52800000D02*
X139400000Y-52800000D01*
X140000000Y-53200000D02*
X139600000Y-52800000D01*
%TO.N,GND*%
X150851612Y-54775000D02*
X151862500Y-54775000D01*
X150584341Y-54507729D02*
X150851612Y-54775000D01*
X149891344Y-54507729D02*
X150584341Y-54507729D01*
X149600000Y-54799073D02*
X149891344Y-54507729D01*
%TO.N,/MCU/Debug_LED1*%
X155700000Y-58412500D02*
X157000000Y-59712500D01*
X155700000Y-57400000D02*
X155700000Y-58412500D01*
%TO.N,Net-(D5-K)*%
X158087500Y-61287500D02*
X158100000Y-61300000D01*
X157000000Y-61287500D02*
X158087500Y-61287500D01*
%TO.N,comp*%
X130200000Y-82419239D02*
X130200000Y-81600000D01*
X131130761Y-83350000D02*
X130200000Y-82419239D01*
X131669240Y-83350000D02*
X131130761Y-83350000D01*
X132354120Y-82665120D02*
X131669240Y-83350000D01*
%TO.N,GND*%
X132400000Y-81700000D02*
X132400000Y-81560000D01*
X131400000Y-82700000D02*
X132400000Y-81700000D01*
D46*
%TO.N,FB_*%
X129550001Y-78050001D02*
X128500000Y-77000000D01*
X130500000Y-78050001D02*
X129550001Y-78050001D01*
%TO.N,SW_*%
X142900000Y-77700000D02*
X144810000Y-77700000D01*
X142100000Y-78500000D02*
X142900000Y-77700000D01*
%TO.N,HO*%
X142150000Y-79850000D02*
X141600000Y-80400000D01*
X142810000Y-79850000D02*
X142150000Y-79850000D01*
D45*
%TO.N,PGOOD*%
X129000000Y-72600000D02*
X129000000Y-73200000D01*
X129000000Y-73200000D02*
X128400000Y-73800000D01*
%TO.N,EN*%
X139600000Y-84800000D02*
X141200000Y-83200000D01*
X137600000Y-84800000D02*
X139600000Y-84800000D01*
D46*
%TO.N,VIN*%
X139000000Y-83200000D02*
X139600000Y-82600000D01*
X138800000Y-83200000D02*
X139000000Y-83200000D01*
D45*
%TO.N,TEMP*%
X131999123Y-84199123D02*
X133365158Y-84199123D01*
X131800000Y-84000000D02*
X131999123Y-84199123D01*
D46*
%TO.N,+5V*%
X131767845Y-79967845D02*
X132400000Y-80600000D01*
X130535000Y-79967845D02*
X131767845Y-79967845D01*
%TO.N,+3.3V*%
X145175000Y-58375000D02*
X145837500Y-58375000D01*
X144900000Y-58100000D02*
X145175000Y-58375000D01*
D45*
%TO.N,NRST*%
X156000000Y-67600000D02*
X157800000Y-69400000D01*
X156000000Y-63400000D02*
X156000000Y-67600000D01*
X152200000Y-59600000D02*
X156000000Y-63400000D01*
X157800000Y-69400000D02*
X159000000Y-69400000D01*
%TO.N,+6V*%
X157302500Y-76200000D02*
X157302500Y-72102500D01*
X157302500Y-72102500D02*
X157000000Y-71800000D01*
X159225000Y-77000000D02*
X158102500Y-77000000D01*
X158102500Y-77000000D02*
X157302500Y-76200000D01*
D46*
%TO.N,+5V*%
X158752500Y-75200000D02*
X159225000Y-75200000D01*
X157952500Y-74400000D02*
X158752500Y-75200000D01*
D45*
%TO.N,+3.3V*%
X158800000Y-73400000D02*
X158000000Y-72600000D01*
X159225000Y-73400000D02*
X158800000Y-73400000D01*
D46*
%TO.N,+5V*%
X134600000Y-48400000D02*
X134600000Y-50800000D01*
X132800000Y-46600000D02*
X134600000Y-48400000D01*
X121600000Y-46600000D02*
X132800000Y-46600000D01*
X134600000Y-50800000D02*
X133200000Y-52200000D01*
X120600000Y-45600000D02*
X121600000Y-46600000D01*
D45*
%TO.N,PWM_OE*%
X147241077Y-52175000D02*
X146137500Y-52175000D01*
X147540333Y-52474256D02*
X147241077Y-52175000D01*
%TO.N,GND*%
X147225000Y-53185832D02*
X146864168Y-52825000D01*
X147374385Y-53340370D02*
X147225000Y-53190985D01*
X147225000Y-53190985D02*
X147225000Y-53185832D01*
X146864168Y-52825000D02*
X146137500Y-52825000D01*
D46*
X129700000Y-47900000D02*
X131350000Y-47900000D01*
%TO.N,+3.3V*%
X131350000Y-50200000D02*
X133400000Y-50200000D01*
X129000000Y-50200000D02*
X131350000Y-50200000D01*
X126600000Y-47800000D02*
X129000000Y-50200000D01*
X121200000Y-47800000D02*
X126600000Y-47800000D01*
X120400000Y-48600000D02*
X121200000Y-47800000D01*
X120400000Y-50000000D02*
X120400000Y-48600000D01*
D45*
%TO.N,CSA_OUT*%
X139200000Y-58099634D02*
X139200000Y-57200000D01*
X141600000Y-59400000D02*
X141340000Y-59140000D01*
X140240366Y-59140000D02*
X139200000Y-58099634D01*
X141600000Y-59810000D02*
X141600000Y-59400000D01*
X141340000Y-59140000D02*
X140240366Y-59140000D01*
D46*
%TO.N,+3.3V*%
X137650000Y-50200000D02*
X139200000Y-50200000D01*
D45*
X153740380Y-54259620D02*
X153605760Y-54125000D01*
D46*
X137300000Y-60580000D02*
X135992500Y-60580000D01*
D45*
X153200000Y-52800000D02*
X153175000Y-52825000D01*
D46*
X135992500Y-60580000D02*
X135850000Y-60437500D01*
X145577500Y-57577500D02*
X145577500Y-56975000D01*
X145577500Y-55985000D02*
X145577500Y-56975000D01*
X146137500Y-55425000D02*
X145577500Y-55985000D01*
X145837500Y-57837500D02*
X145577500Y-57577500D01*
X137488266Y-60580000D02*
X137300000Y-60580000D01*
X138332880Y-59735386D02*
X137488266Y-60580000D01*
D45*
X140200000Y-49200000D02*
X139200000Y-50200000D01*
X149090000Y-57490000D02*
X149400000Y-57800000D01*
X153175000Y-52825000D02*
X151862500Y-52825000D01*
D46*
X142800000Y-56320000D02*
X142800000Y-54812500D01*
D45*
X154400000Y-52490000D02*
X155510000Y-52490000D01*
X149090000Y-57000000D02*
X149090000Y-57490000D01*
D46*
X138150000Y-55000000D02*
X139400000Y-55000000D01*
D45*
X155510000Y-52490000D02*
X155800000Y-52200000D01*
D46*
X145837500Y-58375000D02*
X145837500Y-57837500D01*
D45*
X153605760Y-54125000D02*
X151862500Y-54125000D01*
X152875000Y-55425000D02*
X151862500Y-55425000D01*
X140200000Y-49000000D02*
X140200000Y-49200000D01*
D46*
X144625000Y-56975000D02*
X145577500Y-56975000D01*
X138332880Y-59067120D02*
X138332880Y-59735386D01*
D45*
X153200000Y-55750000D02*
X152875000Y-55425000D01*
D46*
X144080000Y-56320000D02*
X144600000Y-55800000D01*
X142800000Y-56320000D02*
X144080000Y-56320000D01*
X138150000Y-55000000D02*
X138150000Y-50700000D01*
%TO.N,GND*%
X147375000Y-56975000D02*
X147400000Y-57000000D01*
D45*
X145087500Y-52825000D02*
X144982500Y-52720000D01*
X163200000Y-79200000D02*
X162000000Y-79200000D01*
X146137500Y-52825000D02*
X145087500Y-52825000D01*
X163322500Y-75200000D02*
X164102500Y-75200000D01*
X135600000Y-83600000D02*
X136400000Y-84400000D01*
D46*
X137300000Y-59620000D02*
X137005000Y-59325000D01*
X135000000Y-55000000D02*
X134200000Y-55000000D01*
X134900000Y-58800000D02*
X134900000Y-58162500D01*
X137005000Y-59325000D02*
X135425000Y-59325000D01*
D45*
X163322500Y-73400000D02*
X164102500Y-73400000D01*
X144982500Y-52720000D02*
X144400000Y-52720000D01*
X140580000Y-61000000D02*
X139600000Y-61000000D01*
X149080000Y-60600000D02*
X149600000Y-60600000D01*
D46*
X135425000Y-59325000D02*
X135150000Y-59050000D01*
D45*
X150600000Y-46975000D02*
X151862500Y-46975000D01*
D46*
X136250000Y-55000000D02*
X135000000Y-55000000D01*
X148225000Y-58375000D02*
X147387500Y-58375000D01*
D45*
X149825000Y-53475000D02*
X151862500Y-53475000D01*
D46*
X132750000Y-55000000D02*
X134200000Y-55000000D01*
X135150000Y-59050000D02*
X134900000Y-58800000D01*
X141200000Y-57280000D02*
X141200000Y-58400000D01*
D45*
X135280000Y-83600000D02*
X135600000Y-83600000D01*
X163322500Y-77000000D02*
X164102500Y-77000000D01*
D46*
X148600000Y-58000000D02*
X148225000Y-58375000D01*
D45*
X149600000Y-60600000D02*
X150000000Y-61000000D01*
D46*
X146537500Y-56975000D02*
X147375000Y-56975000D01*
X142800000Y-57280000D02*
X142800000Y-59000000D01*
D45*
%TO.N,NRST*%
X148120000Y-60290001D02*
X148810001Y-59600000D01*
X148120000Y-60600000D02*
X148120000Y-60290001D01*
X147720000Y-61000000D02*
X148120000Y-60600000D01*
X148810001Y-59600000D02*
X152200000Y-59600000D01*
X147200000Y-61000000D02*
X147720000Y-61000000D01*
D46*
%TO.N,+3.3VA*%
X141200000Y-56320000D02*
X141200000Y-54812500D01*
X141212500Y-54800000D02*
X141212500Y-52812500D01*
X141212500Y-52812500D02*
X141200000Y-52800000D01*
D45*
%TO.N,/PWM Chip/EXTCLK*%
X146137500Y-53475000D02*
X145237500Y-53475000D01*
X145237500Y-53475000D02*
X145032500Y-53680000D01*
X145032500Y-53680000D02*
X144400000Y-53680000D01*
D46*
%TO.N,+5V*%
X130850000Y-54150000D02*
X130850000Y-55000000D01*
X131350000Y-52500000D02*
X131350000Y-53650000D01*
X131350000Y-53650000D02*
X130850000Y-54150000D01*
X132900000Y-52500000D02*
X133200000Y-52200000D01*
D45*
X160800000Y-75200000D02*
X162302500Y-75200000D01*
D46*
X131350000Y-52500000D02*
X132900000Y-52500000D01*
D45*
X134262500Y-80050000D02*
X132950000Y-80050000D01*
X132950000Y-80050000D02*
X132400000Y-80600000D01*
%TO.N,+6V*%
X156200000Y-71000000D02*
X156200000Y-68800000D01*
X152735489Y-64293750D02*
X152616250Y-64293750D01*
X154000000Y-63400000D02*
X152710000Y-63400000D01*
X154400000Y-67000000D02*
X154400000Y-65958261D01*
X156200000Y-68800000D02*
X154400000Y-67000000D01*
X152710000Y-63400000D02*
X152616250Y-63493750D01*
X154400000Y-65958261D02*
X152735489Y-64293750D01*
X157000000Y-71800000D02*
X156200000Y-71000000D01*
%TO.N,Net-(R8-Pad2)*%
X138347500Y-58162500D02*
X139995000Y-59810000D01*
X139995000Y-59810000D02*
X140580000Y-59810000D01*
X135850000Y-58162500D02*
X138347500Y-58162500D01*
%TO.N,TEMP*%
X134262500Y-81950000D02*
X134262500Y-83542500D01*
X134262500Y-83542500D02*
X134320000Y-83600000D01*
X133964281Y-83600000D02*
X133365158Y-84199123D01*
X134320000Y-83600000D02*
X133964281Y-83600000D01*
D47*
%TO.N,SW_*%
X137055000Y-75545000D02*
X140000000Y-72600000D01*
X136455000Y-75545000D02*
X137055000Y-75545000D01*
%TO.N,LO*%
X150210000Y-73830000D02*
X148480000Y-72100000D01*
X148480000Y-72100000D02*
X148210000Y-72100000D01*
D45*
%TO.N,Net-(D3-K)*%
X160800000Y-73400000D02*
X162302500Y-73400000D01*
%TO.N,Net-(D4-K)*%
X160800000Y-77000000D02*
X162302500Y-77000000D01*
%TO.N,/MCU/BOOT0*%
X154600000Y-57400000D02*
X154600000Y-60940000D01*
X154600000Y-60940000D02*
X159060000Y-65400000D01*
%TO.N,CH0*%
X156300000Y-46607106D02*
X157753553Y-45153553D01*
X151862500Y-52175000D02*
X151887500Y-52150000D01*
X156300000Y-49300000D02*
X156300000Y-46607106D01*
X160846447Y-45153553D02*
X163000000Y-43000000D01*
X157753553Y-45153553D02*
X160846447Y-45153553D01*
X151887500Y-52150000D02*
X153450000Y-52150000D01*
X153450000Y-52150000D02*
X156300000Y-49300000D01*
%TO.N,CH1*%
X153303426Y-51525000D02*
X155800000Y-49028426D01*
X157800000Y-44400000D02*
X159060000Y-44400000D01*
X155800000Y-49028426D02*
X155800000Y-46400000D01*
X155800000Y-46400000D02*
X157800000Y-44400000D01*
X151862500Y-51525000D02*
X153303426Y-51525000D01*
X159060000Y-44400000D02*
X160460000Y-43000000D01*
%TO.N,CH2*%
X157920000Y-43280000D02*
X157920000Y-43000000D01*
X155200000Y-48921320D02*
X155200000Y-46007106D01*
X155880000Y-45320000D02*
X157920000Y-43280000D01*
X151862500Y-50875000D02*
X153246320Y-50875000D01*
X155200000Y-46007106D02*
X155880000Y-45327106D01*
X155880000Y-45327106D02*
X155880000Y-45320000D01*
X153246320Y-50875000D02*
X155200000Y-48921320D01*
%TO.N,CH3*%
X154700000Y-45800000D02*
X155380000Y-45120000D01*
X153189213Y-50225000D02*
X154700000Y-48714213D01*
X151862500Y-50225000D02*
X153189213Y-50225000D01*
X154700000Y-48714213D02*
X154700000Y-45800000D01*
X155380000Y-45120000D02*
X155380000Y-43000000D01*
%TO.N,CH4*%
X151862500Y-49575000D02*
X153132106Y-49575000D01*
X153132106Y-49575000D02*
X154200000Y-48507106D01*
X154200000Y-45200000D02*
X152000000Y-43000000D01*
X154200000Y-48507106D02*
X154200000Y-45200000D01*
%TO.N,CH5*%
X153700000Y-45992893D02*
X153007107Y-45300000D01*
X153075000Y-48925000D02*
X153700000Y-48300000D01*
X153007107Y-45300000D02*
X151760000Y-45300000D01*
X153700000Y-48300000D02*
X153700000Y-45992893D01*
X151760000Y-45300000D02*
X149460000Y-43000000D01*
X151862500Y-48925000D02*
X153075000Y-48925000D01*
%TO.N,CH6*%
X153200000Y-46200000D02*
X152800000Y-45800000D01*
X153200000Y-48000000D02*
X153200000Y-46200000D01*
X152800000Y-45800000D02*
X149720000Y-45800000D01*
X151862500Y-48275000D02*
X152925000Y-48275000D01*
X152925000Y-48275000D02*
X153200000Y-48000000D01*
X149720000Y-45800000D02*
X146920000Y-43000000D01*
%TO.N,CH7*%
X151862500Y-47625000D02*
X149025000Y-47625000D01*
X149025000Y-47625000D02*
X144400000Y-43000000D01*
X144400000Y-43000000D02*
X144380000Y-43000000D01*
%TO.N,CH8*%
X146137500Y-46975000D02*
X144775000Y-46975000D01*
X144775000Y-46975000D02*
X141000000Y-43200000D01*
X141000000Y-43200000D02*
X141000000Y-43000000D01*
%TO.N,CH9*%
X139200000Y-44800000D02*
X138460000Y-44060000D01*
X146137500Y-47625000D02*
X144625000Y-47625000D01*
X141800000Y-44800000D02*
X139200000Y-44800000D01*
X138460000Y-44060000D02*
X138460000Y-43000000D01*
X144625000Y-47625000D02*
X141800000Y-44800000D01*
%TO.N,CH10*%
X137492894Y-43800000D02*
X136720000Y-43800000D01*
X136720000Y-43800000D02*
X135920000Y-43000000D01*
X144567894Y-48275000D02*
X141592894Y-45300000D01*
X141592894Y-45300000D02*
X138992894Y-45300000D01*
X138992894Y-45300000D02*
X137492894Y-43800000D01*
X146137500Y-48275000D02*
X144567894Y-48275000D01*
%TO.N,CH11*%
X137200000Y-44400000D02*
X134800000Y-44400000D01*
X134800000Y-44400000D02*
X133400000Y-43000000D01*
X144510788Y-48925000D02*
X141385788Y-45800000D01*
X146137500Y-48925000D02*
X144510788Y-48925000D01*
X141385788Y-45800000D02*
X138600000Y-45800000D01*
X138600000Y-45800000D02*
X137200000Y-44400000D01*
X133400000Y-43000000D02*
X133380000Y-43000000D01*
%TO.N,CH12*%
X146137500Y-49575000D02*
X144453682Y-49575000D01*
X131400000Y-44400000D02*
X130000000Y-43000000D01*
X136992894Y-44900000D02*
X134592893Y-44900000D01*
X134592893Y-44900000D02*
X134092893Y-44400000D01*
X144453682Y-49575000D02*
X141178682Y-46300000D01*
X138392894Y-46300000D02*
X136992894Y-44900000D01*
X141178682Y-46300000D02*
X138392894Y-46300000D01*
X134092893Y-44400000D02*
X131400000Y-44400000D01*
%TO.N,CH13*%
X146137500Y-50225000D02*
X144225000Y-50225000D01*
X144225000Y-50225000D02*
X140800000Y-46800000D01*
X131192894Y-44900000D02*
X130746447Y-44453553D01*
X134200000Y-45400000D02*
X133700000Y-44900000D01*
X138185788Y-46800000D02*
X136785788Y-45400000D01*
X136785788Y-45400000D02*
X134200000Y-45400000D01*
X133700000Y-44900000D02*
X131192894Y-44900000D01*
X140800000Y-46800000D02*
X138185788Y-46800000D01*
X128913553Y-44453553D02*
X127460000Y-43000000D01*
X130746447Y-44453553D02*
X128913553Y-44453553D01*
%TO.N,CH14*%
X140500000Y-47300000D02*
X137978682Y-47300000D01*
X130400000Y-45000000D02*
X128752894Y-45000000D01*
X126443553Y-44523553D02*
X124920000Y-43000000D01*
X130800000Y-45400000D02*
X130400000Y-45000000D01*
X136578682Y-45900000D02*
X133992894Y-45900000D01*
X137978682Y-47300000D02*
X136578682Y-45900000D01*
X144075000Y-50875000D02*
X140500000Y-47300000D01*
X128276447Y-44523553D02*
X126443553Y-44523553D01*
X133492894Y-45400000D02*
X130800000Y-45400000D01*
X133992894Y-45900000D02*
X133492894Y-45400000D01*
X146137500Y-50875000D02*
X144075000Y-50875000D01*
X128752894Y-45000000D02*
X128276447Y-44523553D01*
%TO.N,CH15*%
X130192893Y-45500000D02*
X128545787Y-45500000D01*
X140292894Y-47800000D02*
X137771575Y-47800000D01*
X128069340Y-45023553D02*
X126236446Y-45023553D01*
X136371575Y-46400000D02*
X133785787Y-46400000D01*
X146137500Y-51525000D02*
X144017894Y-51525000D01*
X144017894Y-51525000D02*
X140292894Y-47800000D01*
X133285787Y-45900000D02*
X130592893Y-45900000D01*
X126236446Y-45023553D02*
X125812893Y-44600000D01*
X128545787Y-45500000D02*
X128069340Y-45023553D01*
X133785787Y-46400000D02*
X133285787Y-45900000D01*
X137771575Y-47800000D02*
X136371575Y-46400000D01*
X125812893Y-44600000D02*
X123980000Y-44600000D01*
X123980000Y-44600000D02*
X122380000Y-43000000D01*
X130592893Y-45900000D02*
X130192893Y-45500000D01*
%TO.N,PWM_SDA*%
X150000000Y-56000000D02*
X149800000Y-55800000D01*
X150000000Y-56000000D02*
X150600000Y-56000000D01*
X147889168Y-55800000D02*
X146864168Y-54775000D01*
X149800000Y-55800000D02*
X147889168Y-55800000D01*
X156346447Y-53546447D02*
X157453553Y-53546447D01*
X157453553Y-53546447D02*
X158600000Y-52400000D01*
X150110000Y-57000000D02*
X150110000Y-56110000D01*
X146864168Y-54775000D02*
X146137500Y-54775000D01*
X151200000Y-56600000D02*
X153292894Y-56600000D01*
X153292894Y-56600000D02*
X156346447Y-53546447D01*
X150110000Y-56110000D02*
X150000000Y-56000000D01*
X150600000Y-56000000D02*
X151200000Y-56600000D01*
%TO.N,PWM_SCL*%
X148900000Y-54100000D02*
X148875000Y-54125000D01*
X157000000Y-52200000D02*
X157000000Y-50800000D01*
X156200000Y-53000000D02*
X157000000Y-52200000D01*
X155600000Y-53000000D02*
X156200000Y-53000000D01*
X148875000Y-54125000D02*
X146137500Y-54125000D01*
X155090000Y-53510000D02*
X155600000Y-53000000D01*
X154400000Y-53510000D02*
X155090000Y-53510000D01*
%TO.N,CSA_OUT*%
X141600000Y-61000000D02*
X141600000Y-59810000D01*
X141600000Y-61000000D02*
X145800000Y-61000000D01*
%TO.N,PWM_SCL*%
X154400000Y-54519239D02*
X154400000Y-53510000D01*
X154009619Y-54909620D02*
X154400000Y-54519239D01*
X153259006Y-54909620D02*
X154009619Y-54909620D01*
X153174693Y-54825307D02*
X153259006Y-54909620D01*
%TD*%
%TA.AperFunction,Conductor*%
%TO.N,HO*%
G36*
X145097539Y-78919685D02*
G01*
X145143294Y-78972489D01*
X145154500Y-79024000D01*
X145154500Y-80176000D01*
X145134815Y-80243039D01*
X145082011Y-80288794D01*
X145030500Y-80300000D01*
X142534000Y-80300000D01*
X142466961Y-80280315D01*
X142421206Y-80227511D01*
X142410000Y-80176000D01*
X142410000Y-79741333D01*
X142429685Y-79674294D01*
X142434800Y-79666933D01*
X142856176Y-79105098D01*
X142912145Y-79063279D01*
X142955374Y-79055500D01*
X143115693Y-79055500D01*
X143127480Y-79055079D01*
X143131906Y-79055000D01*
X143268094Y-79055000D01*
X143272519Y-79055078D01*
X143284307Y-79055500D01*
X143449310Y-79055500D01*
X143449871Y-79055489D01*
X143458427Y-79055337D01*
X143467273Y-79055021D01*
X143547441Y-79039074D01*
X143612905Y-79014657D01*
X143653987Y-78995002D01*
X143679051Y-78972489D01*
X143724406Y-78931750D01*
X143787434Y-78901596D01*
X143807267Y-78900000D01*
X145030500Y-78900000D01*
X145097539Y-78919685D01*
G37*
%TD.AperFunction*%
%TD*%
%TA.AperFunction,Conductor*%
%TO.N,+6VP*%
G36*
X132626182Y-56313091D02*
G01*
X134331454Y-57165727D01*
X134382613Y-57213314D01*
X134400000Y-57276636D01*
X134400000Y-57605357D01*
X134399675Y-57614324D01*
X134399500Y-57616737D01*
X134399500Y-58708265D01*
X134399675Y-58710679D01*
X134400000Y-58719645D01*
X134400000Y-58876000D01*
X134380315Y-58943039D01*
X134327511Y-58988794D01*
X134276000Y-59000000D01*
X130124000Y-59000000D01*
X130056961Y-58980315D01*
X130011206Y-58927511D01*
X130000000Y-58876000D01*
X130000000Y-56424000D01*
X130019685Y-56356961D01*
X130072489Y-56311206D01*
X130124000Y-56300000D01*
X132570728Y-56300000D01*
X132626182Y-56313091D01*
G37*
%TD.AperFunction*%
%TD*%
%TA.AperFunction,Conductor*%
%TO.N,SW_*%
G36*
X134366338Y-73319685D02*
G01*
X134374786Y-73325625D01*
X134438623Y-73374610D01*
X134438624Y-73374610D01*
X134438625Y-73374611D01*
X134572541Y-73430080D01*
X134699530Y-73446798D01*
X134716249Y-73449000D01*
X134716250Y-73449000D01*
X134716251Y-73449000D01*
X134731227Y-73447028D01*
X134859959Y-73430080D01*
X134993875Y-73374611D01*
X135057714Y-73325624D01*
X135122883Y-73300430D01*
X135133201Y-73300000D01*
X148886000Y-73300000D01*
X148953039Y-73319685D01*
X148998794Y-73372489D01*
X149010000Y-73424000D01*
X149010000Y-80376000D01*
X148990315Y-80443039D01*
X148937511Y-80488794D01*
X148886000Y-80500000D01*
X145534000Y-80500000D01*
X145466961Y-80480315D01*
X145421206Y-80427511D01*
X145410000Y-80376000D01*
X145410000Y-78500000D01*
X143861362Y-78500000D01*
X143794323Y-78480315D01*
X143773681Y-78463681D01*
X142810000Y-77500000D01*
X140474119Y-77500000D01*
X140407080Y-77480315D01*
X140361325Y-77427511D01*
X140351180Y-77392185D01*
X140337196Y-77285967D01*
X140337194Y-77285962D01*
X140281728Y-77152052D01*
X140281727Y-77152051D01*
X140281727Y-77152050D01*
X140193487Y-77037054D01*
X140078491Y-76948814D01*
X140078490Y-76948813D01*
X140078488Y-76948812D01*
X139944578Y-76893346D01*
X139944576Y-76893345D01*
X139944575Y-76893345D01*
X139872720Y-76883885D01*
X139800867Y-76874425D01*
X139800865Y-76874425D01*
X139657157Y-76893345D01*
X139657153Y-76893346D01*
X139523243Y-76948812D01*
X139408245Y-77037054D01*
X139320003Y-77152052D01*
X139264537Y-77285962D01*
X139264535Y-77285967D01*
X139250552Y-77392185D01*
X139222285Y-77456082D01*
X139163961Y-77494553D01*
X139127613Y-77500000D01*
X136799471Y-77500000D01*
X136732432Y-77480315D01*
X136718271Y-77469716D01*
X136716127Y-77467858D01*
X136653345Y-77427511D01*
X136595053Y-77390049D01*
X136595051Y-77390048D01*
X136595049Y-77390047D01*
X136595050Y-77390047D01*
X136456963Y-77349502D01*
X136456961Y-77349502D01*
X136313039Y-77349502D01*
X136313036Y-77349502D01*
X136174949Y-77390047D01*
X136053872Y-77467858D01*
X136051729Y-77469716D01*
X136049150Y-77470893D01*
X136046411Y-77472654D01*
X136046157Y-77472259D01*
X135988172Y-77498738D01*
X135970529Y-77500000D01*
X133534000Y-77500000D01*
X133466961Y-77480315D01*
X133421206Y-77427511D01*
X133410000Y-77376000D01*
X133410000Y-73951362D01*
X133429685Y-73884323D01*
X133446319Y-73863681D01*
X133973681Y-73336319D01*
X134035004Y-73302834D01*
X134061362Y-73300000D01*
X134299299Y-73300000D01*
X134366338Y-73319685D01*
G37*
%TD.AperFunction*%
%TD*%
%TA.AperFunction,Conductor*%
%TO.N,LO*%
G36*
X150021356Y-73565496D02*
G01*
X150096809Y-73604965D01*
X150163848Y-73624650D01*
X150163852Y-73624650D01*
X150163854Y-73624651D01*
X150175485Y-73626323D01*
X150235833Y-73635000D01*
X150455999Y-73635000D01*
X150523038Y-73654685D01*
X150568793Y-73707489D01*
X150579999Y-73759000D01*
X150579999Y-73900999D01*
X150560314Y-73968038D01*
X150507510Y-74013793D01*
X150455999Y-74024999D01*
X149964000Y-74024999D01*
X149896961Y-74005314D01*
X149851206Y-73952510D01*
X149840000Y-73900999D01*
X149840000Y-73680818D01*
X149839956Y-73679178D01*
X149840000Y-73679176D01*
X149840000Y-73679173D01*
X149840142Y-73679173D01*
X149840752Y-73679156D01*
X149856103Y-73614062D01*
X149906361Y-73565523D01*
X149974882Y-73551862D01*
X150021356Y-73565496D01*
G37*
%TD.AperFunction*%
%TA.AperFunction,Conductor*%
G36*
X148593039Y-68669685D02*
G01*
X148638794Y-68722489D01*
X148650000Y-68774000D01*
X148650000Y-71745377D01*
X148636384Y-71801869D01*
X148623542Y-71826961D01*
X148622464Y-71829090D01*
X148622464Y-71829091D01*
X148596091Y-71925227D01*
X148596090Y-71925234D01*
X148591107Y-71994910D01*
X148591106Y-71994933D01*
X148591919Y-72040455D01*
X148591920Y-72040464D01*
X148623529Y-72141407D01*
X148621323Y-72142097D01*
X148628210Y-72201293D01*
X148597481Y-72264042D01*
X148537706Y-72300217D01*
X148498805Y-72303347D01*
X148498805Y-72303634D01*
X148495247Y-72303634D01*
X148493855Y-72303746D01*
X148492716Y-72303634D01*
X148492713Y-72303634D01*
X148422843Y-72303634D01*
X148422842Y-72303634D01*
X148350868Y-72313981D01*
X148350856Y-72313984D01*
X148312822Y-72325152D01*
X148262331Y-72339977D01*
X148227398Y-72345000D01*
X148192601Y-72345000D01*
X148157672Y-72339978D01*
X148124279Y-72330173D01*
X148092181Y-72315515D01*
X148062905Y-72296701D01*
X148036235Y-72273590D01*
X148013447Y-72247291D01*
X147994368Y-72217605D01*
X147957246Y-72136317D01*
X147957235Y-72136294D01*
X147956927Y-72135619D01*
X147956928Y-72135618D01*
X147956923Y-72135611D01*
X147954802Y-72130967D01*
X147953871Y-72129148D01*
X147953844Y-72129162D01*
X147953382Y-72128239D01*
X147953361Y-72128194D01*
X147953360Y-72128192D01*
X147953359Y-72128192D01*
X147942041Y-72105555D01*
X147936764Y-72101879D01*
X147929117Y-72091257D01*
X147926271Y-72086828D01*
X147915888Y-72070670D01*
X147870134Y-72017867D01*
X147838458Y-71987302D01*
X147837357Y-71986240D01*
X147837355Y-71986239D01*
X147749027Y-71940035D01*
X147749025Y-71940034D01*
X147682004Y-71920354D01*
X147681989Y-71920350D01*
X147681984Y-71920349D01*
X147637313Y-71911463D01*
X147637312Y-71911463D01*
X147538018Y-71920348D01*
X147538011Y-71920349D01*
X147470987Y-71940029D01*
X147470986Y-71940029D01*
X147428594Y-71956707D01*
X147349865Y-72017867D01*
X147349859Y-72017873D01*
X147304113Y-72070667D01*
X147264807Y-72131820D01*
X147264801Y-72131831D01*
X147262289Y-72137332D01*
X147262267Y-72137381D01*
X147225631Y-72217601D01*
X147206552Y-72247289D01*
X147183766Y-72273587D01*
X147157088Y-72296704D01*
X147127819Y-72315513D01*
X147095720Y-72330172D01*
X147062334Y-72339976D01*
X147027396Y-72345000D01*
X146992601Y-72345000D01*
X146957672Y-72339978D01*
X146924279Y-72330173D01*
X146892181Y-72315515D01*
X146862905Y-72296701D01*
X146836235Y-72273590D01*
X146813447Y-72247291D01*
X146794368Y-72217605D01*
X146757246Y-72136317D01*
X146757235Y-72136294D01*
X146756927Y-72135619D01*
X146756928Y-72135618D01*
X146756923Y-72135611D01*
X146754802Y-72130967D01*
X146753871Y-72129148D01*
X146753844Y-72129162D01*
X146753382Y-72128239D01*
X146753361Y-72128194D01*
X146753360Y-72128192D01*
X146753359Y-72128192D01*
X146742041Y-72105555D01*
X146736764Y-72101879D01*
X146729117Y-72091257D01*
X146726271Y-72086828D01*
X146715888Y-72070670D01*
X146670134Y-72017867D01*
X146638458Y-71987302D01*
X146637357Y-71986240D01*
X146637355Y-71986239D01*
X146549027Y-71940035D01*
X146549025Y-71940034D01*
X146482004Y-71920354D01*
X146481989Y-71920350D01*
X146481984Y-71920349D01*
X146437313Y-71911463D01*
X146437312Y-71911463D01*
X146338018Y-71920348D01*
X146338011Y-71920349D01*
X146270987Y-71940029D01*
X146270986Y-71940029D01*
X146228594Y-71956707D01*
X146149865Y-72017867D01*
X146149859Y-72017873D01*
X146104113Y-72070667D01*
X146064807Y-72131820D01*
X146064801Y-72131831D01*
X146062289Y-72137332D01*
X146062267Y-72137381D01*
X146025631Y-72217601D01*
X146006552Y-72247289D01*
X145983766Y-72273587D01*
X145957088Y-72296704D01*
X145927819Y-72315513D01*
X145895720Y-72330172D01*
X145862334Y-72339976D01*
X145827396Y-72345000D01*
X145792601Y-72345000D01*
X145757672Y-72339978D01*
X145724279Y-72330173D01*
X145692181Y-72315515D01*
X145662905Y-72296701D01*
X145636235Y-72273590D01*
X145613447Y-72247291D01*
X145594368Y-72217605D01*
X145557246Y-72136317D01*
X145557235Y-72136294D01*
X145556927Y-72135619D01*
X145556928Y-72135618D01*
X145556923Y-72135611D01*
X145554802Y-72130967D01*
X145553871Y-72129148D01*
X145553844Y-72129162D01*
X145553382Y-72128239D01*
X145553361Y-72128194D01*
X145553360Y-72128192D01*
X145553359Y-72128192D01*
X145542041Y-72105555D01*
X145536764Y-72101879D01*
X145529117Y-72091257D01*
X145526271Y-72086828D01*
X145515888Y-72070670D01*
X145470134Y-72017867D01*
X145438458Y-71987302D01*
X145437357Y-71986240D01*
X145437355Y-71986239D01*
X145349027Y-71940035D01*
X145349025Y-71940034D01*
X145282004Y-71920354D01*
X145281989Y-71920350D01*
X145281984Y-71920349D01*
X145237313Y-71911463D01*
X145237312Y-71911463D01*
X145138018Y-71920348D01*
X145138011Y-71920349D01*
X145070987Y-71940029D01*
X145070986Y-71940029D01*
X145028594Y-71956707D01*
X144949865Y-72017867D01*
X144949859Y-72017873D01*
X144904113Y-72070667D01*
X144864807Y-72131820D01*
X144864801Y-72131831D01*
X144862289Y-72137332D01*
X144862267Y-72137381D01*
X144825631Y-72217601D01*
X144806552Y-72247289D01*
X144783766Y-72273587D01*
X144757088Y-72296704D01*
X144727819Y-72315513D01*
X144695720Y-72330172D01*
X144662334Y-72339976D01*
X144627396Y-72345000D01*
X144592601Y-72345000D01*
X144557672Y-72339978D01*
X144524279Y-72330173D01*
X144492176Y-72315512D01*
X144462908Y-72296702D01*
X144436236Y-72273591D01*
X144413447Y-72247291D01*
X144394369Y-72217606D01*
X144379910Y-72185945D01*
X144369969Y-72152088D01*
X144357520Y-72065495D01*
X144357518Y-72065489D01*
X144357518Y-72065483D01*
X144349773Y-72029881D01*
X144349771Y-72029874D01*
X144346247Y-72017873D01*
X144339826Y-71996004D01*
X144337101Y-71987302D01*
X144337100Y-71987300D01*
X144287773Y-71900677D01*
X144287772Y-71900676D01*
X144287770Y-71900672D01*
X144242015Y-71847868D01*
X144209241Y-71816243D01*
X144120906Y-71770035D01*
X144120905Y-71770034D01*
X144120904Y-71770034D01*
X144120904Y-71770033D01*
X144053872Y-71750351D01*
X144053860Y-71750348D01*
X143981883Y-71740000D01*
X143977463Y-71739684D01*
X143977575Y-71738113D01*
X143916961Y-71720315D01*
X143871206Y-71667511D01*
X143860000Y-71616000D01*
X143860000Y-68774000D01*
X143879685Y-68706961D01*
X143932489Y-68661206D01*
X143984000Y-68650000D01*
X148526000Y-68650000D01*
X148593039Y-68669685D01*
G37*
%TD.AperFunction*%
%TD*%
%TA.AperFunction,Conductor*%
%TO.N,+P_BATT*%
G36*
X121542602Y-54019685D02*
G01*
X121588357Y-54072489D01*
X121598301Y-54141647D01*
X121569276Y-54205203D01*
X121534016Y-54233358D01*
X121498548Y-54252315D01*
X121338589Y-54383589D01*
X121207317Y-54543547D01*
X121207315Y-54543550D01*
X121195645Y-54565383D01*
X121109769Y-54726043D01*
X121049699Y-54924067D01*
X121029417Y-55130000D01*
X121049699Y-55335932D01*
X121063717Y-55382143D01*
X121109768Y-55533954D01*
X121207315Y-55716450D01*
X121207317Y-55716452D01*
X121338589Y-55876410D01*
X121398639Y-55925691D01*
X121498550Y-56007685D01*
X121681046Y-56105232D01*
X121879066Y-56165300D01*
X121879065Y-56165300D01*
X121897529Y-56167118D01*
X122085000Y-56185583D01*
X122290934Y-56165300D01*
X122488954Y-56105232D01*
X122671450Y-56007685D01*
X122831410Y-55876410D01*
X122962685Y-55716450D01*
X123060232Y-55533954D01*
X123120300Y-55335934D01*
X123140583Y-55130000D01*
X123120300Y-54924066D01*
X123060232Y-54726046D01*
X122962685Y-54543550D01*
X122885911Y-54450000D01*
X122831410Y-54383589D01*
X122671451Y-54252315D01*
X122635984Y-54233358D01*
X122586139Y-54184396D01*
X122570679Y-54116258D01*
X122594511Y-54050578D01*
X122650068Y-54008210D01*
X122694437Y-54000000D01*
X124015563Y-54000000D01*
X124082602Y-54019685D01*
X124128357Y-54072489D01*
X124138301Y-54141647D01*
X124109276Y-54205203D01*
X124074016Y-54233358D01*
X124038548Y-54252315D01*
X123878589Y-54383589D01*
X123747317Y-54543547D01*
X123747315Y-54543550D01*
X123735645Y-54565383D01*
X123649769Y-54726043D01*
X123589699Y-54924067D01*
X123569417Y-55130000D01*
X123589699Y-55335932D01*
X123603717Y-55382143D01*
X123649768Y-55533954D01*
X123747315Y-55716450D01*
X123747317Y-55716452D01*
X123878589Y-55876410D01*
X123938639Y-55925691D01*
X124038550Y-56007685D01*
X124221046Y-56105232D01*
X124419066Y-56165300D01*
X124419065Y-56165300D01*
X124437529Y-56167118D01*
X124625000Y-56185583D01*
X124830934Y-56165300D01*
X125028954Y-56105232D01*
X125211450Y-56007685D01*
X125371410Y-55876410D01*
X125502685Y-55716450D01*
X125600232Y-55533954D01*
X125660300Y-55335934D01*
X125680583Y-55130000D01*
X125660300Y-54924066D01*
X125600232Y-54726046D01*
X125502685Y-54543550D01*
X125425911Y-54450000D01*
X125371410Y-54383589D01*
X125211451Y-54252315D01*
X125175984Y-54233358D01*
X125126139Y-54184396D01*
X125110679Y-54116258D01*
X125134511Y-54050578D01*
X125190068Y-54008210D01*
X125234437Y-54000000D01*
X126276000Y-54000000D01*
X126343039Y-54019685D01*
X126388794Y-54072489D01*
X126400000Y-54124000D01*
X126400000Y-66400000D01*
X126400000Y-79200000D01*
X135348902Y-79200000D01*
X135415941Y-79219685D01*
X135442616Y-79242799D01*
X135486948Y-79293962D01*
X135486950Y-79293964D01*
X135486953Y-79293967D01*
X135511053Y-79309455D01*
X135595933Y-79364005D01*
X135684628Y-79390047D01*
X135716823Y-79399500D01*
X135720226Y-79400499D01*
X135720228Y-79400500D01*
X135720229Y-79400500D01*
X135849774Y-79400500D01*
X135849774Y-79400499D01*
X135974067Y-79364005D01*
X135974068Y-79364005D01*
X135980608Y-79359802D01*
X136083049Y-79293967D01*
X136127386Y-79242798D01*
X136186164Y-79205023D01*
X136221100Y-79200000D01*
X136548900Y-79200000D01*
X136615939Y-79219685D01*
X136642614Y-79242799D01*
X136686946Y-79293962D01*
X136686948Y-79293964D01*
X136686951Y-79293967D01*
X136711051Y-79309455D01*
X136795931Y-79364005D01*
X136884626Y-79390047D01*
X136916821Y-79399500D01*
X136920224Y-79400499D01*
X136920226Y-79400500D01*
X136920227Y-79400500D01*
X137049772Y-79400500D01*
X137049772Y-79400499D01*
X137174065Y-79364005D01*
X137174066Y-79364005D01*
X137180606Y-79359802D01*
X137283047Y-79293967D01*
X137327384Y-79242798D01*
X137386162Y-79205023D01*
X137421098Y-79200000D01*
X138105293Y-79200000D01*
X138162918Y-79214203D01*
X138249775Y-79259790D01*
X138414944Y-79300500D01*
X138585056Y-79300500D01*
X138750225Y-79259790D01*
X138836123Y-79214707D01*
X138893749Y-79200503D01*
X139953458Y-79200503D01*
X140020497Y-79220188D01*
X140041139Y-79236822D01*
X140463493Y-79659176D01*
X140496978Y-79720499D01*
X140498550Y-79729209D01*
X140514832Y-79842455D01*
X140541976Y-79901891D01*
X140574621Y-79973372D01*
X140668870Y-80082142D01*
X140789945Y-80159952D01*
X140789948Y-80159953D01*
X140789946Y-80159953D01*
X140832260Y-80172377D01*
X140891038Y-80210150D01*
X140920064Y-80273706D01*
X140914592Y-80323338D01*
X140916655Y-80323847D01*
X140914859Y-80331130D01*
X140894355Y-80500000D01*
X140914859Y-80668869D01*
X140914860Y-80668874D01*
X140975182Y-80827931D01*
X141024929Y-80900000D01*
X141071817Y-80967929D01*
X141168567Y-81053642D01*
X141199150Y-81080736D01*
X141321677Y-81145043D01*
X141349775Y-81159790D01*
X141514944Y-81200500D01*
X141685056Y-81200500D01*
X141850225Y-81159790D01*
X141952030Y-81106358D01*
X142000849Y-81080736D01*
X142000850Y-81080734D01*
X142000852Y-81080734D01*
X142128183Y-80967929D01*
X142138101Y-80953559D01*
X142192383Y-80909570D01*
X142240151Y-80900000D01*
X149299999Y-80900000D01*
X149300000Y-80900000D01*
X150963032Y-79041316D01*
X151022403Y-79004482D01*
X151055442Y-79000000D01*
X156476000Y-79000000D01*
X156543039Y-79019685D01*
X156588794Y-79072489D01*
X156600000Y-79124000D01*
X156600000Y-86375500D01*
X156580315Y-86442539D01*
X156527511Y-86488294D01*
X156476000Y-86499500D01*
X117003051Y-86499500D01*
X116996968Y-86499351D01*
X116976900Y-86498365D01*
X116663071Y-86482947D01*
X116650962Y-86481754D01*
X116323305Y-86433151D01*
X116311369Y-86430777D01*
X115990055Y-86350292D01*
X115978411Y-86346759D01*
X115666540Y-86235170D01*
X115655301Y-86230515D01*
X115355844Y-86088883D01*
X115345121Y-86083150D01*
X115061011Y-85912862D01*
X115050893Y-85906102D01*
X114784829Y-85708775D01*
X114775423Y-85701055D01*
X114736475Y-85665755D01*
X114529986Y-85478604D01*
X114521395Y-85470013D01*
X114298944Y-85224576D01*
X114291224Y-85215170D01*
X114266731Y-85182145D01*
X114093895Y-84949103D01*
X114087137Y-84938988D01*
X113916844Y-84654871D01*
X113911120Y-84644163D01*
X113769479Y-84344688D01*
X113764829Y-84333459D01*
X113752857Y-84300000D01*
X113667410Y-84061191D01*
X113653240Y-84021588D01*
X113649707Y-84009944D01*
X113639280Y-83968316D01*
X113569219Y-83688617D01*
X113566848Y-83676694D01*
X113564713Y-83662304D01*
X113522203Y-83375721D01*
X113518245Y-83349037D01*
X113517052Y-83336927D01*
X113516358Y-83322809D01*
X113500649Y-83003032D01*
X113500500Y-82996948D01*
X113500500Y-82873723D01*
X117595500Y-82873723D01*
X117595500Y-83126277D01*
X117602180Y-83168454D01*
X117635009Y-83375722D01*
X117635009Y-83375725D01*
X117713050Y-83615911D01*
X117713051Y-83615914D01*
X117827709Y-83840941D01*
X117976156Y-84045261D01*
X118154739Y-84223844D01*
X118359059Y-84372291D01*
X118469428Y-84428526D01*
X118584085Y-84486948D01*
X118584088Y-84486949D01*
X118706203Y-84526626D01*
X118824279Y-84564991D01*
X119073723Y-84604500D01*
X119073724Y-84604500D01*
X119326276Y-84604500D01*
X119326277Y-84604500D01*
X119575721Y-84564991D01*
X119575724Y-84564990D01*
X119575725Y-84564990D01*
X119815911Y-84486949D01*
X119815914Y-84486948D01*
X120040941Y-84372291D01*
X120245261Y-84223844D01*
X120423844Y-84045261D01*
X120572291Y-83840941D01*
X120686948Y-83615914D01*
X120764991Y-83375721D01*
X120804500Y-83126277D01*
X120804500Y-82873723D01*
X120764991Y-82624279D01*
X120764990Y-82624275D01*
X120764990Y-82624274D01*
X120686949Y-82384088D01*
X120686948Y-82384085D01*
X120602250Y-82217857D01*
X120572291Y-82159059D01*
X120423844Y-81954739D01*
X120245261Y-81776156D01*
X120040941Y-81627709D01*
X119986560Y-81600000D01*
X129494355Y-81600000D01*
X129514859Y-81768869D01*
X129514860Y-81768874D01*
X129575182Y-81927931D01*
X129593687Y-81954739D01*
X129671817Y-82067929D01*
X129799148Y-82180734D01*
X129799149Y-82180734D01*
X129804762Y-82185707D01*
X129803194Y-82187475D01*
X129839924Y-82232786D01*
X129849500Y-82280569D01*
X129849500Y-82465382D01*
X129854699Y-82484783D01*
X129854700Y-82484789D01*
X129873384Y-82554524D01*
X129873385Y-82554525D01*
X129919527Y-82634447D01*
X129919529Y-82634450D01*
X129919530Y-82634451D01*
X130915549Y-83630470D01*
X130980430Y-83667929D01*
X130995473Y-83676614D01*
X131084617Y-83700500D01*
X131126371Y-83700500D01*
X131193410Y-83720185D01*
X131239165Y-83772989D01*
X131249109Y-83842147D01*
X131228421Y-83894940D01*
X131175183Y-83972068D01*
X131175182Y-83972068D01*
X131114860Y-84131125D01*
X131114859Y-84131130D01*
X131094355Y-84300000D01*
X131114859Y-84468869D01*
X131114860Y-84468874D01*
X131175182Y-84627931D01*
X131196681Y-84659077D01*
X131271817Y-84767929D01*
X131375691Y-84859953D01*
X131399150Y-84880736D01*
X131549773Y-84959789D01*
X131549775Y-84959790D01*
X131714944Y-85000500D01*
X131885056Y-85000500D01*
X132050225Y-84959790D01*
X132129692Y-84918081D01*
X132200849Y-84880736D01*
X132200850Y-84880734D01*
X132200852Y-84880734D01*
X132328183Y-84767929D01*
X132424818Y-84627930D01*
X132424819Y-84627926D01*
X132428302Y-84621291D01*
X132429870Y-84622114D01*
X132466349Y-84573945D01*
X132531948Y-84549892D01*
X132540107Y-84549623D01*
X132951263Y-84549623D01*
X133018302Y-84569308D01*
X133032470Y-84579913D01*
X133034024Y-84581260D01*
X133034030Y-84581266D01*
X133155105Y-84659076D01*
X133155108Y-84659077D01*
X133155107Y-84659077D01*
X133293194Y-84699622D01*
X133293196Y-84699623D01*
X133293197Y-84699623D01*
X133437120Y-84699623D01*
X133437120Y-84699622D01*
X133575211Y-84659076D01*
X133696286Y-84581266D01*
X133790535Y-84472496D01*
X133850323Y-84341580D01*
X133866605Y-84228331D01*
X133895628Y-84164779D01*
X133901647Y-84158314D01*
X133937377Y-84122584D01*
X133998698Y-84089101D01*
X134068390Y-84094085D01*
X134077451Y-84097881D01*
X134090513Y-84103972D01*
X134140099Y-84110500D01*
X134499900Y-84110499D01*
X134549487Y-84103972D01*
X134658316Y-84053224D01*
X134712319Y-83999221D01*
X134773642Y-83965736D01*
X134843334Y-83970720D01*
X134887681Y-83999221D01*
X134941684Y-84053224D01*
X135050513Y-84103972D01*
X135100099Y-84110500D01*
X135459900Y-84110499D01*
X135509487Y-84103972D01*
X135509495Y-84103968D01*
X135515517Y-84102214D01*
X135585386Y-84102352D01*
X135637897Y-84133579D01*
X135863495Y-84359177D01*
X135896980Y-84420500D01*
X135898552Y-84429210D01*
X135914834Y-84542456D01*
X135968094Y-84659076D01*
X135974623Y-84673373D01*
X136068872Y-84782143D01*
X136189947Y-84859953D01*
X136189950Y-84859954D01*
X136189949Y-84859954D01*
X136328036Y-84900499D01*
X136328038Y-84900500D01*
X136328039Y-84900500D01*
X136471962Y-84900500D01*
X136471962Y-84900499D01*
X136610053Y-84859953D01*
X136703342Y-84800000D01*
X137094353Y-84800000D01*
X137114834Y-84942456D01*
X137174622Y-85073371D01*
X137174623Y-85073373D01*
X137268872Y-85182143D01*
X137389947Y-85259953D01*
X137389950Y-85259954D01*
X137389949Y-85259954D01*
X137528036Y-85300499D01*
X137528038Y-85300500D01*
X137528039Y-85300500D01*
X137671962Y-85300500D01*
X137671962Y-85300499D01*
X137810053Y-85259953D01*
X137931128Y-85182143D01*
X137931136Y-85182133D01*
X137932688Y-85180790D01*
X137934572Y-85179929D01*
X137938589Y-85177348D01*
X137938960Y-85177925D01*
X137996243Y-85151763D01*
X138013895Y-85150500D01*
X139646142Y-85150500D01*
X139646144Y-85150500D01*
X139735288Y-85126614D01*
X139815212Y-85080470D01*
X140969412Y-83926268D01*
X141030733Y-83892785D01*
X141086767Y-83893554D01*
X141104814Y-83898003D01*
X141114943Y-83900500D01*
X141114944Y-83900500D01*
X141285056Y-83900500D01*
X141450225Y-83859790D01*
X141531792Y-83816980D01*
X141600849Y-83780736D01*
X141600850Y-83780734D01*
X141600852Y-83780734D01*
X141728183Y-83667929D01*
X141824818Y-83527930D01*
X141885140Y-83368872D01*
X141905645Y-83200000D01*
X141885140Y-83031128D01*
X141824818Y-82872070D01*
X141728183Y-82732071D01*
X141617994Y-82634452D01*
X141600849Y-82619263D01*
X141450226Y-82540210D01*
X141285056Y-82499500D01*
X141114944Y-82499500D01*
X140949773Y-82540210D01*
X140799150Y-82619263D01*
X140671816Y-82732072D01*
X140575182Y-82872068D01*
X140514860Y-83031125D01*
X140514859Y-83031130D01*
X140494355Y-83200000D01*
X140509811Y-83327293D01*
X140498351Y-83396216D01*
X140474396Y-83429920D01*
X139491137Y-84413181D01*
X139429814Y-84446666D01*
X139403456Y-84449500D01*
X138013895Y-84449500D01*
X137946856Y-84429815D01*
X137932688Y-84419210D01*
X137931132Y-84417862D01*
X137931128Y-84417857D01*
X137810053Y-84340047D01*
X137810051Y-84340046D01*
X137810049Y-84340045D01*
X137810050Y-84340045D01*
X137671963Y-84299500D01*
X137671961Y-84299500D01*
X137528039Y-84299500D01*
X137528036Y-84299500D01*
X137389949Y-84340045D01*
X137268873Y-84417856D01*
X137174623Y-84526626D01*
X137174622Y-84526628D01*
X137114834Y-84657543D01*
X137094353Y-84800000D01*
X136703342Y-84800000D01*
X136731128Y-84782143D01*
X136825377Y-84673373D01*
X136885165Y-84542457D01*
X136905647Y-84400000D01*
X136885165Y-84257543D01*
X136825377Y-84126627D01*
X136731128Y-84017857D01*
X136610053Y-83940047D01*
X136610051Y-83940046D01*
X136610049Y-83940045D01*
X136610050Y-83940045D01*
X136471963Y-83899500D01*
X136471961Y-83899500D01*
X136446544Y-83899500D01*
X136379505Y-83879815D01*
X136358863Y-83863181D01*
X135815213Y-83319531D01*
X135815208Y-83319527D01*
X135751880Y-83282965D01*
X135710655Y-83239730D01*
X135709450Y-83240575D01*
X135703889Y-83232634D01*
X135703664Y-83232398D01*
X135703523Y-83232112D01*
X135703223Y-83231683D01*
X135671540Y-83200000D01*
X138094355Y-83200000D01*
X138114859Y-83368869D01*
X138114860Y-83368874D01*
X138175182Y-83527931D01*
X138216641Y-83587993D01*
X138271817Y-83667929D01*
X138352230Y-83739168D01*
X138399150Y-83780736D01*
X138516159Y-83842147D01*
X138549775Y-83859790D01*
X138714944Y-83900500D01*
X138885056Y-83900500D01*
X139050225Y-83859790D01*
X139131792Y-83816980D01*
X139200849Y-83780736D01*
X139200850Y-83780734D01*
X139200852Y-83780734D01*
X139328183Y-83667929D01*
X139424818Y-83527930D01*
X139485140Y-83368872D01*
X139485140Y-83368868D01*
X139486031Y-83366520D01*
X139514290Y-83322811D01*
X139741094Y-83096007D01*
X139793842Y-83064712D01*
X139810053Y-83059953D01*
X139810055Y-83059951D01*
X139810057Y-83059951D01*
X139931123Y-82982146D01*
X139931122Y-82982146D01*
X139931128Y-82982143D01*
X140025377Y-82873373D01*
X140085165Y-82742457D01*
X140105647Y-82600000D01*
X140085165Y-82457543D01*
X140025377Y-82326627D01*
X139931128Y-82217857D01*
X139810053Y-82140047D01*
X139810051Y-82140046D01*
X139810049Y-82140045D01*
X139810050Y-82140045D01*
X139671963Y-82099500D01*
X139671961Y-82099500D01*
X139528039Y-82099500D01*
X139528036Y-82099500D01*
X139389949Y-82140045D01*
X139268873Y-82217856D01*
X139174623Y-82326626D01*
X139174621Y-82326629D01*
X139132095Y-82419745D01*
X139106983Y-82455912D01*
X139077584Y-82485311D01*
X139016261Y-82518796D01*
X138960230Y-82518027D01*
X138885059Y-82499500D01*
X138885056Y-82499500D01*
X138714944Y-82499500D01*
X138549773Y-82540210D01*
X138399150Y-82619263D01*
X138271816Y-82732072D01*
X138175182Y-82872068D01*
X138114860Y-83031125D01*
X138114859Y-83031130D01*
X138094355Y-83200000D01*
X135671540Y-83200000D01*
X135633021Y-83161481D01*
X135599536Y-83100158D01*
X135604520Y-83030466D01*
X135646392Y-82974533D01*
X135703060Y-82951061D01*
X135706953Y-82950501D01*
X135706960Y-82950501D01*
X135762790Y-82934108D01*
X135845049Y-82909955D01*
X135845049Y-82909954D01*
X135845052Y-82909954D01*
X135966127Y-82832144D01*
X136060376Y-82723374D01*
X136120164Y-82592458D01*
X136140646Y-82450001D01*
X136120164Y-82307544D01*
X136060376Y-82176628D01*
X135966127Y-82067858D01*
X135845052Y-81990048D01*
X135845050Y-81990047D01*
X135845048Y-81990046D01*
X135845049Y-81990046D01*
X135706962Y-81949501D01*
X135706960Y-81949501D01*
X135563038Y-81949501D01*
X135563035Y-81949501D01*
X135424948Y-81990046D01*
X135316539Y-82059716D01*
X135249499Y-82079400D01*
X135182460Y-82059715D01*
X135136705Y-82006911D01*
X135125500Y-81955400D01*
X135125500Y-81766739D01*
X135115573Y-81698608D01*
X135067367Y-81600000D01*
X135064198Y-81593517D01*
X135064196Y-81593515D01*
X135064196Y-81593514D01*
X134981485Y-81510803D01*
X134876391Y-81459426D01*
X134808261Y-81449500D01*
X134808260Y-81449500D01*
X133716740Y-81449500D01*
X133716739Y-81449500D01*
X133648608Y-81459426D01*
X133543514Y-81510803D01*
X133460803Y-81593514D01*
X133409426Y-81698608D01*
X133399500Y-81766739D01*
X133399500Y-82133260D01*
X133409426Y-82201391D01*
X133460803Y-82306485D01*
X133543514Y-82389196D01*
X133543515Y-82389196D01*
X133543517Y-82389198D01*
X133648607Y-82440573D01*
X133682673Y-82445536D01*
X133716739Y-82450500D01*
X133716740Y-82450500D01*
X133788000Y-82450500D01*
X133855039Y-82470185D01*
X133900794Y-82522989D01*
X133912000Y-82574500D01*
X133912000Y-83156149D01*
X133892315Y-83223188D01*
X133839511Y-83268943D01*
X133835452Y-83270710D01*
X133828993Y-83273385D01*
X133749072Y-83319527D01*
X133749067Y-83319531D01*
X133406295Y-83662304D01*
X133344972Y-83695789D01*
X133318614Y-83698623D01*
X133293194Y-83698623D01*
X133155107Y-83739168D01*
X133034034Y-83816977D01*
X133034032Y-83816978D01*
X133034030Y-83816980D01*
X133034028Y-83816981D01*
X133032470Y-83818333D01*
X133030585Y-83819193D01*
X133026569Y-83821775D01*
X133026197Y-83821197D01*
X132968915Y-83847360D01*
X132951263Y-83848623D01*
X132393893Y-83848623D01*
X132326854Y-83828938D01*
X132311666Y-83817438D01*
X132200852Y-83719266D01*
X132200850Y-83719264D01*
X132084339Y-83658114D01*
X132034126Y-83609529D01*
X132018152Y-83541510D01*
X132041487Y-83475653D01*
X132054284Y-83460637D01*
X132131125Y-83383797D01*
X132312983Y-83201939D01*
X132374306Y-83168454D01*
X132400664Y-83165620D01*
X132426082Y-83165620D01*
X132426082Y-83165619D01*
X132560076Y-83126276D01*
X132564170Y-83125074D01*
X132564170Y-83125073D01*
X132564173Y-83125073D01*
X132685248Y-83047263D01*
X132779497Y-82938493D01*
X132839285Y-82807577D01*
X132859767Y-82665120D01*
X132839285Y-82522663D01*
X132779497Y-82391747D01*
X132685248Y-82282977D01*
X132681501Y-82280569D01*
X132639128Y-82253337D01*
X132593373Y-82200533D01*
X132583430Y-82131375D01*
X132612455Y-82067819D01*
X132653764Y-82036640D01*
X132659484Y-82033972D01*
X132659487Y-82033972D01*
X132768316Y-81983224D01*
X132853224Y-81898316D01*
X132903972Y-81789487D01*
X132910500Y-81739901D01*
X132910499Y-81380100D01*
X132903972Y-81330513D01*
X132853224Y-81221684D01*
X132799221Y-81167681D01*
X132765736Y-81106358D01*
X132770720Y-81036666D01*
X132799221Y-80992319D01*
X132823613Y-80967927D01*
X132853224Y-80938316D01*
X132903972Y-80829487D01*
X132905650Y-80816739D01*
X135674500Y-80816739D01*
X135674500Y-81183260D01*
X135684426Y-81251391D01*
X135735803Y-81356485D01*
X135818514Y-81439196D01*
X135818515Y-81439196D01*
X135818517Y-81439198D01*
X135923607Y-81490573D01*
X135957673Y-81495536D01*
X135991739Y-81500500D01*
X135991740Y-81500500D01*
X137083261Y-81500500D01*
X137105971Y-81497191D01*
X137151393Y-81490573D01*
X137256483Y-81439198D01*
X137339198Y-81356483D01*
X137372921Y-81287500D01*
X138516853Y-81287500D01*
X138537334Y-81429956D01*
X138597122Y-81560871D01*
X138597123Y-81560873D01*
X138691372Y-81669643D01*
X138812447Y-81747453D01*
X138812450Y-81747454D01*
X138812449Y-81747454D01*
X138950536Y-81787999D01*
X138950538Y-81788000D01*
X138950539Y-81788000D01*
X139094462Y-81788000D01*
X139094462Y-81787999D01*
X139232553Y-81747453D01*
X139353628Y-81669643D01*
X139447877Y-81560873D01*
X139507665Y-81429957D01*
X139528147Y-81287500D01*
X139507665Y-81145043D01*
X139447877Y-81014127D01*
X139447874Y-81014124D01*
X139445616Y-81010609D01*
X139444437Y-81006595D01*
X139444193Y-81006060D01*
X139444270Y-81006024D01*
X139425932Y-80943569D01*
X139445617Y-80876530D01*
X139456220Y-80862367D01*
X139460568Y-80857348D01*
X139460571Y-80857347D01*
X139547830Y-80756644D01*
X139554817Y-80748581D01*
X139554817Y-80748579D01*
X139554820Y-80748577D01*
X139614608Y-80617661D01*
X139635090Y-80475204D01*
X139614608Y-80332747D01*
X139554820Y-80201831D01*
X139460571Y-80093061D01*
X139339496Y-80015251D01*
X139339494Y-80015250D01*
X139339492Y-80015249D01*
X139339493Y-80015249D01*
X139201406Y-79974704D01*
X139201404Y-79974704D01*
X139057482Y-79974704D01*
X139057479Y-79974704D01*
X138919392Y-80015249D01*
X138798316Y-80093060D01*
X138704066Y-80201830D01*
X138704065Y-80201832D01*
X138644277Y-80332747D01*
X138623796Y-80475204D01*
X138644277Y-80617660D01*
X138704066Y-80748579D01*
X138706328Y-80752098D01*
X138707505Y-80756107D01*
X138707750Y-80756644D01*
X138707672Y-80756679D01*
X138726009Y-80819139D01*
X138706321Y-80886177D01*
X138695723Y-80900334D01*
X138597123Y-81014126D01*
X138597122Y-81014128D01*
X138537334Y-81145043D01*
X138516853Y-81287500D01*
X137372921Y-81287500D01*
X137390573Y-81251393D01*
X137400500Y-81183260D01*
X137400500Y-80856293D01*
X137420185Y-80789254D01*
X137457459Y-80751979D01*
X137566126Y-80682144D01*
X137660375Y-80573374D01*
X137720163Y-80442458D01*
X137740645Y-80300001D01*
X137720163Y-80157544D01*
X137660375Y-80026628D01*
X137566126Y-79917858D01*
X137445051Y-79840048D01*
X137445049Y-79840047D01*
X137445047Y-79840046D01*
X137445048Y-79840046D01*
X137306961Y-79799501D01*
X137306959Y-79799501D01*
X137163037Y-79799501D01*
X137163034Y-79799501D01*
X137024947Y-79840046D01*
X137024944Y-79840047D01*
X136959342Y-79882207D01*
X136892303Y-79901891D01*
X136825263Y-79882206D01*
X136779510Y-79829402D01*
X136767881Y-79803938D01*
X136683048Y-79706035D01*
X136645872Y-79682143D01*
X136574067Y-79635996D01*
X136449774Y-79599502D01*
X136449772Y-79599502D01*
X136320228Y-79599502D01*
X136320226Y-79599502D01*
X136195933Y-79635996D01*
X136195932Y-79635996D01*
X136086953Y-79706034D01*
X136002119Y-79803938D01*
X136002118Y-79803939D01*
X135948303Y-79921775D01*
X135929868Y-80050001D01*
X135948303Y-80178226D01*
X135991908Y-80273706D01*
X136002119Y-80296064D01*
X136005963Y-80300500D01*
X136009093Y-80304112D01*
X136038119Y-80367667D01*
X136028176Y-80436826D01*
X135982422Y-80489631D01*
X135933261Y-80508020D01*
X135923608Y-80509426D01*
X135818514Y-80560803D01*
X135735803Y-80643514D01*
X135684426Y-80748608D01*
X135674500Y-80816739D01*
X132905650Y-80816739D01*
X132910500Y-80779901D01*
X132910499Y-80636543D01*
X132930183Y-80569504D01*
X132946814Y-80548867D01*
X133058864Y-80436818D01*
X133120187Y-80403334D01*
X133146544Y-80400500D01*
X133403457Y-80400500D01*
X133470496Y-80420185D01*
X133491133Y-80436814D01*
X133543517Y-80489198D01*
X133648607Y-80540573D01*
X133682673Y-80545536D01*
X133716739Y-80550500D01*
X133716740Y-80550500D01*
X134808261Y-80550500D01*
X134830971Y-80547191D01*
X134876393Y-80540573D01*
X134981483Y-80489198D01*
X135064198Y-80406483D01*
X135115573Y-80301393D01*
X135125500Y-80233260D01*
X135125500Y-79866740D01*
X135115573Y-79798607D01*
X135064198Y-79693517D01*
X135064196Y-79693515D01*
X135064196Y-79693514D01*
X134981485Y-79610803D01*
X134876391Y-79559426D01*
X134808261Y-79549500D01*
X134808260Y-79549500D01*
X133716740Y-79549500D01*
X133716739Y-79549500D01*
X133648608Y-79559426D01*
X133543516Y-79610802D01*
X133518323Y-79635996D01*
X133491136Y-79663182D01*
X133429816Y-79696666D01*
X133403457Y-79699500D01*
X132903856Y-79699500D01*
X132814711Y-79723386D01*
X132734787Y-79769531D01*
X132734784Y-79769533D01*
X132558391Y-79945926D01*
X132497068Y-79979411D01*
X132427376Y-79974427D01*
X132383029Y-79945926D01*
X132044461Y-79607358D01*
X132044459Y-79607356D01*
X131961443Y-79559426D01*
X131941729Y-79548044D01*
X131914403Y-79540723D01*
X131914402Y-79540722D01*
X131914402Y-79540723D01*
X131870777Y-79529034D01*
X131827154Y-79517345D01*
X131827153Y-79517345D01*
X130792727Y-79517345D01*
X130753995Y-79508918D01*
X130753563Y-79510390D01*
X130606963Y-79467345D01*
X130606961Y-79467345D01*
X130463039Y-79467345D01*
X130463036Y-79467345D01*
X130324949Y-79507890D01*
X130203873Y-79585701D01*
X130109623Y-79694471D01*
X130109622Y-79694473D01*
X130049834Y-79825388D01*
X130029353Y-79967845D01*
X130049834Y-80110301D01*
X130105989Y-80233260D01*
X130109623Y-80241218D01*
X130203872Y-80349988D01*
X130324947Y-80427798D01*
X130324950Y-80427799D01*
X130324949Y-80427799D01*
X130463036Y-80468344D01*
X130463038Y-80468345D01*
X130463039Y-80468345D01*
X130606962Y-80468345D01*
X130606962Y-80468344D01*
X130676302Y-80447985D01*
X130753563Y-80425300D01*
X130753995Y-80426771D01*
X130792727Y-80418345D01*
X131529880Y-80418345D01*
X131596919Y-80438030D01*
X131617561Y-80454664D01*
X131853181Y-80690284D01*
X131886666Y-80751607D01*
X131889500Y-80777944D01*
X131889500Y-80779889D01*
X131889500Y-80779896D01*
X131889501Y-80779900D01*
X131896028Y-80829487D01*
X131896029Y-80829489D01*
X131896029Y-80829490D01*
X131946776Y-80938316D01*
X132000779Y-80992319D01*
X132034264Y-81053642D01*
X132029280Y-81123334D01*
X132000779Y-81167681D01*
X131946776Y-81221683D01*
X131896027Y-81330514D01*
X131889500Y-81380098D01*
X131889500Y-81663455D01*
X131869815Y-81730494D01*
X131853181Y-81751136D01*
X131441137Y-82163181D01*
X131379814Y-82196666D01*
X131353456Y-82199500D01*
X131328036Y-82199500D01*
X131189949Y-82240045D01*
X131068873Y-82317856D01*
X130974623Y-82426626D01*
X130974621Y-82426630D01*
X130963677Y-82450593D01*
X130917921Y-82503396D01*
X130850881Y-82523079D01*
X130783842Y-82503393D01*
X130763203Y-82486760D01*
X130617814Y-82341371D01*
X130584329Y-82280048D01*
X130589313Y-82210356D01*
X130623265Y-82160877D01*
X130728183Y-82067929D01*
X130824818Y-81927930D01*
X130885140Y-81768872D01*
X130905645Y-81600000D01*
X130885140Y-81431128D01*
X130865787Y-81380099D01*
X130824817Y-81272068D01*
X130747315Y-81159789D01*
X130728183Y-81132071D01*
X130600852Y-81019266D01*
X130600849Y-81019263D01*
X130450226Y-80940210D01*
X130285056Y-80899500D01*
X130114944Y-80899500D01*
X129949773Y-80940210D01*
X129799150Y-81019263D01*
X129671816Y-81132072D01*
X129575182Y-81272068D01*
X129514860Y-81431125D01*
X129514859Y-81431130D01*
X129494355Y-81600000D01*
X119986560Y-81600000D01*
X119815914Y-81513051D01*
X119815911Y-81513050D01*
X119575723Y-81435009D01*
X119409425Y-81408669D01*
X119326277Y-81395500D01*
X119073723Y-81395500D01*
X118990575Y-81408669D01*
X118824277Y-81435009D01*
X118824274Y-81435009D01*
X118584088Y-81513050D01*
X118584085Y-81513051D01*
X118359058Y-81627709D01*
X118154736Y-81776158D01*
X117976158Y-81954736D01*
X117827709Y-82159058D01*
X117713051Y-82384085D01*
X117713050Y-82384088D01*
X117635009Y-82624274D01*
X117635009Y-82624277D01*
X117617936Y-82732071D01*
X117595500Y-82873723D01*
X113500500Y-82873723D01*
X113500500Y-70370000D01*
X121029417Y-70370000D01*
X121049699Y-70575932D01*
X121067983Y-70636207D01*
X121109768Y-70773954D01*
X121207315Y-70956450D01*
X121207317Y-70956452D01*
X121338589Y-71116410D01*
X121381095Y-71151293D01*
X121498550Y-71247685D01*
X121681046Y-71345232D01*
X121879066Y-71405300D01*
X121879065Y-71405300D01*
X121897529Y-71407118D01*
X122085000Y-71425583D01*
X122290934Y-71405300D01*
X122488954Y-71345232D01*
X122671450Y-71247685D01*
X122831410Y-71116410D01*
X122962685Y-70956450D01*
X123060232Y-70773954D01*
X123120300Y-70575934D01*
X123140583Y-70370000D01*
X123569417Y-70370000D01*
X123589699Y-70575932D01*
X123607983Y-70636207D01*
X123649768Y-70773954D01*
X123747315Y-70956450D01*
X123747317Y-70956452D01*
X123878589Y-71116410D01*
X123921095Y-71151293D01*
X124038550Y-71247685D01*
X124221046Y-71345232D01*
X124419066Y-71405300D01*
X124419065Y-71405300D01*
X124437529Y-71407118D01*
X124625000Y-71425583D01*
X124830934Y-71405300D01*
X125028954Y-71345232D01*
X125211450Y-71247685D01*
X125371410Y-71116410D01*
X125502685Y-70956450D01*
X125600232Y-70773954D01*
X125660300Y-70575934D01*
X125680583Y-70370000D01*
X125660300Y-70164066D01*
X125600232Y-69966046D01*
X125502685Y-69783550D01*
X125450702Y-69720209D01*
X125371410Y-69623589D01*
X125211452Y-69492317D01*
X125211453Y-69492317D01*
X125211450Y-69492315D01*
X125028954Y-69394768D01*
X124830934Y-69334700D01*
X124830932Y-69334699D01*
X124830934Y-69334699D01*
X124625000Y-69314417D01*
X124419067Y-69334699D01*
X124221043Y-69394769D01*
X124173135Y-69420377D01*
X124038550Y-69492315D01*
X124038548Y-69492316D01*
X124038547Y-69492317D01*
X123878589Y-69623589D01*
X123747317Y-69783547D01*
X123649769Y-69966043D01*
X123589699Y-70164067D01*
X123569417Y-70370000D01*
X123140583Y-70370000D01*
X123120300Y-70164066D01*
X123060232Y-69966046D01*
X122962685Y-69783550D01*
X122910702Y-69720209D01*
X122831410Y-69623589D01*
X122671452Y-69492317D01*
X122671453Y-69492317D01*
X122671450Y-69492315D01*
X122488954Y-69394768D01*
X122290934Y-69334700D01*
X122290932Y-69334699D01*
X122290934Y-69334699D01*
X122085000Y-69314417D01*
X121879067Y-69334699D01*
X121681043Y-69394769D01*
X121633135Y-69420377D01*
X121498550Y-69492315D01*
X121498548Y-69492316D01*
X121498547Y-69492317D01*
X121338589Y-69623589D01*
X121207317Y-69783547D01*
X121109769Y-69966043D01*
X121049699Y-70164067D01*
X121029417Y-70370000D01*
X113500500Y-70370000D01*
X113500500Y-65290000D01*
X121029417Y-65290000D01*
X121049699Y-65495932D01*
X121049700Y-65495934D01*
X121109768Y-65693954D01*
X121207315Y-65876450D01*
X121207317Y-65876452D01*
X121338589Y-66036410D01*
X121420270Y-66103443D01*
X121498550Y-66167685D01*
X121681046Y-66265232D01*
X121879066Y-66325300D01*
X121879065Y-66325300D01*
X121897529Y-66327118D01*
X122085000Y-66345583D01*
X122290934Y-66325300D01*
X122488954Y-66265232D01*
X122671450Y-66167685D01*
X122831410Y-66036410D01*
X122962685Y-65876450D01*
X123060232Y-65693954D01*
X123120300Y-65495934D01*
X123140583Y-65290000D01*
X123569417Y-65290000D01*
X123589699Y-65495932D01*
X123589700Y-65495934D01*
X123649768Y-65693954D01*
X123747315Y-65876450D01*
X123747317Y-65876452D01*
X123878589Y-66036410D01*
X123960270Y-66103443D01*
X124038550Y-66167685D01*
X124221046Y-66265232D01*
X124419066Y-66325300D01*
X124419065Y-66325300D01*
X124437529Y-66327118D01*
X124625000Y-66345583D01*
X124830934Y-66325300D01*
X125028954Y-66265232D01*
X125211450Y-66167685D01*
X125371410Y-66036410D01*
X125502685Y-65876450D01*
X125600232Y-65693954D01*
X125660300Y-65495934D01*
X125680583Y-65290000D01*
X125660300Y-65084066D01*
X125600232Y-64886046D01*
X125502685Y-64703550D01*
X125450702Y-64640209D01*
X125371410Y-64543589D01*
X125211452Y-64412317D01*
X125211453Y-64412317D01*
X125211450Y-64412315D01*
X125028954Y-64314768D01*
X124830934Y-64254700D01*
X124830932Y-64254699D01*
X124830934Y-64254699D01*
X124625000Y-64234417D01*
X124419067Y-64254699D01*
X124221043Y-64314769D01*
X124110898Y-64373643D01*
X124038550Y-64412315D01*
X124038548Y-64412316D01*
X124038547Y-64412317D01*
X123878589Y-64543589D01*
X123747317Y-64703547D01*
X123649769Y-64886043D01*
X123589699Y-65084067D01*
X123569417Y-65290000D01*
X123140583Y-65290000D01*
X123120300Y-65084066D01*
X123060232Y-64886046D01*
X122962685Y-64703550D01*
X122910702Y-64640209D01*
X122831410Y-64543589D01*
X122671452Y-64412317D01*
X122671453Y-64412317D01*
X122671450Y-64412315D01*
X122488954Y-64314768D01*
X122290934Y-64254700D01*
X122290932Y-64254699D01*
X122290934Y-64254699D01*
X122085000Y-64234417D01*
X121879067Y-64254699D01*
X121681043Y-64314769D01*
X121570898Y-64373643D01*
X121498550Y-64412315D01*
X121498548Y-64412316D01*
X121498547Y-64412317D01*
X121338589Y-64543589D01*
X121207317Y-64703547D01*
X121109769Y-64886043D01*
X121049699Y-65084067D01*
X121029417Y-65290000D01*
X113500500Y-65290000D01*
X113500500Y-60210000D01*
X121029417Y-60210000D01*
X121049699Y-60415932D01*
X121049700Y-60415934D01*
X121109768Y-60613954D01*
X121207315Y-60796450D01*
X121207317Y-60796452D01*
X121338589Y-60956410D01*
X121395633Y-61003224D01*
X121498550Y-61087685D01*
X121681046Y-61185232D01*
X121879066Y-61245300D01*
X121879065Y-61245300D01*
X121897529Y-61247118D01*
X122085000Y-61265583D01*
X122290934Y-61245300D01*
X122488954Y-61185232D01*
X122671450Y-61087685D01*
X122831410Y-60956410D01*
X122962685Y-60796450D01*
X123060232Y-60613954D01*
X123120300Y-60415934D01*
X123140583Y-60210000D01*
X123569417Y-60210000D01*
X123589699Y-60415932D01*
X123589700Y-60415934D01*
X123649768Y-60613954D01*
X123747315Y-60796450D01*
X123747317Y-60796452D01*
X123878589Y-60956410D01*
X123935633Y-61003224D01*
X124038550Y-61087685D01*
X124221046Y-61185232D01*
X124419066Y-61245300D01*
X124419065Y-61245300D01*
X124437529Y-61247118D01*
X124625000Y-61265583D01*
X124830934Y-61245300D01*
X125028954Y-61185232D01*
X125211450Y-61087685D01*
X125371410Y-60956410D01*
X125502685Y-60796450D01*
X125600232Y-60613954D01*
X125660300Y-60415934D01*
X125680583Y-60210000D01*
X125660300Y-60004066D01*
X125600232Y-59806046D01*
X125502685Y-59623550D01*
X125428112Y-59532682D01*
X125371410Y-59463589D01*
X125223808Y-59342457D01*
X125211450Y-59332315D01*
X125028954Y-59234768D01*
X124830934Y-59174700D01*
X124830932Y-59174699D01*
X124830934Y-59174699D01*
X124625000Y-59154417D01*
X124419067Y-59174699D01*
X124221043Y-59234769D01*
X124148797Y-59273386D01*
X124038550Y-59332315D01*
X124038548Y-59332316D01*
X124038547Y-59332317D01*
X123878589Y-59463589D01*
X123747317Y-59623547D01*
X123649769Y-59806043D01*
X123589699Y-60004067D01*
X123569417Y-60210000D01*
X123140583Y-60210000D01*
X123120300Y-60004066D01*
X123060232Y-59806046D01*
X122962685Y-59623550D01*
X122888112Y-59532682D01*
X122831410Y-59463589D01*
X122683808Y-59342457D01*
X122671450Y-59332315D01*
X122488954Y-59234768D01*
X122290934Y-59174700D01*
X122290932Y-59174699D01*
X122290934Y-59174699D01*
X122085000Y-59154417D01*
X121879067Y-59174699D01*
X121681043Y-59234769D01*
X121608797Y-59273386D01*
X121498550Y-59332315D01*
X121498548Y-59332316D01*
X121498547Y-59332317D01*
X121338589Y-59463589D01*
X121207317Y-59623547D01*
X121109769Y-59806043D01*
X121049699Y-60004067D01*
X121029417Y-60210000D01*
X113500500Y-60210000D01*
X113500500Y-54124000D01*
X113520185Y-54056961D01*
X113572989Y-54011206D01*
X113624500Y-54000000D01*
X121475563Y-54000000D01*
X121542602Y-54019685D01*
G37*
%TD.AperFunction*%
%TD*%
%TA.AperFunction,Conductor*%
%TO.N,+6V*%
G36*
X134443039Y-59619685D02*
G01*
X134488794Y-59672489D01*
X134500000Y-59724000D01*
X134500000Y-62400000D01*
X139200000Y-62400000D01*
X143286862Y-61502884D01*
X143313449Y-61500000D01*
X145715693Y-61500000D01*
X145722684Y-61500500D01*
X145728039Y-61500500D01*
X145877316Y-61500500D01*
X145884307Y-61500000D01*
X147115693Y-61500000D01*
X147122684Y-61500500D01*
X147128039Y-61500500D01*
X147277316Y-61500500D01*
X147284307Y-61500000D01*
X149915693Y-61500000D01*
X149922684Y-61500500D01*
X149928039Y-61500500D01*
X150077316Y-61500500D01*
X150084307Y-61500000D01*
X152876000Y-61500000D01*
X152943039Y-61519685D01*
X152988794Y-61572489D01*
X153000000Y-61624000D01*
X153000000Y-64476000D01*
X152980315Y-64543039D01*
X152927511Y-64588794D01*
X152876000Y-64600000D01*
X152729028Y-64600000D01*
X152694093Y-64594977D01*
X152688211Y-64593250D01*
X152544289Y-64593250D01*
X152538406Y-64594977D01*
X152503472Y-64600000D01*
X151929028Y-64600000D01*
X151894093Y-64594977D01*
X151888211Y-64593250D01*
X151744289Y-64593250D01*
X151738406Y-64594977D01*
X151703472Y-64600000D01*
X150929028Y-64600000D01*
X150894093Y-64594977D01*
X150888211Y-64593250D01*
X150744289Y-64593250D01*
X150738406Y-64594977D01*
X150703472Y-64600000D01*
X149929028Y-64600000D01*
X149894093Y-64594977D01*
X149888211Y-64593250D01*
X149744289Y-64593250D01*
X149738406Y-64594977D01*
X149703472Y-64600000D01*
X148929028Y-64600000D01*
X148894093Y-64594977D01*
X148888211Y-64593250D01*
X148744289Y-64593250D01*
X148738406Y-64594977D01*
X148703472Y-64600000D01*
X147929028Y-64600000D01*
X147894093Y-64594977D01*
X147888211Y-64593250D01*
X147744289Y-64593250D01*
X147738406Y-64594977D01*
X147703472Y-64600000D01*
X146929028Y-64600000D01*
X146894093Y-64594977D01*
X146888211Y-64593250D01*
X146744289Y-64593250D01*
X146738406Y-64594977D01*
X146703472Y-64600000D01*
X145929028Y-64600000D01*
X145894093Y-64594977D01*
X145888211Y-64593250D01*
X145744289Y-64593250D01*
X145738406Y-64594977D01*
X145703472Y-64600000D01*
X144929028Y-64600000D01*
X144894093Y-64594977D01*
X144888211Y-64593250D01*
X144744289Y-64593250D01*
X144738406Y-64594977D01*
X144703472Y-64600000D01*
X143929028Y-64600000D01*
X143894093Y-64594977D01*
X143888211Y-64593250D01*
X143744289Y-64593250D01*
X143738406Y-64594977D01*
X143703472Y-64600000D01*
X142999997Y-64600000D01*
X139828311Y-66384075D01*
X139767519Y-66400000D01*
X130025837Y-66400000D01*
X129958798Y-66380315D01*
X129913043Y-66327511D01*
X129901850Y-66274177D01*
X129926471Y-64600000D01*
X129998203Y-59722176D01*
X130018872Y-59655434D01*
X130072343Y-59610460D01*
X130122190Y-59600000D01*
X134376000Y-59600000D01*
X134443039Y-59619685D01*
G37*
%TD.AperFunction*%
%TD*%
%TA.AperFunction,Conductor*%
%TO.N,GND*%
G36*
X143884856Y-64801261D02*
G01*
X143899782Y-64803408D01*
X143929028Y-64805500D01*
X144703472Y-64805500D01*
X144732719Y-64803408D01*
X144747644Y-64801262D01*
X144765292Y-64800000D01*
X144867209Y-64800000D01*
X144884856Y-64801261D01*
X144899782Y-64803408D01*
X144929028Y-64805500D01*
X145703472Y-64805500D01*
X145732719Y-64803408D01*
X145747644Y-64801262D01*
X145765292Y-64800000D01*
X145867209Y-64800000D01*
X145884856Y-64801261D01*
X145899782Y-64803408D01*
X145929028Y-64805500D01*
X146703472Y-64805500D01*
X146732719Y-64803408D01*
X146747644Y-64801262D01*
X146765292Y-64800000D01*
X146867209Y-64800000D01*
X146884856Y-64801261D01*
X146899782Y-64803408D01*
X146929028Y-64805500D01*
X147703472Y-64805500D01*
X147732719Y-64803408D01*
X147747644Y-64801262D01*
X147765292Y-64800000D01*
X147867209Y-64800000D01*
X147884856Y-64801261D01*
X147899782Y-64803408D01*
X147929028Y-64805500D01*
X148703472Y-64805500D01*
X148732719Y-64803408D01*
X148747644Y-64801262D01*
X148765292Y-64800000D01*
X148867209Y-64800000D01*
X148884856Y-64801261D01*
X148899782Y-64803408D01*
X148929028Y-64805500D01*
X149703472Y-64805500D01*
X149732719Y-64803408D01*
X149747644Y-64801262D01*
X149765292Y-64800000D01*
X149867209Y-64800000D01*
X149884856Y-64801261D01*
X149899782Y-64803408D01*
X149929028Y-64805500D01*
X150703472Y-64805500D01*
X150732719Y-64803408D01*
X150747644Y-64801262D01*
X150765292Y-64800000D01*
X150867209Y-64800000D01*
X150884856Y-64801261D01*
X150899782Y-64803408D01*
X150929028Y-64805500D01*
X151703472Y-64805500D01*
X151732719Y-64803408D01*
X151747644Y-64801262D01*
X151765292Y-64800000D01*
X151867209Y-64800000D01*
X151884856Y-64801261D01*
X151899782Y-64803408D01*
X151929028Y-64805500D01*
X152503472Y-64805500D01*
X152532719Y-64803408D01*
X152547644Y-64801262D01*
X152565292Y-64800000D01*
X152667209Y-64800000D01*
X152684856Y-64801261D01*
X152699782Y-64803408D01*
X152707154Y-64803935D01*
X152772617Y-64828347D01*
X152785995Y-64839938D01*
X153118624Y-65172567D01*
X153147874Y-65218978D01*
X156592931Y-74979971D01*
X156600000Y-75021241D01*
X156600000Y-78670500D01*
X156580315Y-78737539D01*
X156527511Y-78783294D01*
X156476000Y-78794500D01*
X151055442Y-78794500D01*
X151038867Y-78795619D01*
X151027811Y-78796365D01*
X151015566Y-78798026D01*
X151009318Y-78798874D01*
X150992651Y-78800000D01*
X149389500Y-78800000D01*
X149322461Y-78780315D01*
X149276706Y-78727511D01*
X149265500Y-78676000D01*
X149265500Y-73609833D01*
X149285185Y-73542794D01*
X149337989Y-73497039D01*
X149407147Y-73487095D01*
X149470703Y-73516120D01*
X149477181Y-73522152D01*
X149548181Y-73593152D01*
X149581666Y-73654475D01*
X149584500Y-73680833D01*
X149584500Y-73993132D01*
X149584501Y-73993138D01*
X149590741Y-74040545D01*
X149639253Y-74144579D01*
X149720421Y-74225747D01*
X149824455Y-74274259D01*
X149871861Y-74280500D01*
X150548138Y-74280499D01*
X150595545Y-74274259D01*
X150699579Y-74225747D01*
X150780747Y-74144579D01*
X150829259Y-74040545D01*
X150835500Y-73993139D01*
X150835499Y-73666862D01*
X150829259Y-73619455D01*
X150780747Y-73515421D01*
X150699579Y-73434253D01*
X150595545Y-73385741D01*
X150595543Y-73385740D01*
X150595544Y-73385740D01*
X150548140Y-73379500D01*
X150548139Y-73379500D01*
X150235833Y-73379500D01*
X150168794Y-73359815D01*
X150148152Y-73343181D01*
X148879441Y-72074470D01*
X148845956Y-72013147D01*
X148850940Y-71943455D01*
X148864016Y-71917904D01*
X148893867Y-71873231D01*
X148905500Y-71814748D01*
X148905500Y-68575252D01*
X148905500Y-68575249D01*
X148905499Y-68575247D01*
X148893868Y-68516770D01*
X148893867Y-68516769D01*
X148849552Y-68450447D01*
X148783230Y-68406132D01*
X148783229Y-68406131D01*
X148724752Y-68394500D01*
X148724748Y-68394500D01*
X143785252Y-68394500D01*
X143785247Y-68394500D01*
X143726770Y-68406131D01*
X143726769Y-68406132D01*
X143660447Y-68450447D01*
X143616132Y-68516769D01*
X143616131Y-68516770D01*
X143604500Y-68575247D01*
X143604500Y-71814752D01*
X143616131Y-71873229D01*
X143616132Y-71873230D01*
X143660447Y-71939552D01*
X143726769Y-71983867D01*
X143726770Y-71983868D01*
X143785247Y-71995499D01*
X143785250Y-71995500D01*
X143785252Y-71995500D01*
X143981882Y-71995500D01*
X144048921Y-72015185D01*
X144094676Y-72067989D01*
X144104620Y-72101854D01*
X144124834Y-72242456D01*
X144163275Y-72326628D01*
X144184623Y-72373373D01*
X144278872Y-72482143D01*
X144399947Y-72559953D01*
X144399950Y-72559954D01*
X144399949Y-72559954D01*
X144503743Y-72590430D01*
X144536336Y-72600000D01*
X144538036Y-72600499D01*
X144538038Y-72600500D01*
X144538039Y-72600500D01*
X144681962Y-72600500D01*
X144681962Y-72600499D01*
X144820053Y-72559953D01*
X144941128Y-72482143D01*
X145035377Y-72373373D01*
X145095165Y-72242457D01*
X145095165Y-72242455D01*
X145097206Y-72237987D01*
X145142961Y-72185183D01*
X145210000Y-72165499D01*
X145277040Y-72185184D01*
X145322794Y-72237987D01*
X145324834Y-72242455D01*
X145324835Y-72242457D01*
X145384623Y-72373373D01*
X145478872Y-72482143D01*
X145599947Y-72559953D01*
X145599950Y-72559954D01*
X145599949Y-72559954D01*
X145703743Y-72590430D01*
X145736336Y-72600000D01*
X145738036Y-72600499D01*
X145738038Y-72600500D01*
X145738039Y-72600500D01*
X145881962Y-72600500D01*
X145881962Y-72600499D01*
X146020053Y-72559953D01*
X146141128Y-72482143D01*
X146235377Y-72373373D01*
X146295165Y-72242457D01*
X146295165Y-72242455D01*
X146297206Y-72237987D01*
X146342961Y-72185183D01*
X146410000Y-72165499D01*
X146477040Y-72185184D01*
X146522794Y-72237987D01*
X146524834Y-72242455D01*
X146524835Y-72242457D01*
X146584623Y-72373373D01*
X146678872Y-72482143D01*
X146799947Y-72559953D01*
X146799950Y-72559954D01*
X146799949Y-72559954D01*
X146903743Y-72590430D01*
X146936336Y-72600000D01*
X146938036Y-72600499D01*
X146938038Y-72600500D01*
X146938039Y-72600500D01*
X147081962Y-72600500D01*
X147081962Y-72600499D01*
X147220053Y-72559953D01*
X147341128Y-72482143D01*
X147435377Y-72373373D01*
X147495165Y-72242457D01*
X147495165Y-72242455D01*
X147497206Y-72237987D01*
X147542961Y-72185183D01*
X147610000Y-72165499D01*
X147677040Y-72185184D01*
X147722794Y-72237987D01*
X147724834Y-72242455D01*
X147724835Y-72242457D01*
X147784623Y-72373373D01*
X147878872Y-72482143D01*
X147999947Y-72559953D01*
X147999950Y-72559954D01*
X147999949Y-72559954D01*
X148103743Y-72590430D01*
X148136336Y-72600000D01*
X148138036Y-72600499D01*
X148138038Y-72600500D01*
X148138039Y-72600500D01*
X148281961Y-72600500D01*
X148422843Y-72559134D01*
X148492713Y-72559134D01*
X148545459Y-72590430D01*
X148787848Y-72832819D01*
X148821333Y-72894142D01*
X148816349Y-72963834D01*
X148774477Y-73019767D01*
X148709013Y-73044184D01*
X148700167Y-73044500D01*
X140540174Y-73044500D01*
X140473135Y-73024815D01*
X140427380Y-72972011D01*
X140417436Y-72902853D01*
X140427380Y-72868988D01*
X140454900Y-72808725D01*
X140485165Y-72742457D01*
X140505647Y-72600000D01*
X140485165Y-72457543D01*
X140425377Y-72326627D01*
X140331128Y-72217857D01*
X140210053Y-72140047D01*
X140210051Y-72140046D01*
X140210049Y-72140045D01*
X140210050Y-72140045D01*
X140071963Y-72099500D01*
X140071961Y-72099500D01*
X139928039Y-72099500D01*
X139928036Y-72099500D01*
X139789949Y-72140045D01*
X139668873Y-72217856D01*
X139574623Y-72326626D01*
X139574622Y-72326628D01*
X139514834Y-72457543D01*
X139494353Y-72600000D01*
X139494353Y-72600001D01*
X139495661Y-72609103D01*
X139485713Y-72678261D01*
X139460603Y-72714424D01*
X139166846Y-73008182D01*
X139105526Y-73041666D01*
X139079167Y-73044500D01*
X135343326Y-73044500D01*
X135276287Y-73024815D01*
X135230532Y-72972011D01*
X135220588Y-72902853D01*
X135220588Y-72902852D01*
X135221897Y-72893750D01*
X135201415Y-72751293D01*
X135141627Y-72620377D01*
X135047378Y-72511607D01*
X134926303Y-72433797D01*
X134926301Y-72433796D01*
X134926299Y-72433795D01*
X134926300Y-72433795D01*
X134788213Y-72393250D01*
X134788211Y-72393250D01*
X134644289Y-72393250D01*
X134644286Y-72393250D01*
X134506199Y-72433795D01*
X134385123Y-72511606D01*
X134290873Y-72620376D01*
X134290872Y-72620378D01*
X134231084Y-72751293D01*
X134210603Y-72893749D01*
X134210603Y-72893750D01*
X134210659Y-72894142D01*
X134211912Y-72902852D01*
X134201969Y-72972011D01*
X134156214Y-73024815D01*
X134089175Y-73044500D01*
X134061361Y-73044500D01*
X134034065Y-73045963D01*
X134034060Y-73045963D01*
X134034048Y-73045964D01*
X134034040Y-73045964D01*
X134034011Y-73045967D01*
X134007689Y-73048797D01*
X134007687Y-73048798D01*
X133912558Y-73078586D01*
X133912548Y-73078590D01*
X133851238Y-73112068D01*
X133851230Y-73112073D01*
X133793019Y-73155649D01*
X133793001Y-73155665D01*
X133265666Y-73683001D01*
X133265638Y-73683031D01*
X133247361Y-73703379D01*
X133230744Y-73724000D01*
X133184534Y-73812340D01*
X133164850Y-73879375D01*
X133164848Y-73879383D01*
X133154500Y-73951360D01*
X133154500Y-77376002D01*
X133160338Y-77430312D01*
X133171543Y-77481818D01*
X133171546Y-77481827D01*
X133178779Y-77508192D01*
X133178783Y-77508203D01*
X133228105Y-77594818D01*
X133228110Y-77594825D01*
X133228112Y-77594828D01*
X133249772Y-77619825D01*
X133273863Y-77647628D01*
X133273866Y-77647631D01*
X133273867Y-77647632D01*
X133306641Y-77679257D01*
X133394976Y-77725465D01*
X133394977Y-77725465D01*
X133394977Y-77725466D01*
X133445105Y-77740184D01*
X133462015Y-77745150D01*
X133462019Y-77745150D01*
X133462021Y-77745151D01*
X133473652Y-77746823D01*
X133534000Y-77755500D01*
X133534001Y-77755500D01*
X135970529Y-77755500D01*
X135988758Y-77754849D01*
X136006401Y-77753587D01*
X136006406Y-77753585D01*
X136006410Y-77753585D01*
X136053682Y-77741519D01*
X136094304Y-77731152D01*
X136152289Y-77704673D01*
X136152288Y-77704672D01*
X136155229Y-77703330D01*
X136155230Y-77703331D01*
X136157809Y-77702154D01*
X136157812Y-77702151D01*
X136160038Y-77701136D01*
X136164462Y-77700500D01*
X136176756Y-77693787D01*
X136177928Y-77692221D01*
X136185210Y-77687165D01*
X136187325Y-77685806D01*
X136187324Y-77685805D01*
X136192004Y-77682798D01*
X136192005Y-77682799D01*
X136267183Y-77634484D01*
X136299286Y-77619825D01*
X136332669Y-77610024D01*
X136367600Y-77605002D01*
X136402398Y-77605002D01*
X136437330Y-77610024D01*
X136470712Y-77619825D01*
X136502822Y-77634489D01*
X136518019Y-77644256D01*
X136518024Y-77644259D01*
X136564207Y-77673939D01*
X136571451Y-77678967D01*
X136579333Y-77684866D01*
X136660447Y-77725465D01*
X136727486Y-77745150D01*
X136727491Y-77745150D01*
X136727492Y-77745151D01*
X136739123Y-77746823D01*
X136799471Y-77755500D01*
X136799472Y-77755500D01*
X138098623Y-77755500D01*
X138165662Y-77775185D01*
X138211417Y-77827989D01*
X138221361Y-77897147D01*
X138192336Y-77960703D01*
X138156250Y-77989296D01*
X138099149Y-78019265D01*
X137971816Y-78132072D01*
X137875182Y-78272068D01*
X137814860Y-78431125D01*
X137814859Y-78431130D01*
X137794355Y-78600000D01*
X137801768Y-78661054D01*
X137790307Y-78729977D01*
X137743403Y-78781763D01*
X137678672Y-78800000D01*
X126924000Y-78800000D01*
X126856961Y-78780315D01*
X126811206Y-78727511D01*
X126800000Y-78676000D01*
X126800000Y-77000000D01*
X127794355Y-77000000D01*
X127814859Y-77168869D01*
X127814860Y-77168874D01*
X127875182Y-77327931D01*
X127908364Y-77376002D01*
X127971817Y-77467929D01*
X128063893Y-77549501D01*
X128099150Y-77580736D01*
X128220183Y-77644259D01*
X128249775Y-77659790D01*
X128414944Y-77700500D01*
X128512035Y-77700500D01*
X128579074Y-77720185D01*
X128599715Y-77736818D01*
X129273387Y-78410491D01*
X129376114Y-78469800D01*
X129400322Y-78476285D01*
X129400325Y-78476287D01*
X129400326Y-78476287D01*
X129413504Y-78479818D01*
X129490692Y-78500501D01*
X130242273Y-78500501D01*
X130281004Y-78508927D01*
X130281437Y-78507456D01*
X130428036Y-78550500D01*
X130428038Y-78550501D01*
X130428039Y-78550501D01*
X130571962Y-78550501D01*
X130571962Y-78550500D01*
X130710053Y-78509954D01*
X130831128Y-78432144D01*
X130925377Y-78323374D01*
X130985165Y-78192458D01*
X131005647Y-78050001D01*
X130985165Y-77907544D01*
X130925377Y-77776628D01*
X130831128Y-77667858D01*
X130710053Y-77590048D01*
X130710051Y-77590047D01*
X130710049Y-77590046D01*
X130710050Y-77590046D01*
X130571963Y-77549501D01*
X130571961Y-77549501D01*
X130428039Y-77549501D01*
X130428036Y-77549501D01*
X130281437Y-77592546D01*
X130281004Y-77591074D01*
X130242273Y-77599501D01*
X129787967Y-77599501D01*
X129720928Y-77579816D01*
X129700286Y-77563182D01*
X129240916Y-77103812D01*
X129207431Y-77042489D01*
X129205797Y-77007502D01*
X129205645Y-77007502D01*
X129205645Y-77004243D01*
X129205502Y-77001181D01*
X129205645Y-77000003D01*
X129205645Y-77000001D01*
X129185140Y-76831130D01*
X129185139Y-76831125D01*
X129124817Y-76672068D01*
X129090476Y-76622318D01*
X129028183Y-76532071D01*
X128900852Y-76419266D01*
X128900849Y-76419263D01*
X128750226Y-76340210D01*
X128585056Y-76299500D01*
X128414944Y-76299500D01*
X128249773Y-76340210D01*
X128099150Y-76419263D01*
X127971816Y-76532072D01*
X127875182Y-76672068D01*
X127814860Y-76831125D01*
X127814859Y-76831130D01*
X127794355Y-77000000D01*
X126800000Y-77000000D01*
X126800000Y-75900000D01*
X129394353Y-75900000D01*
X129414834Y-76042456D01*
X129474622Y-76173371D01*
X129474623Y-76173373D01*
X129568872Y-76282143D01*
X129689947Y-76359953D01*
X129689950Y-76359954D01*
X129689949Y-76359954D01*
X129828036Y-76400499D01*
X129828038Y-76400500D01*
X129828039Y-76400500D01*
X129971962Y-76400500D01*
X129971962Y-76400499D01*
X130110053Y-76359953D01*
X130231128Y-76282143D01*
X130325377Y-76173373D01*
X130385165Y-76042457D01*
X130405647Y-75900000D01*
X130385165Y-75757543D01*
X130325377Y-75626627D01*
X130231128Y-75517857D01*
X130110053Y-75440047D01*
X130110051Y-75440046D01*
X130110049Y-75440045D01*
X130110050Y-75440045D01*
X129971963Y-75399500D01*
X129971961Y-75399500D01*
X129828039Y-75399500D01*
X129828036Y-75399500D01*
X129689949Y-75440045D01*
X129568873Y-75517856D01*
X129474623Y-75626626D01*
X129474622Y-75626628D01*
X129414834Y-75757543D01*
X129394353Y-75900000D01*
X126800000Y-75900000D01*
X126800000Y-73800000D01*
X127694355Y-73800000D01*
X127714859Y-73968869D01*
X127714860Y-73968874D01*
X127775182Y-74127931D01*
X127837475Y-74218177D01*
X127871817Y-74267929D01*
X127977505Y-74361560D01*
X127999150Y-74380736D01*
X128149773Y-74459789D01*
X128149775Y-74459790D01*
X128314944Y-74500500D01*
X128485056Y-74500500D01*
X128650225Y-74459790D01*
X128729692Y-74418081D01*
X128800849Y-74380736D01*
X128800850Y-74380734D01*
X128800852Y-74380734D01*
X128928183Y-74267929D01*
X129024818Y-74127930D01*
X129085140Y-73968872D01*
X129105645Y-73800000D01*
X129090188Y-73672703D01*
X129101648Y-73603782D01*
X129125597Y-73570083D01*
X129280470Y-73415212D01*
X129326614Y-73335288D01*
X129331199Y-73318176D01*
X129338267Y-73291801D01*
X129344383Y-73268973D01*
X129350500Y-73246144D01*
X129350500Y-73006035D01*
X129370185Y-72938996D01*
X129380782Y-72924837D01*
X129425377Y-72873373D01*
X129485165Y-72742457D01*
X129505647Y-72600000D01*
X129485165Y-72457543D01*
X129425377Y-72326627D01*
X129331128Y-72217857D01*
X129210053Y-72140047D01*
X129210051Y-72140046D01*
X129210049Y-72140045D01*
X129210050Y-72140045D01*
X129071963Y-72099500D01*
X129071961Y-72099500D01*
X128928039Y-72099500D01*
X128928036Y-72099500D01*
X128789949Y-72140045D01*
X128668873Y-72217856D01*
X128574623Y-72326626D01*
X128574622Y-72326628D01*
X128514834Y-72457543D01*
X128494353Y-72600000D01*
X128514834Y-72742456D01*
X128518870Y-72751293D01*
X128574623Y-72873373D01*
X128593515Y-72895176D01*
X128622541Y-72958731D01*
X128612598Y-73027890D01*
X128566843Y-73080694D01*
X128499804Y-73100379D01*
X128485253Y-73099500D01*
X128485056Y-73099500D01*
X128314944Y-73099500D01*
X128149773Y-73140210D01*
X127999150Y-73219263D01*
X127871816Y-73332072D01*
X127775182Y-73472068D01*
X127714860Y-73631125D01*
X127714859Y-73631130D01*
X127694355Y-73800000D01*
X126800000Y-73800000D01*
X126800000Y-66724000D01*
X126819685Y-66656961D01*
X126872489Y-66611206D01*
X126924000Y-66600000D01*
X129978715Y-66600000D01*
X129996362Y-66601262D01*
X129999802Y-66601756D01*
X130025837Y-66605500D01*
X130025838Y-66605500D01*
X139767515Y-66605500D01*
X139767519Y-66605500D01*
X139819594Y-66598792D01*
X139880386Y-66582867D01*
X139929060Y-66563184D01*
X143025518Y-64821425D01*
X143086310Y-64805500D01*
X143703472Y-64805500D01*
X143732719Y-64803408D01*
X143747644Y-64801262D01*
X143765292Y-64800000D01*
X143867209Y-64800000D01*
X143884856Y-64801261D01*
G37*
%TD.AperFunction*%
%TD*%
M02*
