%TF.GenerationSoftware,KiCad,Pcbnew,8.0.8*%
%TF.CreationDate,2025-03-05T15:18:31-05:00*%
%TF.ProjectId,V2.0,56322e30-2e6b-4696-9361-645f70636258,rev?*%
%TF.SameCoordinates,Original*%
%TF.FileFunction,Legend,Top*%
%TF.FilePolarity,Positive*%
%FSLAX46Y46*%
G04 Gerber Fmt 4.6, Leading zero omitted, Abs format (unit mm)*
G04 Created by KiCad (PCBNEW 8.0.8) date 2025-03-05 15:18:31*
%MOMM*%
%LPD*%
G01*
G04 APERTURE LIST*
G04 Aperture macros list*
%AMRoundRect*
0 Rectangle with rounded corners*
0 $1 Rounding radius*
0 $2 $3 $4 $5 $6 $7 $8 $9 X,Y pos of 4 corners*
0 Add a 4 corners polygon primitive as box body*
4,1,4,$2,$3,$4,$5,$6,$7,$8,$9,$2,$3,0*
0 Add four circle primitives for the rounded corners*
1,1,$1+$1,$2,$3*
1,1,$1+$1,$4,$5*
1,1,$1+$1,$6,$7*
1,1,$1+$1,$8,$9*
0 Add four rect primitives between the rounded corners*
20,1,$1+$1,$2,$3,$4,$5,0*
20,1,$1+$1,$4,$5,$6,$7,0*
20,1,$1+$1,$6,$7,$8,$9,0*
20,1,$1+$1,$8,$9,$2,$3,0*%
%AMFreePoly0*
4,1,17,2.675000,1.605000,1.875000,1.605000,1.875000,0.935000,2.675000,0.935000,2.675000,0.335000,1.875000,0.335000,1.875000,-0.335000,2.675000,-0.335000,2.675000,-0.935000,1.875000,-0.935000,1.875000,-1.605000,2.675000,-1.605000,2.675000,-2.205000,-1.875000,-2.205000,-1.875000,2.205000,2.675000,2.205000,2.675000,1.605000,2.675000,1.605000,$1*%
G04 Aperture macros list end*
%ADD10C,0.150000*%
%ADD11C,0.100000*%
%ADD12C,0.300000*%
%ADD13C,0.120000*%
%ADD14C,0.127000*%
%ADD15RoundRect,0.218750X-0.218750X-0.256250X0.218750X-0.256250X0.218750X0.256250X-0.218750X0.256250X0*%
%ADD16RoundRect,0.218750X0.256250X-0.218750X0.256250X0.218750X-0.256250X0.218750X-0.256250X-0.218750X0*%
%ADD17C,1.000000*%
%ADD18R,1.700000X1.700000*%
%ADD19C,1.700000*%
%ADD20O,1.700000X1.700000*%
%ADD21RoundRect,0.140000X-0.140000X-0.170000X0.140000X-0.170000X0.140000X0.170000X-0.140000X0.170000X0*%
%ADD22RoundRect,0.225000X-0.225000X-0.250000X0.225000X-0.250000X0.225000X0.250000X-0.225000X0.250000X0*%
%ADD23C,2.700000*%
%ADD24RoundRect,0.135000X-0.185000X0.135000X-0.185000X-0.135000X0.185000X-0.135000X0.185000X0.135000X0*%
%ADD25RoundRect,0.250000X0.250000X0.475000X-0.250000X0.475000X-0.250000X-0.475000X0.250000X-0.475000X0*%
%ADD26RoundRect,0.140000X0.170000X-0.140000X0.170000X0.140000X-0.170000X0.140000X-0.170000X-0.140000X0*%
%ADD27RoundRect,0.100000X0.637500X0.100000X-0.637500X0.100000X-0.637500X-0.100000X0.637500X-0.100000X0*%
%ADD28RoundRect,0.135000X-0.135000X-0.185000X0.135000X-0.185000X0.135000X0.185000X-0.135000X0.185000X0*%
%ADD29RoundRect,0.150000X-0.150000X0.512500X-0.150000X-0.512500X0.150000X-0.512500X0.150000X0.512500X0*%
%ADD30RoundRect,0.140000X-0.170000X0.140000X-0.170000X-0.140000X0.170000X-0.140000X0.170000X0.140000X0*%
%ADD31RoundRect,0.250000X0.650000X-0.325000X0.650000X0.325000X-0.650000X0.325000X-0.650000X-0.325000X0*%
%ADD32RoundRect,0.135000X0.135000X0.185000X-0.135000X0.185000X-0.135000X-0.185000X0.135000X-0.185000X0*%
%ADD33O,1.000000X1.000000*%
%ADD34R,1.000000X1.000000*%
%ADD35RoundRect,0.250000X-0.650000X0.325000X-0.650000X-0.325000X0.650000X-0.325000X0.650000X0.325000X0*%
%ADD36RoundRect,0.218750X0.218750X0.256250X-0.218750X0.256250X-0.218750X-0.256250X0.218750X-0.256250X0*%
%ADD37RoundRect,0.102000X2.500000X-1.625000X2.500000X1.625000X-2.500000X1.625000X-2.500000X-1.625000X0*%
%ADD38RoundRect,0.125000X0.300000X0.125000X-0.300000X0.125000X-0.300000X-0.125000X0.300000X-0.125000X0*%
%ADD39FreePoly0,180.000000*%
%ADD40RoundRect,0.125000X-0.125000X0.300000X-0.125000X-0.300000X0.125000X-0.300000X0.125000X0.300000X0*%
%ADD41FreePoly0,270.000000*%
%ADD42RoundRect,0.375000X-0.625000X-0.375000X0.625000X-0.375000X0.625000X0.375000X-0.625000X0.375000X0*%
%ADD43RoundRect,0.500000X-0.500000X-1.400000X0.500000X-1.400000X0.500000X1.400000X-0.500000X1.400000X0*%
%ADD44RoundRect,0.250000X-0.625000X0.312500X-0.625000X-0.312500X0.625000X-0.312500X0.625000X0.312500X0*%
%ADD45RoundRect,0.150000X-0.512500X-0.150000X0.512500X-0.150000X0.512500X0.150000X-0.512500X0.150000X0*%
%ADD46R,4.900000X3.200000*%
%ADD47RoundRect,0.237500X-0.262500X0.237500X-0.262500X-0.237500X0.262500X-0.237500X0.262500X0.237500X0*%
%ADD48RoundRect,0.250000X-0.250000X-0.475000X0.250000X-0.475000X0.250000X0.475000X-0.250000X0.475000X0*%
%ADD49C,0.499999*%
G04 APERTURE END LIST*
D10*
X142589160Y-50965057D02*
X142636779Y-50917438D01*
X142636779Y-50917438D02*
X142732017Y-50869819D01*
X142732017Y-50869819D02*
X142970112Y-50869819D01*
X142970112Y-50869819D02*
X143065350Y-50917438D01*
X143065350Y-50917438D02*
X143112969Y-50965057D01*
X143112969Y-50965057D02*
X143160588Y-51060295D01*
X143160588Y-51060295D02*
X143160588Y-51155533D01*
X143160588Y-51155533D02*
X143112969Y-51298390D01*
X143112969Y-51298390D02*
X142541541Y-51869819D01*
X142541541Y-51869819D02*
X143160588Y-51869819D01*
X157360588Y-58669819D02*
X156789160Y-58669819D01*
X157074874Y-58669819D02*
X157074874Y-57669819D01*
X157074874Y-57669819D02*
X156979636Y-57812676D01*
X156979636Y-57812676D02*
X156884398Y-57907914D01*
X156884398Y-57907914D02*
X156789160Y-57955533D01*
D11*
X159875312Y-78834990D02*
X159799122Y-78796895D01*
X159799122Y-78796895D02*
X159684836Y-78796895D01*
X159684836Y-78796895D02*
X159570550Y-78834990D01*
X159570550Y-78834990D02*
X159494360Y-78911180D01*
X159494360Y-78911180D02*
X159456265Y-78987371D01*
X159456265Y-78987371D02*
X159418169Y-79139752D01*
X159418169Y-79139752D02*
X159418169Y-79254038D01*
X159418169Y-79254038D02*
X159456265Y-79406419D01*
X159456265Y-79406419D02*
X159494360Y-79482609D01*
X159494360Y-79482609D02*
X159570550Y-79558800D01*
X159570550Y-79558800D02*
X159684836Y-79596895D01*
X159684836Y-79596895D02*
X159761027Y-79596895D01*
X159761027Y-79596895D02*
X159875312Y-79558800D01*
X159875312Y-79558800D02*
X159913408Y-79520704D01*
X159913408Y-79520704D02*
X159913408Y-79254038D01*
X159913408Y-79254038D02*
X159761027Y-79254038D01*
X160256265Y-79596895D02*
X160256265Y-78796895D01*
X160256265Y-78796895D02*
X160713408Y-79596895D01*
X160713408Y-79596895D02*
X160713408Y-78796895D01*
X161094360Y-79596895D02*
X161094360Y-78796895D01*
X161094360Y-78796895D02*
X161284836Y-78796895D01*
X161284836Y-78796895D02*
X161399122Y-78834990D01*
X161399122Y-78834990D02*
X161475312Y-78911180D01*
X161475312Y-78911180D02*
X161513407Y-78987371D01*
X161513407Y-78987371D02*
X161551503Y-79139752D01*
X161551503Y-79139752D02*
X161551503Y-79254038D01*
X161551503Y-79254038D02*
X161513407Y-79406419D01*
X161513407Y-79406419D02*
X161475312Y-79482609D01*
X161475312Y-79482609D02*
X161399122Y-79558800D01*
X161399122Y-79558800D02*
X161284836Y-79596895D01*
X161284836Y-79596895D02*
X161094360Y-79596895D01*
X154099122Y-61396895D02*
X153946741Y-61396895D01*
X153946741Y-61396895D02*
X153870550Y-61434990D01*
X153870550Y-61434990D02*
X153832455Y-61473085D01*
X153832455Y-61473085D02*
X153756265Y-61587371D01*
X153756265Y-61587371D02*
X153718169Y-61739752D01*
X153718169Y-61739752D02*
X153718169Y-62044514D01*
X153718169Y-62044514D02*
X153756265Y-62120704D01*
X153756265Y-62120704D02*
X153794360Y-62158800D01*
X153794360Y-62158800D02*
X153870550Y-62196895D01*
X153870550Y-62196895D02*
X154022931Y-62196895D01*
X154022931Y-62196895D02*
X154099122Y-62158800D01*
X154099122Y-62158800D02*
X154137217Y-62120704D01*
X154137217Y-62120704D02*
X154175312Y-62044514D01*
X154175312Y-62044514D02*
X154175312Y-61854038D01*
X154175312Y-61854038D02*
X154137217Y-61777847D01*
X154137217Y-61777847D02*
X154099122Y-61739752D01*
X154099122Y-61739752D02*
X154022931Y-61701657D01*
X154022931Y-61701657D02*
X153870550Y-61701657D01*
X153870550Y-61701657D02*
X153794360Y-61739752D01*
X153794360Y-61739752D02*
X153756265Y-61777847D01*
X153756265Y-61777847D02*
X153718169Y-61854038D01*
X154403884Y-61396895D02*
X154670551Y-62196895D01*
X154670551Y-62196895D02*
X154937217Y-61396895D01*
X136713408Y-57020704D02*
X136675312Y-57058800D01*
X136675312Y-57058800D02*
X136561027Y-57096895D01*
X136561027Y-57096895D02*
X136484836Y-57096895D01*
X136484836Y-57096895D02*
X136370550Y-57058800D01*
X136370550Y-57058800D02*
X136294360Y-56982609D01*
X136294360Y-56982609D02*
X136256265Y-56906419D01*
X136256265Y-56906419D02*
X136218169Y-56754038D01*
X136218169Y-56754038D02*
X136218169Y-56639752D01*
X136218169Y-56639752D02*
X136256265Y-56487371D01*
X136256265Y-56487371D02*
X136294360Y-56411180D01*
X136294360Y-56411180D02*
X136370550Y-56334990D01*
X136370550Y-56334990D02*
X136484836Y-56296895D01*
X136484836Y-56296895D02*
X136561027Y-56296895D01*
X136561027Y-56296895D02*
X136675312Y-56334990D01*
X136675312Y-56334990D02*
X136713408Y-56373085D01*
X137018169Y-57058800D02*
X137132455Y-57096895D01*
X137132455Y-57096895D02*
X137322931Y-57096895D01*
X137322931Y-57096895D02*
X137399122Y-57058800D01*
X137399122Y-57058800D02*
X137437217Y-57020704D01*
X137437217Y-57020704D02*
X137475312Y-56944514D01*
X137475312Y-56944514D02*
X137475312Y-56868323D01*
X137475312Y-56868323D02*
X137437217Y-56792133D01*
X137437217Y-56792133D02*
X137399122Y-56754038D01*
X137399122Y-56754038D02*
X137322931Y-56715942D01*
X137322931Y-56715942D02*
X137170550Y-56677847D01*
X137170550Y-56677847D02*
X137094360Y-56639752D01*
X137094360Y-56639752D02*
X137056265Y-56601657D01*
X137056265Y-56601657D02*
X137018169Y-56525466D01*
X137018169Y-56525466D02*
X137018169Y-56449276D01*
X137018169Y-56449276D02*
X137056265Y-56373085D01*
X137056265Y-56373085D02*
X137094360Y-56334990D01*
X137094360Y-56334990D02*
X137170550Y-56296895D01*
X137170550Y-56296895D02*
X137361027Y-56296895D01*
X137361027Y-56296895D02*
X137475312Y-56334990D01*
X137780074Y-56868323D02*
X138161027Y-56868323D01*
X137703884Y-57096895D02*
X137970551Y-56296895D01*
X137970551Y-56296895D02*
X138237217Y-57096895D01*
X141337217Y-53196895D02*
X140956265Y-53196895D01*
X140956265Y-53196895D02*
X140918169Y-53577847D01*
X140918169Y-53577847D02*
X140956265Y-53539752D01*
X140956265Y-53539752D02*
X141032455Y-53501657D01*
X141032455Y-53501657D02*
X141222931Y-53501657D01*
X141222931Y-53501657D02*
X141299122Y-53539752D01*
X141299122Y-53539752D02*
X141337217Y-53577847D01*
X141337217Y-53577847D02*
X141375312Y-53654038D01*
X141375312Y-53654038D02*
X141375312Y-53844514D01*
X141375312Y-53844514D02*
X141337217Y-53920704D01*
X141337217Y-53920704D02*
X141299122Y-53958800D01*
X141299122Y-53958800D02*
X141222931Y-53996895D01*
X141222931Y-53996895D02*
X141032455Y-53996895D01*
X141032455Y-53996895D02*
X140956265Y-53958800D01*
X140956265Y-53958800D02*
X140918169Y-53920704D01*
X141603884Y-53196895D02*
X141870551Y-53996895D01*
X141870551Y-53996895D02*
X142137217Y-53196895D01*
X139680074Y-47196895D02*
X140175312Y-47196895D01*
X140175312Y-47196895D02*
X139908646Y-47501657D01*
X139908646Y-47501657D02*
X140022931Y-47501657D01*
X140022931Y-47501657D02*
X140099122Y-47539752D01*
X140099122Y-47539752D02*
X140137217Y-47577847D01*
X140137217Y-47577847D02*
X140175312Y-47654038D01*
X140175312Y-47654038D02*
X140175312Y-47844514D01*
X140175312Y-47844514D02*
X140137217Y-47920704D01*
X140137217Y-47920704D02*
X140099122Y-47958800D01*
X140099122Y-47958800D02*
X140022931Y-47996895D01*
X140022931Y-47996895D02*
X139794360Y-47996895D01*
X139794360Y-47996895D02*
X139718169Y-47958800D01*
X139718169Y-47958800D02*
X139680074Y-47920704D01*
X140403884Y-47196895D02*
X140670551Y-47996895D01*
X140670551Y-47996895D02*
X140937217Y-47196895D01*
X155818169Y-49558800D02*
X155932455Y-49596895D01*
X155932455Y-49596895D02*
X156122931Y-49596895D01*
X156122931Y-49596895D02*
X156199122Y-49558800D01*
X156199122Y-49558800D02*
X156237217Y-49520704D01*
X156237217Y-49520704D02*
X156275312Y-49444514D01*
X156275312Y-49444514D02*
X156275312Y-49368323D01*
X156275312Y-49368323D02*
X156237217Y-49292133D01*
X156237217Y-49292133D02*
X156199122Y-49254038D01*
X156199122Y-49254038D02*
X156122931Y-49215942D01*
X156122931Y-49215942D02*
X155970550Y-49177847D01*
X155970550Y-49177847D02*
X155894360Y-49139752D01*
X155894360Y-49139752D02*
X155856265Y-49101657D01*
X155856265Y-49101657D02*
X155818169Y-49025466D01*
X155818169Y-49025466D02*
X155818169Y-48949276D01*
X155818169Y-48949276D02*
X155856265Y-48873085D01*
X155856265Y-48873085D02*
X155894360Y-48834990D01*
X155894360Y-48834990D02*
X155970550Y-48796895D01*
X155970550Y-48796895D02*
X156161027Y-48796895D01*
X156161027Y-48796895D02*
X156275312Y-48834990D01*
X157075313Y-49520704D02*
X157037217Y-49558800D01*
X157037217Y-49558800D02*
X156922932Y-49596895D01*
X156922932Y-49596895D02*
X156846741Y-49596895D01*
X156846741Y-49596895D02*
X156732455Y-49558800D01*
X156732455Y-49558800D02*
X156656265Y-49482609D01*
X156656265Y-49482609D02*
X156618170Y-49406419D01*
X156618170Y-49406419D02*
X156580074Y-49254038D01*
X156580074Y-49254038D02*
X156580074Y-49139752D01*
X156580074Y-49139752D02*
X156618170Y-48987371D01*
X156618170Y-48987371D02*
X156656265Y-48911180D01*
X156656265Y-48911180D02*
X156732455Y-48834990D01*
X156732455Y-48834990D02*
X156846741Y-48796895D01*
X156846741Y-48796895D02*
X156922932Y-48796895D01*
X156922932Y-48796895D02*
X157037217Y-48834990D01*
X157037217Y-48834990D02*
X157075313Y-48873085D01*
X157799122Y-49596895D02*
X157418170Y-49596895D01*
X157418170Y-49596895D02*
X157418170Y-48796895D01*
X159818169Y-52858800D02*
X159932455Y-52896895D01*
X159932455Y-52896895D02*
X160122931Y-52896895D01*
X160122931Y-52896895D02*
X160199122Y-52858800D01*
X160199122Y-52858800D02*
X160237217Y-52820704D01*
X160237217Y-52820704D02*
X160275312Y-52744514D01*
X160275312Y-52744514D02*
X160275312Y-52668323D01*
X160275312Y-52668323D02*
X160237217Y-52592133D01*
X160237217Y-52592133D02*
X160199122Y-52554038D01*
X160199122Y-52554038D02*
X160122931Y-52515942D01*
X160122931Y-52515942D02*
X159970550Y-52477847D01*
X159970550Y-52477847D02*
X159894360Y-52439752D01*
X159894360Y-52439752D02*
X159856265Y-52401657D01*
X159856265Y-52401657D02*
X159818169Y-52325466D01*
X159818169Y-52325466D02*
X159818169Y-52249276D01*
X159818169Y-52249276D02*
X159856265Y-52173085D01*
X159856265Y-52173085D02*
X159894360Y-52134990D01*
X159894360Y-52134990D02*
X159970550Y-52096895D01*
X159970550Y-52096895D02*
X160161027Y-52096895D01*
X160161027Y-52096895D02*
X160275312Y-52134990D01*
X160618170Y-52896895D02*
X160618170Y-52096895D01*
X160618170Y-52096895D02*
X160808646Y-52096895D01*
X160808646Y-52096895D02*
X160922932Y-52134990D01*
X160922932Y-52134990D02*
X160999122Y-52211180D01*
X160999122Y-52211180D02*
X161037217Y-52287371D01*
X161037217Y-52287371D02*
X161075313Y-52439752D01*
X161075313Y-52439752D02*
X161075313Y-52554038D01*
X161075313Y-52554038D02*
X161037217Y-52706419D01*
X161037217Y-52706419D02*
X160999122Y-52782609D01*
X160999122Y-52782609D02*
X160922932Y-52858800D01*
X160922932Y-52858800D02*
X160808646Y-52896895D01*
X160808646Y-52896895D02*
X160618170Y-52896895D01*
X161380074Y-52668323D02*
X161761027Y-52668323D01*
X161303884Y-52896895D02*
X161570551Y-52096895D01*
X161570551Y-52096895D02*
X161837217Y-52896895D01*
X128122931Y-78277847D02*
X127856265Y-78277847D01*
X127856265Y-78696895D02*
X127856265Y-77896895D01*
X127856265Y-77896895D02*
X128237217Y-77896895D01*
X128808645Y-78277847D02*
X128922931Y-78315942D01*
X128922931Y-78315942D02*
X128961026Y-78354038D01*
X128961026Y-78354038D02*
X128999122Y-78430228D01*
X128999122Y-78430228D02*
X128999122Y-78544514D01*
X128999122Y-78544514D02*
X128961026Y-78620704D01*
X128961026Y-78620704D02*
X128922931Y-78658800D01*
X128922931Y-78658800D02*
X128846741Y-78696895D01*
X128846741Y-78696895D02*
X128541979Y-78696895D01*
X128541979Y-78696895D02*
X128541979Y-77896895D01*
X128541979Y-77896895D02*
X128808645Y-77896895D01*
X128808645Y-77896895D02*
X128884836Y-77934990D01*
X128884836Y-77934990D02*
X128922931Y-77973085D01*
X128922931Y-77973085D02*
X128961026Y-78049276D01*
X128961026Y-78049276D02*
X128961026Y-78125466D01*
X128961026Y-78125466D02*
X128922931Y-78201657D01*
X128922931Y-78201657D02*
X128884836Y-78239752D01*
X128884836Y-78239752D02*
X128808645Y-78277847D01*
X128808645Y-78277847D02*
X128541979Y-78277847D01*
X129151503Y-78773085D02*
X129761026Y-78773085D01*
X125456265Y-75596895D02*
X125456265Y-74796895D01*
X125456265Y-74796895D02*
X125761027Y-74796895D01*
X125761027Y-74796895D02*
X125837217Y-74834990D01*
X125837217Y-74834990D02*
X125875312Y-74873085D01*
X125875312Y-74873085D02*
X125913408Y-74949276D01*
X125913408Y-74949276D02*
X125913408Y-75063561D01*
X125913408Y-75063561D02*
X125875312Y-75139752D01*
X125875312Y-75139752D02*
X125837217Y-75177847D01*
X125837217Y-75177847D02*
X125761027Y-75215942D01*
X125761027Y-75215942D02*
X125456265Y-75215942D01*
X126675312Y-74834990D02*
X126599122Y-74796895D01*
X126599122Y-74796895D02*
X126484836Y-74796895D01*
X126484836Y-74796895D02*
X126370550Y-74834990D01*
X126370550Y-74834990D02*
X126294360Y-74911180D01*
X126294360Y-74911180D02*
X126256265Y-74987371D01*
X126256265Y-74987371D02*
X126218169Y-75139752D01*
X126218169Y-75139752D02*
X126218169Y-75254038D01*
X126218169Y-75254038D02*
X126256265Y-75406419D01*
X126256265Y-75406419D02*
X126294360Y-75482609D01*
X126294360Y-75482609D02*
X126370550Y-75558800D01*
X126370550Y-75558800D02*
X126484836Y-75596895D01*
X126484836Y-75596895D02*
X126561027Y-75596895D01*
X126561027Y-75596895D02*
X126675312Y-75558800D01*
X126675312Y-75558800D02*
X126713408Y-75520704D01*
X126713408Y-75520704D02*
X126713408Y-75254038D01*
X126713408Y-75254038D02*
X126561027Y-75254038D01*
X127208646Y-74796895D02*
X127361027Y-74796895D01*
X127361027Y-74796895D02*
X127437217Y-74834990D01*
X127437217Y-74834990D02*
X127513408Y-74911180D01*
X127513408Y-74911180D02*
X127551503Y-75063561D01*
X127551503Y-75063561D02*
X127551503Y-75330228D01*
X127551503Y-75330228D02*
X127513408Y-75482609D01*
X127513408Y-75482609D02*
X127437217Y-75558800D01*
X127437217Y-75558800D02*
X127361027Y-75596895D01*
X127361027Y-75596895D02*
X127208646Y-75596895D01*
X127208646Y-75596895D02*
X127132455Y-75558800D01*
X127132455Y-75558800D02*
X127056265Y-75482609D01*
X127056265Y-75482609D02*
X127018169Y-75330228D01*
X127018169Y-75330228D02*
X127018169Y-75063561D01*
X127018169Y-75063561D02*
X127056265Y-74911180D01*
X127056265Y-74911180D02*
X127132455Y-74834990D01*
X127132455Y-74834990D02*
X127208646Y-74796895D01*
X128046741Y-74796895D02*
X128199122Y-74796895D01*
X128199122Y-74796895D02*
X128275312Y-74834990D01*
X128275312Y-74834990D02*
X128351503Y-74911180D01*
X128351503Y-74911180D02*
X128389598Y-75063561D01*
X128389598Y-75063561D02*
X128389598Y-75330228D01*
X128389598Y-75330228D02*
X128351503Y-75482609D01*
X128351503Y-75482609D02*
X128275312Y-75558800D01*
X128275312Y-75558800D02*
X128199122Y-75596895D01*
X128199122Y-75596895D02*
X128046741Y-75596895D01*
X128046741Y-75596895D02*
X127970550Y-75558800D01*
X127970550Y-75558800D02*
X127894360Y-75482609D01*
X127894360Y-75482609D02*
X127856264Y-75330228D01*
X127856264Y-75330228D02*
X127856264Y-75063561D01*
X127856264Y-75063561D02*
X127894360Y-74911180D01*
X127894360Y-74911180D02*
X127970550Y-74834990D01*
X127970550Y-74834990D02*
X128046741Y-74796895D01*
X128732455Y-75596895D02*
X128732455Y-74796895D01*
X128732455Y-74796895D02*
X128922931Y-74796895D01*
X128922931Y-74796895D02*
X129037217Y-74834990D01*
X129037217Y-74834990D02*
X129113407Y-74911180D01*
X129113407Y-74911180D02*
X129151502Y-74987371D01*
X129151502Y-74987371D02*
X129189598Y-75139752D01*
X129189598Y-75139752D02*
X129189598Y-75254038D01*
X129189598Y-75254038D02*
X129151502Y-75406419D01*
X129151502Y-75406419D02*
X129113407Y-75482609D01*
X129113407Y-75482609D02*
X129037217Y-75558800D01*
X129037217Y-75558800D02*
X128922931Y-75596895D01*
X128922931Y-75596895D02*
X128732455Y-75596895D01*
X139918169Y-78858800D02*
X140032455Y-78896895D01*
X140032455Y-78896895D02*
X140222931Y-78896895D01*
X140222931Y-78896895D02*
X140299122Y-78858800D01*
X140299122Y-78858800D02*
X140337217Y-78820704D01*
X140337217Y-78820704D02*
X140375312Y-78744514D01*
X140375312Y-78744514D02*
X140375312Y-78668323D01*
X140375312Y-78668323D02*
X140337217Y-78592133D01*
X140337217Y-78592133D02*
X140299122Y-78554038D01*
X140299122Y-78554038D02*
X140222931Y-78515942D01*
X140222931Y-78515942D02*
X140070550Y-78477847D01*
X140070550Y-78477847D02*
X139994360Y-78439752D01*
X139994360Y-78439752D02*
X139956265Y-78401657D01*
X139956265Y-78401657D02*
X139918169Y-78325466D01*
X139918169Y-78325466D02*
X139918169Y-78249276D01*
X139918169Y-78249276D02*
X139956265Y-78173085D01*
X139956265Y-78173085D02*
X139994360Y-78134990D01*
X139994360Y-78134990D02*
X140070550Y-78096895D01*
X140070550Y-78096895D02*
X140261027Y-78096895D01*
X140261027Y-78096895D02*
X140375312Y-78134990D01*
X140641979Y-78096895D02*
X140832455Y-78896895D01*
X140832455Y-78896895D02*
X140984836Y-78325466D01*
X140984836Y-78325466D02*
X141137217Y-78896895D01*
X141137217Y-78896895D02*
X141327694Y-78096895D01*
X138122931Y-79977847D02*
X138237217Y-80015942D01*
X138237217Y-80015942D02*
X138275312Y-80054038D01*
X138275312Y-80054038D02*
X138313408Y-80130228D01*
X138313408Y-80130228D02*
X138313408Y-80244514D01*
X138313408Y-80244514D02*
X138275312Y-80320704D01*
X138275312Y-80320704D02*
X138237217Y-80358800D01*
X138237217Y-80358800D02*
X138161027Y-80396895D01*
X138161027Y-80396895D02*
X137856265Y-80396895D01*
X137856265Y-80396895D02*
X137856265Y-79596895D01*
X137856265Y-79596895D02*
X138122931Y-79596895D01*
X138122931Y-79596895D02*
X138199122Y-79634990D01*
X138199122Y-79634990D02*
X138237217Y-79673085D01*
X138237217Y-79673085D02*
X138275312Y-79749276D01*
X138275312Y-79749276D02*
X138275312Y-79825466D01*
X138275312Y-79825466D02*
X138237217Y-79901657D01*
X138237217Y-79901657D02*
X138199122Y-79939752D01*
X138199122Y-79939752D02*
X138122931Y-79977847D01*
X138122931Y-79977847D02*
X137856265Y-79977847D01*
X138618169Y-80358800D02*
X138732455Y-80396895D01*
X138732455Y-80396895D02*
X138922931Y-80396895D01*
X138922931Y-80396895D02*
X138999122Y-80358800D01*
X138999122Y-80358800D02*
X139037217Y-80320704D01*
X139037217Y-80320704D02*
X139075312Y-80244514D01*
X139075312Y-80244514D02*
X139075312Y-80168323D01*
X139075312Y-80168323D02*
X139037217Y-80092133D01*
X139037217Y-80092133D02*
X138999122Y-80054038D01*
X138999122Y-80054038D02*
X138922931Y-80015942D01*
X138922931Y-80015942D02*
X138770550Y-79977847D01*
X138770550Y-79977847D02*
X138694360Y-79939752D01*
X138694360Y-79939752D02*
X138656265Y-79901657D01*
X138656265Y-79901657D02*
X138618169Y-79825466D01*
X138618169Y-79825466D02*
X138618169Y-79749276D01*
X138618169Y-79749276D02*
X138656265Y-79673085D01*
X138656265Y-79673085D02*
X138694360Y-79634990D01*
X138694360Y-79634990D02*
X138770550Y-79596895D01*
X138770550Y-79596895D02*
X138961027Y-79596895D01*
X138961027Y-79596895D02*
X139075312Y-79634990D01*
X139303884Y-79596895D02*
X139761027Y-79596895D01*
X139532455Y-80396895D02*
X139532455Y-79596895D01*
X139656265Y-81896895D02*
X139656265Y-81096895D01*
X139656265Y-81477847D02*
X140113408Y-81477847D01*
X140113408Y-81896895D02*
X140113408Y-81096895D01*
X140646741Y-81096895D02*
X140799122Y-81096895D01*
X140799122Y-81096895D02*
X140875312Y-81134990D01*
X140875312Y-81134990D02*
X140951503Y-81211180D01*
X140951503Y-81211180D02*
X140989598Y-81363561D01*
X140989598Y-81363561D02*
X140989598Y-81630228D01*
X140989598Y-81630228D02*
X140951503Y-81782609D01*
X140951503Y-81782609D02*
X140875312Y-81858800D01*
X140875312Y-81858800D02*
X140799122Y-81896895D01*
X140799122Y-81896895D02*
X140646741Y-81896895D01*
X140646741Y-81896895D02*
X140570550Y-81858800D01*
X140570550Y-81858800D02*
X140494360Y-81782609D01*
X140494360Y-81782609D02*
X140456264Y-81630228D01*
X140456264Y-81630228D02*
X140456264Y-81363561D01*
X140456264Y-81363561D02*
X140494360Y-81211180D01*
X140494360Y-81211180D02*
X140570550Y-81134990D01*
X140570550Y-81134990D02*
X140646741Y-81096895D01*
X142456265Y-83277847D02*
X142722931Y-83277847D01*
X142837217Y-83696895D02*
X142456265Y-83696895D01*
X142456265Y-83696895D02*
X142456265Y-82896895D01*
X142456265Y-82896895D02*
X142837217Y-82896895D01*
X143180075Y-83696895D02*
X143180075Y-82896895D01*
X143180075Y-82896895D02*
X143637218Y-83696895D01*
X143637218Y-83696895D02*
X143637218Y-82896895D01*
X138041979Y-84196895D02*
X138308646Y-84996895D01*
X138308646Y-84996895D02*
X138575312Y-84196895D01*
X138841979Y-84996895D02*
X138841979Y-84196895D01*
X139222931Y-84996895D02*
X139222931Y-84196895D01*
X139222931Y-84196895D02*
X139680074Y-84996895D01*
X139680074Y-84996895D02*
X139680074Y-84196895D01*
X130341979Y-85363561D02*
X130646741Y-85363561D01*
X130456265Y-85096895D02*
X130456265Y-85782609D01*
X130456265Y-85782609D02*
X130494360Y-85858800D01*
X130494360Y-85858800D02*
X130570550Y-85896895D01*
X130570550Y-85896895D02*
X130646741Y-85896895D01*
X131218170Y-85858800D02*
X131141979Y-85896895D01*
X131141979Y-85896895D02*
X130989598Y-85896895D01*
X130989598Y-85896895D02*
X130913408Y-85858800D01*
X130913408Y-85858800D02*
X130875312Y-85782609D01*
X130875312Y-85782609D02*
X130875312Y-85477847D01*
X130875312Y-85477847D02*
X130913408Y-85401657D01*
X130913408Y-85401657D02*
X130989598Y-85363561D01*
X130989598Y-85363561D02*
X131141979Y-85363561D01*
X131141979Y-85363561D02*
X131218170Y-85401657D01*
X131218170Y-85401657D02*
X131256265Y-85477847D01*
X131256265Y-85477847D02*
X131256265Y-85554038D01*
X131256265Y-85554038D02*
X130875312Y-85630228D01*
X131599122Y-85896895D02*
X131599122Y-85363561D01*
X131599122Y-85439752D02*
X131637217Y-85401657D01*
X131637217Y-85401657D02*
X131713407Y-85363561D01*
X131713407Y-85363561D02*
X131827693Y-85363561D01*
X131827693Y-85363561D02*
X131903884Y-85401657D01*
X131903884Y-85401657D02*
X131941979Y-85477847D01*
X131941979Y-85477847D02*
X131941979Y-85896895D01*
X131941979Y-85477847D02*
X131980074Y-85401657D01*
X131980074Y-85401657D02*
X132056265Y-85363561D01*
X132056265Y-85363561D02*
X132170550Y-85363561D01*
X132170550Y-85363561D02*
X132246741Y-85401657D01*
X132246741Y-85401657D02*
X132284836Y-85477847D01*
X132284836Y-85477847D02*
X132284836Y-85896895D01*
X132665789Y-85363561D02*
X132665789Y-86163561D01*
X132665789Y-85401657D02*
X132741979Y-85363561D01*
X132741979Y-85363561D02*
X132894360Y-85363561D01*
X132894360Y-85363561D02*
X132970551Y-85401657D01*
X132970551Y-85401657D02*
X133008646Y-85439752D01*
X133008646Y-85439752D02*
X133046741Y-85515942D01*
X133046741Y-85515942D02*
X133046741Y-85744514D01*
X133046741Y-85744514D02*
X133008646Y-85820704D01*
X133008646Y-85820704D02*
X132970551Y-85858800D01*
X132970551Y-85858800D02*
X132894360Y-85896895D01*
X132894360Y-85896895D02*
X132741979Y-85896895D01*
X132741979Y-85896895D02*
X132665789Y-85858800D01*
X126699122Y-81858800D02*
X126622931Y-81896895D01*
X126622931Y-81896895D02*
X126470550Y-81896895D01*
X126470550Y-81896895D02*
X126394360Y-81858800D01*
X126394360Y-81858800D02*
X126356265Y-81820704D01*
X126356265Y-81820704D02*
X126318169Y-81744514D01*
X126318169Y-81744514D02*
X126318169Y-81515942D01*
X126318169Y-81515942D02*
X126356265Y-81439752D01*
X126356265Y-81439752D02*
X126394360Y-81401657D01*
X126394360Y-81401657D02*
X126470550Y-81363561D01*
X126470550Y-81363561D02*
X126622931Y-81363561D01*
X126622931Y-81363561D02*
X126699122Y-81401657D01*
X127156264Y-81896895D02*
X127080074Y-81858800D01*
X127080074Y-81858800D02*
X127041979Y-81820704D01*
X127041979Y-81820704D02*
X127003883Y-81744514D01*
X127003883Y-81744514D02*
X127003883Y-81515942D01*
X127003883Y-81515942D02*
X127041979Y-81439752D01*
X127041979Y-81439752D02*
X127080074Y-81401657D01*
X127080074Y-81401657D02*
X127156264Y-81363561D01*
X127156264Y-81363561D02*
X127270550Y-81363561D01*
X127270550Y-81363561D02*
X127346741Y-81401657D01*
X127346741Y-81401657D02*
X127384836Y-81439752D01*
X127384836Y-81439752D02*
X127422931Y-81515942D01*
X127422931Y-81515942D02*
X127422931Y-81744514D01*
X127422931Y-81744514D02*
X127384836Y-81820704D01*
X127384836Y-81820704D02*
X127346741Y-81858800D01*
X127346741Y-81858800D02*
X127270550Y-81896895D01*
X127270550Y-81896895D02*
X127156264Y-81896895D01*
X127765789Y-81896895D02*
X127765789Y-81363561D01*
X127765789Y-81439752D02*
X127803884Y-81401657D01*
X127803884Y-81401657D02*
X127880074Y-81363561D01*
X127880074Y-81363561D02*
X127994360Y-81363561D01*
X127994360Y-81363561D02*
X128070551Y-81401657D01*
X128070551Y-81401657D02*
X128108646Y-81477847D01*
X128108646Y-81477847D02*
X128108646Y-81896895D01*
X128108646Y-81477847D02*
X128146741Y-81401657D01*
X128146741Y-81401657D02*
X128222932Y-81363561D01*
X128222932Y-81363561D02*
X128337217Y-81363561D01*
X128337217Y-81363561D02*
X128413408Y-81401657D01*
X128413408Y-81401657D02*
X128451503Y-81477847D01*
X128451503Y-81477847D02*
X128451503Y-81896895D01*
X128832456Y-81363561D02*
X128832456Y-82163561D01*
X128832456Y-81401657D02*
X128908646Y-81363561D01*
X128908646Y-81363561D02*
X129061027Y-81363561D01*
X129061027Y-81363561D02*
X129137218Y-81401657D01*
X129137218Y-81401657D02*
X129175313Y-81439752D01*
X129175313Y-81439752D02*
X129213408Y-81515942D01*
X129213408Y-81515942D02*
X129213408Y-81744514D01*
X129213408Y-81744514D02*
X129175313Y-81820704D01*
X129175313Y-81820704D02*
X129137218Y-81858800D01*
X129137218Y-81858800D02*
X129061027Y-81896895D01*
X129061027Y-81896895D02*
X128908646Y-81896895D01*
X128908646Y-81896895D02*
X128832456Y-81858800D01*
D10*
X157267850Y-76669819D02*
X157077374Y-76669819D01*
X157077374Y-76669819D02*
X156982136Y-76717438D01*
X156982136Y-76717438D02*
X156934517Y-76765057D01*
X156934517Y-76765057D02*
X156839279Y-76907914D01*
X156839279Y-76907914D02*
X156791660Y-77098390D01*
X156791660Y-77098390D02*
X156791660Y-77479342D01*
X156791660Y-77479342D02*
X156839279Y-77574580D01*
X156839279Y-77574580D02*
X156886898Y-77622200D01*
X156886898Y-77622200D02*
X156982136Y-77669819D01*
X156982136Y-77669819D02*
X157172612Y-77669819D01*
X157172612Y-77669819D02*
X157267850Y-77622200D01*
X157267850Y-77622200D02*
X157315469Y-77574580D01*
X157315469Y-77574580D02*
X157363088Y-77479342D01*
X157363088Y-77479342D02*
X157363088Y-77241247D01*
X157363088Y-77241247D02*
X157315469Y-77146009D01*
X157315469Y-77146009D02*
X157267850Y-77098390D01*
X157267850Y-77098390D02*
X157172612Y-77050771D01*
X157172612Y-77050771D02*
X156982136Y-77050771D01*
X156982136Y-77050771D02*
X156886898Y-77098390D01*
X156886898Y-77098390D02*
X156839279Y-77146009D01*
X156839279Y-77146009D02*
X156791660Y-77241247D01*
X157648803Y-76669819D02*
X157982136Y-77669819D01*
X157982136Y-77669819D02*
X158315469Y-76669819D01*
X157315469Y-74669819D02*
X156839279Y-74669819D01*
X156839279Y-74669819D02*
X156791660Y-75146009D01*
X156791660Y-75146009D02*
X156839279Y-75098390D01*
X156839279Y-75098390D02*
X156934517Y-75050771D01*
X156934517Y-75050771D02*
X157172612Y-75050771D01*
X157172612Y-75050771D02*
X157267850Y-75098390D01*
X157267850Y-75098390D02*
X157315469Y-75146009D01*
X157315469Y-75146009D02*
X157363088Y-75241247D01*
X157363088Y-75241247D02*
X157363088Y-75479342D01*
X157363088Y-75479342D02*
X157315469Y-75574580D01*
X157315469Y-75574580D02*
X157267850Y-75622200D01*
X157267850Y-75622200D02*
X157172612Y-75669819D01*
X157172612Y-75669819D02*
X156934517Y-75669819D01*
X156934517Y-75669819D02*
X156839279Y-75622200D01*
X156839279Y-75622200D02*
X156791660Y-75574580D01*
X157648803Y-74669819D02*
X157982136Y-75669819D01*
X157982136Y-75669819D02*
X158315469Y-74669819D01*
X156744041Y-72869819D02*
X157363088Y-72869819D01*
X157363088Y-72869819D02*
X157029755Y-73250771D01*
X157029755Y-73250771D02*
X157172612Y-73250771D01*
X157172612Y-73250771D02*
X157267850Y-73298390D01*
X157267850Y-73298390D02*
X157315469Y-73346009D01*
X157315469Y-73346009D02*
X157363088Y-73441247D01*
X157363088Y-73441247D02*
X157363088Y-73679342D01*
X157363088Y-73679342D02*
X157315469Y-73774580D01*
X157315469Y-73774580D02*
X157267850Y-73822200D01*
X157267850Y-73822200D02*
X157172612Y-73869819D01*
X157172612Y-73869819D02*
X156886898Y-73869819D01*
X156886898Y-73869819D02*
X156791660Y-73822200D01*
X156791660Y-73822200D02*
X156744041Y-73774580D01*
X157648803Y-72869819D02*
X157982136Y-73869819D01*
X157982136Y-73869819D02*
X158315469Y-72869819D01*
D11*
X162177812Y-71334990D02*
X162101622Y-71296895D01*
X162101622Y-71296895D02*
X161987336Y-71296895D01*
X161987336Y-71296895D02*
X161873050Y-71334990D01*
X161873050Y-71334990D02*
X161796860Y-71411180D01*
X161796860Y-71411180D02*
X161758765Y-71487371D01*
X161758765Y-71487371D02*
X161720669Y-71639752D01*
X161720669Y-71639752D02*
X161720669Y-71754038D01*
X161720669Y-71754038D02*
X161758765Y-71906419D01*
X161758765Y-71906419D02*
X161796860Y-71982609D01*
X161796860Y-71982609D02*
X161873050Y-72058800D01*
X161873050Y-72058800D02*
X161987336Y-72096895D01*
X161987336Y-72096895D02*
X162063527Y-72096895D01*
X162063527Y-72096895D02*
X162177812Y-72058800D01*
X162177812Y-72058800D02*
X162215908Y-72020704D01*
X162215908Y-72020704D02*
X162215908Y-71754038D01*
X162215908Y-71754038D02*
X162063527Y-71754038D01*
X157958765Y-72096895D02*
X157958765Y-71296895D01*
X157958765Y-71296895D02*
X158415908Y-72096895D01*
X158415908Y-72096895D02*
X158415908Y-71296895D01*
X159254003Y-72096895D02*
X158987336Y-71715942D01*
X158796860Y-72096895D02*
X158796860Y-71296895D01*
X158796860Y-71296895D02*
X159101622Y-71296895D01*
X159101622Y-71296895D02*
X159177812Y-71334990D01*
X159177812Y-71334990D02*
X159215907Y-71373085D01*
X159215907Y-71373085D02*
X159254003Y-71449276D01*
X159254003Y-71449276D02*
X159254003Y-71563561D01*
X159254003Y-71563561D02*
X159215907Y-71639752D01*
X159215907Y-71639752D02*
X159177812Y-71677847D01*
X159177812Y-71677847D02*
X159101622Y-71715942D01*
X159101622Y-71715942D02*
X158796860Y-71715942D01*
X159558764Y-72058800D02*
X159673050Y-72096895D01*
X159673050Y-72096895D02*
X159863526Y-72096895D01*
X159863526Y-72096895D02*
X159939717Y-72058800D01*
X159939717Y-72058800D02*
X159977812Y-72020704D01*
X159977812Y-72020704D02*
X160015907Y-71944514D01*
X160015907Y-71944514D02*
X160015907Y-71868323D01*
X160015907Y-71868323D02*
X159977812Y-71792133D01*
X159977812Y-71792133D02*
X159939717Y-71754038D01*
X159939717Y-71754038D02*
X159863526Y-71715942D01*
X159863526Y-71715942D02*
X159711145Y-71677847D01*
X159711145Y-71677847D02*
X159634955Y-71639752D01*
X159634955Y-71639752D02*
X159596860Y-71601657D01*
X159596860Y-71601657D02*
X159558764Y-71525466D01*
X159558764Y-71525466D02*
X159558764Y-71449276D01*
X159558764Y-71449276D02*
X159596860Y-71373085D01*
X159596860Y-71373085D02*
X159634955Y-71334990D01*
X159634955Y-71334990D02*
X159711145Y-71296895D01*
X159711145Y-71296895D02*
X159901622Y-71296895D01*
X159901622Y-71296895D02*
X160015907Y-71334990D01*
X160244479Y-71296895D02*
X160701622Y-71296895D01*
X160473050Y-72096895D02*
X160473050Y-71296895D01*
X161180074Y-62496895D02*
X161675312Y-62496895D01*
X161675312Y-62496895D02*
X161408646Y-62801657D01*
X161408646Y-62801657D02*
X161522931Y-62801657D01*
X161522931Y-62801657D02*
X161599122Y-62839752D01*
X161599122Y-62839752D02*
X161637217Y-62877847D01*
X161637217Y-62877847D02*
X161675312Y-62954038D01*
X161675312Y-62954038D02*
X161675312Y-63144514D01*
X161675312Y-63144514D02*
X161637217Y-63220704D01*
X161637217Y-63220704D02*
X161599122Y-63258800D01*
X161599122Y-63258800D02*
X161522931Y-63296895D01*
X161522931Y-63296895D02*
X161294360Y-63296895D01*
X161294360Y-63296895D02*
X161218169Y-63258800D01*
X161218169Y-63258800D02*
X161180074Y-63220704D01*
X161903884Y-62496895D02*
X162170551Y-63296895D01*
X162170551Y-63296895D02*
X162437217Y-62496895D01*
X157122931Y-62877847D02*
X157237217Y-62915942D01*
X157237217Y-62915942D02*
X157275312Y-62954038D01*
X157275312Y-62954038D02*
X157313408Y-63030228D01*
X157313408Y-63030228D02*
X157313408Y-63144514D01*
X157313408Y-63144514D02*
X157275312Y-63220704D01*
X157275312Y-63220704D02*
X157237217Y-63258800D01*
X157237217Y-63258800D02*
X157161027Y-63296895D01*
X157161027Y-63296895D02*
X156856265Y-63296895D01*
X156856265Y-63296895D02*
X156856265Y-62496895D01*
X156856265Y-62496895D02*
X157122931Y-62496895D01*
X157122931Y-62496895D02*
X157199122Y-62534990D01*
X157199122Y-62534990D02*
X157237217Y-62573085D01*
X157237217Y-62573085D02*
X157275312Y-62649276D01*
X157275312Y-62649276D02*
X157275312Y-62725466D01*
X157275312Y-62725466D02*
X157237217Y-62801657D01*
X157237217Y-62801657D02*
X157199122Y-62839752D01*
X157199122Y-62839752D02*
X157122931Y-62877847D01*
X157122931Y-62877847D02*
X156856265Y-62877847D01*
X157808646Y-62496895D02*
X157961027Y-62496895D01*
X157961027Y-62496895D02*
X158037217Y-62534990D01*
X158037217Y-62534990D02*
X158113408Y-62611180D01*
X158113408Y-62611180D02*
X158151503Y-62763561D01*
X158151503Y-62763561D02*
X158151503Y-63030228D01*
X158151503Y-63030228D02*
X158113408Y-63182609D01*
X158113408Y-63182609D02*
X158037217Y-63258800D01*
X158037217Y-63258800D02*
X157961027Y-63296895D01*
X157961027Y-63296895D02*
X157808646Y-63296895D01*
X157808646Y-63296895D02*
X157732455Y-63258800D01*
X157732455Y-63258800D02*
X157656265Y-63182609D01*
X157656265Y-63182609D02*
X157618169Y-63030228D01*
X157618169Y-63030228D02*
X157618169Y-62763561D01*
X157618169Y-62763561D02*
X157656265Y-62611180D01*
X157656265Y-62611180D02*
X157732455Y-62534990D01*
X157732455Y-62534990D02*
X157808646Y-62496895D01*
X158646741Y-62496895D02*
X158799122Y-62496895D01*
X158799122Y-62496895D02*
X158875312Y-62534990D01*
X158875312Y-62534990D02*
X158951503Y-62611180D01*
X158951503Y-62611180D02*
X158989598Y-62763561D01*
X158989598Y-62763561D02*
X158989598Y-63030228D01*
X158989598Y-63030228D02*
X158951503Y-63182609D01*
X158951503Y-63182609D02*
X158875312Y-63258800D01*
X158875312Y-63258800D02*
X158799122Y-63296895D01*
X158799122Y-63296895D02*
X158646741Y-63296895D01*
X158646741Y-63296895D02*
X158570550Y-63258800D01*
X158570550Y-63258800D02*
X158494360Y-63182609D01*
X158494360Y-63182609D02*
X158456264Y-63030228D01*
X158456264Y-63030228D02*
X158456264Y-62763561D01*
X158456264Y-62763561D02*
X158494360Y-62611180D01*
X158494360Y-62611180D02*
X158570550Y-62534990D01*
X158570550Y-62534990D02*
X158646741Y-62496895D01*
X159218169Y-62496895D02*
X159675312Y-62496895D01*
X159446740Y-63296895D02*
X159446740Y-62496895D01*
X160094360Y-62496895D02*
X160170550Y-62496895D01*
X160170550Y-62496895D02*
X160246741Y-62534990D01*
X160246741Y-62534990D02*
X160284836Y-62573085D01*
X160284836Y-62573085D02*
X160322931Y-62649276D01*
X160322931Y-62649276D02*
X160361026Y-62801657D01*
X160361026Y-62801657D02*
X160361026Y-62992133D01*
X160361026Y-62992133D02*
X160322931Y-63144514D01*
X160322931Y-63144514D02*
X160284836Y-63220704D01*
X160284836Y-63220704D02*
X160246741Y-63258800D01*
X160246741Y-63258800D02*
X160170550Y-63296895D01*
X160170550Y-63296895D02*
X160094360Y-63296895D01*
X160094360Y-63296895D02*
X160018169Y-63258800D01*
X160018169Y-63258800D02*
X159980074Y-63220704D01*
X159980074Y-63220704D02*
X159941979Y-63144514D01*
X159941979Y-63144514D02*
X159903883Y-62992133D01*
X159903883Y-62992133D02*
X159903883Y-62801657D01*
X159903883Y-62801657D02*
X159941979Y-62649276D01*
X159941979Y-62649276D02*
X159980074Y-62573085D01*
X159980074Y-62573085D02*
X160018169Y-62534990D01*
X160018169Y-62534990D02*
X160094360Y-62496895D01*
D12*
X120616415Y-43949161D02*
X120521177Y-44044400D01*
X120521177Y-44044400D02*
X120235463Y-44139638D01*
X120235463Y-44139638D02*
X120044987Y-44139638D01*
X120044987Y-44139638D02*
X119759272Y-44044400D01*
X119759272Y-44044400D02*
X119568796Y-43853923D01*
X119568796Y-43853923D02*
X119473558Y-43663447D01*
X119473558Y-43663447D02*
X119378320Y-43282495D01*
X119378320Y-43282495D02*
X119378320Y-42996780D01*
X119378320Y-42996780D02*
X119473558Y-42615828D01*
X119473558Y-42615828D02*
X119568796Y-42425352D01*
X119568796Y-42425352D02*
X119759272Y-42234876D01*
X119759272Y-42234876D02*
X120044987Y-42139638D01*
X120044987Y-42139638D02*
X120235463Y-42139638D01*
X120235463Y-42139638D02*
X120521177Y-42234876D01*
X120521177Y-42234876D02*
X120616415Y-42330114D01*
X120330701Y-39539638D02*
X119949748Y-39539638D01*
X119949748Y-39539638D02*
X119759272Y-39634876D01*
X119759272Y-39634876D02*
X119664034Y-39730114D01*
X119664034Y-39730114D02*
X119473558Y-40015828D01*
X119473558Y-40015828D02*
X119378320Y-40396780D01*
X119378320Y-40396780D02*
X119378320Y-41158685D01*
X119378320Y-41158685D02*
X119473558Y-41349161D01*
X119473558Y-41349161D02*
X119568796Y-41444400D01*
X119568796Y-41444400D02*
X119759272Y-41539638D01*
X119759272Y-41539638D02*
X120140225Y-41539638D01*
X120140225Y-41539638D02*
X120330701Y-41444400D01*
X120330701Y-41444400D02*
X120425939Y-41349161D01*
X120425939Y-41349161D02*
X120521177Y-41158685D01*
X120521177Y-41158685D02*
X120521177Y-40682495D01*
X120521177Y-40682495D02*
X120425939Y-40492019D01*
X120425939Y-40492019D02*
X120330701Y-40396780D01*
X120330701Y-40396780D02*
X120140225Y-40301542D01*
X120140225Y-40301542D02*
X119759272Y-40301542D01*
X119759272Y-40301542D02*
X119568796Y-40396780D01*
X119568796Y-40396780D02*
X119473558Y-40492019D01*
X119473558Y-40492019D02*
X119378320Y-40682495D01*
D11*
X164400000Y-41800000D02*
X164400000Y-39200000D01*
X118800000Y-39200000D02*
X121000000Y-39200000D01*
X121000000Y-41800000D01*
X118800000Y-41800000D01*
X118800000Y-39200000D01*
X118800000Y-41800000D02*
X121000000Y-41800000D01*
X121000000Y-44400000D01*
X118800000Y-44400000D01*
X118800000Y-41800000D01*
X121000000Y-41800000D02*
X164400000Y-41800000D01*
X164400000Y-44400000D01*
X121000000Y-44400000D01*
X121000000Y-41800000D01*
G36*
X121000000Y-41800000D02*
G01*
X164400000Y-41800000D01*
X164400000Y-44400000D01*
X121000000Y-44400000D01*
X121000000Y-41800000D01*
G37*
D12*
X120521177Y-37034876D02*
X120330701Y-36939638D01*
X120330701Y-36939638D02*
X120044987Y-36939638D01*
X120044987Y-36939638D02*
X119759272Y-37034876D01*
X119759272Y-37034876D02*
X119568796Y-37225352D01*
X119568796Y-37225352D02*
X119473558Y-37415828D01*
X119473558Y-37415828D02*
X119378320Y-37796780D01*
X119378320Y-37796780D02*
X119378320Y-38082495D01*
X119378320Y-38082495D02*
X119473558Y-38463447D01*
X119473558Y-38463447D02*
X119568796Y-38653923D01*
X119568796Y-38653923D02*
X119759272Y-38844400D01*
X119759272Y-38844400D02*
X120044987Y-38939638D01*
X120044987Y-38939638D02*
X120235463Y-38939638D01*
X120235463Y-38939638D02*
X120521177Y-38844400D01*
X120521177Y-38844400D02*
X120616415Y-38749161D01*
X120616415Y-38749161D02*
X120616415Y-38082495D01*
X120616415Y-38082495D02*
X120235463Y-38082495D01*
D11*
X118800000Y-36400000D02*
X121000000Y-36400000D01*
X121000000Y-39200000D01*
X118800000Y-39200000D01*
X118800000Y-36400000D01*
X121000000Y-36400000D02*
X164400000Y-36400000D01*
X164400000Y-39200000D01*
X121000000Y-39200000D01*
X121000000Y-36400000D01*
G36*
X121000000Y-36400000D02*
G01*
X164400000Y-36400000D01*
X164400000Y-39200000D01*
X121000000Y-39200000D01*
X121000000Y-36400000D01*
G37*
D10*
X122539411Y-44730180D02*
X123110839Y-44730180D01*
X122825125Y-44730180D02*
X122825125Y-45730180D01*
X122825125Y-45730180D02*
X122920363Y-45587323D01*
X122920363Y-45587323D02*
X123015601Y-45492085D01*
X123015601Y-45492085D02*
X123110839Y-45444466D01*
X121682268Y-45730180D02*
X121872744Y-45730180D01*
X121872744Y-45730180D02*
X121967982Y-45682561D01*
X121967982Y-45682561D02*
X122015601Y-45634942D01*
X122015601Y-45634942D02*
X122110839Y-45492085D01*
X122110839Y-45492085D02*
X122158458Y-45301609D01*
X122158458Y-45301609D02*
X122158458Y-44920657D01*
X122158458Y-44920657D02*
X122110839Y-44825419D01*
X122110839Y-44825419D02*
X122063220Y-44777800D01*
X122063220Y-44777800D02*
X121967982Y-44730180D01*
X121967982Y-44730180D02*
X121777506Y-44730180D01*
X121777506Y-44730180D02*
X121682268Y-44777800D01*
X121682268Y-44777800D02*
X121634649Y-44825419D01*
X121634649Y-44825419D02*
X121587030Y-44920657D01*
X121587030Y-44920657D02*
X121587030Y-45158752D01*
X121587030Y-45158752D02*
X121634649Y-45253990D01*
X121634649Y-45253990D02*
X121682268Y-45301609D01*
X121682268Y-45301609D02*
X121777506Y-45349228D01*
X121777506Y-45349228D02*
X121967982Y-45349228D01*
X121967982Y-45349228D02*
X122063220Y-45301609D01*
X122063220Y-45301609D02*
X122110839Y-45253990D01*
X122110839Y-45253990D02*
X122158458Y-45158752D01*
X127739411Y-44730180D02*
X128310839Y-44730180D01*
X128025125Y-44730180D02*
X128025125Y-45730180D01*
X128025125Y-45730180D02*
X128120363Y-45587323D01*
X128120363Y-45587323D02*
X128215601Y-45492085D01*
X128215601Y-45492085D02*
X128310839Y-45444466D01*
X126882268Y-45396847D02*
X126882268Y-44730180D01*
X127120363Y-45777800D02*
X127358458Y-45063514D01*
X127358458Y-45063514D02*
X126739411Y-45063514D01*
X130339411Y-44730180D02*
X130910839Y-44730180D01*
X130625125Y-44730180D02*
X130625125Y-45730180D01*
X130625125Y-45730180D02*
X130720363Y-45587323D01*
X130720363Y-45587323D02*
X130815601Y-45492085D01*
X130815601Y-45492085D02*
X130910839Y-45444466D01*
X130006077Y-45730180D02*
X129387030Y-45730180D01*
X129387030Y-45730180D02*
X129720363Y-45349228D01*
X129720363Y-45349228D02*
X129577506Y-45349228D01*
X129577506Y-45349228D02*
X129482268Y-45301609D01*
X129482268Y-45301609D02*
X129434649Y-45253990D01*
X129434649Y-45253990D02*
X129387030Y-45158752D01*
X129387030Y-45158752D02*
X129387030Y-44920657D01*
X129387030Y-44920657D02*
X129434649Y-44825419D01*
X129434649Y-44825419D02*
X129482268Y-44777800D01*
X129482268Y-44777800D02*
X129577506Y-44730180D01*
X129577506Y-44730180D02*
X129863220Y-44730180D01*
X129863220Y-44730180D02*
X129958458Y-44777800D01*
X129958458Y-44777800D02*
X130006077Y-44825419D01*
X133539411Y-44730180D02*
X134110839Y-44730180D01*
X133825125Y-44730180D02*
X133825125Y-45730180D01*
X133825125Y-45730180D02*
X133920363Y-45587323D01*
X133920363Y-45587323D02*
X134015601Y-45492085D01*
X134015601Y-45492085D02*
X134110839Y-45444466D01*
X133158458Y-45634942D02*
X133110839Y-45682561D01*
X133110839Y-45682561D02*
X133015601Y-45730180D01*
X133015601Y-45730180D02*
X132777506Y-45730180D01*
X132777506Y-45730180D02*
X132682268Y-45682561D01*
X132682268Y-45682561D02*
X132634649Y-45634942D01*
X132634649Y-45634942D02*
X132587030Y-45539704D01*
X132587030Y-45539704D02*
X132587030Y-45444466D01*
X132587030Y-45444466D02*
X132634649Y-45301609D01*
X132634649Y-45301609D02*
X133206077Y-44730180D01*
X133206077Y-44730180D02*
X132587030Y-44730180D01*
X136139411Y-44730180D02*
X136710839Y-44730180D01*
X136425125Y-44730180D02*
X136425125Y-45730180D01*
X136425125Y-45730180D02*
X136520363Y-45587323D01*
X136520363Y-45587323D02*
X136615601Y-45492085D01*
X136615601Y-45492085D02*
X136710839Y-45444466D01*
X135187030Y-44730180D02*
X135758458Y-44730180D01*
X135472744Y-44730180D02*
X135472744Y-45730180D01*
X135472744Y-45730180D02*
X135567982Y-45587323D01*
X135567982Y-45587323D02*
X135663220Y-45492085D01*
X135663220Y-45492085D02*
X135758458Y-45444466D01*
X138739411Y-44730180D02*
X139310839Y-44730180D01*
X139025125Y-44730180D02*
X139025125Y-45730180D01*
X139025125Y-45730180D02*
X139120363Y-45587323D01*
X139120363Y-45587323D02*
X139215601Y-45492085D01*
X139215601Y-45492085D02*
X139310839Y-45444466D01*
X138120363Y-45730180D02*
X138025125Y-45730180D01*
X138025125Y-45730180D02*
X137929887Y-45682561D01*
X137929887Y-45682561D02*
X137882268Y-45634942D01*
X137882268Y-45634942D02*
X137834649Y-45539704D01*
X137834649Y-45539704D02*
X137787030Y-45349228D01*
X137787030Y-45349228D02*
X137787030Y-45111133D01*
X137787030Y-45111133D02*
X137834649Y-44920657D01*
X137834649Y-44920657D02*
X137882268Y-44825419D01*
X137882268Y-44825419D02*
X137929887Y-44777800D01*
X137929887Y-44777800D02*
X138025125Y-44730180D01*
X138025125Y-44730180D02*
X138120363Y-44730180D01*
X138120363Y-44730180D02*
X138215601Y-44777800D01*
X138215601Y-44777800D02*
X138263220Y-44825419D01*
X138263220Y-44825419D02*
X138310839Y-44920657D01*
X138310839Y-44920657D02*
X138358458Y-45111133D01*
X138358458Y-45111133D02*
X138358458Y-45349228D01*
X138358458Y-45349228D02*
X138310839Y-45539704D01*
X138310839Y-45539704D02*
X138263220Y-45634942D01*
X138263220Y-45634942D02*
X138215601Y-45682561D01*
X138215601Y-45682561D02*
X138120363Y-45730180D01*
X141215601Y-44730180D02*
X141025125Y-44730180D01*
X141025125Y-44730180D02*
X140929887Y-44777800D01*
X140929887Y-44777800D02*
X140882268Y-44825419D01*
X140882268Y-44825419D02*
X140787030Y-44968276D01*
X140787030Y-44968276D02*
X140739411Y-45158752D01*
X140739411Y-45158752D02*
X140739411Y-45539704D01*
X140739411Y-45539704D02*
X140787030Y-45634942D01*
X140787030Y-45634942D02*
X140834649Y-45682561D01*
X140834649Y-45682561D02*
X140929887Y-45730180D01*
X140929887Y-45730180D02*
X141120363Y-45730180D01*
X141120363Y-45730180D02*
X141215601Y-45682561D01*
X141215601Y-45682561D02*
X141263220Y-45634942D01*
X141263220Y-45634942D02*
X141310839Y-45539704D01*
X141310839Y-45539704D02*
X141310839Y-45301609D01*
X141310839Y-45301609D02*
X141263220Y-45206371D01*
X141263220Y-45206371D02*
X141215601Y-45158752D01*
X141215601Y-45158752D02*
X141120363Y-45111133D01*
X141120363Y-45111133D02*
X140929887Y-45111133D01*
X140929887Y-45111133D02*
X140834649Y-45158752D01*
X140834649Y-45158752D02*
X140787030Y-45206371D01*
X140787030Y-45206371D02*
X140739411Y-45301609D01*
X144520363Y-45301609D02*
X144615601Y-45349228D01*
X144615601Y-45349228D02*
X144663220Y-45396847D01*
X144663220Y-45396847D02*
X144710839Y-45492085D01*
X144710839Y-45492085D02*
X144710839Y-45539704D01*
X144710839Y-45539704D02*
X144663220Y-45634942D01*
X144663220Y-45634942D02*
X144615601Y-45682561D01*
X144615601Y-45682561D02*
X144520363Y-45730180D01*
X144520363Y-45730180D02*
X144329887Y-45730180D01*
X144329887Y-45730180D02*
X144234649Y-45682561D01*
X144234649Y-45682561D02*
X144187030Y-45634942D01*
X144187030Y-45634942D02*
X144139411Y-45539704D01*
X144139411Y-45539704D02*
X144139411Y-45492085D01*
X144139411Y-45492085D02*
X144187030Y-45396847D01*
X144187030Y-45396847D02*
X144234649Y-45349228D01*
X144234649Y-45349228D02*
X144329887Y-45301609D01*
X144329887Y-45301609D02*
X144520363Y-45301609D01*
X144520363Y-45301609D02*
X144615601Y-45253990D01*
X144615601Y-45253990D02*
X144663220Y-45206371D01*
X144663220Y-45206371D02*
X144710839Y-45111133D01*
X144710839Y-45111133D02*
X144710839Y-44920657D01*
X144710839Y-44920657D02*
X144663220Y-44825419D01*
X144663220Y-44825419D02*
X144615601Y-44777800D01*
X144615601Y-44777800D02*
X144520363Y-44730180D01*
X144520363Y-44730180D02*
X144329887Y-44730180D01*
X144329887Y-44730180D02*
X144234649Y-44777800D01*
X144234649Y-44777800D02*
X144187030Y-44825419D01*
X144187030Y-44825419D02*
X144139411Y-44920657D01*
X144139411Y-44920657D02*
X144139411Y-45111133D01*
X144139411Y-45111133D02*
X144187030Y-45206371D01*
X144187030Y-45206371D02*
X144234649Y-45253990D01*
X144234649Y-45253990D02*
X144329887Y-45301609D01*
X147158458Y-45730180D02*
X146491792Y-45730180D01*
X146491792Y-45730180D02*
X146920363Y-44730180D01*
X149234649Y-45730180D02*
X149425125Y-45730180D01*
X149425125Y-45730180D02*
X149520363Y-45682561D01*
X149520363Y-45682561D02*
X149567982Y-45634942D01*
X149567982Y-45634942D02*
X149663220Y-45492085D01*
X149663220Y-45492085D02*
X149710839Y-45301609D01*
X149710839Y-45301609D02*
X149710839Y-44920657D01*
X149710839Y-44920657D02*
X149663220Y-44825419D01*
X149663220Y-44825419D02*
X149615601Y-44777800D01*
X149615601Y-44777800D02*
X149520363Y-44730180D01*
X149520363Y-44730180D02*
X149329887Y-44730180D01*
X149329887Y-44730180D02*
X149234649Y-44777800D01*
X149234649Y-44777800D02*
X149187030Y-44825419D01*
X149187030Y-44825419D02*
X149139411Y-44920657D01*
X149139411Y-44920657D02*
X149139411Y-45158752D01*
X149139411Y-45158752D02*
X149187030Y-45253990D01*
X149187030Y-45253990D02*
X149234649Y-45301609D01*
X149234649Y-45301609D02*
X149329887Y-45349228D01*
X149329887Y-45349228D02*
X149520363Y-45349228D01*
X149520363Y-45349228D02*
X149615601Y-45301609D01*
X149615601Y-45301609D02*
X149663220Y-45253990D01*
X149663220Y-45253990D02*
X149710839Y-45158752D01*
X151787030Y-45730180D02*
X152263220Y-45730180D01*
X152263220Y-45730180D02*
X152310839Y-45253990D01*
X152310839Y-45253990D02*
X152263220Y-45301609D01*
X152263220Y-45301609D02*
X152167982Y-45349228D01*
X152167982Y-45349228D02*
X151929887Y-45349228D01*
X151929887Y-45349228D02*
X151834649Y-45301609D01*
X151834649Y-45301609D02*
X151787030Y-45253990D01*
X151787030Y-45253990D02*
X151739411Y-45158752D01*
X151739411Y-45158752D02*
X151739411Y-44920657D01*
X151739411Y-44920657D02*
X151787030Y-44825419D01*
X151787030Y-44825419D02*
X151834649Y-44777800D01*
X151834649Y-44777800D02*
X151929887Y-44730180D01*
X151929887Y-44730180D02*
X152167982Y-44730180D01*
X152167982Y-44730180D02*
X152263220Y-44777800D01*
X152263220Y-44777800D02*
X152310839Y-44825419D01*
X155234649Y-45396847D02*
X155234649Y-44730180D01*
X155472744Y-45777800D02*
X155710839Y-45063514D01*
X155710839Y-45063514D02*
X155091792Y-45063514D01*
X158358458Y-45730180D02*
X157739411Y-45730180D01*
X157739411Y-45730180D02*
X158072744Y-45349228D01*
X158072744Y-45349228D02*
X157929887Y-45349228D01*
X157929887Y-45349228D02*
X157834649Y-45301609D01*
X157834649Y-45301609D02*
X157787030Y-45253990D01*
X157787030Y-45253990D02*
X157739411Y-45158752D01*
X157739411Y-45158752D02*
X157739411Y-44920657D01*
X157739411Y-44920657D02*
X157787030Y-44825419D01*
X157787030Y-44825419D02*
X157834649Y-44777800D01*
X157834649Y-44777800D02*
X157929887Y-44730180D01*
X157929887Y-44730180D02*
X158215601Y-44730180D01*
X158215601Y-44730180D02*
X158310839Y-44777800D01*
X158310839Y-44777800D02*
X158358458Y-44825419D01*
X160910839Y-45634942D02*
X160863220Y-45682561D01*
X160863220Y-45682561D02*
X160767982Y-45730180D01*
X160767982Y-45730180D02*
X160529887Y-45730180D01*
X160529887Y-45730180D02*
X160434649Y-45682561D01*
X160434649Y-45682561D02*
X160387030Y-45634942D01*
X160387030Y-45634942D02*
X160339411Y-45539704D01*
X160339411Y-45539704D02*
X160339411Y-45444466D01*
X160339411Y-45444466D02*
X160387030Y-45301609D01*
X160387030Y-45301609D02*
X160958458Y-44730180D01*
X160958458Y-44730180D02*
X160339411Y-44730180D01*
X162739411Y-44730180D02*
X163310839Y-44730180D01*
X163025125Y-44730180D02*
X163025125Y-45730180D01*
X163025125Y-45730180D02*
X163120363Y-45587323D01*
X163120363Y-45587323D02*
X163215601Y-45492085D01*
X163215601Y-45492085D02*
X163310839Y-45444466D01*
X125139411Y-44730180D02*
X125710839Y-44730180D01*
X125425125Y-44730180D02*
X125425125Y-45730180D01*
X125425125Y-45730180D02*
X125520363Y-45587323D01*
X125520363Y-45587323D02*
X125615601Y-45492085D01*
X125615601Y-45492085D02*
X125710839Y-45444466D01*
X124234649Y-45730180D02*
X124710839Y-45730180D01*
X124710839Y-45730180D02*
X124758458Y-45253990D01*
X124758458Y-45253990D02*
X124710839Y-45301609D01*
X124710839Y-45301609D02*
X124615601Y-45349228D01*
X124615601Y-45349228D02*
X124377506Y-45349228D01*
X124377506Y-45349228D02*
X124282268Y-45301609D01*
X124282268Y-45301609D02*
X124234649Y-45253990D01*
X124234649Y-45253990D02*
X124187030Y-45158752D01*
X124187030Y-45158752D02*
X124187030Y-44920657D01*
X124187030Y-44920657D02*
X124234649Y-44825419D01*
X124234649Y-44825419D02*
X124282268Y-44777800D01*
X124282268Y-44777800D02*
X124377506Y-44730180D01*
X124377506Y-44730180D02*
X124615601Y-44730180D01*
X124615601Y-44730180D02*
X124710839Y-44777800D01*
X124710839Y-44777800D02*
X124758458Y-44825419D01*
D13*
%TO.C,D6*%
X139315000Y-50665000D02*
X139315000Y-52135000D01*
X139315000Y-52135000D02*
X141600000Y-52135000D01*
X141600000Y-50665000D02*
X139315000Y-50665000D01*
%TO.C,D5*%
X156265000Y-61985000D02*
X157735000Y-61985000D01*
X157735000Y-61985000D02*
X157735000Y-59700000D01*
X156265000Y-59700000D02*
X156265000Y-61985000D01*
%TO.C,TP20*%
X130900000Y-81600000D02*
G75*
G02*
X129500000Y-81600000I-700000J0D01*
G01*
X129500000Y-81600000D02*
G75*
G02*
X130900000Y-81600000I700000J0D01*
G01*
%TO.C,TP19*%
X129200000Y-77000000D02*
G75*
G02*
X127800000Y-77000000I-700000J0D01*
G01*
X127800000Y-77000000D02*
G75*
G02*
X129200000Y-77000000I700000J0D01*
G01*
%TO.C,TP17*%
X142800000Y-78500000D02*
G75*
G02*
X141400000Y-78500000I-700000J0D01*
G01*
X141400000Y-78500000D02*
G75*
G02*
X142800000Y-78500000I700000J0D01*
G01*
%TO.C,TP16*%
X139200000Y-78600000D02*
G75*
G02*
X137800000Y-78600000I-700000J0D01*
G01*
X137800000Y-78600000D02*
G75*
G02*
X139200000Y-78600000I700000J0D01*
G01*
%TO.C,TP14*%
X129100000Y-73800000D02*
G75*
G02*
X127700000Y-73800000I-700000J0D01*
G01*
X127700000Y-73800000D02*
G75*
G02*
X129100000Y-73800000I700000J0D01*
G01*
%TO.C,TP12*%
X141900000Y-83200000D02*
G75*
G02*
X140500000Y-83200000I-700000J0D01*
G01*
X140500000Y-83200000D02*
G75*
G02*
X141900000Y-83200000I700000J0D01*
G01*
%TO.C,TP11*%
X139500000Y-83200000D02*
G75*
G02*
X138100000Y-83200000I-700000J0D01*
G01*
X138100000Y-83200000D02*
G75*
G02*
X139500000Y-83200000I700000J0D01*
G01*
D11*
%TO.C,J6*%
X164000000Y-44000000D02*
X164000000Y-43000000D01*
X163000000Y-44000000D02*
X164000000Y-44000000D01*
%TO.C,J7*%
X153000000Y-44000000D02*
X153000000Y-43000000D01*
X152000000Y-44000000D02*
X153000000Y-44000000D01*
%TO.C,J8*%
X142000000Y-44000000D02*
X142000000Y-43000000D01*
X141000000Y-44000000D02*
X142000000Y-44000000D01*
%TO.C,J9*%
X131000000Y-44000000D02*
X131000000Y-43000000D01*
X130000000Y-44000000D02*
X131000000Y-44000000D01*
D13*
%TO.C,J4*%
X111995000Y-48720000D02*
X111995000Y-74240000D01*
X111995000Y-48720000D02*
X120625000Y-48720000D01*
X111995000Y-48840000D02*
X120625000Y-48840000D01*
X111995000Y-48958095D02*
X120625000Y-48958095D01*
X111995000Y-49076190D02*
X120625000Y-49076190D01*
X111995000Y-49194285D02*
X120625000Y-49194285D01*
X111995000Y-49312380D02*
X120625000Y-49312380D01*
X111995000Y-49430475D02*
X120625000Y-49430475D01*
X111995000Y-49548570D02*
X120625000Y-49548570D01*
X111995000Y-49666665D02*
X120625000Y-49666665D01*
X111995000Y-49784760D02*
X120625000Y-49784760D01*
X111995000Y-49902855D02*
X120625000Y-49902855D01*
X111995000Y-50020950D02*
X120625000Y-50020950D01*
X111995000Y-50139045D02*
X120625000Y-50139045D01*
X111995000Y-50257140D02*
X120625000Y-50257140D01*
X111995000Y-50375235D02*
X120625000Y-50375235D01*
X111995000Y-50493330D02*
X120625000Y-50493330D01*
X111995000Y-50611425D02*
X120625000Y-50611425D01*
X111995000Y-50729520D02*
X120625000Y-50729520D01*
X111995000Y-50847615D02*
X120625000Y-50847615D01*
X111995000Y-50965710D02*
X120625000Y-50965710D01*
X111995000Y-51083805D02*
X120625000Y-51083805D01*
X111995000Y-51201900D02*
X120625000Y-51201900D01*
X111995000Y-51320000D02*
X120625000Y-51320000D01*
X111995000Y-53860000D02*
X120625000Y-53860000D01*
X111995000Y-56400000D02*
X120625000Y-56400000D01*
X111995000Y-58940000D02*
X120625000Y-58940000D01*
X111995000Y-61480000D02*
X120625000Y-61480000D01*
X111995000Y-64020000D02*
X120625000Y-64020000D01*
X111995000Y-66560000D02*
X120625000Y-66560000D01*
X111995000Y-69100000D02*
X120625000Y-69100000D01*
X111995000Y-71640000D02*
X120625000Y-71640000D01*
X111995000Y-74240000D02*
X120625000Y-74240000D01*
X120625000Y-48720000D02*
X120625000Y-74240000D01*
X120625000Y-49690000D02*
X121035000Y-49690000D01*
X120625000Y-50410000D02*
X121035000Y-50410000D01*
X120625000Y-52230000D02*
X121035000Y-52230000D01*
X120625000Y-52950000D02*
X121035000Y-52950000D01*
X120625000Y-54770000D02*
X121035000Y-54770000D01*
X120625000Y-55490000D02*
X121035000Y-55490000D01*
X120625000Y-57310000D02*
X121035000Y-57310000D01*
X120625000Y-58030000D02*
X121035000Y-58030000D01*
X120625000Y-59850000D02*
X121035000Y-59850000D01*
X120625000Y-60570000D02*
X121035000Y-60570000D01*
X120625000Y-62390000D02*
X121035000Y-62390000D01*
X120625000Y-63110000D02*
X121035000Y-63110000D01*
X120625000Y-64930000D02*
X121035000Y-64930000D01*
X120625000Y-65650000D02*
X121035000Y-65650000D01*
X120625000Y-67470000D02*
X121035000Y-67470000D01*
X120625000Y-68190000D02*
X121035000Y-68190000D01*
X120625000Y-70010000D02*
X121035000Y-70010000D01*
X120625000Y-70730000D02*
X121035000Y-70730000D01*
X120625000Y-72550000D02*
X121035000Y-72550000D01*
X120625000Y-73270000D02*
X121035000Y-73270000D01*
X123135000Y-49690000D02*
X123515000Y-49690000D01*
X123135000Y-50410000D02*
X123515000Y-50410000D01*
X123135000Y-52230000D02*
X123575000Y-52230000D01*
X123135000Y-52950000D02*
X123575000Y-52950000D01*
X123135000Y-54770000D02*
X123575000Y-54770000D01*
X123135000Y-55490000D02*
X123575000Y-55490000D01*
X123135000Y-57310000D02*
X123575000Y-57310000D01*
X123135000Y-58030000D02*
X123575000Y-58030000D01*
X123135000Y-59850000D02*
X123575000Y-59850000D01*
X123135000Y-60570000D02*
X123575000Y-60570000D01*
X123135000Y-62390000D02*
X123575000Y-62390000D01*
X123135000Y-63110000D02*
X123575000Y-63110000D01*
X123135000Y-64930000D02*
X123575000Y-64930000D01*
X123135000Y-65650000D02*
X123575000Y-65650000D01*
X123135000Y-67470000D02*
X123575000Y-67470000D01*
X123135000Y-68190000D02*
X123575000Y-68190000D01*
X123135000Y-70010000D02*
X123575000Y-70010000D01*
X123135000Y-70730000D02*
X123575000Y-70730000D01*
X123135000Y-72550000D02*
X123575000Y-72550000D01*
X123135000Y-73270000D02*
X123575000Y-73270000D01*
X124625000Y-48720000D02*
X125735000Y-48720000D01*
X125735000Y-48720000D02*
X125735000Y-50050000D01*
%TO.C,C3*%
X148492164Y-60240000D02*
X148707836Y-60240000D01*
X148492164Y-60960000D02*
X148707836Y-60960000D01*
%TO.C,TP7*%
X154900000Y-63400000D02*
G75*
G02*
X153500000Y-63400000I-700000J0D01*
G01*
X153500000Y-63400000D02*
G75*
G02*
X154900000Y-63400000I700000J0D01*
G01*
%TO.C,C12*%
X146471920Y-57865000D02*
X146753080Y-57865000D01*
X146471920Y-58885000D02*
X146753080Y-58885000D01*
%TO.C,R5*%
X154020000Y-52846359D02*
X154020000Y-53153641D01*
X154780000Y-52846359D02*
X154780000Y-53153641D01*
%TO.C,C19*%
X137461252Y-54265000D02*
X136938748Y-54265000D01*
X137461252Y-55735000D02*
X136938748Y-55735000D01*
%TO.C,C20*%
X136940000Y-60207836D02*
X136940000Y-59992164D01*
X137660000Y-60207836D02*
X137660000Y-59992164D01*
%TO.C,U2*%
X146690000Y-46240000D02*
X146690000Y-46515000D01*
X146690000Y-56160000D02*
X146690000Y-55885000D01*
X149000000Y-46240000D02*
X146690000Y-46240000D01*
X149000000Y-46240000D02*
X151310000Y-46240000D01*
X149000000Y-56160000D02*
X146690000Y-56160000D01*
X149000000Y-56160000D02*
X151310000Y-56160000D01*
X151310000Y-46240000D02*
X151310000Y-46515000D01*
X151310000Y-56160000D02*
X151310000Y-55885000D01*
X152140000Y-56215000D02*
X151660000Y-56215000D01*
X151900000Y-55885000D01*
X152140000Y-56215000D01*
G36*
X152140000Y-56215000D02*
G01*
X151660000Y-56215000D01*
X151900000Y-55885000D01*
X152140000Y-56215000D01*
G37*
%TO.C,J2*%
X157730000Y-64070000D02*
X157730000Y-66730000D01*
X160330000Y-64070000D02*
X157730000Y-64070000D01*
X160330000Y-64070000D02*
X160330000Y-66730000D01*
X160330000Y-66730000D02*
X157730000Y-66730000D01*
X161600000Y-64070000D02*
X162930000Y-64070000D01*
X162930000Y-64070000D02*
X162930000Y-65400000D01*
%TO.C,R9*%
X140936359Y-60620000D02*
X141243641Y-60620000D01*
X140936359Y-61380000D02*
X141243641Y-61380000D01*
%TO.C,TP6*%
X132500000Y-84300000D02*
G75*
G02*
X131100000Y-84300000I-700000J0D01*
G01*
X131100000Y-84300000D02*
G75*
G02*
X132500000Y-84300000I700000J0D01*
G01*
%TO.C,U7*%
X133340000Y-59300000D02*
X133340000Y-58500000D01*
X133340000Y-59300000D02*
X133340000Y-60100000D01*
X136460000Y-59300000D02*
X136460000Y-58500000D01*
X136460000Y-59300000D02*
X136460000Y-60100000D01*
X136740000Y-58240000D02*
X136410000Y-58000000D01*
X136740000Y-57760000D01*
X136740000Y-58240000D01*
G36*
X136740000Y-58240000D02*
G01*
X136410000Y-58000000D01*
X136740000Y-57760000D01*
X136740000Y-58240000D01*
G37*
%TO.C,C9*%
X140840000Y-56692164D02*
X140840000Y-56907836D01*
X141560000Y-56692164D02*
X141560000Y-56907836D01*
%TO.C,R6*%
X162658859Y-77380000D02*
X162966141Y-77380000D01*
X162658859Y-76620000D02*
X162966141Y-76620000D01*
%TO.C,CIN2*%
X156110000Y-79606252D02*
X156110000Y-78183748D01*
X154290000Y-79606252D02*
X154290000Y-78183748D01*
%TO.C,R8*%
X141243641Y-59430000D02*
X140936359Y-59430000D01*
X141243641Y-60190000D02*
X140936359Y-60190000D01*
%TO.C,TP3*%
X157700000Y-50800000D02*
G75*
G02*
X156300000Y-50800000I-700000J0D01*
G01*
X156300000Y-50800000D02*
G75*
G02*
X157700000Y-50800000I700000J0D01*
G01*
%TO.C,J1*%
X157670000Y-70730000D02*
X157670000Y-69400000D01*
X159000000Y-70730000D02*
X157670000Y-70730000D01*
X160270000Y-68070000D02*
X162870000Y-68070000D01*
X160270000Y-70730000D02*
X160270000Y-68070000D01*
X160270000Y-70730000D02*
X162870000Y-70730000D01*
X162870000Y-70730000D02*
X162870000Y-68070000D01*
%TO.C,J3*%
X163630000Y-61170000D02*
X162500000Y-61170000D01*
X163630000Y-60410000D02*
X163630000Y-61170000D01*
X163630000Y-59650000D02*
X163630000Y-54635000D01*
X163630000Y-59650000D02*
X163063471Y-59650000D01*
X163630000Y-54635000D02*
X162807530Y-54635000D01*
X162192470Y-54635000D02*
X161537530Y-54635000D01*
X161936529Y-59650000D02*
X161793471Y-59650000D01*
X161740000Y-61105000D02*
X161537530Y-61105000D01*
X161740000Y-60973471D02*
X161740000Y-61105000D01*
X161740000Y-59703471D02*
X161740000Y-59846529D01*
X160922470Y-61105000D02*
X160100000Y-61105000D01*
X160922470Y-54635000D02*
X160100000Y-54635000D01*
X160100000Y-61105000D02*
X160100000Y-54635000D01*
%TO.C,C13*%
X145949664Y-56615000D02*
X146165336Y-56615000D01*
X145949664Y-57335000D02*
X146165336Y-57335000D01*
%TO.C,TP5*%
X139900000Y-57200000D02*
G75*
G02*
X138500000Y-57200000I-700000J0D01*
G01*
X138500000Y-57200000D02*
G75*
G02*
X139900000Y-57200000I700000J0D01*
G01*
%TO.C,C22*%
X134692164Y-83240000D02*
X134907836Y-83240000D01*
X134692164Y-83960000D02*
X134907836Y-83960000D01*
%TO.C,COUT5*%
X143945000Y-64008748D02*
X143945000Y-65431252D01*
X145765000Y-64008748D02*
X145765000Y-65431252D01*
%TO.C,C10*%
X142440000Y-56692164D02*
X142440000Y-56907836D01*
X143160000Y-56692164D02*
X143160000Y-56907836D01*
%TO.C,D4*%
X161497500Y-77735000D02*
X161497500Y-76265000D01*
X161497500Y-76265000D02*
X159212500Y-76265000D01*
X159212500Y-77735000D02*
X161497500Y-77735000D01*
%TO.C,FB1*%
X141837221Y-54290000D02*
X142162779Y-54290000D01*
X141837221Y-55310000D02*
X142162779Y-55310000D01*
%TO.C,R2*%
X149446359Y-56620000D02*
X149753641Y-56620000D01*
X149446359Y-57380000D02*
X149753641Y-57380000D01*
%TO.C,D1*%
X161497500Y-75935000D02*
X161497500Y-74465000D01*
X161497500Y-74465000D02*
X159212500Y-74465000D01*
X159212500Y-75935000D02*
X161497500Y-75935000D01*
%TO.C,R3*%
X162658859Y-75580000D02*
X162966141Y-75580000D01*
X162658859Y-74820000D02*
X162966141Y-74820000D01*
%TO.C,TP10*%
X163900000Y-79200000D02*
G75*
G02*
X162500000Y-79200000I-700000J0D01*
G01*
X162500000Y-79200000D02*
G75*
G02*
X163900000Y-79200000I700000J0D01*
G01*
%TO.C,R4*%
X162658859Y-73780000D02*
X162966141Y-73780000D01*
X162658859Y-73020000D02*
X162966141Y-73020000D01*
%TO.C,TP4*%
X159300000Y-52400000D02*
G75*
G02*
X157900000Y-52400000I-700000J0D01*
G01*
X157900000Y-52400000D02*
G75*
G02*
X159300000Y-52400000I700000J0D01*
G01*
%TO.C,C21*%
X132040000Y-80972164D02*
X132040000Y-81187836D01*
X132760000Y-80972164D02*
X132760000Y-81187836D01*
D14*
%TO.C,L1*%
X130155000Y-76670000D02*
X130155000Y-63170000D01*
X142755000Y-76670000D02*
X142755000Y-63170000D01*
D13*
%TO.C,COUT4*%
X146945000Y-64008748D02*
X146945000Y-65431252D01*
X148765000Y-64008748D02*
X148765000Y-65431252D01*
%TO.C,TP9*%
X140900000Y-49000000D02*
G75*
G02*
X139500000Y-49000000I-700000J0D01*
G01*
X139500000Y-49000000D02*
G75*
G02*
X140900000Y-49000000I700000J0D01*
G01*
%TO.C,Q2*%
X150681622Y-78485270D02*
X150201622Y-78485270D01*
X150441622Y-78155270D01*
X150681622Y-78485270D01*
G36*
X150681622Y-78485270D02*
G01*
X150201622Y-78485270D01*
X150441622Y-78155270D01*
X150681622Y-78485270D01*
G37*
X144250000Y-78420000D02*
X149930000Y-78420000D01*
X144250000Y-73050000D02*
X150370000Y-73050000D01*
%TO.C,Q1*%
X149255270Y-79703378D02*
X148925270Y-79463378D01*
X149255270Y-79223378D01*
X149255270Y-79703378D01*
G36*
X149255270Y-79703378D02*
G01*
X148925270Y-79463378D01*
X149255270Y-79223378D01*
X149255270Y-79703378D01*
G37*
X149190000Y-85655000D02*
X149190000Y-79975000D01*
X143820000Y-85655000D02*
X143820000Y-79535000D01*
%TO.C,CIN1*%
X151545000Y-79606252D02*
X151545000Y-78183748D01*
X153365000Y-79606252D02*
X153365000Y-78183748D01*
%TO.C,C11*%
X144040000Y-53307836D02*
X144040000Y-53092164D01*
X144760000Y-53307836D02*
X144760000Y-53092164D01*
%TO.C,U6*%
X132650000Y-46790000D02*
X136410000Y-46790000D01*
X132650000Y-53610000D02*
X136410000Y-53610000D01*
X136410000Y-46790000D02*
X136410000Y-48050000D01*
X136410000Y-53610000D02*
X136410000Y-52350000D01*
X131370000Y-46890000D02*
X131130000Y-46560000D01*
X131610000Y-46560000D01*
X131370000Y-46890000D01*
G36*
X131370000Y-46890000D02*
G01*
X131130000Y-46560000D01*
X131610000Y-46560000D01*
X131370000Y-46890000D01*
G37*
%TO.C,R7*%
X130190000Y-58435436D02*
X130190000Y-59889564D01*
X132010000Y-58435436D02*
X132010000Y-59889564D01*
%TO.C,TP8*%
X140700000Y-53200000D02*
G75*
G02*
X139300000Y-53200000I-700000J0D01*
G01*
X139300000Y-53200000D02*
G75*
G02*
X140700000Y-53200000I700000J0D01*
G01*
%TO.C,U8*%
X135400000Y-79440000D02*
X134600000Y-79440000D01*
X135400000Y-79440000D02*
X136200000Y-79440000D01*
X135400000Y-82560000D02*
X134600000Y-82560000D01*
X135400000Y-82560000D02*
X136200000Y-82560000D01*
X134100000Y-79490000D02*
X133860000Y-79160000D01*
X134340000Y-79160000D01*
X134100000Y-79490000D01*
G36*
X134100000Y-79490000D02*
G01*
X133860000Y-79160000D01*
X134340000Y-79160000D01*
X134100000Y-79490000D01*
G37*
%TO.C,D2*%
X150940000Y-68485000D02*
X150660000Y-68485000D01*
X150660000Y-68205000D01*
X150940000Y-68485000D01*
G36*
X150940000Y-68485000D02*
G01*
X150660000Y-68485000D01*
X150660000Y-68205000D01*
X150940000Y-68485000D01*
G37*
X150265000Y-72305000D02*
X150265000Y-71915000D01*
X150265000Y-68485000D02*
X150265000Y-68085000D01*
X150265000Y-68085000D02*
X144645000Y-68085000D01*
X144645000Y-72305000D02*
X150265000Y-72305000D01*
X144645000Y-72305000D02*
X144645000Y-72055000D01*
X144645000Y-68335000D02*
X144645000Y-68085000D01*
%TO.C,COUT3*%
X149945000Y-64008748D02*
X149945000Y-65431252D01*
X151765000Y-64008748D02*
X151765000Y-65431252D01*
%TO.C,C18*%
X131538748Y-54265000D02*
X132061252Y-54265000D01*
X131538748Y-55735000D02*
X132061252Y-55735000D01*
%TO.C,D3*%
X161497500Y-74135000D02*
X161497500Y-72665000D01*
X161497500Y-72665000D02*
X159212500Y-72665000D01*
X159212500Y-74135000D02*
X161497500Y-74135000D01*
%TO.C,TP15*%
X142300000Y-80500000D02*
G75*
G02*
X140900000Y-80500000I-700000J0D01*
G01*
X140900000Y-80500000D02*
G75*
G02*
X142300000Y-80500000I700000J0D01*
G01*
%TD*%
%LPC*%
D15*
%TO.C,D6*%
X140012500Y-51400000D03*
X141587500Y-51400000D03*
%TD*%
D16*
%TO.C,D5*%
X157000000Y-61287500D03*
X157000000Y-59712500D03*
%TD*%
D17*
%TO.C,TP20*%
X130200000Y-81600000D03*
%TD*%
%TO.C,TP19*%
X128500000Y-77000000D03*
%TD*%
%TO.C,TP17*%
X142100000Y-78500000D03*
%TD*%
%TO.C,TP16*%
X138500000Y-78600000D03*
%TD*%
%TO.C,TP14*%
X128400000Y-73800000D03*
%TD*%
%TO.C,TP12*%
X141200000Y-83200000D03*
%TD*%
%TO.C,TP11*%
X138800000Y-83200000D03*
%TD*%
D18*
%TO.C,J6*%
X163000000Y-43000000D03*
D19*
X163000000Y-40460000D03*
X163000000Y-37920000D03*
X160460000Y-43000000D03*
X160460000Y-40500000D03*
X160460000Y-38000000D03*
X157920000Y-43000000D03*
X157920000Y-40500000D03*
X157920000Y-38000000D03*
X155380000Y-43000000D03*
X155380000Y-40500000D03*
X155380000Y-38000000D03*
%TD*%
D18*
%TO.C,J7*%
X152000000Y-43000000D03*
D19*
X152000000Y-40460000D03*
X152000000Y-37920000D03*
X149460000Y-43000000D03*
X149460000Y-40500000D03*
X149460000Y-38000000D03*
X146920000Y-43000000D03*
X146920000Y-40500000D03*
X146920000Y-38000000D03*
X144380000Y-43000000D03*
X144380000Y-40500000D03*
X144380000Y-38000000D03*
%TD*%
D18*
%TO.C,J8*%
X141000000Y-43000000D03*
D19*
X141000000Y-40460000D03*
X141000000Y-37920000D03*
X138460000Y-43000000D03*
X138460000Y-40500000D03*
X138460000Y-38000000D03*
X135920000Y-43000000D03*
X135920000Y-40500000D03*
X135920000Y-38000000D03*
X133380000Y-43000000D03*
X133380000Y-40500000D03*
X133380000Y-38000000D03*
%TD*%
D18*
%TO.C,J9*%
X130000000Y-43000000D03*
D19*
X130000000Y-40460000D03*
X130000000Y-37920000D03*
X127460000Y-43000000D03*
X127460000Y-40500000D03*
X127460000Y-38000000D03*
X124920000Y-43000000D03*
X124920000Y-40500000D03*
X124920000Y-38000000D03*
X122380000Y-43000000D03*
X122380000Y-40500000D03*
X122380000Y-38000000D03*
%TD*%
D18*
%TO.C,J4*%
X124625000Y-50050000D03*
D20*
X122085000Y-50050000D03*
X124625000Y-52590000D03*
X122085000Y-52590000D03*
X124625000Y-55130000D03*
X122085000Y-55130000D03*
X124625000Y-57670000D03*
X122085000Y-57670000D03*
X124625000Y-60210000D03*
X122085000Y-60210000D03*
X124625000Y-62750000D03*
X122085000Y-62750000D03*
X124625000Y-65290000D03*
X122085000Y-65290000D03*
X124625000Y-67830000D03*
X122085000Y-67830000D03*
X124625000Y-70370000D03*
X122085000Y-70370000D03*
X124625000Y-72910000D03*
X122085000Y-72910000D03*
%TD*%
D21*
%TO.C,C3*%
X148120000Y-60600000D03*
X149080000Y-60600000D03*
%TD*%
D17*
%TO.C,TP7*%
X154200000Y-63400000D03*
%TD*%
D22*
%TO.C,C12*%
X145837500Y-58375000D03*
X147387500Y-58375000D03*
%TD*%
D23*
%TO.C,H1*%
X117000000Y-39000000D03*
%TD*%
D24*
%TO.C,R5*%
X154400000Y-52490000D03*
X154400000Y-53510000D03*
%TD*%
D25*
%TO.C,C19*%
X138150000Y-55000000D03*
X136250000Y-55000000D03*
%TD*%
D26*
%TO.C,C20*%
X137300000Y-60580000D03*
X137300000Y-59620000D03*
%TD*%
D27*
%TO.C,U2*%
X151862500Y-55425000D03*
X151862500Y-54775000D03*
X151862500Y-54125000D03*
X151862500Y-53475000D03*
X151862500Y-52825000D03*
X151862500Y-52175000D03*
X151862500Y-51525000D03*
X151862500Y-50875000D03*
X151862500Y-50225000D03*
X151862500Y-49575000D03*
X151862500Y-48925000D03*
X151862500Y-48275000D03*
X151862500Y-47625000D03*
X151862500Y-46975000D03*
X146137500Y-46975000D03*
X146137500Y-47625000D03*
X146137500Y-48275000D03*
X146137500Y-48925000D03*
X146137500Y-49575000D03*
X146137500Y-50225000D03*
X146137500Y-50875000D03*
X146137500Y-51525000D03*
X146137500Y-52175000D03*
X146137500Y-52825000D03*
X146137500Y-53475000D03*
X146137500Y-54125000D03*
X146137500Y-54775000D03*
X146137500Y-55425000D03*
%TD*%
D18*
%TO.C,J2*%
X161600000Y-65400000D03*
D20*
X159060000Y-65400000D03*
%TD*%
D28*
%TO.C,R9*%
X140580000Y-61000000D03*
X141600000Y-61000000D03*
%TD*%
D17*
%TO.C,TP6*%
X131800000Y-84300000D03*
%TD*%
D29*
%TO.C,U7*%
X135850000Y-58162500D03*
X134900000Y-58162500D03*
X133950000Y-58162500D03*
X133950000Y-60437500D03*
X135850000Y-60437500D03*
%TD*%
D30*
%TO.C,C9*%
X141200000Y-56320000D03*
X141200000Y-57280000D03*
%TD*%
D28*
%TO.C,R6*%
X163322500Y-77000000D03*
X162302500Y-77000000D03*
%TD*%
D31*
%TO.C,CIN2*%
X155200000Y-77420000D03*
X155200000Y-80370000D03*
%TD*%
D32*
%TO.C,R8*%
X141600000Y-59810000D03*
X140580000Y-59810000D03*
%TD*%
D17*
%TO.C,TP3*%
X157000000Y-50800000D03*
%TD*%
D18*
%TO.C,J1*%
X159000000Y-69400000D03*
D20*
X161540000Y-69400000D03*
%TD*%
D33*
%TO.C,J3*%
X161230000Y-55330000D03*
X162500000Y-55330000D03*
X161230000Y-56600000D03*
X162500000Y-56600000D03*
X161230000Y-57870000D03*
X162500000Y-57870000D03*
X161230000Y-59140000D03*
X162500000Y-59140000D03*
X161230000Y-60410000D03*
D34*
X162500000Y-60410000D03*
%TD*%
D21*
%TO.C,C13*%
X145577500Y-56975000D03*
X146537500Y-56975000D03*
%TD*%
D17*
%TO.C,TP5*%
X139200000Y-57200000D03*
%TD*%
D21*
%TO.C,C22*%
X134320000Y-83600000D03*
X135280000Y-83600000D03*
%TD*%
D35*
%TO.C,COUT5*%
X144855000Y-63245000D03*
X144855000Y-66195000D03*
%TD*%
D30*
%TO.C,C10*%
X142800000Y-56320000D03*
X142800000Y-57280000D03*
%TD*%
D36*
%TO.C,D4*%
X159225000Y-77000000D03*
X160800000Y-77000000D03*
%TD*%
D15*
%TO.C,FB1*%
X141212500Y-54800000D03*
X142787500Y-54800000D03*
%TD*%
D28*
%TO.C,R2*%
X149090000Y-57000000D03*
X150110000Y-57000000D03*
%TD*%
D36*
%TO.C,D1*%
X159225000Y-75200000D03*
X160800000Y-75200000D03*
%TD*%
D28*
%TO.C,R3*%
X163322500Y-75200000D03*
X162302500Y-75200000D03*
%TD*%
D23*
%TO.C,H4*%
X161000000Y-83000000D03*
%TD*%
D17*
%TO.C,TP10*%
X163200000Y-79200000D03*
%TD*%
D28*
%TO.C,R4*%
X163322500Y-73400000D03*
X162302500Y-73400000D03*
%TD*%
D17*
%TO.C,TP4*%
X158600000Y-52400000D03*
%TD*%
D30*
%TO.C,C21*%
X132400000Y-80600000D03*
X132400000Y-81560000D03*
%TD*%
D37*
%TO.C,L1*%
X136455000Y-75545000D03*
X136455000Y-64295000D03*
%TD*%
D35*
%TO.C,COUT4*%
X147855000Y-63245000D03*
X147855000Y-66195000D03*
%TD*%
D23*
%TO.C,H2*%
X161000000Y-49000000D03*
%TD*%
%TO.C,H3*%
X119200000Y-83000000D03*
%TD*%
D17*
%TO.C,TP9*%
X140200000Y-49000000D03*
%TD*%
D38*
%TO.C,Q2*%
X150210000Y-73830000D03*
X150210000Y-75100000D03*
X150210000Y-76370000D03*
X150210000Y-77640000D03*
D39*
X146660000Y-75735000D03*
%TD*%
D40*
%TO.C,Q1*%
X144600000Y-79695000D03*
X145870000Y-79695000D03*
X147140000Y-79695000D03*
X148410000Y-79695000D03*
D41*
X146505000Y-83245000D03*
%TD*%
D31*
%TO.C,CIN1*%
X152455000Y-80370000D03*
X152455000Y-77420000D03*
%TD*%
D26*
%TO.C,C11*%
X144400000Y-53680000D03*
X144400000Y-52720000D03*
%TD*%
D42*
%TO.C,U6*%
X131350000Y-47900000D03*
X131350000Y-50200000D03*
D43*
X137650000Y-50200000D03*
D42*
X131350000Y-52500000D03*
%TD*%
D44*
%TO.C,R7*%
X131100000Y-57700000D03*
X131100000Y-60625000D03*
%TD*%
D17*
%TO.C,TP8*%
X140000000Y-53200000D03*
%TD*%
D45*
%TO.C,U8*%
X134262500Y-80050000D03*
X134262500Y-81950000D03*
X136537500Y-81000000D03*
%TD*%
D46*
%TO.C,D2*%
X146255000Y-70195000D03*
D47*
X150605000Y-71165000D03*
X150605000Y-69225000D03*
%TD*%
D35*
%TO.C,COUT3*%
X150855000Y-63245000D03*
X150855000Y-66195000D03*
%TD*%
D48*
%TO.C,C18*%
X130850000Y-55000000D03*
X132750000Y-55000000D03*
%TD*%
D36*
%TO.C,D3*%
X159225000Y-73400000D03*
X160800000Y-73400000D03*
%TD*%
D49*
%TO.C,U5*%
X136984999Y-78950001D03*
X136385000Y-80050001D03*
X136385000Y-77850001D03*
X135785001Y-78950001D03*
%TD*%
D17*
%TO.C,TP15*%
X141600000Y-80500000D03*
%TD*%
%LPD*%
M02*
